<svg xmlns="http://www.w3.org/2000/svg" fill="none" viewBox="0 0 444 444" height="444" width="444">
<rect fill="#5AECC9" transform="translate(0 1)" height="443" width="443"></rect>
<mask height="444" width="444" y="0" x="0" maskUnits="userSpaceOnUse" style="mask-type:alpha" id="mask0_873_4905">
<path fill="#00C288" d="M443.199 0.908203H0.19873V443.908H443.199V0.908203Z"></path>
</mask>
<g mask="url(#mask0_873_4905)">
<path fill="#00877F" d="M191.024 350.973C191.024 350.216 191.583 349.596 192.325 349.473C202.746 347.79 212.831 344.355 223.206 342.335C232.204 340.59 242.044 340.047 250.04 344.531C254.753 347.17 258.601 351.432 262.726 354.975C265.136 353.475 268.127 352.588 271.356 352.588C277.103 352.588 282.068 355.396 284.425 359.466C287.126 358.41 289.735 356.98 292.222 355.541C303.76 348.838 314.847 341.37 325.398 333.199C326.921 332.013 328.482 330.765 329.392 329.067C330.44 327.1 330.502 324.774 330.945 322.586C332.965 312.624 342.537 306.426 349.806 299.318C350.625 298.514 351.428 297.688 352.201 296.839C352.599 296.403 353.234 296.28 353.769 296.548C355.468 297.39 357.465 297.726 359.569 297.336C363.234 296.647 366.18 293.701 366.846 290.029C367.473 286.563 366.149 283.372 363.793 281.352C363.249 280.885 363.028 280.151 363.28 279.485L368.062 266.539C368.414 265.59 369.723 265.521 370.182 266.424C376.111 277.993 375.209 295.806 369.057 306.9C367.871 309.043 366.478 311.055 365.025 313.029C364.527 313.703 363.655 313.947 362.867 313.672C360.403 312.807 357.656 312.54 354.81 313.106C348.299 314.407 343.279 319.908 342.606 326.519C342.002 332.518 344.863 337.889 349.431 340.888C350.005 341.263 350.28 341.952 350.158 342.625C349.737 344.867 349.454 347.124 349.309 349.397C348.85 356.949 349.783 365.083 345.888 371.563C342.751 376.782 337.051 379.873 331.427 382.191C328.895 383.232 326.324 384.165 323.722 384.999C323.011 385.229 322.246 384.931 321.848 384.303C319.147 379.965 314.342 377.08 308.863 377.08C301.748 377.08 295.78 381.946 294.066 388.527C293.874 389.246 293.216 389.759 292.474 389.736C284.616 389.544 276.812 388.19 269.551 385.221C256.275 379.796 245.38 369.291 231.707 364.952C219.656 361.119 206.442 362.481 194.399 366.337C188.951 368.082 183.687 370.316 178.537 372.811C178.094 373.025 177.742 373.407 177.604 373.882C176.051 379.23 170.32 383.201 163.487 383.201C162.378 383.201 161.299 383.094 160.266 382.903C159.853 382.826 159.424 382.88 159.049 383.079C153.969 385.81 148.536 388.389 142.805 387.968C134.634 387.371 128.099 380.738 124.19 373.537C123.662 372.818 123.761 371.824 124.396 371.204C128.061 367.63 130.204 362.504 129.76 356.888C129.109 348.571 122.644 341.684 114.38 340.529C111.488 340.123 108.711 340.422 106.178 341.263C105.26 341.569 104.265 341.057 104.051 340.116C103.584 338.111 103.209 336.091 102.911 334.071C101.281 323.068 101.473 311.805 99.1542 300.925C97.3255 292.332 94.0584 282.928 97.5857 275.116C97.9759 274.244 99.0777 273.945 99.8734 274.466C102.628 276.279 103.584 280.403 104.12 283.9C105.291 291.513 106.867 299.065 108.841 306.518C110.065 311.155 111.572 315.967 114.985 319.349C121.45 325.761 132.139 324.797 140.227 328.975C146.891 332.418 151.26 339.067 157.305 343.513C162.89 347.622 169.623 349.626 176.571 350.216C177.351 350.284 177.933 350.935 177.979 351.715C178.086 353.72 179.065 357.179 184.574 357.179C190.083 357.179 191.04 353.116 191.047 350.973H191.024Z"></path>
<path fill="#00877F" d="M297.776 204.791C297.478 204.424 297.325 203.957 297.31 203.483C297.141 198.662 296.774 193.857 296.139 189.067C294.05 173.351 288.947 157.765 279.382 145.124V145.109C278.724 144.26 277.669 143.854 276.613 144.023C275.618 144.176 274.6 144.26 273.56 144.26C267.913 144.26 262.81 141.903 259.19 138.123C258.594 137.503 257.698 137.289 256.88 137.565C254.278 138.452 251.424 138.82 248.463 138.536C239.113 137.634 231.569 130.112 230.635 120.77C230.306 117.464 230.788 114.304 231.906 111.465C232.326 110.387 231.821 109.155 230.766 108.68C219.105 103.416 206.733 100.126 193.993 100.325L175.989 100.049C172.24 99.9958 168.506 100.202 164.818 100.638C163.892 100.746 163.081 101.289 162.592 102.085C159.149 107.594 153.027 111.266 146.042 111.266C143.295 111.266 140.678 110.693 138.306 109.667C137.457 109.3 136.477 109.315 135.659 109.751C131.489 111.963 127.502 114.534 123.746 117.479C123.646 117.556 123.554 117.633 123.455 117.701C118.022 121.971 112.62 126.73 105.918 128.429L86.4986 132.714C83.8436 133.303 81.3951 134.649 79.5512 136.654C74.7537 141.873 70.4077 150.901 70.9127 156.25C72.443 172.502 83.2927 187.024 83.484 203.345C83.6447 217.064 76.1769 230.209 77.3629 243.883C77.799 248.871 79.3675 253.677 80.2627 258.604C83.4993 276.509 77.4853 294.956 68.4337 310.734L66.9264 313.159C62.7181 319.954 61.4939 328.294 64.0188 335.884C65.3349 339.833 67.5155 343.482 70.4384 346.398C71.5631 347.515 73.4836 346.551 73.1776 344.997C71.9533 338.815 73.1546 332.143 75.2358 326.09C77.8602 318.447 81.793 311.269 83.9354 303.473C89.9494 281.582 81.2192 257.479 88.1131 235.856C90.6763 227.807 95.3589 220.331 96.2082 211.922C96.7362 206.734 95.7568 201.501 96.0093 196.29C96.3689 188.952 99.154 181.944 102.475 175.379C106.913 166.602 112.422 158.277 119.514 151.468C127.036 144.244 136.164 138.896 145.613 134.481C165.637 125.123 191.774 125.185 212.364 133.701C213.412 134.137 213.389 135.629 212.333 136.05C196.265 142.477 179.019 146.035 162.729 151.881C156.524 154.107 150.395 156.663 144.772 160.106C140.219 162.899 136.041 166.296 132.346 170.145C131.81 170.696 131.144 171.101 130.395 171.293C124.694 172.739 120.471 177.896 120.471 184.055C120.471 184.606 120.509 185.142 120.57 185.67C120.67 186.45 120.547 187.238 120.226 187.95C119.461 189.61 118.772 191.309 118.16 193.031C116.836 196.78 115.865 200.766 116.4 204.707C117.066 209.55 119.928 213.774 121.626 218.357C123.348 223.002 123.853 228.159 122.598 232.949C121.32 237.846 118.267 242.23 117.602 247.249C117.043 251.481 118.321 255.918 121.045 259.201L136.37 282.048C140.915 288.774 146.776 295.178 154.55 297.52C163.648 300.259 174.046 297.022 182.646 301.055C186.831 303.013 190.091 306.495 193.985 308.989C203.412 315.034 216.626 314.437 225.471 307.574C228.187 305.462 230.605 302.531 231.225 299.234C231.431 298.155 230.437 297.229 229.381 297.527L224.545 298.912C214.866 302.157 203.993 304.337 194.682 300.152C188.622 297.428 183.916 292.271 177.849 289.554C171.949 286.907 164.612 286.417 160.549 281.383C158.98 279.439 158.116 277.021 156.608 275.032C154.076 271.696 150.059 269.928 146.738 267.365C146.111 266.883 145.315 266.669 144.527 266.745C144.121 266.784 143.708 266.806 143.295 266.806C136.011 266.806 130.112 260.907 130.112 253.623C130.112 248.726 132.782 244.464 136.745 242.192C137.457 241.778 137.916 241.044 137.939 240.225C138.268 227.493 140.311 214.807 143.999 202.618C146.057 195.823 148.697 189.052 153.234 183.596C156.31 179.901 160.159 176.932 164.015 174.055C169.202 170.183 174.528 166.396 180.488 163.871C186.571 161.292 193.144 160.106 199.701 159.341C216.128 157.436 233.451 158.27 248.149 165.845C249.565 166.579 251.003 167.406 251.929 168.706C253.658 171.132 253.176 174.46 254.033 177.322C255.319 181.607 259.489 184.377 263.682 185.938C267.875 187.499 272.389 188.233 276.345 190.314C277.63 190.988 278.885 191.845 279.65 193.076C280.89 195.066 280.637 197.621 280.102 199.902C278.74 205.663 275.809 210.973 274.616 216.773C273.858 220.438 273.805 224.188 274.08 227.975C274.134 228.702 274.669 229.283 275.381 229.429C279.229 230.217 282.129 233.622 282.129 237.708C282.129 241.044 280.201 243.921 277.393 245.298C276.789 245.596 276.414 246.216 276.475 246.89C277.056 253.194 276.819 259.308 273.973 264.947C273.437 266.003 272.802 267.036 271.869 267.763C270.361 268.941 268.273 269.133 266.398 268.765C259.405 267.403 255.801 259.89 250.889 254.732C245.341 248.902 237.109 245.78 229.09 246.27C227.605 246.362 226.947 248.175 228.042 249.177L243.283 263.172C249.098 269.125 256.252 274.106 264.401 275.782C272.55 277.457 281.777 275.33 287.256 269.071C289.911 266.034 291.563 262.246 292.742 258.39C294.899 251.32 295.596 243.898 296.185 236.529C296.705 229.941 297.149 223.323 297.333 216.704C297.348 216.23 297.493 215.756 297.792 215.381C298.955 213.935 299.651 212.098 299.651 210.093C299.651 208.089 298.939 206.237 297.769 204.783L297.776 204.791Z"></path>
<path fill="#00877F" d="M303.117 267.166C302.872 265.774 300.937 265.583 300.432 266.906C297.807 273.762 292.903 282.554 288.534 286.479C285.167 289.509 280.928 291.667 276.498 292.455C275.94 292.554 275.45 292.868 275.121 293.335C274.103 294.811 272.412 295.775 270.484 295.775C268.005 295.775 265.901 294.169 265.151 291.942C264.968 291.391 264.577 290.947 264.057 290.695C258.938 288.254 254.539 284.137 249.81 280.847C243.192 276.241 235.556 273.104 227.613 271.734C223.826 271.084 219.947 270.816 216.297 269.592C214.713 269.064 213.198 268.345 211.775 267.488C211.4 267.266 210.949 267.182 210.536 267.319C209.021 267.817 207.345 267.939 205.593 267.549C201.897 266.738 199.013 263.662 198.439 259.92C198.094 257.679 198.553 255.559 199.563 253.799C199.854 253.294 199.892 252.69 199.701 252.146C198.293 248.214 197.566 244.028 197.368 239.835C197.329 238.963 197.421 238.098 197.628 237.249C198.469 233.737 201.132 231.005 204.621 230.087C205.042 229.972 205.47 229.881 205.891 229.804C217.2 227.769 228.164 234.372 239.565 235.742C241.011 235.918 242.756 235.879 243.582 234.67C244.102 233.913 244.079 232.934 244.033 232.015L243.888 228.825C243.804 226.927 243.505 225.045 243.008 223.216L242.289 220.584C241.225 216.689 239.305 213.063 236.558 210.109C234.737 208.15 232.702 206.383 230.552 204.837C225.708 201.34 220.192 198.754 214.4 197.354C213.872 197.224 213.313 197.354 212.9 197.714C210.39 199.902 207.115 201.226 203.519 201.226C202.861 201.226 202.211 201.18 201.568 201.096C200.834 200.996 200.122 201.371 199.793 202.037C197.467 206.773 192.601 210.033 186.962 210.033C183.74 210.033 180.779 208.961 178.392 207.156C177.726 206.651 176.801 206.689 176.188 207.255C175.01 208.326 173.893 209.459 172.852 210.668C167.229 217.194 163.816 225.527 162.982 234.097C162.929 234.678 162.714 235.229 162.332 235.665C160.595 237.655 159.539 240.256 159.539 243.11C159.539 247.188 161.704 250.762 164.941 252.751C165.438 253.057 165.806 253.516 166.035 254.052C170.098 263.555 177.703 271.558 187.115 275.866L198.99 282.087C212.227 288.032 222.12 280.205 235.028 284.933C238.188 286.089 241.057 287.81 243.834 289.708C244.248 289.991 244.515 290.427 244.622 290.917C245.066 292.99 246.91 294.551 249.114 294.551C249.259 294.551 249.397 294.551 249.535 294.528C250.086 294.475 250.644 294.589 251.103 294.903C252.901 296.158 254.73 297.352 256.65 298.385C265.641 303.205 276.605 304.207 286.323 301.101C288.985 300.252 291.61 299.066 293.63 297.137C295.512 295.339 296.767 292.998 297.914 290.664C301.526 283.372 304.495 274.956 303.11 267.159L303.117 267.166Z"></path>
<path fill="#00877F" d="M215.065 39.8627C209.724 33.6114 206.205 25.9063 204.72 17.8186C204.613 17.2524 204.751 16.6556 205.103 16.1965C207.329 13.3119 208.653 9.70036 208.653 5.77513C208.653 2.53854 207.75 -0.491461 206.189 -3.07002C205.891 -3.55972 205.837 -4.15654 206.013 -4.6998V-4.7304H205.983C205.409 -4.74571 204.85 -4.9829 204.468 -5.41904C201.331 -9.03056 196.717 -11.3184 191.56 -11.3184C186.701 -11.3184 182.317 -9.28306 179.203 -6.03116C178.782 -5.59502 178.193 -5.37313 177.589 -5.38843L120.685 -6.69684C119.071 -6.7351 118 -5.00586 118.772 -3.58267C127.495 12.4932 140.739 26.0976 156.616 35.2029C165.958 40.5589 176.135 44.3617 185.393 49.8708C201.499 59.4429 214.2 73.7436 225.984 88.3121C230.88 94.3644 235.823 100.639 242.488 104.656C245.005 106.178 247.698 107.326 250.445 108.367C251.034 108.589 251.501 109.055 251.7 109.652C254.125 117.066 261.103 122.43 269.329 122.43C271.364 122.43 273.315 122.101 275.144 121.497C275.794 121.282 276.506 121.42 277.049 121.833C288.373 130.564 297.47 142.37 303.821 155.255C313.179 174.216 317.096 195.441 318.68 216.521C319.514 227.593 319.996 239.483 326.661 248.359C329.124 251.634 332.315 254.312 334.672 257.663C338.099 262.56 339.423 268.804 338.551 274.703C338.214 276.968 341.244 278.054 342.438 276.103C345.437 271.214 346.546 264.756 346.906 258.864C348.222 237.631 344.802 216.138 337.051 196.336C336.852 195.831 336.462 195.426 335.972 195.196C325.398 190.154 318.083 179.365 318.083 166.863C318.083 161.568 319.399 156.579 321.718 152.21C321.917 151.827 322.008 151.399 321.955 150.97C321.664 148.568 321.366 146.165 320.968 143.786C315.359 110.356 294.578 84.976 264.432 69.4664C264.286 69.3899 262.703 68.5405 261.302 67.7907C260.063 67.125 258.563 67.148 257.347 67.8596C254.217 69.6959 250.575 70.7518 246.681 70.7518C235.303 70.7518 226.029 61.7613 225.563 50.4983C225.54 49.932 225.31 49.3964 224.897 49.0139L215.249 40.0616C215.18 40.0004 215.119 39.9392 215.065 39.8703V39.8627Z"></path>
<path fill="#00877F" d="M160.434 63.973C143.18 55.7093 122.613 54.6381 104.594 61.0577C98.6262 63.1848 92.4516 66.146 86.254 64.8605C82.4895 64.0801 79.2376 61.8076 75.9399 59.8335C65.3198 53.4674 50.9505 50.0472 41.0572 57.4921C36.849 60.6598 34.0868 65.3579 31.7225 70.0636C30.9956 71.502 30.307 72.9558 29.6413 74.4326C29.1593 75.4961 29.9704 76.6745 31.141 76.6133C31.5083 76.5903 31.8832 76.5827 32.2505 76.5827C44.7375 76.5827 54.7685 87.0882 53.9957 99.7438C53.3147 110.816 44.1484 119.737 33.0615 120.135C29.1899 120.273 25.5402 119.408 22.3496 117.771C21.2554 117.212 19.9547 117.993 19.9929 119.225C20.0159 119.837 20.0389 120.441 20.0771 121.053C21.4391 143.602 32.2275 165.945 27.2771 187.989C23.9717 202.733 13.9177 215.312 10.773 230.095C7.08505 247.433 13.3362 265.598 10.5282 283.097C7.72012 300.566 -4.69808 316.182 -21.0874 322.847L-29.6416 376.308C-14.0175 372.742 0.688495 365.397 13.1067 355.266C13.8565 354.654 14.1932 353.675 14.0172 352.718C13.7647 351.356 13.627 349.948 13.627 348.51C13.627 335.977 23.788 325.808 36.3287 325.808H36.344C37.3463 325.808 38.2798 325.265 38.7541 324.385C50.6367 302.341 54.3247 275.935 48.7392 251.512C48.502 250.494 48.2572 249.476 47.997 248.459C47.7598 247.533 47.8669 246.538 48.3719 245.719C51.1188 241.305 51.9222 233.821 50.0476 225.887C48.2419 218.228 44.3932 212.068 40.139 209.199C39.5652 208.816 39.2132 208.173 39.1979 207.485C38.5552 187.315 43.9953 166.97 49.4049 147.313C52.2512 136.976 55.1128 126.585 59.4435 116.776C62.856 109.048 67.707 101.228 75.5114 98.0222C85.5883 93.8827 97.3408 98.6573 107.884 95.9333C117.311 93.4925 124.167 85.5579 132.606 80.7068C145.33 73.3843 162.056 73.8128 174.528 81.472C175.768 82.2371 177.26 81.0205 176.785 79.6433C174.337 72.5809 167.42 67.309 160.449 63.973H160.434Z"></path>
<path fill="#00877F" d="M28.9529 23.022C37.5301 21.3234 45.7094 23.1827 50.8664 27.3757C51.0577 27.5288 51.2873 27.6282 51.5397 27.6512C70.5305 29.3039 88.7561 36.5346 106.14 44.76C107.272 45.2956 108.405 44.0331 107.754 42.9695C101.725 33.1526 94.9996 23.4505 85.0452 17.8419C78.9394 14.3987 71.9154 12.7078 66.085 8.82079C60.6832 5.21693 56.3678 -1.36338 57.7756 -7.5152C57.9516 -8.2727 57.3625 -8.99194 56.582 -9.0149L-11.5918 -11.3333C-12.3034 -11.3563 -12.8926 -10.7901 -12.8926 -10.0708V52.4345C-12.8926 53.6816 -11.2781 54.1637 -10.5819 53.1231C-5.39422 45.3797 1.92816 39.3733 10.3141 35.1038C10.5207 34.9966 10.6813 34.8436 10.8038 34.6523C14.1398 29.1585 20.7582 24.6594 28.9605 23.0373L28.9529 23.022Z"></path>
<path fill="#00877F" d="M63.3382 418.077C63.3382 413.708 64.8685 409.706 67.4088 406.554C68.4799 405.23 69.0844 403.6 69.1227 401.901C69.1686 399.675 69.0768 397.464 68.7401 395.26C67.2175 385.451 60.9357 377.164 56.5514 368.265C52.7257 360.484 50.5145 350.766 54.0571 343.199C54.6233 341.99 53.4603 340.697 52.1748 341.072C45.0514 343.145 37.9127 346.351 35.3571 353.069C32.9316 359.466 35.7091 366.712 34.4389 373.43C33.5361 378.182 30.6897 382.291 28.578 386.644C26.4662 390.998 25.0966 396.239 27.2313 400.578C30.0547 406.309 38.3258 409.124 37.6449 415.988C37.3924 418.49 35.9156 420.701 33.8498 422.124C25.4256 427.917 14.1627 424.994 6.7103 418.643C0.0918471 412.996 -4.11641 405.084 -7.94976 397.28L-12.4411 409.912C-10.9108 423.035 -16.5882 437.175 -10.9262 449.111C-9.61011 451.881 -7.6284 454.46 -4.89686 455.845C-2.44841 457.084 0.374951 457.291 3.11415 457.421C28.6315 458.622 54.3631 455.141 78.641 447.206C75.5575 443.396 73.109 439.095 71.3492 434.527C70.9207 433.403 70.1786 432.439 69.291 431.628C65.6336 428.268 63.3382 423.448 63.3382 418.092V418.077Z"></path>
<path fill="#00877F" d="M451.684 29.8084C443.314 36.1439 434.928 42.487 427.016 49.3887C421.798 53.9413 416.725 58.823 413.183 64.7682C409.64 70.7211 407.75 77.9212 409.319 84.6698C411.53 94.173 420.298 102.506 418.164 112.024C417.215 116.255 414.231 119.676 411.782 123.256C401.376 138.468 400.29 159.548 409.081 175.738C411.606 180.398 414.973 184.736 419.487 187.506C428.256 192.878 439.411 191.424 449.565 189.786L451.677 29.8008L451.684 29.8084Z"></path>
<path fill="#00877F" d="M431.507 223.621C431.064 223.989 430.819 224.563 430.872 225.136C430.903 225.527 430.926 225.917 430.926 226.315C430.926 235.137 425.44 240.394 420.528 241.289C420.497 241.289 418.125 241.71 416.449 242C415.401 242.184 414.475 242.788 413.909 243.684C412.846 245.375 411.851 247.104 410.917 248.864C404.682 260.655 401.154 273.594 399.838 286.869C399.754 287.68 399.448 288.453 398.92 289.065C395.523 293.036 393.411 298.576 393.411 304.697C393.411 311.729 396.188 317.98 400.504 321.982C400.94 322.387 401.254 322.915 401.353 323.512C401.697 325.501 402.072 327.483 402.493 329.457C404.444 338.616 407.176 347.668 407.88 357.003C408.576 366.345 407.008 376.277 401.2 383.63C395.355 391.037 386.142 394.801 377.366 398.26C346.914 410.25 314.173 422.454 282.229 415.3C266.436 411.765 251.86 403.639 236.045 400.509C235.44 400.387 234.821 400.616 234.4 401.075C230.069 405.766 222.9 408.834 214.782 408.834C207.589 408.834 201.139 406.424 196.755 402.613C196.327 402.246 195.768 402.078 195.209 402.185C188.484 403.501 181.781 405.039 175.102 406.355C156.034 410.127 135.123 411.887 118.175 402.369C107.479 396.362 99.659 386.561 92.5049 376.476C90.0947 373.079 87.3479 369.941 84.295 367.103L81.3798 364.394C80.3469 363.43 78.7018 364.432 79.0767 365.787C82.9942 379.942 88.0135 399.538 97.8226 408.306C110.654 419.776 129.132 422.24 146.348 422.002C163.556 421.765 181.031 419.378 197.803 423.234C210.497 426.15 222.096 432.493 234.109 437.527C274.271 454.345 322.842 455.623 359.623 432.332C369.363 426.165 378.139 418.421 388.529 413.433C395.423 410.127 402.906 408.092 409.571 404.35C426.61 394.786 435.914 375.336 439.388 356.108C442.862 336.879 441.554 317.146 443 297.658C445.18 268.222 453.742 239.269 467.92 213.384C468.05 213.147 468.234 212.94 468.456 212.779L472.327 210.017C473.812 208.961 472.947 206.62 471.134 206.773C456.627 207.959 442.862 214.218 431.507 223.614V223.621Z"></path>
<path fill="#00877F" d="M415.164 28.6224C423.642 11.988 429.189 -6.94185 426.014 -25.3438L374.566 -15.8482C379.057 -7.63048 377.971 2.45422 375.82 11.5672C375.79 11.7126 375.752 11.8503 375.713 11.988C375.591 12.4701 375.668 12.9751 375.905 13.4112C378.231 17.6731 379.562 22.5624 379.562 27.7578C379.562 41.7907 369.914 53.5664 356.891 56.8336C356.44 56.9483 356.042 57.2314 355.804 57.637C353.631 61.3403 351.497 65.0666 349.553 68.9C332.705 102.215 332.261 143.357 348.39 177.031C351.443 183.397 355.039 189.496 357.985 195.915C365.698 212.741 368.705 231.686 366.631 250.08C366.478 251.435 367.978 252.353 369.118 251.595C378.521 245.321 387.887 238.067 391.307 227.439C395.408 214.715 389.754 201.111 384.26 188.922C378.629 176.412 372.989 163.519 369.929 150.236C369.776 149.585 370.074 148.904 370.656 148.568C375.591 145.767 378.919 140.48 378.919 134.397C378.919 127.993 375.216 122.461 369.845 119.79C369.087 119.415 368.651 118.604 368.797 117.778C371.413 103.11 378.055 89.1612 385.752 76.2684C395.332 60.2385 406.679 45.2568 415.149 28.6148L415.164 28.6224Z"></path>
<path fill="#00877F" d="M286.835 33.2665C287.18 35.8451 287.05 38.3777 286.537 40.7574C286.353 41.5837 286.506 42.4483 286.942 43.1752V43.1905C294.885 56.2976 301.572 70.2693 310.103 82.9402C310.891 84.1109 312.712 83.713 312.942 82.3204C315.008 69.5194 317.372 56.6725 322.521 44.9657C325.1 39.1046 328.359 33.5802 330.655 27.5814C331.856 24.4443 332.744 21.1542 333.31 17.7798C333.44 17.007 333.784 16.2955 334.312 15.7216C335.207 14.7422 335.972 13.6098 336.554 12.332C339.102 6.74636 337.365 0.303776 332.721 -3.31539C330.678 -12.1146 326.324 -20.1793 319.583 -25.8721L222.372 -1.62441C233.153 -0.224178 244.003 2.15545 253.666 7.51151C257.408 9.58507 259.734 11.651 263.996 14.8034C264.386 15.0942 264.876 15.2166 265.358 15.1783C286.866 13.2655 286.843 33.2665 286.843 33.2665H286.835Z"></path>
<path fill="#00877F" d="M361.26 284.191C360.403 283.304 358.972 283.388 358.069 284.382C357.404 285.117 357.212 286.135 357.495 286.976C357.243 287.152 356.998 287.359 356.776 287.604C355.284 289.249 355.223 291.766 356.638 293.235C358.054 294.704 360.411 294.559 361.903 292.922C363.395 291.276 363.456 288.759 362.04 287.29C361.91 287.152 361.765 287.037 361.619 286.923C362.048 285.997 361.941 284.895 361.26 284.191Z"></path>
<path fill="#00877F" d="M329.683 175.294C331.55 175.784 333.531 174.391 334.113 172.18C334.541 170.558 334.082 168.951 333.08 168.01C333.317 167.535 333.516 167.03 333.654 166.487C334.61 162.845 332.896 159.233 329.82 158.422C326.745 157.611 323.478 159.914 322.521 163.557C321.565 167.199 323.279 170.81 326.354 171.621C326.638 171.698 326.928 171.736 327.219 171.759C327.265 173.442 328.214 174.904 329.69 175.294H329.683Z"></path>
<path fill="#00877F" d="M240.276 112.024C238.402 111.588 236.458 113.034 235.93 115.26C235.548 116.898 236.045 118.489 237.078 119.4C236.856 119.882 236.672 120.395 236.542 120.938C235.685 124.611 237.499 128.169 240.59 128.895C243.681 129.622 246.887 127.235 247.744 123.562C248.601 119.89 246.788 116.332 243.696 115.605C243.406 115.536 243.123 115.505 242.832 115.49C242.74 113.807 241.753 112.376 240.269 112.024H240.276Z"></path>
<path fill="#00877F" d="M146.937 106.519C149.302 106.162 150.964 104.176 150.648 102.082C150.332 99.9888 148.159 98.581 145.794 98.9379C143.429 99.2947 141.768 101.281 142.083 103.374C142.399 105.468 144.572 106.876 146.937 106.519Z"></path>
<path fill="#00877F" d="M277.898 33.8864C275.817 37.5821 270.935 38.7834 266.995 36.5645C263.062 34.3455 261.555 29.5557 263.644 25.8524C263.804 25.5616 263.996 25.2785 264.194 25.0183C263.299 23.8247 263.131 22.2102 263.881 20.8789C264.914 19.0502 267.293 18.4533 269.206 19.5245C270.239 20.1061 270.92 21.0549 271.172 22.1031C272.32 22.2026 273.46 22.5545 274.547 23.1667C278.487 25.3856 279.995 30.1831 277.906 33.8788L277.898 33.8864Z"></path>
<path fill="#00877F" d="M136.218 248.405C138.613 246.147 142.5 246.392 144.902 248.948C147.297 251.496 147.305 255.39 144.902 257.64C144.711 257.816 144.512 257.984 144.305 258.13C144.688 259.216 144.443 260.448 143.586 261.259C142.4 262.376 140.503 262.269 139.332 261.03C138.704 260.364 138.421 259.499 138.475 258.673C137.649 258.329 136.883 257.808 136.225 257.104C133.823 254.549 133.815 250.662 136.21 248.405H136.218Z"></path>
<path fill="#00877F" d="M208.648 263.986C210.518 262.715 210.812 259.888 209.305 257.673C207.798 255.457 205.062 254.692 203.192 255.964C201.323 257.235 201.029 260.062 202.535 262.277C204.042 264.492 206.779 265.257 208.648 263.986Z"></path>
<path fill="#00877F" d="M278.055 241.659C279.924 240.387 280.218 237.561 278.712 235.346C277.205 233.13 274.468 232.365 272.599 233.636C270.729 234.908 270.435 237.734 271.942 239.95C273.449 242.165 276.185 242.93 278.055 241.659Z"></path>
<path fill="#00877F" d="M270.953 293.459C271.785 292.894 271.916 291.636 271.246 290.651C270.576 289.666 269.358 289.325 268.527 289.891C267.695 290.457 267.564 291.714 268.234 292.699C268.904 293.685 270.122 294.025 270.953 293.459Z"></path>
<path fill="#00877F" d="M268.714 232.113C269.633 231.488 269.777 230.098 269.036 229.007C268.294 227.917 266.948 227.54 266.029 228.165C265.11 228.79 264.967 230.181 265.708 231.271C266.449 232.361 267.795 232.738 268.714 232.113Z"></path>
<path fill="#00877F" d="M329.999 184.913C330.918 184.288 331.062 182.898 330.321 181.807C329.579 180.717 328.233 180.34 327.314 180.965C326.395 181.59 326.251 182.98 326.993 184.071C327.734 185.161 329.08 185.538 329.999 184.913Z"></path>
<path fill="#00877F" d="M252.949 133.954C253.868 133.329 254.012 131.939 253.27 130.848C252.529 129.758 251.183 129.381 250.264 130.006C249.345 130.631 249.201 132.021 249.942 133.112C250.684 134.202 252.03 134.579 252.949 133.954Z"></path>
<path fill="#00877F" d="M32.7961 345.422C35.8941 344.715 37.727 341.169 36.8899 337.503C36.0529 333.836 32.8628 331.437 29.7648 332.144C26.6667 332.851 24.8338 336.397 25.6709 340.064C26.508 343.73 29.698 346.13 32.7961 345.422Z"></path>
<path fill="#00877F" d="M25.4055 347.741C25.7123 345.916 24.711 344.226 23.1691 343.967C21.6272 343.707 20.1285 344.977 19.8218 346.802C19.515 348.628 20.5163 350.317 22.0582 350.577C23.6001 350.836 25.0988 349.566 25.4055 347.741Z"></path>
<path fill="#00877F" d="M186.816 353.276C187.18 352.226 186.465 351.025 185.219 350.593C183.973 350.161 182.668 350.663 182.305 351.713C181.941 352.763 182.656 353.964 183.901 354.396C185.147 354.827 186.452 354.326 186.816 353.276Z"></path>
<path fill="#00877F" d="M220.744 398.127C222.041 397.117 222.18 395.127 221.055 393.684C219.93 392.241 217.967 391.891 216.67 392.901C215.374 393.912 215.235 395.901 216.36 397.344C217.485 398.787 219.448 399.138 220.744 398.127Z"></path>
<path fill="#00877F" d="M227.145 399.602C227.817 398.659 227.69 397.416 226.861 396.824C226.032 396.233 224.815 396.518 224.142 397.46C223.47 398.403 223.597 399.646 224.426 400.238C225.255 400.829 226.472 400.544 227.145 399.602Z"></path>
<path fill="#00877F" d="M409.5 114.471C411.594 113.618 412.471 110.914 411.46 108.434C410.448 105.953 407.931 104.633 405.838 105.487C403.744 106.34 402.867 109.043 403.878 111.524C404.89 114.005 407.407 115.325 409.5 114.471Z"></path>
<path fill="#00877F" d="M409.243 104.187C410.056 103.855 410.398 102.806 410.006 101.843C409.613 100.88 408.635 100.369 407.821 100.701C407.007 101.033 406.666 102.082 407.058 103.045C407.451 104.007 408.429 104.519 409.243 104.187Z"></path>
<path fill="#00877F" d="M155.071 99.5748C156.102 99.5748 156.938 98.7389 156.938 97.7078C156.938 96.6767 156.102 95.8408 155.071 95.8408C154.04 95.8408 153.204 96.6767 153.204 97.7078C153.204 98.7389 154.04 99.5748 155.071 99.5748Z"></path>
<path fill="#00877F" d="M300.301 337.418C302.378 337.104 303.836 335.36 303.559 333.521C303.281 331.683 301.373 330.446 299.296 330.76C297.22 331.073 295.761 332.818 296.038 334.656C296.316 336.495 298.224 337.731 300.301 337.418Z"></path>
<path fill="#00877F" d="M295.603 340.842C296.508 340.842 297.241 340.109 297.241 339.205C297.241 338.3 296.508 337.567 295.603 337.567C294.699 337.567 293.966 338.3 293.966 339.205C293.966 340.109 294.699 340.842 295.603 340.842Z"></path>
<path fill="#00877F" d="M212.448 405.076C217.202 405.076 221.056 402.771 221.056 399.927C221.056 397.083 217.202 394.777 212.448 394.777C207.694 394.777 203.84 397.083 203.84 399.927C203.84 402.771 207.694 405.076 212.448 405.076Z"></path>
<path fill="#00877F" d="M354.847 336.052C356.385 335.264 357.07 333.53 356.378 332.18C355.686 330.83 353.878 330.375 352.34 331.164C350.802 331.952 350.116 333.686 350.809 335.036C351.501 336.386 353.309 336.841 354.847 336.052Z"></path>
<path fill="#00877F" d="M348.073 330.693C349.002 330.217 349.416 329.169 348.997 328.353C348.579 327.537 347.487 327.262 346.558 327.738C345.629 328.214 345.215 329.262 345.634 330.078C346.052 330.894 347.144 331.169 348.073 330.693Z"></path>
<path fill="#00877F" d="M355.952 328.76C359.619 328.318 362.277 325.348 361.889 322.126C361.501 318.904 358.213 316.65 354.547 317.092C350.88 317.533 348.222 320.504 348.61 323.726C348.998 326.948 352.286 329.202 355.952 328.76Z"></path>
<path fill="#00877F" d="M259.588 336.144C264.072 337.56 266.674 338.187 268.793 337.384C269.199 337.231 269.65 337.223 270.071 337.338C276.131 339.006 282.611 339.166 288.756 337.82C289.406 337.674 289.911 337.169 290.087 336.527C291.434 331.737 295.818 328.225 301.036 328.225C302.375 328.225 303.653 328.462 304.839 328.883C305.382 329.074 305.994 328.967 306.438 328.592C308.397 326.909 310.264 325.111 312.046 323.259C316.675 318.446 320.8 313.167 324.388 307.535C327.349 302.875 330.165 297.565 329.637 292.025C320.769 299.853 311.297 307.252 300.386 311.82C296.277 313.541 291.938 314.819 287.524 315.539C287.08 315.607 286.682 315.845 286.422 316.204C285.351 317.673 283.629 318.622 281.67 318.622C279.918 318.622 278.342 317.849 277.271 316.633C276.972 316.296 276.559 316.097 276.108 316.059C272.596 315.776 269.122 315.072 265.786 313.848C263.185 312.899 260.683 311.652 257.989 311.024C253.161 309.899 248.104 310.909 243.674 313.212C240.628 314.796 238.027 317.168 236.305 320.129C235.823 320.963 235.28 321.759 234.668 322.501C234.545 322.654 234.423 322.807 234.301 322.96C233.65 323.794 234.301 325.019 235.356 324.912C240.827 324.368 246.443 325.34 251.409 327.697C251.799 327.88 252.09 328.209 252.235 328.615C252.817 330.214 254.791 334.499 259.588 336.136V336.144Z"></path>
<path fill="#00877F" d="M367.113 360.155C374.405 349.81 374.068 336.206 376.211 326.481C376.456 325.386 377.756 324.935 378.621 325.654C384.191 330.314 387.619 337.361 388.522 344.607C389.524 352.618 387.65 360.805 384.207 368.112C381.322 374.234 377.259 379.911 371.819 383.936C366.914 387.555 360.816 389.728 354.756 389.445C353.754 389.399 353.104 388.358 353.471 387.425L356.195 380.485C356.195 380.485 359.255 371.326 367.121 360.163L367.113 360.155Z"></path>
<path fill="#00877F" d="M281.418 39.9693C282.846 39.9693 284.004 38.8114 284.004 37.3831C284.004 35.9548 282.846 34.7969 281.418 34.7969C279.99 34.7969 278.832 35.9548 278.832 37.3831C278.832 38.8114 279.99 39.9693 281.418 39.9693Z"></path>
<path fill="#00877F" d="M47.3012 206.545C48.5185 206.062 48.9649 204.31 48.2983 202.633C47.6318 200.956 46.1046 199.989 44.8872 200.473C43.6699 200.957 43.2235 202.709 43.8901 204.386C44.5566 206.062 46.0838 207.029 47.3012 206.545Z"></path>
<path fill="#ADFAE1" d="M246.677 243.978C245.916 241.732 243.154 240.642 240.486 241.544C238.532 242.202 237.189 243.752 236.916 245.424C236.268 245.5 235.62 245.64 234.962 245.866C230.575 247.341 228.038 251.541 229.288 255.242C230.537 258.944 235.103 260.738 239.481 259.263C243.868 257.788 246.405 253.589 245.155 249.887C245.043 249.539 244.883 249.22 244.714 248.91C246.414 247.726 247.269 245.772 246.668 243.996L246.677 243.978Z"></path>
<path fill="#ADFAE1" d="M260.507 248.468C262.592 247.552 263.745 245.585 263.082 244.074C262.418 242.563 260.19 242.081 258.104 242.997C256.019 243.913 254.866 245.88 255.529 247.391C256.193 248.901 258.421 249.384 260.507 248.468Z"></path>
<path fill="#ADFAE1" d="M356.126 390.924C356.634 392.699 355.506 394.569 353.618 395.104C351.73 395.64 349.794 394.644 349.296 392.868C349.259 392.728 349.231 392.587 349.212 392.446C348.573 392.361 348.019 391.92 347.84 391.281C347.586 390.407 348.131 389.486 349.052 389.223C349.55 389.082 350.048 389.167 350.442 389.402C350.828 389.082 351.279 388.838 351.795 388.688C353.684 388.152 355.619 389.148 356.126 390.924Z"></path>
<path fill="#ADFAE1" d="M340.031 171.958C341.558 169.64 340.569 166.294 337.822 164.485C335.074 162.675 331.61 163.088 330.083 165.406C328.556 167.724 329.545 171.07 332.292 172.88C335.04 174.689 338.504 174.277 340.031 171.958Z"></path>
<path fill="#ADFAE1" d="M157.399 436.471C155.511 435.043 152.608 435.7 150.917 437.936C149.667 439.581 149.432 441.619 150.137 443.151C149.648 443.583 149.188 444.062 148.775 444.607C145.984 448.299 146.238 453.194 149.348 455.552C152.457 457.91 157.249 456.83 160.039 453.137C162.829 449.445 162.576 444.551 159.466 442.192C159.175 441.976 158.865 441.798 158.555 441.629C159.287 439.693 158.902 437.598 157.408 436.461L157.399 436.471Z"></path>
<path fill="#ADFAE1" d="M145.513 438.063C147.04 435.745 146.051 432.398 143.303 430.589C140.556 428.78 137.091 429.192 135.564 431.51C134.038 433.829 135.027 437.175 137.774 438.984C140.521 440.794 143.986 440.381 145.513 438.063Z"></path>
<path fill="#ADFAE1" d="M141.839 447.875C142.968 447.108 143.144 445.4 142.234 444.062C141.324 442.723 139.671 442.26 138.543 443.027C137.414 443.795 137.238 445.502 138.148 446.841C139.058 448.179 140.711 448.642 141.839 447.875Z"></path>
<path fill="#ADFAE1" d="M61.9387 133.983C62.2487 131.099 59.7309 128.459 56.3112 128.092C53.8028 127.82 51.5105 128.853 50.3456 130.563C49.5846 130.319 48.786 130.14 47.9499 130.046C42.3131 129.436 37.3338 132.79 36.8171 137.543C36.3004 142.297 40.4529 146.638 46.0898 147.248C51.7266 147.859 56.7058 144.505 57.2225 139.751C57.2695 139.31 57.2695 138.868 57.2319 138.436C59.7309 137.994 61.6851 136.256 61.9387 133.973V133.983Z"></path>
<path fill="#ADFAE1" d="M59.2114 115.481C59.3814 111.458 56.7624 108.08 53.3617 107.936C49.9611 107.793 47.0665 110.937 46.8965 114.96C46.7264 118.983 49.3454 122.361 52.7461 122.504C56.1468 122.648 59.0414 119.503 59.2114 115.481Z"></path>
<path fill="#ADFAE1" d="M44.4452 122.844C45.2775 121.045 44.7192 119.017 43.1982 118.313C41.6772 117.609 39.7695 118.497 38.9372 120.296C38.1049 122.094 38.6632 124.123 40.1842 124.827C41.7051 125.531 43.6129 124.643 44.4452 122.844Z"></path>
<path fill="#ADFAE1" d="M341.353 178.191C341.946 177.289 341.563 175.99 340.497 175.288C339.431 174.585 338.086 174.747 337.492 175.648C336.899 176.55 337.282 177.849 338.348 178.552C339.414 179.254 340.759 179.092 341.353 178.191Z"></path>
<path fill="#ADFAE1" d="M44.271 48.4772C48.5171 47.4492 51.4297 44.4286 50.7765 41.7306C50.1233 39.0326 46.1517 37.6789 41.9056 38.7069C37.6594 39.735 34.7468 42.7555 35.4 45.4535C36.0532 48.1515 40.0249 49.5053 44.271 48.4772Z"></path>
<path fill="#ADFAE1" d="M55.1438 47.2856C56.7928 46.8863 57.9237 45.7124 57.6698 44.6634C57.4158 43.6145 55.8731 43.0878 54.2241 43.487C52.5751 43.8863 51.4442 45.0603 51.6981 46.1092C51.9521 47.1582 53.4947 47.6848 55.1438 47.2856Z"></path>
<path fill="#ADFAE1" d="M458.172 39.8732C457.026 40.0424 456.011 40.5215 455.184 41.2073C455.006 41.0758 454.837 40.9443 454.639 40.8221C449.651 37.7124 442.548 40.0987 438.772 46.1584C435.004 52.2088 435.991 59.6402 440.979 62.7499C445.968 65.8596 453.071 63.4733 456.847 57.4136C457.899 55.7225 458.566 53.9186 458.895 52.1336C459.262 52.143 459.637 52.1336 460.013 52.0678C463.386 51.5605 465.706 48.4132 465.199 45.0498C464.692 41.6865 461.545 39.3565 458.181 39.8638L458.172 39.8732Z"></path>
<path fill="#ADFAE1" d="M296.931 76.7939C299.074 76.275 300.332 73.8757 299.741 71.4349C299.151 68.9941 296.934 67.4361 294.791 67.955C292.648 68.4739 291.389 70.8732 291.98 73.314C292.571 75.7548 294.788 77.3128 296.931 76.7939Z"></path>
<path fill="#ADFAE1" d="M304.859 67.655C306.155 67.3413 306.917 65.8931 306.56 64.4206C306.204 62.9481 304.864 62.0087 303.568 62.3225C302.272 62.6363 301.51 64.0844 301.867 65.5569C302.223 67.0295 303.563 67.9688 304.859 67.655Z"></path>
<path fill="#ADFAE1" d="M318.965 79.4064C319.59 74.0673 316.298 69.2951 311.614 68.7472C306.929 68.1994 302.625 72.0835 302.001 77.4226C301.377 82.7616 304.668 87.5339 309.353 88.0818C314.037 88.6296 318.341 84.7455 318.965 79.4064Z"></path>
<path fill="#ADFAE1" d="M104.007 342.915C104.809 340.85 104.243 338.704 102.743 338.122C101.244 337.54 99.3784 338.742 98.5768 340.808C97.7753 342.873 98.3411 345.02 99.8406 345.602C101.34 346.183 103.205 344.981 104.007 342.915Z"></path>
<path fill="#ADFAE1" d="M100.984 336.575C102.068 336.575 102.947 335.695 102.947 334.611C102.947 333.527 102.068 332.647 100.984 332.647C99.8991 332.647 99.02 333.527 99.02 334.611C99.02 335.695 99.8991 336.575 100.984 336.575Z"></path>
</g>
</svg>
