<svg xmlns="http://www.w3.org/2000/svg" fill="none" viewBox="0 0 60 60" height="60" width="60">
<path fill="#231F20" d="M46.3243 48.5192C45.2265 48.5192 44.3154 47.7278 43.7525 47.2386C43.6592 47.1576 43.5752 47.0859 43.5068 47.0299C42.9004 46.5531 41.6813 45.7493 40.4156 44.9859C40.2539 45.0887 40.0984 45.1261 39.9833 45.1417C39.2867 45.2258 38.1734 45.2975 36.8859 45.3816C34.6033 45.528 31.7609 45.7119 29.951 46.0453C28.4489 46.3226 23.1497 46.9862 18.0402 43.8954C16.703 43.0852 15.5306 41.9012 14.5572 40.3745C14.4888 40.3963 14.4235 40.4181 14.3551 40.443C14.0907 40.5365 13.8264 40.6393 13.562 40.739C11.948 41.3529 10.278 41.9885 9.41972 40.7671C8.34993 39.2434 9.59388 36.5389 10.1785 35.4484C10.7943 34.2986 11.5033 33.5758 12.0849 33.1271C12.0662 32.8872 12.0569 32.6597 12.0569 32.4479C12.0569 30.0798 12.7753 26.2941 14.1094 23.6706C11.4753 19.2742 11.9232 17.8877 12.5047 17.2271C13.6647 15.906 16.2552 15.8312 20.6587 16.9903C20.9448 17.0651 21.234 17.1523 21.5202 17.2551C23.2275 16.5852 25.0281 16.2737 26.8784 16.3329C28.5546 16.3858 30.234 16.9155 31.8791 17.9095C32.4388 17.3985 33.0359 16.9498 33.661 16.5728C37.3369 14.3574 39.7034 13.7405 41.1091 14.6316C41.7435 15.0336 42.4619 16.0088 41.6533 19.7603C43.625 20.2588 45.6402 22.0223 46.6851 24.2564C47.901 26.8519 47.7082 29.6872 46.3181 31.3324C47.8668 32.5413 49.6363 34.6507 50.0593 38.1249C50.5257 41.9511 50.0935 44.6837 48.6598 46.9831C48.1063 47.8711 47.4345 48.379 46.6633 48.4943C46.5482 48.513 46.4363 48.5192 46.3243 48.5192ZM40.2321 43.1974C40.369 43.1974 40.5027 43.2317 40.624 43.3033C42.1354 44.1882 43.7152 45.2196 44.4646 45.8085C44.5517 45.877 44.6543 45.9674 44.7694 46.064C45.1892 46.4285 45.8921 47.0392 46.4363 46.9551C46.7379 46.9083 47.0458 46.6404 47.3475 46.1574C48.5821 44.1789 48.9428 41.7579 48.523 38.3087C48.1343 35.115 46.4238 33.2891 45.0555 32.317C44.9156 32.2173 44.7756 32.1113 44.6326 31.9992C44.4366 31.8465 44.3278 31.6097 44.334 31.3636C44.3402 31.1174 44.4677 30.8868 44.6699 30.7466C46.0911 29.7745 46.3616 27.2102 45.2856 24.9076C44.3247 22.8543 42.3437 21.2434 40.6768 21.1655C40.4467 21.153 40.2321 21.0409 40.0922 20.8539C39.9553 20.667 39.9056 20.4302 39.9616 20.2027C40.7266 17.1212 40.4405 16.0618 40.2819 15.934C39.9056 15.6972 38.5808 15.4106 34.4602 17.8939C33.7761 18.3083 33.1261 18.8224 32.529 19.4269C32.2678 19.6917 31.8573 19.7322 31.5494 19.5266C29.9821 18.4797 28.3929 17.9219 26.8318 17.8721C25.1058 17.8191 23.4234 18.1245 21.8374 18.7881C21.6539 18.8629 21.4517 18.8691 21.2651 18.7975C20.9324 18.6728 20.5965 18.5638 20.2669 18.4765C15.2756 17.1648 13.9881 17.8721 13.6678 18.2397C13.5341 18.3924 13.4812 19.6824 15.6612 23.225C15.8105 23.465 15.8136 23.7672 15.6767 24.0133C14.3799 26.3222 13.6056 30.1079 13.6056 32.4354C13.6056 32.7189 13.6274 33.043 13.6678 33.3982C13.702 33.6942 13.5652 33.9871 13.3101 34.146C12.9245 34.389 12.1782 34.9748 11.5406 36.1681C10.5704 37.9784 10.3744 39.421 10.6823 39.8604C10.9498 40.0598 12.3399 39.5301 13.0085 39.2746C13.2822 39.1718 13.5589 39.0658 13.8326 38.9661C14.1187 38.8633 14.4079 38.7761 14.722 38.7013C15.0548 38.6172 15.4031 38.7667 15.5772 39.0627C16.4791 40.6144 17.5769 41.7891 18.8395 42.5524C23.4825 45.3598 28.3027 44.7553 29.668 44.5029C31.5681 44.1509 34.4602 43.9639 36.7833 43.8143C37.8935 43.7427 38.8731 43.6804 39.5355 43.6118C39.6226 43.4373 39.775 43.3002 39.9585 43.2317C40.0455 43.2005 40.1357 43.1849 40.2259 43.1849L40.2321 43.1974Z"></path>
<path fill="white" d="M39.1903 25.8205C38.3631 26.7054 35.956 26.5745 33.7387 25.7426C31.5214 24.9107 29.6617 23.2811 29.8172 22.2965C29.9727 21.3119 31.5027 18.785 34.0622 17.2396C36.6216 15.6941 39.3644 14.4447 40.6986 15.2891C42.0327 16.1334 40.5306 21.125 40.3098 21.8821C40.089 22.6393 40.0206 24.9356 39.1934 25.8205H39.1903Z"></path>
<path fill="#231F20" d="M37.172 26.8799C36.0276 26.8799 34.709 26.5901 33.577 26.1664C31.3815 25.3438 29.1486 23.602 29.3663 22.2249C29.5591 21.0128 31.2571 18.3986 33.8258 16.8501C37.3337 14.7344 39.663 14.0957 40.938 14.9058C41.9985 15.5757 41.9363 17.95 40.7546 21.96L40.739 22.0099C40.683 22.1937 40.6333 22.5364 40.5804 22.8979C40.4218 23.951 40.2072 25.3936 39.52 26.129C39.0224 26.6618 38.161 26.8799 37.172 26.8799ZM39.6039 15.4667C38.671 15.4667 37.0601 15.959 34.2923 17.629C31.9101 19.0654 30.4019 21.4771 30.2619 22.3682C30.1655 22.9727 31.6489 24.4776 33.8942 25.3189C36.0307 26.1196 38.2107 26.2038 38.8576 25.512C39.352 24.9792 39.5542 23.6488 39.6848 22.7639C39.747 22.3526 39.7998 21.9974 39.8714 21.7544L39.8869 21.7045C41.1371 17.4514 40.8323 15.9122 40.4529 15.6723C40.2632 15.5508 39.9895 15.4667 39.6039 15.4667Z"></path>
<path fill="white" d="M45.9854 24.5867C47.3506 27.5031 46.7659 30.6594 44.6823 31.6377C42.5987 32.6161 39.7035 31.7998 37.9962 28.1449C36.634 25.2285 37.2964 21.6204 39.38 20.642C41.4636 19.6637 44.6201 21.6703 45.9854 24.5867Z"></path>
<path fill="#231F20" d="M42.975 32.2952C42.3437 32.2952 41.7062 32.1581 41.0873 31.8808C39.7221 31.267 38.5684 30.0175 37.7505 28.2633C36.3168 25.1942 37.0383 21.4459 39.265 20.399C41.4325 19.3801 44.757 21.3213 46.231 24.4745C47.6553 27.5217 47.0147 30.8463 44.7974 31.887C44.2158 32.1581 43.6001 32.2952 42.9719 32.2952H42.975ZM40.5462 20.6701C40.173 20.6701 39.8185 20.7417 39.4982 20.8913C37.5639 21.8011 36.9543 25.269 38.2449 28.0327C39.0068 29.6654 40.0673 30.8245 41.3112 31.3854C42.3904 31.8714 43.5503 31.8745 44.5704 31.3947C46.514 30.4818 47.0396 27.4812 45.7428 24.7051C44.6388 22.3464 42.3655 20.6701 40.5462 20.6701Z"></path>
<path fill="#231F20" d="M45.1488 27.7991C45.5997 29.6436 45.3447 31.1704 44.1692 31.3667C42.9937 31.563 42.0203 30.2263 41.5476 28.3879C41.0873 26.5932 41.2895 24.9855 42.5334 24.6895C43.7774 24.3935 44.6979 25.9545 45.1488 27.7991Z"></path>
<path fill="white" d="M42.3483 28.7434C43.1928 28.5781 43.7397 27.7377 43.5698 26.8662C43.4 25.9947 42.5777 25.4222 41.7331 25.5875C40.8886 25.7527 40.3417 26.5931 40.5115 27.4646C40.6814 28.3361 41.5037 28.9086 42.3483 28.7434Z"></path>
<path fill="white" d="M15.7141 22.577C18.2548 19.4206 22.0799 16.956 26.8567 17.1087C31.6303 17.2614 35.0698 21.5394 36.7398 23.3621C38.4098 25.1849 41.7093 44.154 39.8963 44.3721C38.0024 44.5995 32.697 44.7522 29.8141 45.2819C26.9344 45.8147 22.4624 45.662 18.4445 43.2317C14.4266 40.8014 12.8344 35.1056 12.8344 32.4479C12.8344 29.7901 13.8202 24.9294 15.7141 22.577Z"></path>
<path fill="#231F20" d="M26.9407 45.9798C24.6114 45.9798 21.3741 45.5343 18.2082 43.6181C14.2338 41.2126 12.3804 35.5294 12.3804 32.4447C12.3804 29.843 13.3289 24.8141 15.3596 22.2872C18.3979 18.5139 22.4812 16.5105 26.8692 16.6507C31.4624 16.7971 34.8335 20.561 36.6465 22.5832C36.7989 22.7514 36.9389 22.9103 37.0695 23.0537C38.811 24.9574 41.6192 41.5273 40.6458 44.1602C40.4623 44.6587 40.1638 44.7927 39.943 44.8208C39.2557 44.9049 38.1455 44.9734 36.8611 45.0576C34.5692 45.204 31.7174 45.3909 29.8888 45.7275C29.3446 45.8272 28.2966 45.9798 26.9376 45.9798H26.9407ZM16.0655 22.8605C14.2525 25.1132 13.2853 29.8773 13.2853 32.4479C13.2853 34.6819 14.6412 40.4025 18.6747 42.8422C23.4141 45.7088 28.3339 45.0918 29.7271 44.8332C31.6086 44.4874 34.4883 44.3004 36.8051 44.1509C38.0304 44.073 39.0971 44.0044 39.7626 43.9265C40.0736 43.4342 40.1513 40.3838 39.0753 33.9684C38.2108 28.821 37.0633 24.3904 36.3978 23.6675C36.2671 23.5242 36.121 23.3621 35.9686 23.1908C34.2457 21.2683 31.0426 17.6945 26.835 17.5605C21.315 17.3798 17.7138 20.8041 16.0593 22.8605H16.0655Z"></path>
<path fill="white" d="M25.5662 30.0424C25.6159 31.0551 25.9704 35.4608 26.6764 36.8785C27.3823 38.2962 28.7973 39.4615 30.2123 40.2187C31.6273 40.9789 34.8118 41.7891 36.3262 42.0913C37.8407 42.3935 42.5708 45.3068 43.9827 46.4192C44.7011 46.9831 46.483 49.0022 48.0006 46.5718C49.5151 44.1415 49.6675 41.331 49.2881 38.2183C48.9087 35.1056 47.3165 32.9775 45.4972 31.6876C43.6779 30.3976 41.7063 28.0421 40.3442 26.2972C38.979 24.5493 39.3584 23.0319 37.6915 21.2091"></path>
<path fill="#231F20" d="M25.675 30.0393C25.7714 31.3168 25.9238 32.5943 26.1259 33.8562C26.2285 34.4887 26.3498 35.115 26.5084 35.7288C26.6639 36.3489 26.8878 36.9004 27.2703 37.3989C28.0011 38.3959 29.0181 39.1749 30.1065 39.7669C30.6476 40.0629 31.2198 40.2748 31.8231 40.4711C32.4233 40.6674 33.036 40.8325 33.6486 40.9945C34.2613 41.1597 34.8801 41.3092 35.499 41.4463L36.4288 41.6395C36.7989 41.7299 37.1223 41.8483 37.4271 41.9791C38.6493 42.5088 39.7688 43.1507 40.8884 43.8081C42.0017 44.478 43.0901 45.151 44.1599 45.9424C44.4398 46.1512 44.6824 46.3818 44.9125 46.5656C45.1457 46.7526 45.3821 46.927 45.6247 47.0486C46.116 47.2947 46.5483 47.3227 46.9308 47.033C47.3226 46.7526 47.6367 46.2322 47.9166 45.6901C48.1934 45.151 48.4111 44.5808 48.5697 43.9919C48.8931 42.8142 48.974 41.5678 48.9398 40.3184C48.9211 39.6921 48.8713 39.0658 48.7967 38.4396C48.7252 37.8226 48.6132 37.2244 48.4391 36.6386C48.097 35.4702 47.5061 34.3828 46.71 33.4667C46.3119 33.0087 45.8641 32.5943 45.379 32.2329C45.1489 32.0584 44.8441 31.8434 44.5984 31.6377C44.3403 31.429 44.0915 31.2078 43.8489 30.9865C42.8818 30.0892 42.0141 29.1139 41.1838 28.1169C40.7702 27.6183 40.3659 27.1105 39.971 26.5995C39.548 26.0511 39.2153 25.4155 38.9882 24.7861C38.755 24.1536 38.584 23.5491 38.3352 23.0038C38.0864 22.4585 37.763 21.9631 37.3587 21.5176C37.1907 21.3306 37.2032 21.044 37.3898 20.8757C37.5733 20.7075 37.8594 20.723 38.0273 20.9038C38.4938 21.4054 38.8856 21.9943 39.1748 22.6175C39.464 23.2406 39.6475 23.8794 39.8683 24.4496C40.086 25.026 40.3628 25.5401 40.7266 26.0043C41.1216 26.506 41.5228 27.0014 41.9333 27.4844C42.7543 28.4534 43.6126 29.3912 44.5331 30.2387C44.7632 30.4506 44.9965 30.6563 45.239 30.8494C45.4847 31.052 45.7086 31.2078 45.9916 31.4196C46.5359 31.8247 47.0365 32.2889 47.4812 32.7999C48.3738 33.825 49.0393 35.0464 49.4218 36.3457C49.6177 36.9907 49.7421 37.6637 49.8199 38.3212C49.8976 38.9693 49.9505 39.6267 49.9722 40.2872C50.0127 41.6052 49.9225 42.9544 49.5586 44.2599C49.3783 44.9111 49.1326 45.5467 48.8185 46.1512C48.7438 46.3039 48.6599 46.4503 48.5728 46.5968C48.4919 46.7432 48.4018 46.8897 48.2898 47.0361C48.1872 47.1857 48.0814 47.3321 47.9446 47.4661C47.8793 47.5346 47.8171 47.6063 47.7456 47.6686L47.5061 47.8493C47.1796 48.0768 46.7535 48.2513 46.3213 48.2326C45.8952 48.2263 45.5096 48.0924 45.1768 47.9241C44.5207 47.5845 44.0262 47.0673 43.5722 46.7152C42.5801 45.9736 41.4886 45.285 40.4032 44.6276C39.3117 43.9795 38.1983 43.3376 37.0664 42.8391C36.7834 42.7113 36.5004 42.6148 36.2485 42.5493C35.9313 42.4808 35.6109 42.4091 35.2969 42.3312C34.6656 42.1785 34.0405 42.0103 33.4185 41.8265C32.7965 41.6395 32.1808 41.4339 31.5681 41.2033C30.9617 40.9758 30.3366 40.711 29.7675 40.3558C28.6418 39.6641 27.6093 38.7885 26.8723 37.6668C26.496 37.1185 26.2472 36.4517 26.1166 35.8192C25.9735 35.1804 25.874 34.5417 25.79 33.8998C25.6283 32.6161 25.5195 31.3324 25.4635 30.0424C25.4635 29.9832 25.507 29.9334 25.5661 29.9303C25.6252 29.9303 25.675 29.9708 25.6781 30.03L25.675 30.0393Z"></path>
<path fill="white" d="M38.8451 27.824C37.8189 31.2794 34.7246 33.4044 31.9319 32.5725C29.1393 31.7406 27.0059 28.8023 28.2965 24.4745C29.3259 21.019 32.8587 18.5887 35.6513 19.4237C38.4439 20.2557 39.8745 24.3717 38.8482 27.824H38.8451Z"></path>
<path fill="#231F20" d="M39.2214 27.9361C38.7581 29.5657 37.8064 31.0956 36.3977 32.1332C35.6949 32.6473 34.877 33.0367 33.9907 33.1769C33.1137 33.3265 32.1652 33.2237 31.3504 32.8965C29.6991 32.2796 28.368 30.8681 27.8269 29.2043C27.5533 28.3724 27.46 27.4999 27.5035 26.6462C27.5408 25.7862 27.743 24.9637 28.0042 24.1629C28.5546 22.5458 29.64 21.1499 31.0145 20.1778C31.7049 19.6917 32.4762 19.3147 33.3096 19.1184C34.1368 18.9159 35.0325 18.9252 35.8566 19.2088C36.6838 19.4861 37.3897 20.0438 37.9184 20.7043C38.4595 21.3649 38.842 22.1345 39.1033 22.9353C39.6226 24.5399 39.6692 26.2879 39.2214 27.9361ZM38.4657 27.7118C38.9198 26.2411 38.9322 24.6178 38.5031 23.1222C38.2854 22.3775 37.9495 21.664 37.4799 21.0564C37.0072 20.4551 36.3884 19.969 35.6793 19.7291C34.9703 19.4798 34.1804 19.4923 33.4402 19.6824C32.697 19.8693 31.9941 20.2245 31.3691 20.6825C30.1158 21.5986 29.1673 22.9321 28.7164 24.3997C28.5018 25.1413 28.3401 25.914 28.3307 26.6805C28.3183 27.447 28.424 28.2072 28.6821 28.9083C29.1735 30.3166 30.3024 31.4695 31.7018 31.9649C33.0639 32.507 34.6251 32.2297 35.8504 31.3604C37.0881 30.5098 37.9961 29.1794 38.4626 27.7118H38.4657Z"></path>
<path fill="#231F20" d="M38.2884 29.0236C37.7566 30.8463 36.7397 32.0303 35.5611 31.591C34.3824 31.1517 34.1741 29.4972 34.6841 27.6682C35.1817 25.8828 36.1924 24.6022 37.483 24.9917C38.7767 25.3812 38.8171 27.2008 38.2853 29.0236H38.2884Z"></path>
<path fill="white" d="M35.4753 29.1979C36.3199 29.0327 36.8668 28.1922 36.6969 27.3208C36.5271 26.4493 35.7047 25.8768 34.8602 26.042C34.0157 26.2072 33.4688 27.0477 33.6386 27.9191C33.8085 28.7906 34.6308 29.3631 35.4753 29.1979Z"></path>
<path fill="white" d="M17.7853 28.0701C18.8955 28.7276 21.3212 27.8676 23.3426 26.3502C25.364 24.8328 26.779 22.605 26.325 21.6422C25.8709 20.6794 23.5448 18.5544 20.4629 17.7443C17.381 16.9342 14.1965 16.4793 13.0863 17.7443C11.9761 19.0093 15.0051 23.6675 15.4623 24.3779C15.9194 25.0883 16.6751 27.4158 17.7853 28.0732V28.0701Z"></path>
<path fill="#231F20" d="M17.9408 27.8084C18.2114 27.9548 18.569 27.9953 18.9328 27.9673C19.2967 27.9393 19.6668 27.8583 20.0306 27.7367C20.7583 27.4999 21.4611 27.1541 22.1173 26.7428C23.439 25.9264 24.6052 24.8453 25.42 23.5584C25.6159 23.2375 25.7869 22.901 25.8896 22.5707C25.9455 22.4056 25.9735 22.2436 25.9766 22.1002C25.9829 22.0286 25.9673 21.9694 25.9611 21.9102C25.9424 21.8665 25.9362 21.8198 25.8865 21.745C25.7247 21.4708 25.4666 21.1779 25.2023 20.9131C24.9348 20.6451 24.6425 20.3959 24.3378 20.1622C23.1156 19.2243 21.7068 18.5264 20.2172 18.14C18.6903 17.7443 17.1291 17.4078 15.5991 17.3767C14.8496 17.3767 14.0659 17.4701 13.5559 17.8471C13.4999 17.9001 13.444 17.95 13.388 18.0029C13.3569 18.0434 13.3258 18.0871 13.3009 18.1431C13.2542 18.2584 13.2325 18.4142 13.2325 18.5794C13.2387 18.9159 13.3196 19.2866 13.4315 19.6512C13.9042 21.1125 14.7003 22.5177 15.5244 23.8669C15.6271 24.0383 15.7359 24.1941 15.8448 24.3997C15.9443 24.5898 16.0282 24.7736 16.1122 24.9574C16.2801 25.3251 16.4387 25.6865 16.6129 26.0386C16.7839 26.3907 16.9798 26.7303 17.1944 27.0419C17.409 27.3504 17.6578 27.6339 17.9377 27.8053L17.9408 27.8084ZM17.6329 28.3319C17.2255 28.0795 16.9488 27.7336 16.7062 27.3909C16.4636 27.0419 16.2708 26.6774 16.0811 26.3159C15.8914 25.9545 15.7204 25.5868 15.5493 25.2254C15.4622 25.0478 15.3783 24.8671 15.2881 24.705C15.2072 24.5586 15.086 24.3872 14.9771 24.2159C14.5386 23.5366 14.1188 22.8449 13.7332 22.1283C13.3475 21.4116 12.9899 20.6763 12.7225 19.8787C12.5919 19.4798 12.483 19.0623 12.4643 18.5949C12.4612 18.3612 12.4768 18.1089 12.5763 17.8503C12.6261 17.7194 12.7038 17.5916 12.7971 17.4795L13.0677 17.224C13.4564 16.9186 13.898 16.7691 14.324 16.6725C14.7563 16.5728 15.1792 16.5541 15.5991 16.5385C17.2784 16.5385 18.8737 16.8875 20.4442 17.2801C22.0582 17.682 23.579 18.4423 24.8882 19.4642C25.2178 19.7197 25.5319 19.9939 25.8305 20.2962C26.129 20.6015 26.4151 20.91 26.6515 21.3306C26.7106 21.4241 26.7634 21.5737 26.807 21.7201C26.8319 21.8572 26.8474 22.0005 26.8412 22.1283C26.8287 22.3869 26.7759 22.6206 26.7012 22.8324C26.5551 23.2624 26.3498 23.6426 26.1197 24.0009C25.1899 25.4092 23.9086 26.5247 22.4936 27.3597C21.7846 27.7804 21.032 28.1324 20.2296 28.3724C19.8285 28.4939 19.4118 28.578 18.9764 28.6029C18.5441 28.6216 18.0745 28.5842 17.6391 28.335L17.6329 28.3319Z"></path>
<path fill="white" d="M17.2815 38.7324C17.8474 38.1467 17.6795 36.5296 17.0482 35.062C16.4169 33.5976 14.3986 32.9931 13.7424 33.1302C13.0863 33.2673 11.8112 34.04 10.8627 35.8129C9.91111 37.5889 9.44463 39.4491 10.0542 40.3184C10.6637 41.1877 12.4394 40.2997 14.097 39.7108C15.6643 39.1531 16.7155 39.3151 17.2815 38.7293V38.7324Z"></path>
<path fill="#231F20" d="M17.1011 38.558C17.3561 38.2962 17.4276 37.7728 17.409 37.3023C17.3934 36.8162 17.297 36.327 17.1539 35.8534C17.0855 35.6166 16.9891 35.3861 16.8958 35.1555C16.7932 34.9405 16.6813 34.7349 16.5164 34.5604C16.2086 34.1989 15.7981 33.9248 15.3627 33.7191C14.9304 33.5197 14.4453 33.3733 13.9975 33.3639C13.8824 33.3639 13.8078 33.3764 13.6989 33.4106C13.5963 33.4449 13.4905 33.4917 13.3879 33.5446C13.1827 33.6506 12.9836 33.7814 12.8002 33.931C12.0538 34.5323 11.494 35.3424 11.0835 36.2242C10.6699 37.1122 10.3216 38.0532 10.2408 38.9693C10.1972 39.4117 10.2718 39.876 10.4522 40.0847C10.5548 40.2499 10.984 40.2779 11.438 40.1688C12.3554 39.9757 13.2946 39.5613 14.3053 39.2777C14.8153 39.1375 15.3347 39.0534 15.8354 38.9755C16.3329 38.8976 16.8212 38.829 17.1073 38.558H17.1011ZM17.4618 38.9101C17.2472 39.1406 16.9674 39.2777 16.7061 39.365C16.4418 39.4522 16.1868 39.5052 15.938 39.5613C15.4404 39.6641 14.9646 39.7825 14.5075 39.9476C14.0565 40.1128 13.5869 40.3215 13.1174 40.5116C12.6416 40.7016 12.1657 40.9042 11.6277 41.0319C11.3572 41.0942 11.0773 41.1503 10.7477 41.1316C10.4336 41.1192 10.02 40.9914 9.76183 40.6767C9.51615 40.3838 9.42597 40.0691 9.36999 39.7638C9.31712 39.4584 9.33267 39.1718 9.35444 38.8914C9.48506 37.779 9.90489 36.8006 10.3994 35.8815C10.8969 34.9561 11.5655 34.0837 12.4487 33.4636C12.6695 33.3078 12.9059 33.1738 13.1578 33.0617C13.2853 33.0056 13.4159 32.9588 13.5559 32.9215C13.6896 32.8841 13.8699 32.8654 14.0068 32.8778C14.5728 32.9183 15.0735 33.0991 15.5493 33.339C16.0189 33.5851 16.4605 33.9061 16.7963 34.3298C16.9705 34.5355 17.1042 34.7754 17.2161 35.0215C17.3157 35.2614 17.409 35.5045 17.4867 35.7506C17.6515 36.2429 17.7728 36.7539 17.8257 37.2805C17.8506 37.5453 17.8506 37.8164 17.8101 38.0937C17.7666 38.3679 17.6826 38.6639 17.4618 38.9163V38.9101Z"></path>
<path fill="#231F20" d="M27.7989 14.7999C27.8798 14.1331 28.0508 12.9709 29.0957 11.9676C30.4579 10.6621 33.3189 10.5561 33.8911 12.4038C34.1306 13.1765 33.7916 13.404 33.2723 13.485C32.6783 13.5785 31.8666 13.4912 31.0612 13.6969C30.1717 13.9243 29.0149 14.2827 28.1317 15.2672C27.9731 15.4417 27.9264 15.4137 27.8642 15.3607C27.7243 15.2423 27.7989 14.7999 27.7989 14.7999Z"></path>
<path fill="#231F20" d="M42.7044 14.1674C42.6609 13.6782 42.5614 12.8244 41.787 12.033C40.7763 11.0017 38.5777 10.7524 38.0863 12.058C37.881 12.6032 38.1329 12.7902 38.531 12.8805C38.985 12.9834 39.6132 12.9709 40.2259 13.1672C40.9038 13.3884 41.7839 13.7156 42.4339 14.4852C42.5489 14.6223 42.5894 14.6036 42.636 14.5693C42.748 14.4914 42.7013 14.1642 42.7013 14.1642L42.7044 14.1674Z"></path>
<path fill="white" d="M29.612 31.8714L28.337 32.2204L26.4089 31.0395L25.3173 30.9273L25.0032 31.6969L24.8104 32.4697L24.5274 33.4106L22.6273 33.8063C22.6273 33.8063 21.7255 27.1728 24.7109 27.8333C28.0975 28.5842 29.1704 31.052 29.5125 31.8652"></path>
<path fill="#231F20" d="M22.3381 33.8468C22.1421 32.6815 22.0613 31.5131 22.1857 30.3166C22.2572 29.7215 22.3661 29.1139 22.6584 28.5219C22.8108 28.2321 23.0191 27.9393 23.3208 27.7243C23.6224 27.5062 24.0143 27.4033 24.3626 27.422C24.5367 27.4283 24.714 27.4594 24.8602 27.4999L25.2955 27.6214C25.5816 27.7087 25.8677 27.8115 26.1414 27.933C26.6981 28.1667 27.2174 28.4908 27.687 28.8678C28.6293 29.628 29.3259 30.6687 29.7302 31.7717V31.7779C29.7768 31.8995 29.7146 32.0366 29.5933 32.0802C29.4752 32.1238 29.3477 32.0677 29.2948 31.9524C28.8439 30.9242 28.1721 30.0206 27.2952 29.3632C26.8598 29.036 26.3871 28.7556 25.874 28.5593C25.6221 28.4565 25.3608 28.3724 25.0965 28.2976C24.8291 28.2353 24.5554 28.1449 24.3439 28.1543C23.8992 28.1418 23.5758 28.4191 23.3581 28.8709C23.1435 29.3165 23.0253 29.8555 22.96 30.4008C22.8325 31.4944 22.8481 32.641 22.9165 33.7627V33.7752C22.9258 33.9372 22.8045 34.0774 22.6428 34.0868C22.4904 34.0961 22.3598 33.9871 22.335 33.8406L22.3381 33.8468Z"></path>
<path fill="#231F20" d="M24.8259 33.4169C24.6456 33.018 24.5398 32.6068 24.5243 32.1705C24.5243 31.7374 24.5585 31.2701 24.9255 30.7902C25.1089 30.5472 25.4977 30.3945 25.7869 30.4413C26.0792 30.4787 26.2969 30.6002 26.4804 30.7279C26.8505 30.9959 27.1241 31.3199 27.3449 31.6876L27.289 31.7499C26.9064 31.5754 26.5519 31.3698 26.2036 31.2545C26.0357 31.1891 25.8646 31.1579 25.7496 31.1672C25.6345 31.1891 25.6065 31.214 25.5443 31.295C25.4168 31.4757 25.3484 31.8621 25.2738 32.2266C25.1867 32.6005 25.1245 33.0087 24.9037 33.42L24.8228 33.4137L24.8259 33.4169Z"></path>
</svg>
