<svg xmlns="http://www.w3.org/2000/svg" fill="none" viewBox="0 0 60 60" height="60" width="60">
<path fill="#19114B" d="M46.6652 48.421C47.4362 48.3049 48.1061 47.7997 48.66 46.9127C50.0934 44.6186 50.5275 41.8903 50.0597 38.0691C49.6368 34.5998 47.8666 32.4928 46.3209 31.2877C47.7094 29.6485 47.904 26.8191 46.6877 24.2256C45.6435 21.995 43.6263 20.236 41.654 19.7383C42.4624 15.992 41.7438 15.019 41.1076 14.6185C39.7004 13.7278 37.3351 14.3453 33.66 16.5571C33.035 16.9314 32.4399 17.3805 31.8785 17.8932C30.2355 16.9015 28.5552 16.3738 26.8785 16.3176C25.026 16.2577 23.2295 16.5684 21.5192 17.2383C21.231 17.1372 20.9429 17.0512 20.6584 16.9763C16.2535 15.8199 13.6637 15.8947 12.5035 17.2121C11.9234 17.8708 11.4743 19.2518 14.109 23.6417C12.773 26.2615 12.0581 30.0414 12.0581 32.403C12.0581 32.6126 12.0694 32.8408 12.0843 33.0804C11.5042 33.5257 10.7932 34.2518 10.1794 35.397C9.59555 36.4861 8.34929 39.1844 9.41965 40.7076C10.2767 41.9277 11.9459 41.2915 13.5626 40.6814C13.8283 40.5804 14.0941 40.4793 14.356 40.3858C14.4234 40.3633 14.4908 40.3409 14.5581 40.3184C15.5349 41.8416 16.7026 43.0242 18.0424 43.8326C23.151 46.9165 28.4504 46.254 29.9511 45.9771C31.7625 45.644 34.6031 45.4606 36.886 45.3147C38.1734 45.2323 39.2887 45.1612 39.9848 45.0751C40.1008 45.0602 40.258 45.0227 40.4152 44.9217C41.6802 45.6814 42.8965 46.4861 43.5065 46.9614C43.5776 47.0175 43.66 47.0886 43.7535 47.171C44.3187 47.6612 45.2244 48.4472 46.3247 48.4472C46.4369 48.4472 46.5492 48.4397 46.6652 48.421ZM39.9661 43.1852C39.779 43.2525 39.6293 43.391 39.5432 43.5669C38.877 43.6343 37.9002 43.6979 36.7887 43.769C34.4646 43.9187 31.5754 44.1058 29.6742 44.4539C28.3081 44.7046 23.4878 45.3109 18.8471 42.5078C17.5858 41.7443 16.4893 40.5729 15.5873 39.0235C15.4152 38.7278 15.0671 38.5781 14.734 38.6605C14.4234 38.7391 14.1315 38.8251 13.8433 38.9262C13.5701 39.0235 13.2932 39.1283 13.0162 39.2331C12.3463 39.4876 10.9578 40.0153 10.6921 39.8169C10.3852 39.379 10.5798 37.9382 11.5491 36.1305C12.1891 34.9404 12.9301 34.3566 13.3194 34.1133C13.5738 33.9561 13.7123 33.6642 13.6749 33.3685C13.6337 33.013 13.6113 32.6874 13.6113 32.4067C13.6113 30.0864 14.386 26.3064 15.6809 24.001C15.8194 23.754 15.8119 23.4546 15.6659 23.2151C13.484 19.6784 13.5402 18.391 13.6712 18.2375C13.993 17.8708 15.2767 17.1672 20.2692 18.4733C20.5986 18.5594 20.9354 18.6679 21.2647 18.7914C21.4519 18.8625 21.654 18.8588 21.8373 18.7802C23.4242 18.1178 25.1083 17.8109 26.8336 17.8633C28.3942 17.9119 29.9848 18.4696 31.5529 19.5137C31.8635 19.7196 32.2715 19.6784 32.5335 19.4127C33.1323 18.8101 33.7797 18.2937 34.4646 17.882C38.5851 15.4007 39.91 15.6889 40.2842 15.9247C40.4451 16.0519 40.7296 17.111 39.9661 20.1836C39.91 20.4082 39.9586 20.6477 40.0971 20.8311C40.2356 21.0182 40.4489 21.1305 40.6809 21.1417C42.3463 21.2203 44.3299 22.8259 45.2917 24.8768C46.3696 27.1747 46.0963 29.7346 44.6779 30.7039C44.4758 30.8423 44.3486 31.0706 44.3411 31.3176C44.3336 31.5646 44.4422 31.8004 44.6368 31.9539C44.779 32.0624 44.9175 32.1709 45.0597 32.2682C46.4294 33.2376 48.1398 35.0602 48.529 38.2488C48.9481 41.6919 48.5851 44.1096 47.3538 46.0819C47.0507 46.5647 46.7438 46.8341 46.4444 46.879C45.9018 46.9614 45.1982 46.3513 44.779 45.9883C44.663 45.8873 44.5619 45.8012 44.4758 45.7338C43.7273 45.1463 42.148 44.1171 40.636 43.2338C40.5163 43.1627 40.3815 43.129 40.2468 43.129C40.157 43.129 40.0671 43.144 39.9773 43.1777L39.9661 43.1852Z"></path>
<path fill="#DABDFF" d="M39.1913 25.7862C38.3642 26.6694 35.9578 26.5384 33.7385 25.7076C31.5192 24.8768 29.6591 23.2525 29.8163 22.2682C29.9735 21.2839 31.5042 18.7615 34.0603 17.2233C36.6202 15.6814 39.3635 14.4351 40.6958 15.2772C42.0281 16.1193 40.5274 21.1006 40.3066 21.8565C40.0858 22.6125 40.0147 24.903 39.1876 25.7862H39.1913Z"></path>
<path fill="#19114B" d="M39.5207 26.0968C40.2093 25.3596 40.4264 23.9224 40.5836 22.8708C40.636 22.5115 40.6884 22.1672 40.7445 21.9838L40.7595 21.9351C41.9384 17.9307 42.002 15.5616 40.9429 14.8917C39.6667 14.0833 37.3425 14.7196 33.8321 16.8341C31.261 18.3798 29.5656 20.9883 29.371 22.1971C29.1539 23.5744 31.3882 25.3109 33.5813 26.1305C34.7115 26.5534 36.0289 26.8453 37.1741 26.8453C38.1622 26.8453 39.0229 26.6283 39.5207 26.0968ZM40.4526 15.6589C40.8306 15.8985 41.1375 17.4366 39.8837 21.6807L39.8688 21.7293C39.7976 21.9726 39.7452 22.3281 39.6816 22.736C39.5506 23.6155 39.3485 24.9479 38.8545 25.4793C38.2108 26.1717 36.0289 26.0856 33.8919 25.2847C31.6464 24.4464 30.1644 22.9419 30.258 22.3393C30.4002 21.4524 31.9084 19.0459 34.2886 17.6088C37.0581 15.9434 38.6636 15.4531 39.5993 15.4531C39.9885 15.4531 40.258 15.5392 40.4488 15.6589H40.4526Z"></path>
<path fill="white" d="M45.988 24.5587C47.354 27.4704 46.7702 30.6216 44.6856 31.5984C42.601 32.5752 39.708 31.7593 37.9977 28.1141C36.6354 25.2024 37.2978 21.6021 39.3824 20.6253C41.467 19.6485 44.622 21.6507 45.988 24.5624V24.5587Z"></path>
<path fill="#19114B" d="M44.8015 31.8416C47.0171 30.8012 47.6608 27.4816 46.2349 24.4426C44.7603 21.2952 41.437 19.3603 39.27 20.3745C37.0432 21.4187 36.3209 25.1612 37.7543 28.2226C38.5739 29.9703 39.7266 31.2204 41.0926 31.8341C41.7102 32.1111 42.3464 32.2495 42.9789 32.2495C43.6114 32.2495 44.2214 32.1148 44.8052 31.8416H44.8015ZM45.7446 24.6709C47.0432 27.4404 46.5156 30.4382 44.5732 31.3476C43.5515 31.8266 42.395 31.8229 41.3135 31.3364C40.0709 30.7787 39.0081 29.6223 38.2446 27.9906C36.9534 25.2323 37.5634 21.7705 39.4983 20.8648C39.8202 20.7151 40.172 20.644 40.5462 20.644C42.3614 20.644 44.6368 22.3169 45.7409 24.6709H45.7446Z"></path>
<path fill="#19114B" d="M45.1495 27.7622C45.6024 29.6036 45.3479 31.1268 44.169 31.3251C42.9939 31.5197 42.0171 30.1874 41.5455 28.3536C41.0852 26.5646 41.2873 24.9554 42.5335 24.6597C43.7798 24.364 44.6967 25.9247 45.1495 27.7622Z"></path>
<path fill="white" d="M42.351 28.7182C43.1949 28.5534 43.7413 27.7143 43.5713 26.844C43.4013 25.9737 42.5795 25.4018 41.7356 25.5666C40.8917 25.7314 40.3453 26.5706 40.5152 27.4408C40.6852 28.3111 41.5071 28.883 42.351 28.7182Z"></path>
<path fill="#A56CEF" d="M15.7147 22.5489C18.2559 19.3977 22.0807 16.9389 26.8562 17.0923C31.6317 17.2458 35.071 21.516 36.7365 23.3348C38.4019 25.1537 41.7065 44.0871 39.8914 44.3042C38.0763 44.5212 32.6908 44.6822 29.809 45.2136C26.9273 45.7451 22.455 45.5916 18.4393 43.1665C14.4235 40.7413 12.8292 35.0564 12.8292 32.403C12.8292 29.7495 13.8135 24.8992 15.711 22.5489H15.7147Z"></path>
<path fill="#19114B" d="M29.895 45.659C31.7251 45.3222 34.5769 45.1388 36.8673 44.9891C38.151 44.9067 39.2625 44.8356 39.9474 44.7533C40.1645 44.7271 40.4639 44.5924 40.6473 44.0946C41.6203 41.4674 38.8134 24.9292 37.0694 23.028C36.9384 22.8857 36.7962 22.7286 36.6465 22.5601C34.8351 20.5429 31.4631 16.7854 26.8673 16.6395C22.4811 16.501 18.3942 18.4995 15.359 22.2645C13.3269 24.7869 12.38 29.8057 12.38 32.403C12.38 35.4793 14.2325 41.153 18.2071 43.5557C21.3733 45.4681 24.6105 45.9097 26.9384 45.9097C28.2969 45.9097 29.3486 45.7563 29.8913 45.659H29.895ZM16.0664 22.8334C17.7206 20.7824 21.3209 17.3655 26.8411 17.5452C31.0477 17.6799 34.2513 21.2465 35.9728 23.1664C36.1263 23.3386 36.2723 23.4958 36.4032 23.6417C37.0657 24.364 38.2146 28.784 39.0791 33.9224C40.1532 40.3259 40.0747 43.3686 39.7678 43.8626C39.0979 43.9374 38.035 44.0085 36.8074 44.0871C34.4908 44.2368 31.6128 44.4239 29.7303 44.7683C28.3381 45.0265 23.4167 45.6403 18.6787 42.781C14.6442 40.3446 13.2894 34.6373 13.2894 32.4067C13.2894 29.8393 14.255 25.0863 16.0701 22.8371L16.0664 22.8334Z"></path>
<path fill="#A56CEF" d="M25.5687 30.004C25.6211 31.0145 25.9729 35.412 26.6802 36.8266C27.3876 38.2413 28.8023 39.4052 30.2169 40.1612C31.6316 40.9172 34.8165 41.7293 36.3322 42.0325C37.8479 42.3356 42.5747 45.2436 43.9894 46.3513C44.708 46.9165 46.4894 48.9299 48.0051 46.5048C49.5209 44.0796 49.6743 41.2765 49.2926 38.1664C48.9146 35.0602 47.3203 32.9381 45.5014 31.647C43.6825 30.3596 41.7102 28.0092 40.3479 26.2652C38.9819 24.5212 39.3637 23.0055 37.6945 21.1866"></path>
<path fill="#19114B" d="M25.6771 29.9965C25.7744 31.269 25.9279 32.5452 26.13 33.8064C26.2348 34.4352 26.3545 35.0639 26.5117 35.6739C26.6652 36.2915 26.8897 36.8453 27.2714 37.3394C28.0012 38.3349 29.0192 39.1096 30.1083 39.7046C30.6472 40.0003 31.2235 40.2099 31.8261 40.4082C32.4249 40.6028 33.0387 40.7713 33.6524 40.9322C34.2662 41.0969 34.8837 41.2466 35.505 41.385L36.4369 41.5759C36.8074 41.6657 37.1293 41.7817 37.4361 41.9165C38.66 42.4479 39.779 43.0879 40.898 43.7428C42.0132 44.409 43.1023 45.0826 44.1689 45.8723C44.4496 46.0781 44.6892 46.3102 44.9212 46.4936C45.157 46.6807 45.3927 46.8528 45.6323 46.9764C46.1225 47.2196 46.5567 47.2496 46.9384 46.9614C47.3314 46.6807 47.642 46.1642 47.9264 45.6216C48.2034 45.0826 48.4204 44.5138 48.5814 43.9262C48.9032 42.751 48.9855 41.5048 48.9519 40.2623C48.9332 39.6373 48.8845 39.0123 48.8096 38.3873C48.7385 37.7698 48.6263 37.1747 48.4504 36.5909C48.1061 35.4232 47.5148 34.3379 46.7213 33.4247C46.3246 32.9681 45.8755 32.5564 45.389 32.1934C45.1607 32.0175 44.8538 31.8042 44.6068 31.5983C44.3486 31.3888 44.0978 31.1717 43.8546 30.9471C42.8852 30.0527 42.0207 29.0759 41.1899 28.0841C40.7745 27.5864 40.3703 27.0811 39.9773 26.5684C39.5544 26.022 39.2213 25.3858 38.993 24.757C38.7572 24.1283 38.5888 23.522 38.3418 22.9793C38.0948 22.4366 37.7692 21.9426 37.365 21.4973C37.1966 21.3139 37.2116 21.0257 37.395 20.8573C37.5783 20.6889 37.8628 20.7039 38.0312 20.8835C38.4953 21.385 38.8882 21.9726 39.1802 22.5938C39.4683 23.2151 39.6517 23.8513 39.8725 24.4239C40.0896 24.9965 40.3665 25.513 40.7333 25.9771C41.13 26.4786 41.5305 26.9726 41.9421 27.4554C42.7617 28.4247 43.6188 29.3603 44.5394 30.2061C44.7715 30.4157 45.0035 30.6215 45.243 30.8162C45.49 31.0182 45.7109 31.1717 45.9953 31.385C46.538 31.7892 47.0394 32.2495 47.4848 32.7623C48.3755 33.784 49.0417 35.004 49.4234 36.3027C49.618 36.9464 49.7415 37.6163 49.8201 38.275C49.8987 38.9224 49.9511 39.5774 49.9698 40.2361C50.011 41.5534 49.9212 42.9007 49.5544 44.2031C49.3748 44.8543 49.1278 45.4868 48.8171 46.0894C48.7423 46.2428 48.66 46.3888 48.5701 46.5347C48.4878 46.6807 48.398 46.8266 48.2857 46.9764C48.1847 47.1261 48.0799 47.272 47.9377 47.4067C47.8703 47.4741 47.8104 47.5452 47.7393 47.6088L47.4998 47.7885C47.1742 48.0168 46.7438 48.1889 46.3171 48.1702C45.8905 48.1627 45.505 48.0317 45.1757 47.8633C44.5207 47.5228 44.023 47.0063 43.5701 46.6582C42.5784 45.9172 41.4855 45.2286 40.4002 44.5737C39.3111 43.9262 38.1959 43.2862 37.0656 42.7885C36.7849 42.6612 36.5005 42.5639 36.246 42.5003C35.9279 42.4329 35.6098 42.3581 35.2954 42.2832C34.6629 42.1298 34.0379 41.9614 33.4167 41.7817C32.7954 41.5946 32.1779 41.3888 31.5641 41.1605C30.9578 40.9322 30.3328 40.6665 29.764 40.3147C28.6412 39.6223 27.6045 38.7503 26.8673 37.6313C26.4893 37.0849 26.2423 36.4187 26.1113 35.7862C25.9691 35.15 25.868 34.51 25.7857 33.87C25.6248 32.5901 25.5162 31.3102 25.4601 30.019C25.4601 29.9591 25.505 29.9105 25.5611 29.9067C25.621 29.9067 25.6697 29.9479 25.6734 30.004L25.6771 29.9965Z"></path>
<path fill="white" d="M38.8469 27.7885C37.8215 31.2353 34.7264 33.3573 31.9345 32.5265C29.1426 31.6957 27.0093 28.7653 28.2968 24.4427C29.326 20.9958 32.8589 18.5706 35.6508 19.4015C38.4428 20.2323 39.8724 24.3379 38.8469 27.7885Z"></path>
<path fill="#19114B" d="M39.1053 22.9082C38.8433 22.1111 38.4616 21.3401 37.9189 20.6814C37.3875 20.0227 36.6839 19.4651 35.8568 19.1881C35.0334 18.9037 34.139 18.8962 33.3119 19.0983C32.481 19.2929 31.7063 19.6709 31.0177 20.1537C29.6405 21.123 28.5589 22.5152 28.0087 24.132C27.7468 24.9329 27.5484 25.7563 27.511 26.6133C27.4698 27.4666 27.5596 28.3386 27.8328 29.1657C28.3755 30.8274 29.7041 32.2346 31.3583 32.8483C32.1741 33.1739 33.121 33.2787 34.0005 33.129C34.8875 32.9906 35.7071 32.6013 36.407 32.0886C37.8141 31.0519 38.7647 29.525 39.2288 27.897C39.6742 26.254 39.6255 24.5063 39.109 22.9045L39.1053 22.9082ZM35.8568 31.3177C34.633 32.1859 33.0723 32.4629 31.7101 31.9202C30.3104 31.4262 29.1839 30.2735 28.6899 28.87C28.4316 28.1702 28.3269 27.4105 28.3381 26.647C28.3456 25.8835 28.5102 25.1126 28.7235 24.3715C29.1727 22.9045 30.1233 21.5721 31.3733 20.659C31.9983 20.2024 32.7018 19.8506 33.4429 19.6634C34.1801 19.4726 34.9698 19.4613 35.6809 19.7084C36.3882 19.9516 37.0095 20.4344 37.4811 21.0332C37.9489 21.6395 38.2857 22.3506 38.5065 23.0953C38.9369 24.5886 38.9219 26.2091 38.4691 27.6762C38.0012 29.1395 37.0918 30.4681 35.8568 31.3177Z"></path>
<path fill="#19114B" d="M38.2894 28.986C37.758 30.8049 36.74 31.9875 35.5611 31.5497C34.3822 31.1118 34.1764 29.4613 34.6853 27.635C35.1943 25.8086 36.1936 24.5736 37.4848 24.9628C38.7759 25.3521 38.8208 27.1672 38.2894 28.986Z"></path>
<path fill="white" d="M35.4767 29.1698C36.3206 29.005 36.867 28.1658 36.697 27.2956C36.5271 26.4253 35.7052 25.8534 34.8613 26.0182C34.0174 26.183 33.471 27.0221 33.641 27.8924C33.8109 28.7627 34.6328 29.3346 35.4767 29.1698Z"></path>
<path fill="#DABDFF" d="M17.7881 28.0317C18.8996 28.6904 21.3247 27.8296 23.3457 26.3139C25.3667 24.7982 26.7814 22.5751 26.3285 21.6133C25.8757 20.6515 23.5478 18.5295 20.4677 17.7211C17.3839 16.9127 14.2027 16.4561 13.0912 17.7211C11.9797 18.9861 15.0111 23.6343 15.4677 24.3416C15.9243 25.0489 16.6803 27.3731 17.7918 28.0317H17.7881Z"></path>
<path fill="#19114B" d="M17.2004 27.01C16.9833 26.6994 16.7887 26.3626 16.6166 26.0108C16.4407 25.659 16.2835 25.2959 16.1151 24.9292C16.0327 24.7458 15.9467 24.5624 15.8456 24.3715C15.7371 24.1657 15.6286 24.0085 15.5238 23.8401C14.7004 22.4928 13.9033 21.0894 13.4317 19.6298C13.3194 19.2667 13.2371 18.8962 13.2333 18.5594C13.2333 18.3947 13.2558 18.2375 13.3007 18.1253C13.3232 18.0691 13.3531 18.028 13.3868 17.9831C13.4467 17.9344 13.5028 17.882 13.5552 17.8296C14.0679 17.4554 14.8501 17.3581 15.5986 17.3581C17.1293 17.3917 18.6899 17.7286 20.2169 18.1215C21.7064 18.507 23.1173 19.2069 24.3374 20.1425C24.6443 20.3745 24.9362 20.6253 25.2019 20.891C25.4676 21.153 25.7259 21.4449 25.8868 21.7218C25.9354 21.7967 25.9392 21.8416 25.9616 21.8865C25.9691 21.9426 25.9841 22.0025 25.9766 22.0736C25.9729 22.2158 25.9467 22.3805 25.8868 22.5452C25.782 22.8745 25.6136 23.2114 25.4153 23.5295C24.5994 24.8132 23.4317 25.8947 22.1106 26.7069C21.4519 27.1185 20.7483 27.4629 20.0223 27.6986C19.6592 27.8184 19.2887 27.9007 18.9257 27.9269C18.5627 27.9531 18.2034 27.9157 17.9339 27.7697C17.657 27.6013 17.4062 27.3169 17.1929 27.0063L17.2004 27.01ZM18.9706 28.5632C19.4048 28.5407 19.8239 28.4546 20.2244 28.3349C21.0253 28.0916 21.7813 27.7436 22.4886 27.3244C23.907 26.4898 25.187 25.3783 26.1151 23.9711C26.3434 23.6118 26.5492 23.2338 26.6952 22.8034C26.77 22.5901 26.8224 22.3581 26.8337 22.0998C26.8411 21.9726 26.8262 21.8304 26.8 21.6919C26.7588 21.5459 26.7064 21.3962 26.6465 21.3027C26.4108 20.8798 26.1226 20.5729 25.8269 20.2697C25.5275 19.9703 25.2131 19.6971 24.8838 19.4389C23.5739 18.4172 22.0545 17.6575 20.4414 17.257C18.8733 16.8678 17.2753 16.516 15.5949 16.5197C15.172 16.5347 14.7491 16.5534 14.3187 16.6545C13.892 16.7518 13.4504 16.9015 13.0612 17.2046L12.7917 17.4591C12.6982 17.5751 12.6196 17.6986 12.5709 17.8296C12.4699 18.0878 12.4549 18.3386 12.4586 18.5744C12.4774 19.0384 12.5859 19.4539 12.7169 19.8543C12.9826 20.6515 13.3419 21.385 13.7273 22.0998C14.1128 22.8146 14.532 23.507 14.9736 24.1844C15.0821 24.3528 15.2019 24.525 15.2842 24.6709C15.3741 24.8356 15.4601 25.0115 15.5462 25.1912C15.7184 25.5504 15.8905 25.9172 16.0777 26.2802C16.2685 26.6432 16.4631 27.0063 16.7027 27.3543C16.9459 27.6986 17.2229 28.043 17.6308 28.2937C18.0649 28.5407 18.5365 28.5819 18.9669 28.5632H18.9706Z"></path>
<path fill="#DABDFF" d="M17.2827 38.6754C17.8478 38.0916 17.6794 36.4748 17.0469 35.0115C16.4144 33.5482 14.3972 32.9456 13.7423 33.0841C13.0873 33.2226 11.8111 33.9898 10.8605 35.7638C9.90993 37.5377 9.44211 39.394 10.0521 40.2623C10.6622 41.1305 12.4399 40.2436 14.0941 39.656C15.6622 39.0983 16.7138 39.263 17.279 38.6792L17.2827 38.6754Z"></path>
<path fill="#19114B" d="M15.8306 38.9187C15.3291 38.9936 14.8089 39.0796 14.2999 39.2181C13.2932 39.4988 12.3501 39.9142 11.4331 40.1088C10.9765 40.2174 10.5499 40.1874 10.4489 40.0228C10.2692 39.8132 10.1944 39.3528 10.2393 38.9075C10.3216 37.9943 10.6697 37.0549 11.0851 36.168C11.4968 35.2885 12.0544 34.4763 12.8029 33.8775C12.99 33.7278 13.1884 33.5968 13.3905 33.4921C13.4915 33.4397 13.5963 33.3947 13.7011 33.3573C13.8096 33.3236 13.8845 33.3124 14.0005 33.3087C14.4459 33.3199 14.9324 33.4621 15.3665 33.6642C15.8007 33.8701 16.2123 34.1433 16.5192 34.5063C16.6839 34.6822 16.7962 34.888 16.8972 35.1013C16.9908 35.3296 17.0843 35.5617 17.1554 35.7974C17.2977 36.269 17.395 36.7593 17.4099 37.2458C17.4287 37.7174 17.3575 38.2413 17.1031 38.4995C16.8186 38.769 16.3284 38.8401 15.8306 38.915V38.9187ZM17.8104 38.0317C17.8516 37.7548 17.8516 37.4853 17.8254 37.2196C17.773 36.6919 17.6532 36.1829 17.4885 35.6927C17.4099 35.4457 17.3164 35.2024 17.2191 34.9629C17.1068 34.7196 16.9721 34.4801 16.7962 34.2705C16.4593 33.8476 16.0177 33.5257 15.5499 33.2825C15.0746 33.043 14.5768 32.8633 14.008 32.8221C13.8695 32.8109 13.6899 32.8296 13.5551 32.8671C13.4167 32.9045 13.2857 32.9531 13.1584 33.0093C12.9077 33.1215 12.6719 33.2563 12.4511 33.4097C11.5679 34.0272 10.898 34.8992 10.4002 35.8236C9.90619 36.7406 9.48328 37.7174 9.35603 38.8289C9.33358 39.1096 9.31861 39.3977 9.371 39.7009C9.4234 40.004 9.51697 40.3184 9.76023 40.6141C10.0185 40.9284 10.4301 41.0557 10.7482 41.0707C11.0776 41.0894 11.3583 41.0332 11.6277 40.9734C12.1667 40.8461 12.642 40.644 13.1173 40.4531C13.5888 40.2623 14.0566 40.0564 14.5095 39.8918C14.9698 39.7271 15.4414 39.6111 15.9391 39.5063C16.1861 39.4501 16.4444 39.3978 16.7063 39.3117C16.9683 39.2256 17.249 39.0871 17.4623 38.8551C17.6831 38.6043 17.7692 38.3087 17.8104 38.0355V38.0317Z"></path>
<path fill="#19114B" d="M27.8028 14.7907C27.8852 14.1283 28.0573 12.9643 29.0977 11.9651C30.46 10.6627 33.3193 10.5579 33.8919 12.3992C34.1314 13.1702 33.7946 13.3985 33.2744 13.4808C32.6831 13.5744 31.8672 13.4845 31.0626 13.6904C30.1718 13.9187 29.0191 14.2742 28.1359 15.2585C27.9787 15.4344 27.9301 15.4045 27.8702 15.3521C27.7317 15.2323 27.8066 14.7907 27.8066 14.7907H27.8028Z"></path>
<path fill="#19114B" d="M42.7055 14.1582C42.6606 13.6717 42.5633 12.8146 41.7886 12.0287C40.7781 10.9995 38.5812 10.7488 38.0872 12.0549C37.8814 12.6013 38.1359 12.7847 38.5326 12.8782C38.9854 12.983 39.6142 12.9681 40.2279 13.1664C40.9053 13.3872 41.7848 13.7128 42.436 14.48C42.5521 14.6148 42.5895 14.5998 42.6381 14.5661C42.7504 14.4875 42.7055 14.1619 42.7055 14.1619V14.1582Z"></path>
<path fill="#A56CEF" d="M29.6141 31.8304L28.3379 32.1785L26.4105 30.9996L25.3177 30.8873L25.0033 31.6545L24.8125 32.4255L24.5318 33.3648L22.6306 33.7615C22.6306 33.7615 21.7286 27.141 24.7152 27.7997C28.1021 28.5482 29.1762 31.0108 29.5168 31.8229"></path>
<path fill="#19114B" d="M22.3388 33.7989C22.1405 32.635 22.0619 31.4673 22.1891 30.2735C22.2602 29.6784 22.3688 29.0721 22.6607 28.4808C22.8141 28.1926 23.02 27.9007 23.3231 27.6837C23.6225 27.4629 24.0155 27.3656 24.3673 27.3843C24.5394 27.388 24.7191 27.4217 24.865 27.4629L25.2992 27.5826C25.5874 27.6687 25.8718 27.7735 26.145 27.8932C26.7026 28.1253 27.2191 28.4509 27.6906 28.8289C28.6338 29.5886 29.3299 30.6253 29.7341 31.7293C29.779 31.8566 29.7154 31.9913 29.5956 32.0362C29.4796 32.0811 29.3486 32.0212 29.2999 31.909C28.8471 30.8835 28.1772 29.9778 27.3014 29.3229C26.8673 28.9935 26.392 28.7166 25.883 28.522C25.6323 28.4209 25.3703 28.3349 25.1046 28.26C24.8351 28.2001 24.5619 28.1103 24.3523 28.1141C23.907 28.1028 23.5851 28.376 23.368 28.8289C23.151 29.2742 23.035 29.8132 22.9676 30.3558C22.8403 31.4486 22.8553 32.5939 22.9264 33.7091V33.7203C22.9377 33.8813 22.8142 34.0235 22.6532 34.031C22.5035 34.0385 22.3688 33.9337 22.3463 33.7877L22.3388 33.7989Z"></path>
<path fill="#19114B" d="M24.8275 33.3686C24.6479 32.9681 24.543 32.5602 24.5281 32.126C24.5281 31.6957 24.5618 31.2278 24.9285 30.7488C25.1119 30.5055 25.5012 30.3521 25.7893 30.4007C26.0812 30.4382 26.2983 30.5579 26.4854 30.6889C26.8559 30.9546 27.1291 31.2802 27.35 31.647L27.2938 31.7069C26.9121 31.531 26.5565 31.3251 26.2085 31.2129C26.0401 31.1492 25.8679 31.1156 25.7556 31.1268C25.6396 31.1493 25.6134 31.1717 25.5498 31.254C25.4226 31.4337 25.3514 31.8192 25.2803 32.1859C25.1942 32.5602 25.1306 32.9644 24.9098 33.376L24.8275 33.3686Z"></path>
</svg>
