<svg xmlns="http://www.w3.org/2000/svg" fill="none" viewBox="0 0 60 60" height="60" width="60">
<path fill="#231F20" d="M21.9445 58.6334C19.4504 58.6833 17.9235 58.434 16.4868 56.9509C15.2055 55.6266 11.116 45.0297 11.001 30.0988C10.9481 23.459 13.0286 18.8507 17.5472 15.6009C17.9919 15.2799 18.5704 14.9933 19.2732 14.744C19.2918 14.6318 19.3105 14.5197 19.3354 14.4075C19.4193 14.0087 19.5469 13.613 19.7086 13.2297C19.7459 13.1394 19.7832 13.0553 19.8298 12.9587C19.8298 12.9524 19.8361 12.9462 19.8392 12.94C19.8765 12.8621 19.9169 12.7842 19.9667 12.6938C19.9698 12.6845 19.976 12.6751 19.9822 12.6658C20.1284 12.3947 20.2994 12.1267 20.4922 11.8619C20.5513 11.7809 20.6104 11.703 20.6913 11.6033C20.7535 11.5254 20.8188 11.4475 20.8685 11.3914C20.8748 11.3852 20.8903 11.3665 20.8965 11.3602C21.0365 11.2045 21.1826 11.0518 21.3443 10.8991C21.4159 10.8306 21.4905 10.762 21.5962 10.6716C21.6709 10.6062 21.7486 10.5439 21.8233 10.4847C21.8233 10.4847 21.8544 10.4598 21.8575 10.4598C21.9352 10.3975 22.0161 10.3383 22.1218 10.2604C22.2929 10.1389 22.4701 10.0204 22.6754 9.89893C22.7624 9.84596 22.8526 9.79611 22.9428 9.74938C22.9428 9.74938 22.9832 9.72756 22.9863 9.72756C23.0734 9.68083 23.1636 9.63409 23.2476 9.5967L23.2973 9.57177C23.3906 9.52815 23.4839 9.48452 23.6145 9.42844C23.7141 9.38793 23.8167 9.34744 23.9193 9.30694C23.9224 9.30694 23.9255 9.30693 23.9317 9.30382C24.0313 9.26643 24.1308 9.23215 24.2676 9.18853C24.3671 9.15738 24.4697 9.1262 24.5693 9.09816L24.6252 9.08259C24.7279 9.05454 24.8305 9.02962 24.93 9.00781L24.986 8.99535C25.0917 8.97043 25.1975 8.95173 25.3063 8.92992L25.3467 8.92368C25.4587 8.90498 25.5737 8.88629 25.6888 8.87071C25.9998 8.83021 26.3139 8.80529 26.6249 8.79906C27.0727 8.78659 27.5205 8.81151 27.9621 8.87071C28.0336 8.88006 28.1052 8.89252 28.1736 8.90186C29.0848 9.04831 29.9555 9.34743 30.7672 9.78676C31.7095 8.97977 33.3359 7.95778 35.6186 7.81445C35.9793 7.79264 36.3494 7.79264 36.7163 7.81757C37.1735 7.84873 37.6369 7.92038 38.094 8.02632C38.2153 8.05436 38.3366 8.08552 38.4516 8.11979L38.5574 8.15096C38.6476 8.17589 38.7346 8.20394 38.8248 8.23509C38.8248 8.23509 38.859 8.24755 38.8621 8.24755L38.9212 8.26625C39.0332 8.30675 39.1451 8.34725 39.2633 8.39399L39.3131 8.4158C39.4064 8.45319 39.4965 8.49369 39.5836 8.53108L39.6925 8.58095C39.7702 8.61834 39.848 8.65572 39.9537 8.70869L40.0097 8.73674C40.1123 8.78971 40.2087 8.84266 40.3113 8.90186L40.3922 8.95173C40.4637 8.99223 40.5321 9.03585 40.6005 9.07947L40.7063 9.14803C40.7716 9.19165 40.8369 9.23527 40.9302 9.30382L40.9862 9.34432C41.0701 9.40664 41.1541 9.46895 41.2318 9.53127L41.3376 9.61852C41.3873 9.65902 41.4371 9.69952 41.4837 9.74314L41.5988 9.84285C41.6454 9.88647 41.6921 9.93008 41.7387 9.97371C41.7978 10.0298 41.8538 10.0859 41.9067 10.142C41.9502 10.1856 41.9906 10.2292 42.028 10.2697C42.0684 10.3133 42.1088 10.3569 42.1461 10.4006L42.2425 10.5128C42.2799 10.5564 42.3203 10.6031 42.3545 10.6467L42.4167 10.7277C42.4944 10.8243 42.5691 10.924 42.6499 11.0424L42.6872 11.0954C42.7277 11.1546 42.765 11.2107 42.8054 11.2699L42.849 11.3384C42.9796 11.541 43.0946 11.7497 43.191 11.9398C43.1942 11.946 43.2128 11.9803 43.2159 11.9865C43.2501 12.0582 43.2843 12.1299 43.3279 12.2233C43.4305 12.4508 43.5176 12.6845 43.5922 12.915C43.5922 12.9182 43.5922 12.9244 43.5953 12.9275C43.6544 13.1113 43.7073 13.3014 43.7477 13.4915C44.2235 14.8063 44.2235 15.9685 43.7726 16.7787C44.3604 17.084 44.8517 17.3831 45.2187 17.6667C47.2712 19.2495 48.6395 22.1378 48.8821 25.3939C49.0096 27.12 48.6426 28.6561 47.7874 29.9585C47.7687 30.2265 47.7097 30.429 47.6972 30.4664C46.9882 32.7628 45.399 33.9032 43.3341 33.5978C43.2284 33.5822 43.1257 33.5635 43.0231 33.5386C42.2208 33.8814 41.4464 34.1493 40.7591 34.3892C40.4295 34.5045 40.1247 34.6105 39.8542 34.7133C39.369 34.8971 38.8808 35.0778 38.3925 35.2585C37.8794 35.4486 37.3725 35.6387 36.8781 35.8256C36.8376 35.8474 36.7941 35.8661 36.7474 35.8786L36.6915 35.8942C35.3636 36.3958 32.3159 37.5487 31.7281 38.1469C31.0813 38.8044 30.9569 40.5928 31.0688 47.7218C31.1559 53.4549 31.1217 53.7883 30.2789 54.8321C30.1452 54.9972 29.9959 55.1811 29.8187 55.4553C28.8982 56.8761 26.9825 57.6986 25.2161 58.1504C23.8664 58.4963 22.6007 58.6272 21.9383 58.6396L21.9445 58.6334ZM36.2063 34.4173C36.7443 34.2147 37.2979 34.0091 37.8545 33.8004C38.3397 33.6196 38.8248 33.4389 39.31 33.2551C39.5929 33.1491 39.9102 33.037 40.2522 32.9186C40.9831 32.6631 41.8134 32.3733 42.6499 32.0056C42.8179 31.9309 43.0045 31.9184 43.1817 31.9714C43.3123 32.0088 43.4367 32.0368 43.5642 32.0555C44.0431 32.1271 45.4986 32.3421 46.2231 29.9897C46.2231 29.9897 46.2542 29.8744 46.2449 29.7685C46.2325 29.5878 46.2822 29.407 46.3849 29.2606C47.1374 28.2012 47.4484 26.9705 47.3396 25.4998C47.1312 22.6769 45.9868 20.2061 44.2764 18.8881C43.8441 18.5547 43.1351 18.159 42.2799 17.7726C42.087 17.6854 41.9378 17.5233 41.8662 17.3239C41.7947 17.1245 41.8103 16.9033 41.9067 16.7163C41.9378 16.654 41.9658 16.5917 41.9938 16.5294C42.0497 16.4079 42.1368 16.2988 42.2425 16.2209C42.6562 15.9187 42.6686 15.0369 42.2736 13.9744C42.2612 13.9401 42.2519 13.9027 42.2425 13.8685C42.2083 13.7127 42.1679 13.5569 42.1181 13.4073C42.1181 13.4042 42.1181 13.398 42.115 13.3949C42.056 13.2142 41.9875 13.0334 41.9036 12.8403C41.8787 12.7842 41.8507 12.725 41.832 12.6876C41.832 12.6814 41.8134 12.6502 41.8103 12.6471C41.7294 12.4882 41.6392 12.323 41.5366 12.1641L41.5055 12.1143C41.4744 12.0675 41.4464 12.0239 41.4153 11.9772L41.378 11.9242C41.322 11.8432 41.2629 11.7653 41.179 11.6625L40.9831 11.4319C40.9551 11.3976 40.924 11.3665 40.8898 11.3291C40.8587 11.2948 40.8276 11.2637 40.7934 11.2294C40.7498 11.1858 40.7063 11.1422 40.6596 11.0985C40.6223 11.0643 40.5881 11.03 40.5477 10.9926L40.2553 10.7433C40.1932 10.6935 40.1278 10.6436 40.0314 10.5751L39.991 10.547C39.9381 10.5096 39.8884 10.4753 39.8324 10.438L39.7484 10.3819C39.6925 10.3476 39.6396 10.3133 39.5556 10.2635L39.5152 10.2386C39.4375 10.1949 39.3597 10.1513 39.2789 10.1077C39.2789 10.1077 39.2135 10.0734 39.2104 10.0734C39.1482 10.0423 39.0829 10.0111 38.999 9.97059L38.9368 9.94256C38.8621 9.90828 38.7906 9.87713 38.7129 9.84908L38.6724 9.83039C38.5822 9.79612 38.489 9.76184 38.3988 9.73068L38.321 9.70575C38.2495 9.68082 38.178 9.65902 38.0753 9.63097L38.0194 9.6154C37.923 9.58736 37.8234 9.56243 37.7239 9.5375C37.3445 9.45026 36.962 9.39104 36.5888 9.36612C36.2903 9.34431 35.9886 9.34432 35.6932 9.36302C34.0947 9.46272 32.5274 10.1669 31.3923 11.2948C31.1342 11.5503 30.7361 11.5939 30.4313 11.3976C29.6539 10.9022 28.8049 10.5782 27.9061 10.4317C27.8502 10.4224 27.7911 10.413 27.732 10.4068C27.3743 10.3601 27.0074 10.3383 26.6435 10.3476C26.3885 10.3538 26.1273 10.3757 25.8692 10.4068C25.7759 10.4193 25.6826 10.4348 25.5551 10.4567C25.468 10.4722 25.384 10.4878 25.297 10.5096C25.2939 10.5096 25.2534 10.519 25.2503 10.519C25.1664 10.5377 25.0855 10.5564 25.0046 10.5813L24.9611 10.5937C24.8802 10.6156 24.7963 10.6405 24.6874 10.6748C24.6035 10.7028 24.5195 10.7309 24.4386 10.762H24.4293C24.3485 10.7963 24.2707 10.8274 24.165 10.8711C24.0903 10.9022 24.0157 10.9365 23.9411 10.9708L23.6083 10.2697L23.9038 10.9895C23.8322 11.0237 23.7576 11.0611 23.655 11.1141C23.5834 11.1515 23.5119 11.192 23.4217 11.245C23.2756 11.3322 23.1356 11.4226 22.9801 11.5347C22.9148 11.5815 22.8526 11.6282 22.7655 11.6968C22.7034 11.7466 22.6443 11.7965 22.5665 11.8619C22.5043 11.9149 22.4452 11.971 22.3799 12.0302C22.2586 12.1454 22.1436 12.2638 22.0254 12.3978C21.9725 12.457 21.9228 12.5162 21.8637 12.591C21.8139 12.6533 21.7673 12.7156 21.7113 12.7904C21.5714 12.9836 21.4408 13.1861 21.3288 13.3918C21.3288 13.3949 21.3257 13.4011 21.3226 13.4042C21.2853 13.4728 21.251 13.5413 21.2168 13.613C21.2168 13.6161 21.2168 13.6192 21.2137 13.6223C21.1795 13.694 21.1484 13.7657 21.1173 13.8373C21.1173 13.8373 21.1173 13.8373 21.1173 13.8404C20.9929 14.1302 20.8965 14.4293 20.8343 14.7316C20.7877 14.9466 20.7597 15.1615 20.7441 15.3734C20.7224 15.6943 20.5078 15.9685 20.1999 16.0651C19.438 16.3019 18.844 16.5699 18.4366 16.8628C13.1437 20.6703 12.503 25.9298 12.5372 30.0894C12.6554 45.0734 16.8631 55.1187 17.5876 55.8759C18.5424 56.8636 19.5095 57.1347 21.9041 57.0879C23.6705 57.0537 27.4241 56.2903 28.5126 54.6078C28.7333 54.2681 28.9168 54.0376 29.0661 53.8537C29.5357 53.2711 29.5948 53.1994 29.5108 47.7436C29.3864 39.6456 29.5419 38.1469 30.6179 37.0533C31.3145 36.3491 33.1773 35.5577 36.1597 34.4329C36.1659 34.4329 36.1721 34.4297 36.1783 34.4266C36.1846 34.4266 36.1908 34.4204 36.197 34.4204L36.2063 34.4173Z"></path>
<path fill="white" d="M42.8365 16.517C41.745 19.5268 37.8452 21.091 34.2067 20.2217C29.9897 19.2121 28.78 16.3425 29.3958 13.1986C29.8374 10.9521 33.3422 7.71168 37.9136 8.77729C41.8818 9.69957 43.9343 13.5071 42.8397 16.5201L42.8365 16.517Z"></path>
<path fill="#231F20" d="M34.1383 20.5083C30.2074 19.5673 28.3726 16.8815 29.1034 13.1425C29.3522 11.8682 30.422 10.4816 31.893 9.5313C33.6936 8.36599 35.8518 7.9952 37.9789 8.49061C40.0221 8.96733 41.7356 10.2386 42.681 11.9834C43.4865 13.4728 43.6451 15.1616 43.1164 16.6198C42.426 18.5235 40.6099 19.9163 38.4143 20.4803C37.074 20.823 35.5937 20.8573 34.1383 20.5114V20.5083ZM32.2133 10.0267C30.8947 10.8836 29.8996 12.1517 29.6819 13.2578C29.2931 15.2488 29.3709 18.7604 34.272 19.935C37.8266 20.7856 41.5428 19.209 42.5566 16.4172C43.0293 15.118 42.8832 13.6068 42.1555 12.2639C41.2909 10.6686 39.7174 9.50015 37.839 9.06393C36.6573 8.78974 35.4631 8.80221 34.3342 9.09198C33.5878 9.28205 32.8695 9.59674 32.2071 10.0267H32.2133Z"></path>
<path fill="#231F20" d="M39.68 14.9746C40.4326 16.573 41.5428 17.514 42.5628 16.9376C43.5829 16.3612 43.5331 14.8095 42.7992 13.2017C42.0839 11.6345 40.9644 10.6 39.8324 11.1484C38.7004 11.6968 38.9274 13.3762 39.68 14.9746Z"></path>
<path fill="white" d="M40.669 15.0388C40.7126 14.4743 40.2815 13.9806 39.7061 13.936C39.1307 13.8915 38.629 14.313 38.5854 14.8774C38.5419 15.4419 38.973 15.9356 39.5484 15.9802C40.1238 16.0247 40.6255 15.6032 40.669 15.0388Z"></path>
<path fill="white" d="M38.8247 13.9028C35.3448 13.9682 29.4392 15.3859 29.4392 15.3859C29.3863 15.4109 29.3396 15.4327 29.2899 15.4514C29.2028 14.7316 29.2432 13.9745 29.3925 13.1986C29.8341 10.9521 33.3389 7.71168 37.9104 8.77729C40.8274 9.45654 42.7058 11.6937 43.0634 14.0243C43.0261 14.0243 42.9826 14.0243 42.9328 14.0181C42.1336 13.9309 42.3046 13.8374 38.8216 13.9028H38.8247Z"></path>
<path fill="#231F20" d="M39.879 13.3638C40.2335 13.3513 40.5911 13.342 40.9488 13.3544C41.3064 13.3638 41.6671 13.3793 42.0403 13.4416C42.4073 13.4946 42.8085 13.6317 43.051 13.7314L42.7711 14.071C42.5224 12.4508 41.5116 10.9926 40.1589 10.0703C39.4747 9.61231 38.7097 9.28204 37.9104 9.08574C37.105 8.90503 36.2747 8.83024 35.4537 8.89878C33.8148 9.05769 32.235 9.79927 31.0657 10.9615C30.4935 11.541 29.9834 12.2265 29.7595 12.9836L29.6818 13.2672L29.6289 13.5725C29.5978 13.7781 29.5729 13.9838 29.5574 14.1894C29.5263 14.6007 29.5325 15.012 29.5823 15.4202L29.1842 15.1803L29.3086 15.1211C29.3273 15.1117 29.349 15.1055 29.3677 15.0993C30.9133 14.7067 32.4651 14.3546 34.0325 14.0524C35.6029 13.7564 37.1765 13.4915 38.8123 13.4105L39.8759 13.3638H39.879ZM34.1662 14.8344C32.6081 15.0681 31.0501 15.3548 29.5076 15.6788L29.5667 15.657L29.3957 15.7287H29.3926C29.3677 15.7411 29.3397 15.7474 29.3117 15.7505C29.1531 15.7661 29.0132 15.6476 28.9976 15.4887C28.9447 15.0401 28.9354 14.5883 28.9696 14.1427C28.9852 13.9184 29.0132 13.6971 29.0474 13.479L29.1065 13.1519L29.1966 12.8123C29.4672 11.9149 30.027 11.1796 30.6521 10.5439C31.9209 9.28204 33.622 8.48439 35.4008 8.30991C36.2902 8.23201 37.1859 8.31613 38.0535 8.50931C38.918 8.72118 39.7515 9.08262 40.4947 9.58115C41.9688 10.5876 43.0821 12.1798 43.3589 13.9807L43.362 14.0025C43.3838 14.152 43.2812 14.2923 43.1288 14.3141L43.079 14.3203C42.6156 14.3889 42.3202 14.3639 41.9812 14.3857C41.6454 14.4013 41.2971 14.4075 40.9488 14.4138C40.6005 14.4231 40.2491 14.4169 39.8945 14.4138L38.8372 14.4013C37.3009 14.4138 35.7273 14.607 34.1724 14.8344H34.1662Z"></path>
<path fill="white" d="M30.0192 18.6033C30.82 18.5569 31.4304 17.8494 31.3827 17.0231C31.335 16.1967 30.6472 15.5645 29.8465 15.6109C29.0457 15.6573 28.4353 16.3648 28.483 17.1911C28.5307 18.0174 29.2185 18.6497 30.0192 18.6033Z"></path>
<path fill="#231F20" d="M21.1297 8.98602C21.0738 8.42829 21.0054 7.44057 21.8046 6.33446C22.8495 4.88872 25.5799 3.97578 26.5005 5.29688C26.8861 5.84838 26.6062 6.12882 26.1242 6.34693C25.5737 6.59308 24.7714 6.75821 24.0406 7.15704C23.2289 7.59948 22.1933 8.21953 21.5402 9.26645C21.4252 9.4534 21.3723 9.44405 21.3039 9.41912C21.1453 9.36304 21.1297 8.98602 21.1297 8.98602Z"></path>
<path fill="#231F20" d="M38.1873 4.53664C37.9976 4.01006 37.6431 3.09403 36.5857 2.44594C35.2049 1.59843 32.7793 1.95676 32.6331 3.53959C32.5709 4.20014 32.8974 4.33412 33.3484 4.31854C33.8646 4.30296 34.5332 4.10665 35.2454 4.14716C36.0353 4.1939 37.0708 4.30608 37.9914 4.96352C38.1562 5.08192 38.1904 5.05076 38.2308 4.99779C38.3272 4.87939 38.1842 4.53354 38.1842 4.53354L38.1873 4.53664Z"></path>
<path fill="white" d="M48.1108 25.4407C47.8558 22.007 46.3817 19.5331 44.749 18.2712C43.1164 17.0124 38.2401 15.0494 32.5709 14.5322C26.9016 14.015 20.3336 14.5446 17.9919 16.2272C14.627 18.6482 11.71 22.4401 11.7691 30.0894C11.8872 45.0609 16.0296 55.3681 17.0372 56.4087C18.2251 57.6364 19.4597 57.9043 21.9258 57.8576C23.8011 57.8202 27.8625 57.0413 29.1687 55.0253C30.2851 53.3054 30.4002 54.7106 30.2913 47.7281C30.1732 40.1473 30.3069 38.4772 31.1745 37.5954C32.0422 36.7168 35.9202 35.3552 39.5774 33.978C42.3545 32.9342 48.5524 31.4573 48.1077 25.4375L48.1108 25.4407Z"></path>
<path fill="#231F20" d="M21.9352 58.2813C19.5437 58.3281 18.0821 58.0975 16.7355 56.7047C15.5196 55.4491 11.4643 44.6964 11.3462 30.0957C11.2777 21.5334 14.966 17.8848 17.7431 15.8876C20.2776 14.0648 27.138 13.6161 32.6051 14.1147C38.4236 14.6444 43.3558 16.6696 45.001 17.9409C46.9757 19.4645 48.2943 22.2563 48.5275 25.4126C48.9505 31.1551 43.7508 32.9685 40.6409 34.0528C40.3082 34.1681 40.0003 34.2771 39.7235 34.3799C39.2353 34.5638 38.7408 34.7476 38.2526 34.9283C35.2578 36.0438 32.1573 37.1997 31.47 37.8977C30.7299 38.6486 30.593 40.3935 30.7081 47.725C30.7983 53.4768 30.7423 53.6824 29.999 54.6078C29.8622 54.7792 29.7067 54.9723 29.517 55.259C28.6742 56.5583 26.827 57.3653 25.073 57.8171C23.8602 58.1287 22.6909 58.2689 21.929 58.2844L21.9352 58.2813ZM47.691 25.4718C47.4764 22.5523 46.2791 19.9849 44.4909 18.6077C42.9267 17.4019 38.1811 15.47 32.5336 14.9559C26.4383 14.4013 20.2932 15.0961 18.2407 16.573C15.6129 18.4612 12.1298 21.9198 12.1951 30.0894C12.3164 45.2822 16.4992 55.2434 17.3451 56.119C18.3837 57.1908 19.41 57.4868 21.9228 57.437C24.0406 57.3965 27.6977 56.5271 28.8204 54.7979C29.0319 54.4738 29.2091 54.2526 29.3522 54.075C29.9026 53.3926 29.9617 53.321 29.8746 47.7374C29.7534 39.8513 29.9026 38.2934 30.8822 37.3026C31.7001 36.4738 34.6047 35.3894 37.9696 34.1369C38.4578 33.9562 38.9492 33.7724 39.4374 33.5885C39.7173 33.4826 40.0314 33.3735 40.3735 33.2551C43.4398 32.1864 48.0735 30.5693 47.6941 25.4749L47.691 25.4718Z"></path>
<path fill="white" d="M20.119 16.8504C20.912 19.9537 24.6376 21.8949 28.3445 21.3839C32.6392 20.7919 34.1258 18.0562 33.821 14.8687C33.6033 12.5879 30.4313 9.02032 25.7789 9.63101C21.7392 10.1607 19.326 13.747 20.119 16.8504Z"></path>
<path fill="#231F20" d="M19.8205 14.2486C20.0537 13.3793 20.4829 12.5723 21.0489 11.8837C22.1777 10.5034 23.8384 9.59984 25.5861 9.35992C26.4569 9.24775 27.3432 9.23218 28.214 9.38485C29.0816 9.54376 29.9213 9.84287 30.6894 10.276C31.4575 10.7091 32.1541 11.2699 32.7388 11.9367C33.3172 12.6066 33.7993 13.3762 34.0512 14.2673C34.1071 14.4886 34.1507 14.7316 34.1693 14.9497C34.1787 15.1709 34.2098 15.389 34.2004 15.6102C34.1973 15.8315 34.2035 16.0527 34.1787 16.277C34.1631 16.4983 34.1413 16.7226 34.0947 16.9407C33.9392 17.8194 33.5971 18.6949 33.0249 19.4084C32.462 20.1251 31.7094 20.6765 30.8978 21.0504C30.0861 21.4275 29.2216 21.6425 28.3539 21.7671C26.6 22.0101 24.7807 21.711 23.1916 20.9165C22.3985 20.5176 21.6677 19.9786 21.0675 19.3056C20.4673 18.6357 20.0102 17.8225 19.7894 16.9376C19.5717 16.0496 19.5997 15.1148 19.8329 14.2455L19.8205 14.2486ZM23.5243 20.2341C24.9673 20.9539 26.6404 21.2031 28.2451 21.0068C29.0536 20.8978 29.8498 20.7046 30.5806 20.3743C31.3083 20.0472 31.9644 19.5736 32.4558 18.9629C32.9565 18.3553 33.2613 17.6012 33.4074 16.8161C33.451 16.6198 33.4727 16.4203 33.4883 16.2209C33.5163 16.0215 33.51 15.819 33.5163 15.6165C33.5256 15.414 33.4976 15.2114 33.4945 15.0058C33.4789 14.8032 33.4478 14.6256 33.4012 14.4356C33.1959 13.6847 32.773 12.9743 32.2506 12.3605C31.7219 11.7466 31.0844 11.2232 30.3815 10.8181C29.6787 10.4131 28.9044 10.1295 28.1082 9.97685C27.309 9.82106 26.4818 9.84286 25.6763 9.95192C24.0654 10.1856 22.5509 11.0207 21.5464 12.2826C20.5357 13.5289 20.0599 15.227 20.4642 16.76C20.8685 18.2992 22.0907 19.5237 23.5274 20.231L23.5243 20.2341Z"></path>
<path fill="#231F20" d="M30.1949 16.7382C30.7608 18.4114 31.756 19.4739 32.8351 19.019C33.9142 18.5609 34.3714 16.5512 33.824 14.8718C33.2767 13.1924 31.9675 12.5412 30.7795 12.9556C29.5915 13.37 29.6258 15.065 30.1949 16.7413V16.7382Z"></path>
<path fill="white" d="M30.2752 17.2261C31.0759 17.1797 31.6864 16.4722 31.6387 15.6459C31.591 14.8196 30.9032 14.1873 30.1025 14.2337C29.3017 14.2801 28.6913 14.9876 28.739 15.8139C28.7867 16.6403 29.4745 17.2725 30.2752 17.2261Z"></path>
<path fill="white" d="M25.7821 9.63101C30.4344 9.02032 33.6065 12.5879 33.8242 14.8687C33.8242 14.8718 33.8242 14.878 33.8242 14.8812C32.7979 14.8033 30.7858 14.7191 27.8253 14.7752C24.3453 14.8407 20.4456 15.7442 20.4456 15.7442C20.2683 15.8284 20.1128 15.8751 19.976 15.8938C19.8329 13.0491 22.1498 10.1046 25.779 9.63101H25.7821Z"></path>
<path fill="#231F20" d="M21.8793 11.8713C20.8437 12.9338 20.2031 14.4044 20.2715 15.8813L19.9356 15.604C20.0569 15.5853 20.1844 15.5386 20.3119 15.4732C20.3306 15.4638 20.3492 15.4576 20.371 15.4514H20.3772C21.4843 15.1896 22.5852 14.9684 23.7047 14.8033C24.8212 14.6319 25.947 14.5073 27.082 14.4418C28.2234 14.3889 29.3367 14.3858 30.4656 14.3826C31.5913 14.3858 32.7202 14.42 33.846 14.5852L33.5288 14.9092C33.4293 14.1178 33.0467 13.3357 32.5398 12.6689C32.0267 11.999 31.3892 11.4257 30.6739 10.9708C29.9618 10.5159 29.1688 10.1888 28.3384 10.0205C27.5112 9.84601 26.6591 9.8242 25.8163 9.92079C24.3329 10.1202 22.9117 10.7901 21.8762 11.8682L21.8793 11.8713ZM28.4659 9.44406C29.3616 9.62789 30.223 9.98311 30.9911 10.4723C31.7624 10.9615 32.4497 11.5815 33.0094 12.3106C33.5599 13.0397 33.9984 13.8903 34.1165 14.8531C34.1165 14.8718 34.1165 14.8905 34.1165 14.9092C34.1041 15.0681 33.9673 15.1865 33.8087 15.1772H33.7993C32.6891 15.1772 31.5727 15.1585 30.4562 15.1398C29.3429 15.1273 28.214 15.1211 27.1131 15.1616C26.0091 15.2146 24.902 15.3236 23.798 15.4825C22.6972 15.6414 21.5901 15.8159 20.5078 16.0403L20.57 16.0184C20.4021 16.0963 20.2186 16.1618 20.0134 16.1867H19.9854C19.8237 16.1929 19.6868 16.0683 19.6775 15.9063C19.5997 14.2424 20.3181 12.6222 21.4501 11.4569C22.5821 10.276 24.1339 9.55001 25.7386 9.33501C26.6436 9.23219 27.5672 9.25401 28.4597 9.44096L28.4659 9.44406Z"></path>
<path fill="#231F20" d="M47.296 29.8651C47.2836 29.6782 47.2649 29.4881 47.2027 29.27C47.1716 29.1609 47.125 29.0425 47.0441 28.921C47.0006 28.8587 46.9477 28.7964 46.8793 28.7403C46.8482 28.7123 46.8078 28.6873 46.7704 28.6655L46.6989 28.6281C46.5279 28.5347 46.3009 28.4568 46.0956 28.4256C45.8935 28.3976 45.7007 28.3882 45.5203 28.3944C44.7926 28.4131 44.124 28.5253 43.446 28.625C42.0995 28.8431 40.7653 29.0955 39.4343 29.3541C36.7878 29.8713 34.1165 30.2639 31.4296 30.3574C30.0892 30.3948 28.7426 30.3792 27.4303 30.1736C26.1179 29.9804 24.8336 29.5816 23.8726 28.6904C23.3844 28.2605 22.977 27.7401 22.6038 27.1886C22.2244 26.6402 21.8979 26.0482 21.4936 25.4843C21.2883 25.2039 21.0769 24.9172 20.8032 24.6711C20.542 24.4436 20.2932 24.2255 20.0257 24.0105C19.7614 23.7955 19.466 23.5743 19.1301 23.4496C18.7973 23.3219 18.4615 23.2627 18.1256 23.2066C18.4335 23.3562 18.7445 23.4995 19.0244 23.6678C19.3042 23.8329 19.5282 24.0604 19.7676 24.3003C19.9977 24.5433 20.2496 24.7801 20.4829 25.0169C20.7068 25.2319 20.8934 25.503 21.0769 25.774C21.7828 26.8895 22.4639 28.1389 23.5336 29.0768C24.0592 29.5473 24.675 29.9243 25.3311 30.186C25.9873 30.4446 26.6653 30.616 27.3463 30.722C28.7084 30.9525 30.083 30.9899 31.4513 30.9712C34.1849 30.9151 36.8967 30.5537 39.5743 30.0707C40.9053 29.8308 42.2394 29.5972 43.5673 29.4009C44.2266 29.3105 44.9045 29.2139 45.5327 29.2077C45.6882 29.2077 45.8344 29.217 45.9681 29.2357C46.0987 29.2606 46.1951 29.2949 46.3195 29.3635L46.3599 29.3853H46.3537C46.3537 29.3853 46.3537 29.3853 46.3599 29.3946C46.3724 29.4133 46.391 29.4538 46.4035 29.5068C46.4346 29.6158 46.4501 29.7654 46.4563 29.9181C46.4688 30.1549 46.6647 30.3356 46.898 30.3231C47.1312 30.3107 47.3116 30.1144 47.2991 29.8807C47.2991 29.8807 47.2991 29.8745 47.2991 29.8714L47.296 29.8651Z"></path>
<path fill="white" d="M46.9571 30.2296C46.4564 31.8592 45.3867 33.1087 43.4492 32.822C41.3656 32.5135 40.3829 30.5475 40.0315 29.6127C45.5173 28.5938 45.9558 28.7527 46.5591 29.0207C47.2526 29.3292 46.9602 30.2296 46.9602 30.2296H46.9571Z"></path>
<path fill="#231F20" d="M43.387 33.2395C41.0577 32.8937 39.9879 30.6908 39.6365 29.7623C39.593 29.6439 39.6023 29.513 39.6645 29.404C39.7267 29.2949 39.8355 29.217 39.9537 29.1952C45.3866 28.1857 45.9837 28.301 46.7301 28.6312C47.5511 28.9958 47.5044 29.915 47.3614 30.3543C46.8794 31.9122 46.0024 32.8812 44.8269 33.1803C44.3884 33.2925 43.9063 33.3143 43.3901 33.2364L43.387 33.2395ZM43.5114 32.4045C44.9948 32.6226 46.0179 31.8499 46.5559 30.105V30.0988C46.5559 30.0988 46.7301 29.5597 46.388 29.4071C45.9215 29.1983 45.5483 29.0332 40.6254 29.9336C41.0484 30.831 41.9378 32.1708 43.5114 32.4045Z"></path>
<path fill="white" d="M44.9917 28.9615C44.9388 29.7779 44.746 31.0398 44.1831 32.8345Z"></path>
<path fill="#231F20" d="M44.5718 28.9335C44.5656 30.2016 44.3293 31.5071 44.0183 32.7815C43.9934 32.875 44.0525 32.9716 44.1458 32.9934C44.2329 33.0152 44.3199 32.9653 44.351 32.8843C44.8237 31.638 45.2311 30.3574 45.4115 28.9864C45.4426 28.7559 45.2809 28.5409 45.0476 28.5097C44.8175 28.4786 44.6029 28.6406 44.5718 28.8743C44.5718 28.8899 44.5687 28.9085 44.5687 28.9241V28.9304L44.5718 28.9335Z"></path>
<path fill="white" d="M23.5026 23.9077L22.5043 24.4748L20.6322 23.889L19.6899 24.0261L19.5873 24.7396V25.4313L19.5531 26.2851L18.0386 27.0235C18.0386 27.0235 15.8741 21.6363 18.5268 21.5552C21.534 21.4649 22.9615 23.3126 23.4217 23.9233"></path>
<path fill="#231F20" d="M18.2749 26.9269C17.9795 25.9984 17.7214 25.0387 17.597 24.0915C17.5379 23.621 17.5223 23.1412 17.6094 22.7206C17.6965 22.2937 17.908 21.9914 18.2842 21.9073C18.4615 21.8575 18.7103 21.873 18.9498 21.8699C19.1861 21.8762 19.4256 21.8918 19.6588 21.9229C20.1315 21.979 20.5886 22.113 21.024 22.2968C21.901 22.6613 22.6567 23.2814 23.2569 24.051C23.3253 24.1414 23.4559 24.157 23.543 24.0853C23.627 24.0199 23.6456 23.8983 23.5865 23.808H23.5834C23.0081 22.9605 22.1995 22.2345 21.2479 21.7952C20.7721 21.577 20.2683 21.415 19.749 21.3371C19.4909 21.2935 19.2296 21.2686 18.9715 21.2561C18.7134 21.2561 18.4584 21.2187 18.1474 21.2873C17.8489 21.3465 17.541 21.5147 17.3326 21.764C17.1243 22.0102 17.0092 22.2999 16.9439 22.5772C16.8226 23.135 16.863 23.6709 16.9283 24.1881C17.0776 25.2225 17.3917 26.1884 17.8053 27.1263C17.8613 27.2541 18.0137 27.3133 18.1412 27.2572C18.2625 27.2042 18.3216 27.0702 18.2811 26.9456V26.9331L18.2749 26.9269Z"></path>
<path fill="#231F20" d="M19.8734 26.2165C19.9698 25.8239 19.9387 25.4656 19.9294 25.1322C19.9138 24.8081 19.8889 24.4685 19.9574 24.2909C19.9916 24.2068 20.0102 24.1819 20.1035 24.1382C20.1968 24.104 20.3492 24.0915 20.5047 24.1133C20.8219 24.1351 21.164 24.2317 21.5216 24.3003L21.5558 24.2379C21.2915 23.9762 20.996 23.7612 20.626 23.6148C20.4425 23.5493 20.2341 23.4902 19.9791 23.5213C19.7241 23.5431 19.4318 23.755 19.3261 23.998C19.1208 24.481 19.1892 24.8798 19.2825 25.2443C19.3883 25.6089 19.5655 25.9298 19.7988 26.229L19.8703 26.2165H19.8734Z"></path>
<path fill="#231F20" d="M36.4022 34.7258C35.3417 35.0062 34.3093 35.3427 33.2892 35.7415C32.2661 36.1528 31.3083 36.5859 30.31 36.9536C29.3211 37.3306 28.3135 37.6453 27.2872 37.879C26.261 38.122 25.2192 38.2622 24.1245 38.3152C25.1694 38.6548 26.3045 38.7234 27.4054 38.6081C28.5125 38.499 29.5854 38.2062 30.6303 37.8697C31.1497 37.6952 31.6628 37.502 32.1728 37.3026L33.6624 36.6825C34.6451 36.2806 35.6496 35.9004 36.6479 35.539H36.6541C36.8718 35.458 36.9869 35.215 36.906 34.9937C36.8314 34.7881 36.6106 34.6759 36.4022 34.7289V34.7258Z"></path>
</svg>
