<svg xmlns="http://www.w3.org/2000/svg" fill="none" viewBox="0 0 60 60" height="60" width="60">
<path fill="#231F20" d="M27.9794 52.2169C27.8144 52.2169 27.621 52.1782 27.4018 52.0645C26.2853 51.4832 24.8232 48.9332 24.4081 46.112C22.2214 47.0627 19.5268 48.1375 17.7449 48.631C14.1916 49.6127 12.4149 49.6308 11.8064 48.6904C11.0844 47.5769 12.7992 46.4143 16.9378 43.6059C17.4355 43.2701 17.9512 42.9187 18.4798 42.557C21.8501 40.2473 24.9032 36.3022 26.4967 33.6282C26.6927 33.2975 26.8784 32.9281 27.0511 32.5251C26.0919 32.5044 25.0553 32.414 23.913 32.2512C23.8949 32.2512 21.2828 31.9076 18.2246 31.9231C15.156 31.936 7.97458 33.0831 5.46559 33.5249C5.04786 33.5972 3.77918 33.822 3.22478 33.0289C2.72453 32.3158 3.15516 31.3625 3.58578 30.6107L3.64251 30.5099C4.4032 29.1768 6.18502 26.0507 10.8858 24.8416C11.8966 24.5806 14.501 24.7047 17.7991 24.8907C18.6062 24.9372 19.3359 24.9785 19.9032 25.0017C19.6196 23.4594 20.0425 21.6767 21.1384 19.8837C22.964 16.892 26.5328 15.3341 28.6241 16.6155C28.6937 16.6595 28.7633 16.706 28.8304 16.755C29.4028 16.3546 30.0294 16.1066 30.6689 16.0317C32.3811 15.8301 34.2274 16.8067 35.509 18.5454C38.9695 16.6775 43.415 14.2774 45.8801 12.9391C46.9709 12.3475 48.1184 11.668 49.2272 11.0144C52.9094 8.83646 55.0497 7.62735 56.2023 8.10272C56.5479 8.24482 56.7902 8.52902 56.8908 8.90363C57.4375 10.9756 55.8594 15.0344 53.7655 16.9488C51.7388 18.7986 46.9683 20.7441 43.3892 21.7697C41.3598 22.351 39.6244 23.2656 38.5775 23.8934C38.6549 24.1182 38.7297 24.3326 38.807 24.5264C38.8225 24.5651 38.838 24.6039 38.8534 24.6426C39.9751 25.2343 40.4909 26.6604 40.4238 28.983C40.3903 30.156 40.0138 31.5795 39.3047 33.2149C39.2789 34.2199 39.2995 35.9793 39.658 37.346C39.8926 38.2425 40.6688 39.3896 41.4166 40.4979C42.3578 41.893 43.2474 43.2081 43.3041 44.3164C43.5723 49.5714 39.9055 50.349 38.7761 50.4627C37.2212 50.6151 36.3986 49.6851 35.3491 48.5044C35.0706 48.1892 34.7534 47.8326 34.3924 47.4606C33.0387 46.0629 30.7875 44.0141 30.0243 43.3243C29.7845 43.4587 29.5472 43.5879 29.3203 43.7145C29.0418 45.0243 28.949 46.3497 28.8897 47.595C28.8587 48.2589 28.9258 48.9461 28.9851 49.5507C29.1011 50.7521 29.194 51.7002 28.4539 52.1033C28.3533 52.1575 28.1935 52.2195 27.9872 52.2195L27.9794 52.2169ZM24.9521 44.5257C25.0656 44.5257 25.1816 44.5567 25.2822 44.6161C25.4627 44.7246 25.5787 44.9132 25.5916 45.1225C25.6045 45.293 25.62 45.4609 25.6406 45.6314C25.932 48.1194 27.1233 50.1785 27.7757 50.7701C27.7783 50.473 27.7345 50.0261 27.7009 49.6721C27.6365 49.0236 27.5669 48.2899 27.6004 47.533C27.6648 46.1378 27.7731 44.6394 28.1264 43.1409C28.1677 42.9626 28.2837 42.8102 28.4462 42.7224C28.8871 42.4821 29.3641 42.2186 29.8567 41.9421C30.0423 41.8362 30.2692 41.831 30.4601 41.9266C30.6045 41.999 30.7153 42.123 30.7721 42.2703C31.4167 42.8516 33.838 45.0424 35.3104 46.5615C35.6895 46.9517 36.017 47.3211 36.3032 47.644C37.3295 48.7989 37.7807 49.2665 38.6446 49.1787C41.8962 48.8506 42.087 45.7115 42.02 44.3784C41.9813 43.6266 41.1536 42.3994 40.3516 41.2136C39.5419 40.0148 38.7039 38.7747 38.4151 37.6689C37.9999 36.0852 37.9922 34.0933 38.0231 33.0469C38.0231 32.9643 38.0438 32.8816 38.0773 32.8067C38.7529 31.2746 39.1087 29.9751 39.1371 28.9391C39.1912 27.0686 38.8457 25.9809 38.1082 25.7096C37.92 25.6399 37.7756 25.4875 37.7163 25.2937C37.6853 25.1904 37.6518 25.0948 37.6157 25.0069C37.5074 24.746 37.4171 24.4773 37.3217 24.1931C37.2805 24.0717 37.2392 23.9451 37.1928 23.8211C37.0922 23.5395 37.2031 23.2243 37.4558 23.0641C38.4666 22.4234 40.5373 21.2401 43.0334 20.5245C46.5815 19.5091 51.107 17.6257 52.8965 15.9903C54.7248 14.3213 56.0063 10.7664 55.6582 9.27308C54.9001 9.14907 51.8883 10.9291 49.8796 12.1176C48.7605 12.779 47.6052 13.4636 46.4913 14.0682C43.9049 15.471 39.1319 18.0494 35.6095 19.9509C35.3104 20.1111 34.9391 20.0129 34.7612 19.7261C33.7452 18.0959 32.198 17.1452 30.8211 17.3079C30.2641 17.3725 29.7277 17.6309 29.2301 18.0753C29.1037 18.1889 28.9335 18.2458 28.7659 18.238C28.5957 18.2277 28.4358 18.1502 28.3224 18.021C28.2115 17.897 28.0903 17.7936 27.9562 17.711C26.4916 16.8145 23.6551 18.2225 22.2343 20.5529C21.1384 22.351 20.8264 24.0794 21.355 25.4203C21.4323 25.6141 21.4091 25.8362 21.2931 26.0093C21.1771 26.1824 20.9862 26.2909 20.7774 26.2987C20.7078 26.2987 20.6407 26.3013 20.5737 26.3013C19.9522 26.2987 18.9234 26.2393 17.7295 26.1721C15.4912 26.0455 12.1081 25.8518 11.2082 26.0817C7.03338 27.1564 5.4398 29.9493 4.75905 31.1429L4.69974 31.2462C4.31553 31.9154 4.28201 32.1892 4.28459 32.2771C4.36194 32.3055 4.61207 32.3649 5.24383 32.2538C7.78118 31.8069 15.0606 30.6468 18.2194 30.6339C21.3679 30.6184 23.9774 30.9594 24.0883 30.9723C25.5349 31.179 26.8345 31.2643 27.9665 31.2307C28.1754 31.2204 28.3765 31.3211 28.5029 31.4916C28.6292 31.6622 28.6628 31.8818 28.5931 32.0807C28.3069 32.9152 27.9743 33.6567 27.603 34.2819C25.9449 37.0695 22.75 41.1852 19.207 43.6137C18.6784 43.978 18.1601 44.3293 17.6624 44.6678C15.7775 45.9466 13.6681 47.3779 13.0828 48.0574C13.467 48.1401 14.5526 48.1762 17.4071 47.3883C19.3488 46.8509 22.4432 45.5849 24.6943 44.5799C24.7768 44.5438 24.8671 44.5231 24.9547 44.5231L24.9521 44.5257Z"></path>
<path fill="white" d="M28.4051 24.5265C26.7702 27.2108 23.9905 28.4948 22.1958 27.3968C20.4011 26.2988 19.6301 23.5732 21.6801 20.212C23.3175 17.5302 26.4918 16.0602 28.2839 17.1556C30.0786 18.2536 30.0373 21.8422 28.4025 24.5239L28.4051 24.5265Z"></path>
<path fill="#231F20" d="M28.6369 24.6685C27.9304 25.8208 26.9763 26.849 25.754 27.5001C25.1481 27.823 24.4673 28.0426 23.7556 28.0684C23.0465 28.102 22.3039 27.8514 21.7469 27.4174C21.1822 26.9885 20.7618 26.3891 20.5091 25.7381C20.2539 25.0844 20.1713 24.3791 20.2203 23.6945C20.2693 23.0073 20.4395 22.3433 20.6793 21.7103C20.914 21.0747 21.2363 20.4831 21.5999 19.9173C22.3348 18.7806 23.3611 17.8427 24.5576 17.2149C25.1584 16.9075 25.8108 16.675 26.4993 16.6026C27.18 16.5303 27.9304 16.6284 28.5235 17.0599C29.1191 17.4784 29.493 18.1347 29.6684 18.7986C29.8515 19.4678 29.8953 20.155 29.8515 20.8319C29.756 22.1883 29.3203 23.5007 28.6343 24.6711L28.6369 24.6685ZM28.1728 24.3843C28.8277 23.2992 29.2609 22.0617 29.3667 20.7931C29.4157 20.1602 29.3873 19.5195 29.2248 18.9201C29.0701 18.3181 28.7478 17.7678 28.2682 17.4242C27.7911 17.0677 27.1542 16.9721 26.5431 17.0315C25.9268 17.0909 25.3157 17.3002 24.7561 17.5947C23.637 18.1941 22.6674 19.0932 21.9867 20.1679C21.6463 20.7079 21.342 21.2814 21.1254 21.8782C20.9037 22.475 20.7515 23.0951 20.7154 23.7229C20.6793 24.3481 20.7619 24.9785 20.9913 25.5469C21.2208 26.1127 21.587 26.6242 22.0744 26.9859C22.5591 27.3476 23.1316 27.5336 23.7376 27.5052C24.3384 27.4768 24.9366 27.2805 25.4859 26.9937C26.5869 26.4046 27.4972 25.4616 28.1728 24.3869V24.3843Z"></path>
<path fill="white" d="M32.616 23.7696C32.8868 23.8523 34.0961 19.809 34.3334 19.9046C37.8944 17.9825 43.3482 15.0398 46.1795 13.5026C50.6044 11.0999 55.8158 7.36923 56.2619 9.06404C56.708 10.7589 55.3645 14.6058 53.3223 16.4685C51.2826 18.3312 46.4219 20.2224 43.2038 21.1447C41.0455 21.7622 39.1167 22.7698 37.7939 23.6095C37.9383 24.0202 38.0595 24.4129 38.2039 24.7643C38.8485 26.3325 38.9465 30.3345 38.797 31.2852C38.6474 32.2385 38.4721 35.3827 39.0316 37.5064C39.5886 39.6301 42.5695 42.5882 42.6597 44.3476C42.8789 48.6131 40.2745 49.6646 38.7067 49.8222C37.1389 49.9798 36.5226 48.7423 34.8465 47.0113C33.1704 45.2803 30.1844 42.6089 30.1844 42.6089L28.7197 30.9597C28.7197 30.9597 22.397 26.7872 25.4217 25.498C29.3618 23.8213 28.8255 22.5967 32.6186 23.7696H32.616Z"></path>
<path fill="#231F20" d="M38.4408 50.194C37.2237 50.194 36.512 49.3931 35.5528 48.3132C35.2717 47.9954 34.952 47.6363 34.5884 47.2617C32.9406 45.5591 29.9752 42.9032 29.9443 42.8774C29.8798 42.8205 29.8386 42.7405 29.8283 42.6526L28.3842 31.1661C27.5462 30.5977 24.0909 28.1408 24.2507 26.3891C24.2843 26.0171 24.4905 25.503 25.2848 25.1645C26.4812 24.6556 27.2522 24.1905 27.8711 23.8185C29.261 22.9814 29.9159 22.5887 32.4997 23.3535C32.6725 23.0124 32.9742 22.1934 33.1856 21.6225C33.8122 19.9251 33.9334 19.6771 34.1706 19.5711C34.1861 19.5634 34.2016 19.5582 34.2196 19.553C37.7833 17.6309 43.1958 14.7089 46.0142 13.1794C47.1101 12.5852 48.2576 11.9057 49.369 11.2495C52.8681 9.18006 55.0651 7.93221 56.094 8.35333C56.3596 8.46184 56.5401 8.67369 56.6149 8.96563C57.1744 11.0919 55.3797 15.0783 53.5721 16.7292C51.5788 18.548 46.8548 20.4702 43.3092 21.4855C41.1174 22.1133 39.266 23.1235 38.2345 23.7565C38.2474 23.7927 38.2603 23.8288 38.2732 23.8676C38.3635 24.1363 38.4511 24.392 38.5465 24.622C39.2092 26.2264 39.3253 30.3032 39.1603 31.3366C39.0287 32.1711 38.8276 35.2817 39.3872 37.408C39.6347 38.351 40.4238 39.5162 41.1845 40.6478C42.1025 42.0093 42.9714 43.2933 43.0256 44.3242C43.2809 49.3285 39.8178 50.0674 38.7503 50.1759C38.6471 50.1863 38.5465 50.1914 38.4511 50.1914L38.4408 50.194ZM30.5245 42.4278C31.0608 42.911 33.6137 45.2181 35.1041 46.7579C35.478 47.1454 35.8029 47.5097 36.0891 47.8326C37.0819 48.9487 37.6311 49.5636 38.6677 49.4603C39.8307 49.344 42.515 48.6129 42.2958 44.3629C42.2546 43.5336 41.4011 42.2728 40.5785 41.0534C39.7817 39.8753 38.9591 38.6558 38.6806 37.594C38.0927 35.3566 38.3016 32.0962 38.4408 31.2256C38.5801 30.3497 38.495 26.4124 37.871 24.8984C37.7678 24.6452 37.6776 24.3817 37.5821 24.1001C37.5409 23.9761 37.4971 23.8521 37.4532 23.7229C37.3965 23.5653 37.4584 23.3896 37.6002 23.2992C38.5981 22.6662 40.643 21.4985 43.103 20.7931C46.5712 19.8011 51.1714 17.9383 53.0796 16.197C55.0264 14.4195 56.3261 10.7199 55.9135 9.14906C55.8903 9.05863 55.8516 9.03538 55.8129 9.01988C55.0651 8.71244 52.2312 10.3892 49.7274 11.8695C48.6109 12.5309 47.4582 13.213 46.3494 13.8124C43.5233 15.347 38.0824 18.2845 34.5188 20.2067C34.3821 20.4392 34.0778 21.2608 33.8535 21.8731C33.1418 23.7952 32.9742 24.2525 32.51 24.1104C30.0423 23.3483 29.5885 23.6221 28.2373 24.436C27.5978 24.8209 26.8036 25.2989 25.5607 25.8285C24.996 26.0688 24.9702 26.3581 24.9624 26.4537C24.8644 27.5491 27.3347 29.6134 28.9154 30.6572C29.0031 30.714 29.0624 30.8096 29.0753 30.9129L30.5245 42.4278Z"></path>
<path fill="white" d="M28.7353 28.6705C28.7353 28.6705 28.3743 31.7243 27.0463 33.9539C25.7184 36.1835 22.5982 40.5084 18.8412 43.0842C15.0842 45.66 11.9047 47.6571 12.3457 48.3366C12.7866 49.016 14.7722 48.7835 17.5751 48.0084C20.3781 47.2334 25.4837 44.9934 27.2062 44.1073C28.9287 43.2211 33.0648 40.9502 34.8054 39.5783"></path>
<path fill="#231F20" d="M28.8898 28.6885C28.748 29.7632 28.5056 30.8096 28.1729 31.8378C28.0053 32.3494 27.8068 32.8532 27.5721 33.344C27.34 33.8375 27.0564 34.2999 26.7702 34.7521C25.6201 36.5606 24.3102 38.2657 22.8533 39.8443C22.1235 40.6297 21.3473 41.3763 20.5273 42.0713C19.7073 42.7714 18.8126 43.3812 17.9358 43.9754C17.0565 44.5748 16.1721 45.1716 15.3031 45.7813C14.8673 46.0861 14.4367 46.3962 14.0164 46.7139C13.5986 47.0343 13.1835 47.365 12.8379 47.7293C12.7554 47.8197 12.6729 47.9153 12.6162 48.0083C12.5543 48.0987 12.5311 48.1969 12.5388 48.2072C12.5414 48.2124 12.5388 48.2072 12.5465 48.2201C12.562 48.2356 12.5749 48.2486 12.5878 48.2641C12.6084 48.2977 12.66 48.3157 12.6935 48.3467L12.8353 48.4113L13.0004 48.4578C13.4697 48.5483 13.9983 48.5095 14.5114 48.4449C15.5455 48.308 16.5795 48.0522 17.598 47.7732C19.6197 47.1816 21.5975 46.3755 23.5546 45.5513C27.5076 43.965 31.1177 41.707 34.8077 39.5859C34.0393 40.3377 33.1496 40.95 32.2471 41.521C31.3395 42.0868 30.4086 42.6087 29.4777 43.1306C28.5417 43.6447 27.6108 44.1614 26.6412 44.629C25.6768 45.0915 24.7021 45.5255 23.7222 45.9492C21.7573 46.7837 19.7847 47.5975 17.7192 48.2098C16.6878 48.4966 15.646 48.7601 14.5708 48.9048C14.0318 48.972 13.4852 49.0236 12.9024 48.9151L12.6832 48.8557C12.6084 48.8247 12.5337 48.7937 12.4615 48.755C12.3918 48.7007 12.3145 48.6645 12.2552 48.5922L12.1649 48.4863C12.1365 48.4449 12.103 48.3752 12.0901 48.3183C12.0463 48.06 12.152 47.8998 12.2268 47.768C12.3093 47.6337 12.4047 47.5252 12.5027 47.4218C12.8921 47.0136 13.3175 46.6829 13.743 46.3548C14.1711 46.0293 14.6069 45.7193 15.0452 45.4144C15.9219 44.8021 16.8064 44.2105 17.6883 43.6111C18.5753 43.0143 19.4443 42.4227 20.2489 41.7406C21.056 41.0637 21.8218 40.33 22.5438 39.5549C23.9878 38.0074 25.3081 36.3358 26.4607 34.5557C27.6624 32.817 28.2658 30.7372 28.5829 28.6575V28.6497C28.5958 28.5645 28.6758 28.5076 28.7608 28.5205C28.8434 28.5335 28.9027 28.611 28.8898 28.6936V28.6885Z"></path>
<path fill="white" d="M36.85 27.0298C36.409 27.5078 35.589 28.8435 35.1146 30.2929C34.6401 31.7423 33.2425 36.341 30.4834 38.7721C27.7243 41.2007 24.6635 43.2184 23.7274 43.7403C22.7914 44.2622 16.9276 47.5769 14.2278 47.6983C14.2278 47.6983 13.4001 47.9334 14.9627 46.9C16.528 45.8666 20.1225 43.9366 22.2318 41.769C24.3411 39.6014 24.9394 38.9039 26.4066 36.9404C27.8738 34.9769 29.666 31.3573 29.8052 30.0966"></path>
<path fill="#231F20" d="M36.8499 27.0299C36.4786 27.5931 36.2001 28.2002 35.9242 28.8022C35.6534 29.4119 35.4265 30.0216 35.2305 30.6624C34.8231 31.9464 34.3589 33.2253 33.7813 34.455C33.2063 35.6822 32.5204 36.8758 31.6333 37.9247C31.409 38.1857 31.1769 38.4389 30.9268 38.6766C30.6741 38.9168 30.4162 39.1313 30.161 39.3509C29.6452 39.7849 29.1218 40.2112 28.588 40.6246C27.5205 41.4487 26.4297 42.2393 25.3029 42.9833C24.7407 43.3528 24.1683 43.7197 23.5752 44.0452C22.9873 44.3733 22.3968 44.6937 21.7985 45.0063C20.6046 45.6289 19.3953 46.2205 18.1524 46.7502C17.5309 47.0163 16.9017 47.2669 16.2545 47.4761C15.6073 47.6854 14.9472 47.8688 14.238 47.9153L14.287 47.9076C14.2406 47.9205 14.2071 47.9283 14.1633 47.9334C14.1143 47.936 14.0807 47.9515 13.9724 47.9231C13.9492 47.9154 13.9054 47.8998 13.8641 47.8611C13.8203 47.8249 13.7894 47.75 13.7868 47.7009C13.7842 47.5898 13.8126 47.564 13.8255 47.5278C13.859 47.4684 13.8874 47.4374 13.9157 47.4064C14.024 47.2901 14.1272 47.2126 14.2329 47.1299C14.4443 46.9698 14.6558 46.8225 14.8698 46.6804C15.3004 46.3936 15.7362 46.1275 16.1694 45.8588C17.0358 45.324 17.8971 44.7841 18.7377 44.2183C19.5758 43.6499 20.3906 43.0505 21.1513 42.3943C21.5304 42.061 21.8836 41.7226 22.2343 41.3505L23.2838 40.2422C23.9775 39.5007 24.635 38.7386 25.2513 37.9351C25.5607 37.5346 25.865 37.1264 26.1667 36.7182C26.4607 36.3177 26.7288 35.8915 26.9918 35.4626C27.5101 34.5997 27.9846 33.7058 28.4127 32.7938C28.6267 32.3391 28.8278 31.8766 29.0057 31.4116C29.1785 30.9543 29.3487 30.4634 29.4028 30.0475V30.0191C29.4364 29.7995 29.6375 29.6445 29.8567 29.6729C30.0759 29.7013 30.2306 29.9054 30.2022 30.125C30.2022 30.1276 30.2022 30.1327 30.2022 30.1353C30.1068 30.7295 29.916 31.2049 29.7226 31.6958C29.5266 32.1815 29.3074 32.6491 29.0779 33.1142C28.619 34.0416 28.1135 34.9407 27.5643 35.8165C27.2858 36.2532 26.997 36.6821 26.6824 37.1006C26.373 37.5088 26.0635 37.9144 25.7438 38.32C25.1095 39.1287 24.421 39.9037 23.7144 40.6452L22.6469 41.7458C22.2936 42.1127 21.9043 42.4744 21.5149 42.8102C20.7232 43.4768 19.8852 44.0788 19.0291 44.6446C18.173 45.2078 17.2989 45.7426 16.4247 46.267C15.9889 46.5306 15.5506 46.7915 15.1277 47.0628C14.9162 47.1997 14.7073 47.3392 14.5114 47.4865C14.416 47.5588 14.3154 47.6389 14.2484 47.7087C14.2329 47.7242 14.22 47.7422 14.2226 47.7397C14.2226 47.7319 14.2355 47.7345 14.2355 47.657C14.2355 47.6234 14.2097 47.5665 14.1787 47.5381C14.1504 47.5097 14.122 47.502 14.1117 47.4968C14.0653 47.4865 14.0962 47.4968 14.1117 47.4916C14.1297 47.4916 14.1581 47.4839 14.1736 47.4787H14.1762C14.1916 47.4735 14.2071 47.471 14.2226 47.471C14.8569 47.4374 15.5041 47.272 16.1333 47.0757C16.7651 46.8793 17.3891 46.6391 18.0054 46.3859C19.2354 45.8692 20.437 45.2775 21.6258 44.6601C22.8119 44.0323 23.9929 43.4148 25.0888 42.6475C26.1976 41.8982 27.2755 41.1051 28.325 40.2758C28.8484 39.8624 29.3642 39.4361 29.8722 39.0021C30.1249 38.7825 30.3801 38.5654 30.6122 38.3407C30.8469 38.1133 31.0661 37.8705 31.2801 37.6199C32.1181 36.6046 32.7886 35.4497 33.361 34.2509C33.9335 33.0496 34.3976 31.7965 34.8102 30.5228C35.0113 29.8795 35.2821 29.2362 35.6173 28.6446C35.9551 28.0555 36.347 27.4846 36.8525 27.0273L36.8499 27.0299Z"></path>
<path fill="#231F20" d="M31.7648 29.244L36.8499 27.0299C36.4089 27.5078 35.5889 28.8435 35.1145 30.2929C34.6735 31.6467 33.4255 35.7416 31.0171 38.258C30.4575 36.7053 30.2744 34.8193 30.589 32.8455C30.7979 31.5175 31.2104 30.2981 31.7648 29.244Z"></path>
<path fill="white" d="M36.85 27.0301C36.85 27.0301 35.3493 29.332 33.5932 30.2957C31.8372 31.2594 29.6634 32.4168 23.9982 31.6107C23.9982 31.6107 21.3552 31.2645 18.217 31.2774C15.0788 31.2904 7.7504 32.4659 5.34972 32.887C2.94903 33.3081 3.61689 31.8329 4.13777 30.9261C4.81079 29.7506 6.47915 26.6348 11.0407 25.4593C12.4976 25.0847 18.6708 25.6479 20.5635 25.6582C22.4588 25.666 25.3675 24.537 29.2483 22.3461C29.2483 22.3461 33.2529 21.4677 33.2864 21.4625"></path>
<path fill="#231F20" d="M36.8988 27.0608C36.1897 28.2209 35.3259 29.3034 34.2145 30.1482C33.9334 30.3575 33.6214 30.528 33.33 30.6907C33.0309 30.8535 32.7292 31.0163 32.4146 31.1584C31.7906 31.4529 31.1305 31.6802 30.4549 31.8301C29.7793 31.9825 29.0934 32.0678 28.41 32.1143C27.7241 32.1427 27.0382 32.1556 26.3575 32.1117C25.6741 32.0807 24.9959 32.0109 24.3204 31.9257C23.6525 31.8378 22.9872 31.7758 22.3168 31.7216C20.9785 31.6182 19.635 31.564 18.2916 31.5717C16.9636 31.5924 15.6227 31.7319 14.287 31.8869C11.613 32.2073 8.9441 32.618 6.28813 33.0702C5.95291 33.1244 5.63316 33.189 5.28505 33.2407C4.93436 33.2975 4.56562 33.3337 4.15304 33.2588C4.04732 33.2355 3.94417 33.2123 3.83329 33.1529C3.72241 33.1115 3.61927 33.0185 3.52128 32.9229C3.33562 32.7033 3.28921 32.4269 3.29694 32.2047C3.33304 31.7655 3.48776 31.427 3.64506 31.1041C4.28455 29.8821 5.06071 28.6988 6.087 27.7352C6.59499 27.2546 7.14681 26.8128 7.74505 26.4511C7.88945 26.3529 8.04159 26.2677 8.1963 26.185C8.35102 26.1023 8.50058 26.0145 8.65787 25.937C8.97762 25.7949 9.28963 25.6321 9.6197 25.521L10.1096 25.3376L10.6099 25.1878C10.9219 25.0793 11.337 25.0043 11.6774 24.9837C12.3814 24.932 13.0596 24.9397 13.7429 24.9501C15.1044 24.9759 16.4556 25.056 17.8042 25.1335L19.8207 25.2394C20.504 25.273 21.1074 25.273 21.7469 25.1361C23.0156 24.8803 24.2662 24.392 25.4781 23.8391C26.6927 23.2888 27.8788 22.6559 29.0495 21.9996H29.0547V21.9945C29.0882 21.9764 29.1269 21.9609 29.163 21.9531L33.2295 21.0644C33.4461 21.0179 33.6601 21.1548 33.7065 21.3718C33.7529 21.5889 33.6162 21.8033 33.3996 21.8498L33.3455 21.8627L29.3357 22.7411L29.4466 22.6998H29.4415C28.2553 23.3663 27.0537 24.0071 25.8056 24.5729C24.5602 25.1361 23.276 25.6451 21.8939 25.9241C21.5483 25.9912 21.1951 26.0403 20.8315 26.0533C20.4602 26.0739 20.1301 26.0507 19.7846 26.0403L17.7552 25.9344C16.4066 25.8569 15.0606 25.782 13.7223 25.7432C13.0544 25.7277 12.3814 25.7148 11.7367 25.7587C11.4041 25.782 11.1488 25.8233 10.8187 25.9292L10.3469 26.0662L9.88787 26.2341C9.57586 26.3374 9.28705 26.4873 8.98794 26.6165C8.84095 26.6862 8.69913 26.7689 8.55473 26.8438C8.41033 26.9187 8.2685 26.9988 8.13184 27.0893C7.57228 27.4225 7.05913 27.8281 6.58209 28.2725C5.62285 29.1587 4.88537 30.2618 4.26392 31.427C4.11952 31.7061 4.00348 32.0032 3.98285 32.2434C3.98285 32.3571 4.00348 32.4295 4.03443 32.476C4.07826 32.5147 4.1582 32.5715 4.28971 32.5922C4.80801 32.6904 5.50165 32.507 6.16694 32.4114C8.83838 31.9773 11.515 31.5846 14.2096 31.2798C15.5582 31.1351 16.9068 31.0008 18.2838 30.9904C19.6453 30.9904 21.0017 31.0576 22.3555 31.1713C23.031 31.2281 23.7118 31.3004 24.3822 31.3909C25.0475 31.4813 25.7128 31.5536 26.3781 31.5872C27.0434 31.6363 27.7112 31.6286 28.3739 31.6053C29.0366 31.564 29.6942 31.4865 30.3388 31.347C30.9835 31.2049 31.6101 31.0008 32.2161 30.7398C32.5203 30.6132 32.8169 30.4608 33.116 30.3084C33.4177 30.1482 33.7065 30.0035 33.9721 29.8149C34.5213 29.4584 35.0164 29.0062 35.4832 28.5283C35.9525 28.0503 36.3908 27.5388 36.7982 27.004C36.8163 26.9756 36.8524 26.973 36.8782 26.9911C36.9014 27.0092 36.9065 27.0427 36.8911 27.066L36.8988 27.0608Z"></path>
<path fill="#231F20" d="M23.1576 20.8606C23.4465 19.8401 24.2123 19.1709 25.3443 19.5326C26.4763 19.8917 26.6491 20.9872 26.3345 22.0258C26.0199 23.0643 25.2412 23.6766 24.202 23.2969C23.1628 22.9171 22.8611 21.9069 23.1576 20.8606Z"></path>
<path fill="white" d="M24.6096 20.2653C24.6774 19.6599 24.3457 19.1256 23.8688 19.072C23.3919 19.0184 22.9503 19.4658 22.8825 20.0712C22.8147 20.6767 23.1464 21.211 23.6233 21.2646C24.1003 21.3182 24.5419 20.8708 24.6096 20.2653Z"></path>
<path fill="#231F20" d="M35.8752 15.1688C36.0325 14.7063 36.2852 13.8899 35.8391 12.8487C35.2564 11.4898 33.1651 10.3427 32.1363 11.3219C31.7056 11.7301 31.881 12.0065 32.242 12.2545C32.652 12.5387 33.2863 12.7893 33.8149 13.2259C34.4029 13.7091 35.1429 14.3756 35.4756 15.3445C35.5349 15.5176 35.5813 15.5176 35.6432 15.5072C35.7876 15.484 35.8752 15.1688 35.8752 15.1688Z"></path>
<path fill="#231F20" d="M23.5288 14.6288C23.4927 14.1973 23.4489 13.4352 24.011 12.624C24.7434 11.5673 26.649 11.0015 27.2833 12.0607C27.5489 12.5051 27.3529 12.7066 27.0151 12.8487C26.6309 13.0115 26.0739 13.0968 25.5634 13.368C24.9986 13.6677 24.2741 14.094 23.8151 14.8639C23.7325 15.0008 23.6964 14.9905 23.65 14.9698C23.5392 14.9182 23.5288 14.6288 23.5288 14.6288Z"></path>
<path fill="white" d="M26.7367 23.6507C27.1106 26.8956 29.47 29.288 32.0048 28.9883C34.5396 28.6912 36.8165 26.4099 36.3446 22.3434C35.9681 19.0985 33.2761 16.3651 30.7413 16.6622C28.2065 16.9593 26.3628 20.4031 26.7367 23.6481V23.6507Z"></path>
<path fill="#231F20" d="M27.0227 23.6196C27.1903 24.9992 27.7473 26.3478 28.6911 27.3502C29.1604 27.8463 29.7251 28.2571 30.3568 28.4818C30.9886 28.7169 31.659 28.7583 32.3243 28.6265C33.6652 28.3811 34.8385 27.4716 35.4599 26.2548C36.0968 25.0379 36.2206 23.5808 36.0272 22.1986C35.839 20.8242 35.2021 19.504 34.2583 18.4912C33.7864 17.9848 33.2294 17.556 32.6131 17.2666C31.9994 16.9773 31.3109 16.8403 30.656 16.9566C30.0036 17.0625 29.3976 17.4061 28.9025 17.8712C28.4048 18.3388 28.0077 18.9201 27.706 19.5453C27.1078 20.8009 26.868 22.2374 27.0201 23.6196H27.0227ZM26.4477 23.6867C26.2904 22.1883 26.5534 20.6588 27.2058 19.3025C27.5358 18.6281 27.9691 17.9926 28.5286 17.4707C29.0856 16.9514 29.7921 16.5484 30.5709 16.427C30.7617 16.3805 30.9602 16.3985 31.1562 16.383C31.3496 16.383 31.543 16.414 31.7364 16.4295C31.9246 16.476 32.1155 16.5096 32.2985 16.5665C32.4765 16.6362 32.6647 16.6853 32.8349 16.7731C33.5311 17.0935 34.1422 17.5637 34.658 18.1114C35.6894 19.2094 36.3779 20.6201 36.5919 22.1159C36.8034 23.586 36.6899 25.1594 35.9834 26.5287C35.2949 27.8954 33.9592 28.9443 32.4404 29.2285C31.69 29.3886 30.8648 29.3292 30.1402 29.0528C29.4079 28.7841 28.7736 28.3139 28.2527 27.761C27.2084 26.6423 26.6204 25.1749 26.4451 23.6842L26.4477 23.6867Z"></path>
<path fill="#231F20" d="M29.4081 22.4337C29.7356 21.2763 30.6046 20.5141 31.8913 20.9249C33.178 21.3331 33.374 22.5784 33.0181 23.7591C32.6597 24.9398 31.7753 25.6322 30.5968 25.2033C29.4158 24.7718 29.0729 23.6247 29.4081 22.4363V22.4337Z"></path>
<path fill="white" d="M30.9655 21.5535C31.044 20.866 30.6684 20.2582 30.1265 20.1961C29.5846 20.134 29.0816 20.6409 29.0031 21.3285C28.9245 22.016 29.3001 22.6237 29.842 22.6859C30.3839 22.748 30.8869 22.2411 30.9655 21.5535Z"></path>
<path fill="white" d="M33.1444 29.4067C34.8798 26.1437 37.0716 24.87 37.9019 25.0017C38.7348 25.1335 39.8643 25.6786 39.7714 28.9598C39.6786 32.2409 36.6487 36.7621 36.6487 36.7621L35.9267 32.8635C35.9267 32.8635 38.2629 29.2672 38.3532 28.3061C38.4435 27.345 37.3063 26.0662 37.3063 26.0662L34.1062 28.9752L33.9206 28.7376L33.1444 29.4067Z"></path>
<path fill="#231F20" d="M36.6513 36.7621C37.0613 36.0413 37.4455 35.3076 37.8014 34.5635C38.1598 33.822 38.4847 33.0625 38.7606 32.29C39.0417 31.5227 39.2789 30.7373 39.4027 29.9415C39.4646 29.5411 39.4955 29.1536 39.4878 28.7479C39.4878 28.3423 39.4697 27.9393 39.4156 27.5466C39.3614 27.1539 39.2841 26.7663 39.1448 26.4201C39.0082 26.0714 38.7993 25.7768 38.5311 25.5805C38.3919 25.4901 38.2423 25.4152 38.0721 25.3687C37.9948 25.3454 37.8865 25.3247 37.822 25.3144C37.7575 25.3067 37.6776 25.3092 37.5951 25.3221C37.2573 25.3764 36.9014 25.5495 36.5714 25.7458C35.9009 26.1489 35.3182 26.7147 34.7844 27.3192C34.248 27.9264 33.7581 28.58 33.2295 29.2336C33.7452 27.6293 34.8076 26.2135 36.2465 25.224C36.6152 24.9837 37.0149 24.7822 37.4945 24.6892C37.6157 24.6685 37.7446 24.6582 37.8865 24.6711C38.0257 24.6892 38.1211 24.7072 38.2423 24.7408C38.4718 24.8028 38.7039 24.901 38.905 25.0431C39.3073 25.3376 39.5755 25.7614 39.7353 26.1825C39.9004 26.6088 39.97 27.0428 40.019 27.4717C40.0654 27.9005 40.0705 28.3268 40.0577 28.7505C40.0525 29.1742 39.9958 29.6134 39.9132 30.0294C39.7431 30.8665 39.462 31.6648 39.1397 32.4373C38.4692 33.9719 37.626 35.4187 36.6487 36.757L36.6513 36.7621Z"></path>
<path fill="white" d="M31.0663 38.5656C31.6439 37.8887 33.3844 36.2455 33.2117 35.7882C33.0389 35.331 31.9868 34.6747 30.3314 35.8812L29.5733 36.4341C29.5733 36.4341 28.4464 36.1112 27.1829 37.0645C25.8446 38.0721 24.5708 42.0198 25.0014 45.7091C25.3959 49.091 27.384 51.9458 28.1396 51.5376C28.743 51.2121 28.155 49.3829 28.2401 47.5667C28.3716 44.7635 28.6707 41.3661 31.0637 38.5682L31.0663 38.5656Z"></path>
<path fill="#231F20" d="M27.9793 51.7674C27.8762 51.7674 27.7524 51.7416 27.608 51.6641C26.672 51.1758 25.1557 48.6826 24.8102 45.7296C24.3718 41.9835 25.6405 37.9842 27.0665 36.9094C28.1933 36.0594 29.217 36.1679 29.5316 36.2273L30.2201 35.7261C31.3753 34.8864 32.2082 34.9588 32.6028 35.075C33.0566 35.212 33.3093 35.4987 33.3944 35.7209C33.544 36.1136 33.0153 36.7647 31.7802 38.0771C31.5533 38.3174 31.3521 38.5318 31.2155 38.692C28.9076 41.3893 28.5724 44.691 28.4383 47.5743C28.4048 48.2718 28.4744 48.9746 28.5363 49.5946C28.642 50.6694 28.7168 51.447 28.2372 51.7054C28.1753 51.739 28.0902 51.7674 27.9845 51.7674H27.9793ZM29.0804 36.5735C28.6678 36.5735 28.0103 36.682 27.296 37.2194C25.9809 38.2115 24.7741 42.1256 25.1918 45.6857C25.5167 48.4708 26.9453 50.8864 27.7833 51.323C27.8633 51.3644 27.9742 51.4057 28.0464 51.367C28.3016 51.23 28.2243 50.455 28.1443 49.6334C28.0825 49.0004 28.0128 48.2822 28.0464 47.5588C28.183 44.611 28.5311 41.2342 30.9164 38.444C31.0556 38.2812 31.2619 38.0616 31.494 37.8162C31.9684 37.3124 33.0798 36.1343 33.0257 35.8605C32.9741 35.7235 32.7858 35.5401 32.4867 35.4523C32.1618 35.3541 31.4604 35.3024 30.4419 36.0439L29.6838 36.5968C29.6348 36.6303 29.5755 36.6433 29.5187 36.6252C29.5033 36.62 29.3408 36.5787 29.0804 36.5787V36.5735Z"></path>
<path fill="#231F20" d="M36.8221 28.2088C36.7756 27.9606 36.8169 27.7409 36.835 27.5341C36.8453 27.4307 36.8556 27.3325 36.8582 27.2472C36.8659 27.1593 36.8375 27.105 36.8453 27.1179C36.8582 27.1128 36.7808 27.0921 36.6931 27.1127C36.6053 27.1308 36.5047 27.1541 36.4093 27.1929C36.2106 27.2601 36.0094 27.348 35.7926 27.4178L35.7694 27.3842C35.9165 27.2084 36.0842 27.0559 36.2751 26.924C36.3731 26.862 36.4763 26.8 36.6002 26.7586C36.6621 26.7379 36.7292 26.7198 36.8092 26.7172C36.884 26.7095 36.9924 26.725 37.0827 26.787C37.1781 26.8517 37.2297 26.9525 37.2504 27.03C37.2762 27.1127 37.2787 27.1851 37.2787 27.2523C37.2736 27.3868 37.2478 27.5057 37.2091 27.6168C37.1343 27.8391 37.013 28.033 36.8685 28.2114L36.8272 28.2062L36.8221 28.2088Z"></path>
<path fill="#231F20" d="M30.2255 35.9715C29.9728 36.31 29.6789 36.5993 29.4133 36.8913C29.1528 37.1832 28.9105 37.5191 28.6861 37.8523C28.4644 38.1908 28.2503 38.537 28.075 38.9013C27.9022 39.2681 27.7449 39.6428 27.6418 40.0406C27.6366 40.0587 27.6186 40.0716 27.5979 40.0665C27.5799 40.0613 27.5696 40.0458 27.5696 40.0277C27.6005 39.6118 27.7011 39.1958 27.8532 38.8057C28.0054 38.413 28.1859 38.0332 28.4076 37.6767C28.6268 37.3176 28.8666 36.9791 29.1554 36.6562C29.4571 36.3487 29.7898 36.1007 30.1766 35.9173C30.1946 35.9095 30.2178 35.9173 30.2255 35.9354C30.2307 35.9483 30.2281 35.9638 30.2204 35.9741L30.2255 35.9715Z"></path>
</svg>
