<svg xmlns="http://www.w3.org/2000/svg" fill="none" viewBox="0 0 60 60" height="60" width="60">
<path fill="#19114B" d="M28.4477 52.0276C29.1895 51.6272 29.0963 50.6806 28.9784 49.4795C28.9194 48.8774 28.8512 48.1916 28.8822 47.5274C28.9412 46.286 29.0343 44.9607 29.3136 43.6541C29.5402 43.53 29.776 43.3996 30.0181 43.2662C30.7816 43.9552 33.0348 45.9973 34.3849 47.3939C34.7449 47.7664 35.0614 48.1202 35.3407 48.4367C36.3898 49.6161 37.2153 50.5441 38.7702 50.392C39.8999 50.2772 43.5683 49.5013 43.3014 44.2562C43.2456 43.1482 42.3548 41.8354 41.4144 40.4419C40.6665 39.3339 39.8906 38.1887 39.6547 37.2949C39.2947 35.9293 39.2761 34.1727 39.3009 33.1702C40.0116 31.5378 40.3872 30.1163 40.4182 28.9432C40.4834 26.6248 39.9682 25.2002 38.8478 24.6106C38.8323 24.5702 38.8168 24.5299 38.8012 24.4926C38.7205 24.3002 38.6461 24.0861 38.5716 23.8626C39.6175 23.2357 41.3555 22.3232 43.3852 21.7429C46.9637 20.7218 51.737 18.7789 53.7636 16.9323C55.8585 15.0236 57.4351 10.9703 56.892 8.90336C56.7927 8.52783 56.5506 8.2454 56.203 8.10264C55.0516 7.62779 52.9101 8.83508 49.2262 11.0107C48.1182 11.6655 46.9699 12.3421 45.8805 12.9318C43.4163 14.2663 38.9688 16.6623 35.5083 18.5276C34.2266 16.7896 32.383 15.815 30.6699 16.0168C30.0305 16.0912 29.4036 16.3395 28.8325 16.7368C28.7643 16.6871 28.696 16.6406 28.6246 16.5971C26.5328 15.3185 22.9637 16.8734 21.1388 19.8621C20.0463 21.6498 19.6211 23.4281 19.9035 24.9706C19.3356 24.9489 18.6063 24.9054 17.7993 24.862C14.5002 24.6757 11.8963 24.5516 10.8845 24.8123C6.18263 26.0196 4.40119 29.1387 3.64081 30.4701L3.58495 30.5694C3.15355 31.3205 2.72524 32.2733 3.22492 32.984C3.78046 33.7754 5.04983 33.552 5.46571 33.4806C7.97341 33.0399 15.1551 31.8947 18.2276 31.8823C21.2878 31.8667 23.8979 32.2081 23.9196 32.2081C25.0648 32.3695 26.0983 32.4595 27.0573 32.4812C26.8866 32.8847 26.7004 33.254 26.5049 33.583C24.9127 36.2552 21.8557 40.1905 18.4852 42.4965C17.9576 42.8565 17.4393 43.2072 16.9427 43.5455C12.8026 46.348 11.0894 47.5088 11.8125 48.6198C12.4208 49.5602 14.1992 49.5416 17.7528 48.5609C19.5373 48.0674 22.2312 46.9967 24.4193 46.047C24.8351 48.8619 26.2969 51.4069 27.4111 51.9872C27.6284 52.099 27.8239 52.1393 27.9884 52.1393C28.1963 52.1393 28.3546 52.0772 28.4539 52.0245L28.4477 52.0276ZM24.6924 44.5231C22.4423 45.5256 19.3449 46.7887 17.4021 47.3257C14.5468 48.114 13.4605 48.0767 13.0757 47.9929C13.6591 47.3164 15.7696 45.8856 17.6566 44.61C18.1562 44.2717 18.6745 43.921 19.2021 43.5579C22.7433 41.134 25.94 37.0249 27.5973 34.241C27.9698 33.6172 28.3049 32.8754 28.5874 32.0436C28.6557 31.845 28.6215 31.6247 28.4974 31.454C28.3732 31.2833 28.1715 31.1839 27.9604 31.1933C26.8276 31.2274 25.5272 31.1405 24.081 30.9357C23.9723 30.9201 21.3591 30.5819 18.2121 30.5974C15.0527 30.6098 7.77166 31.7705 5.23603 32.2143C4.60601 32.3261 4.35463 32.2671 4.27704 32.2361C4.27704 32.1492 4.30806 31.8729 4.69291 31.2057L4.75188 31.1033C5.43156 29.9115 7.02681 27.1245 11.2011 26.0506C12.1012 25.821 15.4841 26.0134 17.7217 26.1406C18.9135 26.2089 19.9439 26.2679 20.5646 26.271C20.6329 26.271 20.7012 26.271 20.7695 26.2679C20.9774 26.2617 21.1729 26.153 21.2878 25.9792C21.4026 25.8054 21.4243 25.5851 21.3498 25.3896C20.8222 24.0488 21.1326 22.3232 22.2312 20.5294C23.6527 18.2017 26.4893 16.7958 27.9542 17.6927C28.0877 17.7734 28.2087 17.8789 28.3205 18C28.4322 18.1272 28.5936 18.2048 28.7643 18.2172C28.935 18.2265 29.1026 18.1706 29.2298 18.0558C29.7264 17.612 30.2633 17.3544 30.8219 17.2892C32.1968 17.1278 33.7455 18.0744 34.7604 19.7038C34.9404 19.9893 35.3097 20.0887 35.6108 19.9304C39.1333 18.0341 43.9097 15.4612 46.495 14.0584C47.6092 13.4563 48.7637 12.7735 49.8841 12.1125C51.8952 10.9269 54.9057 9.15165 55.663 9.27269C56.0106 10.7655 54.7288 14.3129 52.9008 15.9795C51.11 17.612 46.585 19.4928 43.0345 20.5045C40.5393 21.2184 38.4692 22.3977 37.4574 23.0402C37.2029 23.2015 37.0943 23.515 37.1967 23.7974C37.2401 23.9247 37.2836 24.0488 37.3239 24.1699C37.4201 24.4523 37.5133 24.7223 37.6188 24.983C37.656 25.0699 37.6871 25.1661 37.7212 25.2685C37.7802 25.4609 37.926 25.613 38.1123 25.6844C38.8478 25.9544 39.1923 27.0407 39.1395 28.909C39.1116 29.9425 38.7547 31.2398 38.0781 32.7699C38.044 32.8444 38.0253 32.9282 38.0253 33.0089C37.9943 34.0548 38.0005 36.0441 38.4164 37.6239C38.7081 38.7287 39.543 39.9671 40.353 41.162C41.1538 42.3475 41.9824 43.5703 42.0228 44.3214C42.091 45.6528 41.8986 48.7874 38.6461 49.1133C37.7833 49.2002 37.3333 48.7347 36.306 47.5802C36.0173 47.2574 35.6915 46.8881 35.3128 46.5001C33.8417 44.9825 31.4209 42.7944 30.7754 42.2141C30.7195 42.0651 30.6078 41.944 30.465 41.8696C30.2726 41.7734 30.0461 41.7796 29.8629 41.8851C29.3726 42.1613 28.8946 42.4251 28.4539 42.6641C28.2925 42.751 28.1777 42.9031 28.1342 43.08C27.7835 44.579 27.6749 46.0718 27.6097 47.4653C27.5756 48.2226 27.647 48.955 27.7091 49.6006C27.7432 49.9544 27.7866 50.3982 27.7835 50.6961C27.1318 50.1034 25.94 48.0519 25.6483 45.5659C25.6297 45.3983 25.611 45.2276 25.6017 45.06C25.5862 44.8521 25.4714 44.6628 25.2914 44.5542C25.189 44.4952 25.0772 44.4642 24.9624 44.4642C24.8724 44.4642 24.7855 44.4828 24.7017 44.52L24.6924 44.5231Z"></path>
<path fill="white" d="M28.4043 24.5051C26.7687 27.1835 23.9879 28.4683 22.194 27.3728C20.4001 26.2772 19.6273 23.5554 21.6788 20.2004C23.3144 17.522 26.4893 16.054 28.2832 17.1496C30.0771 18.2451 30.0367 21.8267 28.4011 24.5051H28.4043Z"></path>
<path fill="#19114B" d="M29.8535 20.8149C29.897 20.1383 29.8536 19.4524 29.6704 18.7851C29.4935 18.1241 29.1211 17.4692 28.5252 17.0503C27.9324 16.622 27.1814 16.5226 26.5017 16.594C25.8127 16.6654 25.1609 16.8982 24.5588 17.2054C23.3609 17.8324 22.3336 18.7696 21.6011 19.9024C21.238 20.4673 20.9152 21.057 20.6794 21.6932C20.4404 22.3232 20.2666 22.9874 20.22 23.6733C20.1704 24.3561 20.2542 25.0606 20.5087 25.7123C20.7632 26.361 21.1822 26.96 21.747 27.3883C22.3025 27.8228 23.0474 28.0711 23.755 28.0369C24.4689 28.0121 25.1485 27.7917 25.7537 27.469C26.9734 26.8203 27.9293 25.793 28.637 24.6416C29.3228 23.4716 29.7573 22.1618 29.8535 20.8087V20.8149ZM25.4868 26.9662C24.9375 27.2548 24.3385 27.4503 23.7395 27.4783C23.1343 27.5093 22.5601 27.3231 22.076 26.96C21.5887 26.6 21.2225 26.091 20.9928 25.523C20.7632 24.9551 20.6794 24.3281 20.7166 23.7012C20.7539 23.0743 20.9059 22.4536 21.1263 21.8608C21.3404 21.2618 21.6477 20.6907 21.986 20.1538C22.6657 19.08 23.6371 18.1831 24.7544 17.5841C25.313 17.2892 25.9244 17.0782 26.5389 17.0223C27.1503 16.9634 27.7866 17.0596 28.2645 17.4134C28.7425 17.7579 29.0683 18.3072 29.2204 18.9062C29.3818 19.5052 29.4098 20.1476 29.3632 20.7776C29.2546 22.0439 28.8232 23.2791 28.1683 24.3623C27.4948 25.433 26.5824 26.3765 25.4837 26.9631L25.4868 26.9662Z"></path>
<path fill="#CD3A3A" d="M32.6189 23.7478C32.8889 23.8316 34.0993 19.7938 34.3351 19.89C37.898 17.972 43.351 15.0329 46.1846 13.4998C50.6103 11.1038 55.8212 7.37639 56.2681 9.06784C56.7151 10.7593 55.3681 14.5984 53.329 16.4606C51.29 18.3227 46.4298 20.2097 43.2083 21.1283C41.0482 21.746 39.1209 22.7515 37.7987 23.5895C37.9446 23.9991 38.0656 24.3933 38.2115 24.744C38.8571 26.3082 38.9533 30.3025 38.8043 31.2553C38.6553 32.2081 38.4815 35.3458 39.0371 37.4656C39.5957 39.5853 42.5751 42.5368 42.6652 44.2934C42.8824 48.5516 40.2816 49.6006 38.7112 49.7589C37.1439 49.9171 36.5263 48.6819 34.8503 46.9532C33.1744 45.2245 30.1857 42.5586 30.1857 42.5586L28.7208 30.9294C28.7208 30.9294 22.3957 26.7644 25.4248 25.4765C29.3663 23.8036 28.8294 22.5808 32.622 23.7509L32.6189 23.7478Z"></path>
<path fill="#19114B" d="M38.7424 50.1126C39.81 50.0071 43.2736 49.2685 43.0191 44.2717C42.9663 43.2444 42.0973 41.9596 41.1787 40.6033C40.4152 39.4767 39.6269 38.3097 39.3786 37.3694C38.8199 35.2465 39.0217 32.1398 39.152 31.3081C39.3165 30.2777 39.1986 26.2089 38.5375 24.6043C38.4413 24.3747 38.3575 24.1202 38.2644 23.8502C38.252 23.8129 38.2396 23.7757 38.2272 23.7416C39.2607 23.1084 41.1104 22.0998 43.3046 21.4728C46.852 20.458 51.5757 18.54 53.5682 16.7244C55.3775 15.0764 57.1714 11.0976 56.6128 8.97472C56.5352 8.68299 56.3552 8.47194 56.0914 8.36332C55.0641 7.94123 52.8667 9.18576 49.3659 11.2527C48.2548 11.9076 47.1065 12.5873 46.0109 13.1801C43.1929 14.707 37.7772 17.6244 34.2142 19.5424C34.1987 19.5455 34.1801 19.5517 34.1646 19.5579C33.9256 19.6634 33.8077 19.9117 33.1807 21.6063C32.9697 22.1773 32.6655 22.9936 32.4949 23.335C29.9127 22.5715 29.2547 22.9626 27.8643 23.7974C27.2436 24.1698 26.4739 24.6323 25.2759 25.1413C24.4814 25.4795 24.2766 25.9916 24.2424 26.3641C24.0842 28.1145 27.5415 30.5663 28.3764 31.1343L29.8227 42.5989C29.8351 42.6858 29.8754 42.7634 29.9406 42.8223C29.9716 42.8503 32.9387 45.5007 34.5836 47.1984C34.9467 47.5739 35.2664 47.9308 35.5488 48.2474C36.5078 49.3244 37.2216 50.1251 38.4382 50.1251C38.5344 50.1251 38.6337 50.1189 38.7392 50.1096L38.7424 50.1126ZM29.0747 30.8829C29.0623 30.7774 29.0033 30.6843 28.9164 30.6284C27.3367 29.5856 24.8631 27.5279 24.9625 26.4323C24.9718 26.3361 24.9966 26.0475 25.5615 25.8085C26.8029 25.2809 27.5974 24.803 28.2368 24.4181C29.5868 23.6081 30.043 23.3319 32.5104 24.0954C32.9759 24.2381 33.1435 23.7819 33.8542 21.8608C34.0808 21.2525 34.3849 20.43 34.5215 20.1973C38.0844 18.2792 43.525 15.3464 46.3523 13.8163C47.4603 13.2173 48.6148 12.5345 49.7321 11.8766C52.2336 10.3993 55.0703 8.72644 55.8182 9.03369C55.8586 9.04921 55.8927 9.07093 55.9176 9.16094C56.3303 10.7282 55.0299 14.4215 53.084 16.1968C51.1784 17.9348 46.5758 19.7938 43.106 20.7869C40.6448 21.4915 38.5996 22.6553 37.6002 23.2884C37.4575 23.3784 37.3985 23.5553 37.4544 23.7136C37.4978 23.8409 37.5413 23.965 37.5847 24.0892C37.6809 24.3685 37.7709 24.6323 37.8734 24.8837C38.4972 26.3951 38.581 30.3273 38.4413 31.1994C38.3048 32.0685 38.0937 35.3241 38.6834 37.5556C38.9627 38.6139 39.7852 39.8305 40.5828 41.0099C41.4052 42.2265 42.2587 43.4834 42.2991 44.3121C42.5163 48.5546 39.8348 49.284 38.671 49.3988C37.6344 49.5012 37.0851 48.8898 36.0919 47.7726C35.8064 47.4498 35.4805 47.0867 35.105 46.6987C33.6121 45.1593 31.061 42.8565 30.5241 42.3754L29.0747 30.8798V30.8829Z"></path>
<path fill="#CD3A3A" d="M28.7363 28.639C28.7363 28.639 28.3731 31.6867 27.0479 33.9151C25.7227 36.1435 22.6005 40.4574 18.8421 43.0303C15.0836 45.6032 11.9056 47.5957 12.3463 48.2753C12.787 48.955 14.7733 48.7223 17.5758 47.9464C20.3783 47.1705 25.4837 44.9359 27.2093 44.0514C28.9318 43.1669 33.0689 40.8981 34.81 39.5295"></path>
<path fill="#19114B" d="M28.8885 28.6576C28.7457 29.7284 28.5036 30.7743 28.1715 31.8016C28.0039 32.3136 27.8053 32.8164 27.5725 33.3037C27.3429 33.7972 27.0573 34.2596 26.7718 34.7096C25.6204 36.5159 24.3107 38.2166 22.8551 39.7933C22.1258 40.5785 21.3499 41.3233 20.5274 42.0154C19.7081 42.7137 18.8143 43.322 17.9359 43.9179C17.0545 44.5169 16.1731 45.1128 15.301 45.7211C14.8665 46.0253 14.4351 46.3325 14.0161 46.6522C13.6002 46.9718 13.1813 47.3008 12.8368 47.667C12.753 47.757 12.6723 47.8533 12.6164 47.9464C12.5543 48.0364 12.5326 48.1326 12.5388 48.145C12.5388 48.1512 12.5388 48.145 12.545 48.1574C12.5605 48.1729 12.573 48.1853 12.5854 48.2009C12.6071 48.235 12.6567 48.2536 12.6909 48.2847L12.8337 48.3498L12.9981 48.3964C13.4668 48.4864 13.9975 48.4491 14.5096 48.384C15.5462 48.2474 16.5766 47.9929 17.5945 47.7136C19.6181 47.1239 21.595 46.317 23.5503 45.4945C27.5043 43.9117 31.1137 41.6554 34.8039 39.5388C34.0342 40.2898 33.1435 40.8981 32.2434 41.4692C31.3372 42.034 30.4061 42.5554 29.475 43.0768C28.5378 43.5889 27.6067 44.1072 26.6384 44.5728C25.6732 45.0352 24.6986 45.4697 23.7179 45.8918C21.7533 46.7267 19.7795 47.5367 17.7125 48.1481C16.679 48.4336 15.6393 48.6974 14.5624 48.8433C14.0223 48.9116 13.4761 48.9612 12.8926 48.8557L12.6723 48.7967C12.5978 48.7657 12.5233 48.7347 12.4519 48.6974C12.3805 48.6447 12.306 48.6074 12.244 48.5329L12.154 48.4274C12.126 48.3871 12.0919 48.3157 12.0795 48.2598C12.036 48.0022 12.1416 47.8408 12.216 47.7105C12.2998 47.577 12.396 47.4684 12.4923 47.3629C12.8802 46.9563 13.3054 46.6242 13.7337 46.2984C14.162 45.9725 14.5996 45.6652 15.0372 45.358C15.9124 44.7466 16.8 44.1569 17.6814 43.5579C18.5691 42.962 19.4381 42.3723 20.2419 41.6896C21.0488 41.013 21.8154 40.2805 22.5385 39.5077C23.9817 37.9621 25.3038 36.2924 26.4553 34.5172C27.6564 32.7823 28.2584 30.706 28.5781 28.6297V28.6235C28.5936 28.5397 28.6712 28.4807 28.755 28.4931C28.8388 28.5056 28.8947 28.5831 28.8854 28.6669L28.8885 28.6576Z"></path>
<path fill="#664DA0" d="M36.8523 27.0034C36.4116 27.4814 35.5891 28.8128 35.1174 30.2622C34.6456 31.7085 33.2459 36.3018 30.4868 38.7257C27.7278 41.1496 24.6676 43.1638 23.7303 43.6852C22.7931 44.2066 16.9304 47.515 14.2303 47.636C14.2303 47.636 13.4016 47.8688 14.9658 46.8384C16.53 45.808 20.124 43.8807 22.2344 41.7175C24.3449 39.5543 24.9407 38.856 26.4087 36.8977C27.8767 34.9393 29.6675 31.3236 29.8072 30.0667"></path>
<path fill="#19114B" d="M36.8521 27.0034C36.4797 27.5652 36.2004 28.1735 35.9241 28.7725C35.651 29.3808 35.4276 29.9891 35.2321 30.6284C34.8224 31.9102 34.36 33.1857 33.7827 34.4148C33.2054 35.6407 32.5226 36.8293 31.635 37.8784C31.4115 38.1391 31.1788 38.3905 30.9305 38.6294C30.6791 38.8684 30.4215 39.0825 30.1639 39.3029C29.6487 39.7374 29.1242 40.1626 28.5904 40.5754C27.5228 41.3978 26.4303 42.1861 25.3068 42.931C24.7451 43.3003 24.174 43.6665 23.5781 43.9924C22.9915 44.3183 22.3988 44.641 21.8029 44.9514C20.608 45.5752 19.3976 46.1649 18.1562 46.6925C17.5354 46.9563 16.9054 47.2077 16.2599 47.4188C15.6143 47.6267 14.9502 47.8098 14.2426 47.8564L14.2922 47.847C14.2457 47.8595 14.2146 47.8657 14.1681 47.8719C14.1184 47.8719 14.0843 47.8905 13.9756 47.8626C13.9508 47.8564 13.9074 47.8377 13.867 47.8005C13.8236 47.7633 13.7925 47.6919 13.7894 47.6422C13.7863 47.5305 13.8143 47.5057 13.8298 47.4715C13.8639 47.4126 13.8919 47.3815 13.9198 47.3505C14.0284 47.2357 14.1308 47.1581 14.2363 47.0743C14.4474 46.9129 14.6584 46.767 14.8757 46.6242C15.3071 46.3387 15.7416 46.0749 16.1761 45.8049C17.0451 45.2711 17.9048 44.7342 18.7458 44.1662C19.5838 43.5983 20.4 42.9993 21.1604 42.3444C21.5391 42.0123 21.8929 41.674 22.2436 41.3047L23.2926 40.1998C23.9847 39.4581 24.6457 38.7008 25.2603 37.897C25.5706 37.4966 25.8748 37.0901 26.1758 36.6804C26.4707 36.28 26.7376 35.8548 27.0014 35.4265C27.5197 34.5637 27.9945 33.673 28.4228 32.7637C28.6369 32.3074 28.8387 31.8481 29.0156 31.3857C29.1894 30.9295 29.357 30.4391 29.4128 30.0232V29.9953C29.447 29.7749 29.6487 29.6197 29.8691 29.6508C30.0894 29.6818 30.2446 29.8835 30.2136 30.1008C30.2136 30.1008 30.2136 30.107 30.2136 30.1101C30.1205 30.7029 29.928 31.1777 29.7325 31.6681C29.537 32.1523 29.3166 32.6209 29.087 33.0833C28.6276 34.0082 28.1249 34.9082 27.5724 35.7803C27.2931 36.2148 27.0045 36.6431 26.691 37.0621C26.3837 37.4718 26.0703 37.8753 25.7537 38.2787C25.1175 39.0857 24.4316 39.8615 23.724 40.6002L22.6563 41.6989C22.3025 42.0651 21.9146 42.4282 21.5236 42.7603C20.7321 43.4275 19.8911 44.0265 19.0376 44.5914C18.181 45.1562 17.3058 45.687 16.4306 46.2115C15.993 46.4753 15.5554 46.736 15.1333 47.006C14.9222 47.1425 14.7112 47.2822 14.5157 47.4281C14.4195 47.4995 14.3202 47.5801 14.2519 47.6484C14.2364 47.6639 14.2239 47.6826 14.2239 47.6795C14.2239 47.6702 14.2363 47.6764 14.2363 47.5988C14.2363 47.5646 14.2115 47.5088 14.1805 47.4808C14.1525 47.4529 14.1246 47.4436 14.1153 47.4405C14.0688 47.4312 14.0998 47.4405 14.1153 47.4343C14.1339 47.4343 14.1619 47.425 14.1774 47.4219H14.1805C14.1805 47.4219 14.2115 47.4157 14.227 47.4126C14.8602 47.3784 15.5088 47.2139 16.1388 47.0184C16.772 46.8229 17.3927 46.5839 18.0103 46.3294C19.2424 45.8142 20.4435 45.2245 21.6291 44.6069C22.8146 43.98 23.9971 43.3624 25.0927 42.5989C26.2006 41.8509 27.2807 41.0595 28.3297 40.2309C28.8542 39.8181 29.3694 39.3929 29.8784 38.9584C30.1298 38.7381 30.3874 38.5208 30.6201 38.2973C30.8529 38.0708 31.0733 37.8256 31.2874 37.5773C32.1254 36.5655 32.7957 35.411 33.3699 34.2161C33.941 33.0151 34.4065 31.7674 34.8193 30.4949C35.021 29.8525 35.291 29.2101 35.6262 28.6204C35.9645 28.0307 36.3556 27.4596 36.8614 27.0065L36.8521 27.0034Z"></path>
<path fill="#19114B" d="M31.7686 29.2132L36.8554 27.0034C36.4146 27.4814 35.5922 28.8128 35.1205 30.2622C34.6798 31.6122 33.4321 35.6996 31.0237 38.2104C30.4651 36.6618 30.282 34.7779 30.5954 32.8071C30.8065 31.4819 31.2161 30.2653 31.7717 29.2132H31.7686Z"></path>
<path fill="#CD3A3A" d="M36.8523 27.0034C36.8523 27.0034 35.3502 29.3032 33.5936 30.2622C31.837 31.2243 29.6644 32.3788 23.9973 31.575C23.9973 31.575 21.3531 31.2274 18.2153 31.2429C15.0776 31.2553 7.74699 32.4285 5.34792 32.8506C2.94885 33.2727 3.61611 31.7985 4.13441 30.8922C4.80789 29.7191 6.47451 26.6093 11.0399 25.4361C12.4955 25.0606 18.6685 25.6255 20.5648 25.6348C22.461 25.6441 25.3691 24.5144 29.2486 22.3294C29.2486 22.3294 33.2553 21.4511 33.2863 21.448"></path>
<path fill="#19114B" d="M36.9018 27.0344C36.1911 28.1921 35.3283 29.2721 34.2172 30.1163C33.9379 30.3242 33.6245 30.4949 33.3327 30.6563C33.0317 30.8177 32.7306 30.9822 32.4172 31.125C31.7934 31.4167 31.1323 31.6464 30.4557 31.7953C29.7822 31.9474 29.0963 32.0343 28.4105 32.0778C27.7246 32.1088 27.0387 32.1181 26.3559 32.0778C25.6731 32.0467 24.9934 31.9784 24.3199 31.8915C23.6527 31.8046 22.9885 31.7426 22.315 31.6898C20.9743 31.5874 19.6304 31.5315 18.2897 31.5377C16.9613 31.5564 15.6206 31.6991 14.283 31.8512C11.6077 32.1709 8.93861 32.5805 6.28195 33.0337C5.94676 33.0895 5.62708 33.1516 5.27948 33.2044C4.92877 33.2602 4.55944 33.2975 4.14977 33.223C4.04425 33.1981 3.94184 33.1764 3.83011 33.1175C3.72149 33.0771 3.61596 32.984 3.51975 32.8878C3.33354 32.6674 3.28697 32.3912 3.29629 32.1709C3.33353 31.7333 3.48562 31.395 3.6439 31.0722C4.28324 29.8525 5.05913 28.67 6.08642 27.7079C6.59541 27.2269 7.14783 26.7893 7.74683 26.4261C7.89269 26.3268 8.04478 26.243 8.19995 26.1592C8.35513 26.0785 8.5041 25.9885 8.66239 25.9109C8.98205 25.7682 9.2924 25.6068 9.62449 25.4951L10.1149 25.312L10.6145 25.163C10.9249 25.0544 11.3408 24.9799 11.6822 24.9581C12.3867 24.9054 13.0633 24.9147 13.746 24.924C15.1085 24.9488 16.4586 25.0295 17.8086 25.1071L19.8259 25.2126C20.5087 25.2468 21.1108 25.2468 21.7533 25.1102C23.0226 24.8557 24.2734 24.3685 25.4838 23.816C26.7004 23.2667 27.8859 22.6367 29.056 21.9787H29.0591V21.9756C29.0932 21.957 29.1305 21.9415 29.1677 21.9353L33.2334 21.0476C33.4507 21.0011 33.6617 21.1376 33.7114 21.3549C33.7579 21.5721 33.6214 21.7832 33.4041 21.8328L33.3482 21.8453L29.3384 22.7236L29.4501 22.6801H29.447C28.2615 23.3474 27.0573 23.9867 25.8128 24.5485C24.5682 25.1102 23.2833 25.6192 21.9022 25.8985C21.5546 25.9637 21.2039 26.0134 20.8408 26.0289C20.4684 26.0475 20.1394 26.0258 19.7949 26.0165L17.7652 25.9109C16.4182 25.8334 15.0713 25.7589 13.7305 25.7185C13.0633 25.703 12.3898 25.6906 11.7442 25.734C11.4122 25.7589 11.1577 25.7961 10.8287 25.9047L10.3569 26.0413L9.8976 26.2089C9.58725 26.3113 9.29552 26.4603 8.99758 26.5906C8.85171 26.6589 8.70894 26.7427 8.56617 26.8172C8.42031 26.8917 8.28065 26.9724 8.14409 27.0624C7.58545 27.3945 7.07024 27.801 6.59539 28.2417C5.63638 29.1263 4.90085 30.228 4.27703 31.3919C4.13116 31.6712 4.01632 31.9691 3.9977 32.205C3.9977 32.3198 4.01944 32.3912 4.05047 32.4378C4.09703 32.4781 4.1746 32.5309 4.30495 32.5526C4.82325 32.6519 5.51536 32.4688 6.18263 32.3726C8.85481 31.9381 11.5301 31.547 14.224 31.2429C15.5709 31.097 16.921 30.9636 18.299 30.9543C19.6584 30.9543 21.0177 31.0225 22.3709 31.1343C23.0475 31.1932 23.7272 31.2615 24.3975 31.3546C25.0617 31.4446 25.729 31.516 26.3931 31.5501C27.0604 31.5967 27.7246 31.5905 28.3887 31.5688C29.0498 31.5284 29.7109 31.4508 30.3533 31.3112C30.9988 31.1684 31.6258 30.9667 32.231 30.706C32.5351 30.5787 32.833 30.4266 33.131 30.2746C33.432 30.1163 33.7207 29.9704 33.9876 29.7811C34.5369 29.4242 35.0335 28.9742 35.499 28.4962C35.9677 28.0214 36.4053 27.5093 36.8149 26.9755C36.8336 26.9475 36.8708 26.9444 36.8956 26.9631C36.9205 26.9817 36.9236 27.0127 36.9081 27.0375L36.9018 27.0344Z"></path>
<path fill="#19114B" d="M23.1593 20.8428C23.4479 19.8249 24.2145 19.1576 25.3442 19.5176C26.477 19.8776 26.6508 20.9701 26.3342 22.0067C26.0208 23.0433 25.2418 23.6547 24.2021 23.276C23.1624 22.8974 22.8613 21.8887 23.1562 20.8459L23.1593 20.8428Z"></path>
<path fill="white" d="M24.607 20.2493C24.6746 19.6463 24.3428 19.1141 23.8658 19.0606C23.3889 19.0071 22.9474 19.4526 22.8798 20.0556C22.8122 20.6586 23.144 21.1908 23.6209 21.2443C24.0979 21.2978 24.5393 20.8523 24.607 20.2493Z"></path>
<path fill="#19114B" d="M35.8777 15.1602C36.036 14.7008 36.2905 13.8815 35.8436 12.8449C35.2601 11.4886 33.1683 10.3434 32.141 11.321C31.7096 11.7307 31.8865 12.0038 32.2465 12.2521C32.6562 12.5345 33.2893 12.7859 33.82 13.2204C34.4066 13.7046 35.1484 14.3687 35.4805 15.3371C35.5394 15.5109 35.586 15.5078 35.6481 15.4984C35.7908 15.4736 35.8808 15.1602 35.8808 15.1602H35.8777Z"></path>
<path fill="#19114B" d="M23.5285 14.6233C23.4912 14.1919 23.4478 13.4315 24.0095 12.6215C24.742 11.5662 26.6476 11.0014 27.2807 12.0597C27.5476 12.5035 27.3521 12.7022 27.0138 12.8449C26.629 13.0063 26.0703 13.0932 25.5613 13.3632C24.9965 13.6612 24.2702 14.0864 23.814 14.856C23.7333 14.9926 23.6961 14.9833 23.6495 14.9616C23.5378 14.9119 23.5285 14.6202 23.5285 14.6202V14.6233Z"></path>
<path fill="white" d="M26.7377 23.6298C27.1133 26.87 29.472 29.2566 32.0076 28.9587C34.5432 28.6607 36.8213 26.3858 36.3464 22.3263C35.9678 19.0862 33.277 16.3582 30.7413 16.6561C28.2057 16.954 26.3622 20.3897 26.7377 23.6298Z"></path>
<path fill="#19114B" d="M27.7121 19.53C28.0131 18.9062 28.4104 18.3227 28.907 17.8572C29.4035 17.3916 30.0088 17.0503 30.6605 16.9447C31.3154 16.8299 32.0012 16.9665 32.6158 17.2551C33.2334 17.5406 33.7889 17.972 34.2638 18.4779C35.2072 19.4897 35.8435 20.8056 36.0328 22.1805C36.2252 23.5616 36.1011 25.014 35.4648 26.2306C34.841 27.4441 33.6679 28.3535 32.3271 28.5987C31.663 28.729 30.9926 28.6887 30.3594 28.4559C29.7294 28.2293 29.1646 27.8197 28.6928 27.3262C27.7493 26.3268 27.1907 24.9799 27.0231 23.6019C26.871 22.2208 27.11 20.7901 27.709 19.5362L27.7121 19.53ZM28.2583 27.7328C28.7797 28.2852 29.4129 28.757 30.1453 29.0239C30.8684 29.3001 31.694 29.359 32.4451 29.1977C33.9627 28.9152 35.3003 27.8662 35.9893 26.5038C36.697 25.1351 36.8087 23.5647 36.5977 22.0967C36.3835 20.6038 35.6945 19.1948 34.6641 18.0993C34.1458 17.553 33.5375 17.0813 32.8392 16.7616C32.6685 16.6747 32.4823 16.6251 32.3023 16.5537C32.1192 16.4947 31.9268 16.4606 31.7405 16.4171C31.5481 16.4016 31.3526 16.3706 31.1602 16.3706C30.9646 16.3861 30.7691 16.3706 30.5767 16.414C29.7977 16.5382 29.0901 16.9385 28.5345 17.4568C27.9728 17.9782 27.5383 18.6114 27.2093 19.2848C26.5576 20.638 26.2938 22.165 26.4489 23.6609C26.6258 25.1475 27.2155 26.6124 28.2583 27.7297V27.7328Z"></path>
<path fill="#19114B" d="M29.4097 22.4132C29.7387 21.2556 30.6077 20.4983 31.8926 20.9049C33.1806 21.3146 33.3761 22.5529 33.0192 23.7323C32.6623 24.9116 31.7777 25.6037 30.5984 25.1723C29.419 24.7409 29.0745 23.5957 29.4097 22.4101V22.4132Z"></path>
<path fill="white" d="M30.956 21.5406C31.0345 20.8543 30.6592 20.2477 30.1177 20.1858C29.5761 20.1238 29.0735 20.6299 28.9949 21.3161C28.9163 22.0024 29.2917 22.609 29.8332 22.671C30.3747 22.733 30.8774 22.2269 30.956 21.5406Z"></path>
<path fill="#CD3A3A" d="M33.1466 29.3745C34.8815 26.1158 37.0726 24.8433 37.9044 24.9768C38.7361 25.1102 39.869 25.6533 39.7758 28.9276C39.6827 32.2019 36.6536 36.7176 36.6536 36.7176L35.9305 32.8257C35.9305 32.8257 38.2675 29.238 38.3575 28.2759C38.4475 27.3169 37.3116 26.0382 37.3116 26.0382L34.1087 28.9431L33.9225 28.7073L33.1466 29.3745Z"></path>
<path fill="#19114B" d="M36.6536 36.7176C37.0664 35.9976 37.4481 35.2652 37.8019 34.5234C38.1619 33.7816 38.4847 33.0244 38.764 32.2547C39.0465 31.4881 39.2823 30.7029 39.4065 29.9115C39.4685 29.5111 39.4996 29.1232 39.4903 28.7197C39.4903 28.3162 39.4716 27.9128 39.4189 27.5186C39.363 27.1276 39.2854 26.7396 39.1489 26.392C39.0123 26.0444 38.8044 25.7496 38.5344 25.5541C38.3947 25.4641 38.2457 25.3896 38.075 25.343C37.9974 25.3182 37.8888 25.2996 37.8236 25.2903C37.7585 25.284 37.6809 25.2871 37.5971 25.2996C37.2588 25.3523 36.905 25.5261 36.5729 25.7217C35.9025 26.122 35.3191 26.69 34.7852 27.2921C34.2483 27.8973 33.7611 28.549 33.2303 29.2039C33.7455 27.6024 34.8101 26.1872 36.247 25.2034C36.6133 24.9644 37.0136 24.7626 37.4947 24.6695C37.6157 24.6478 37.7461 24.6385 37.8857 24.6509C38.0254 24.6664 38.1216 24.6882 38.2426 24.7192C38.4723 24.7813 38.702 24.8775 38.9068 25.0233C39.3103 25.3182 39.5772 25.7403 39.7386 26.1593C39.9031 26.5844 39.9744 27.0189 40.021 27.4472C40.0675 27.8755 40.0737 28.3007 40.0613 28.7259C40.0582 29.1511 39.9993 29.5887 39.9155 30.0015C39.7448 30.8363 39.4654 31.634 39.1396 32.4037C38.4692 33.9368 37.6281 35.38 36.6474 36.7176H36.6536Z"></path>
<path fill="#92509F" d="M31.067 38.5177C31.6442 37.8411 33.3853 36.1993 33.2146 35.7462C33.0439 35.2931 31.9887 34.6351 30.3345 35.8393L29.5772 36.3917C29.5772 36.3917 28.4506 36.069 27.1844 37.0187C25.8467 38.0242 24.5712 41.9658 25.0025 45.6466C25.3967 49.0233 27.3861 51.8724 28.1403 51.4627C28.7424 51.1369 28.1558 49.3119 28.2396 47.4995C28.3699 44.7 28.671 41.3109 31.0638 38.5177H31.067Z"></path>
<path fill="#19114B" d="M28.2336 51.6334C28.7146 51.3727 28.637 50.5999 28.5315 49.5261C28.4694 48.9085 28.4011 48.2071 28.4353 47.5088C28.5687 44.6317 28.907 41.3357 31.213 38.6418C31.3495 38.4804 31.5513 38.2663 31.7778 38.0273C33.0131 36.7176 33.5407 36.069 33.3917 35.6748C33.3079 35.4513 33.0565 35.1658 32.6003 35.0293C32.2061 34.9113 31.3713 34.8399 30.2198 35.6779L29.5308 36.1776C29.2174 36.1186 28.1932 36.01 27.0666 36.8604C25.639 37.9342 24.3727 41.9254 24.8103 45.6652C25.1548 48.6136 26.6724 51.1027 27.6097 51.59C27.7556 51.6644 27.8766 51.6924 27.9822 51.6924C28.0877 51.6924 28.1715 51.6644 28.2336 51.6303V51.6334ZM29.5246 36.5748C29.5805 36.5904 29.6426 36.581 29.6922 36.5469L30.4495 35.9945C31.4706 35.2527 32.1689 35.3055 32.4948 35.4017C32.7958 35.4917 32.982 35.6717 33.0348 35.8114C33.0875 36.0845 31.9765 37.2638 31.5016 37.7635C31.2688 38.0087 31.064 38.229 30.9243 38.3904C28.5377 41.1774 28.1901 44.5479 28.0535 47.4901C28.0194 48.2133 28.0908 48.9302 28.1529 49.5633C28.2335 50.3827 28.308 51.1586 28.0535 51.2951C27.9822 51.3355 27.8704 51.2951 27.7897 51.2517C26.9487 50.8141 25.521 48.4057 25.1982 45.6249C24.7824 42.0713 25.9866 38.1608 27.3025 37.1738C28.0163 36.6369 28.6743 36.5283 29.087 36.5283C29.3477 36.5283 29.5091 36.5717 29.5277 36.5748H29.5246Z"></path>
<path fill="#19114B" d="M36.8213 28.1797C36.7747 27.9314 36.815 27.7142 36.8337 27.5062C36.843 27.4038 36.8554 27.3045 36.8554 27.2207C36.8616 27.1338 36.8337 27.0779 36.843 27.0903C36.8554 27.0872 36.7778 27.0624 36.6909 27.0872C36.604 27.1027 36.5047 27.1307 36.4054 27.1679C36.2068 27.2331 36.005 27.3231 35.7878 27.3945L35.7629 27.3603C35.9088 27.1834 36.0764 27.0345 36.2688 26.901C36.3681 26.8389 36.4706 26.7769 36.5916 26.7365C36.6537 26.7148 36.7188 26.6993 36.7995 26.6931C36.874 26.6869 36.9826 26.7024 37.0726 26.7645C37.1689 26.8265 37.2185 26.9289 37.2402 27.0065C37.2651 27.0903 37.2682 27.1617 37.2682 27.23C37.2651 27.3634 37.2371 27.4814 37.1968 27.5931C37.1223 27.8166 37.0013 28.009 36.8554 28.1859L36.815 28.1797H36.8213Z"></path>
<path fill="#19114B" d="M30.2262 35.9262C29.9748 36.2645 29.68 36.5531 29.4162 36.8449C29.1555 37.1366 28.9134 37.4718 28.6868 37.8039C28.4633 38.1422 28.2523 38.4867 28.0754 38.8498C27.9016 39.216 27.7433 39.5884 27.644 39.9857C27.6378 40.0043 27.6192 40.0167 27.6006 40.0136C27.5819 40.0105 27.5726 39.9919 27.5726 39.9764C27.6037 39.5605 27.7061 39.1477 27.8582 38.7567C28.0102 38.3656 28.1903 37.9839 28.4137 37.6301C28.6341 37.2701 28.873 36.9318 29.1617 36.6121C29.4627 36.3048 29.7979 36.0566 30.1827 35.8765C30.2014 35.8672 30.2231 35.8765 30.2324 35.8952C30.2386 35.9076 30.2355 35.9231 30.2293 35.9324L30.2262 35.9262Z"></path>
</svg>
