<svg xmlns="http://www.w3.org/2000/svg" fill="none" viewBox="0 0 60 60" height="60" width="60">
<path fill="#19114B" d="M23.8325 46.1035C24.1633 45.0229 25.4601 40.9721 26.3737 38.1198C27.1007 38.6667 27.8637 39.1874 28.6529 39.6786C34.1119 43.0679 38.6015 44.7183 40.6678 44.0896C41.4046 43.8669 41.9352 43.3954 42.2037 42.7306C42.5442 41.8857 42.4133 40.7854 41.8533 39.7866C41.6437 39.41 41.1296 38.6962 40.098 37.3503C40.0456 34.9532 39.6232 34.3604 39.2139 34.0985C38.8209 33.8496 38.3166 33.8529 37.6846 34.1148C37.6747 33.8234 37.6518 33.5778 37.6158 33.3715C38.274 33.3256 38.7554 32.8148 39.0992 32.2122C39.5544 33.0669 40.1733 33.5549 40.92 33.6171C41.7518 33.6858 42.4853 33.1652 43.1042 32.0616C43.435 32.6609 43.8705 33.0113 44.4076 33.1095C45.2721 33.27 46.1038 32.6871 46.9815 31.2953C47.2467 31.8717 47.6233 32.2319 48.0785 32.3236C48.9037 32.4906 49.634 31.8618 50.2136 31.0464C50.3249 31.1479 50.4494 31.22 50.5869 31.2593C50.8358 31.3313 51.1043 31.292 51.3434 31.1578C52.1522 30.6928 52.6664 28.9539 52.8104 28.3939C53.3213 26.8253 52.7024 25.0537 52.1031 23.6816C51.4351 22.1458 50.1841 19.9681 47.0601 18.7859C46.0121 18.3897 43.8738 17.6856 42.2659 17.1682C42.5639 16.5689 42.6392 15.8583 42.4886 15.0658C42.3674 14.4338 42.1087 13.8608 41.6994 13.3368C41.6666 13.2942 41.6339 13.2549 41.5782 13.1894C41.5422 13.1501 41.5094 13.1108 41.4734 13.0715C41.4701 13.0683 41.4669 13.065 41.4636 13.0617C41.3424 12.934 41.2147 12.8128 41.0903 12.7113C41.0837 12.7048 41.0739 12.6982 41.0673 12.6917C41.028 12.6622 40.992 12.6295 40.9593 12.6065L40.9167 12.5738C40.8774 12.5443 40.8381 12.5181 40.8086 12.4952L40.7497 12.4559C40.7137 12.433 40.6777 12.4068 40.6384 12.3839C40.6384 12.3839 40.5991 12.3577 40.5958 12.3577C40.4681 12.2791 40.3338 12.2038 40.1799 12.1284C40.1766 12.1284 40.1439 12.1121 40.1406 12.1088C40.1046 12.0924 40.0653 12.0728 40.0293 12.0597L39.4693 11.8501C39.4234 11.837 39.3809 11.8239 39.335 11.8108L39.1877 11.7715L38.3657 11.6438C38.2969 11.6372 38.2249 11.634 38.1299 11.6307C38.0677 11.6307 38.0055 11.6307 37.9433 11.6307H37.8679C37.8188 11.6307 37.7697 11.6307 37.7239 11.6339H37.642C37.3473 11.6536 37.3211 11.6831 36.676 12.4068C36.3681 12.7539 35.7067 13.4907 35.389 13.8051C33.6698 13.7036 33.1032 13.959 32.838 14.2897C32.8118 14.3127 32.7823 14.3389 32.7528 14.3683C32.3337 14.8039 31.9604 15.0069 31.4102 14.6762C31.0598 14.4666 30.2608 13.5824 29.8318 13.1076C29.2555 12.469 29.1638 12.3708 28.8396 12.3478C28.7446 12.3413 28.5285 12.3315 28.5121 12.3315C28.4171 12.3282 28.201 12.3249 28.1912 12.3249C28.0995 12.3249 28.0045 12.3249 27.9161 12.3282H27.8735C27.7819 12.3315 27.6902 12.338 27.605 12.3413H27.5624C27.4707 12.3511 27.3791 12.3577 27.2579 12.3675C27.1629 12.3773 27.0712 12.3871 26.9632 12.4002C26.8715 12.4133 26.7798 12.4264 26.6914 12.4395C26.6848 12.4395 26.6815 12.4395 26.675 12.4395C26.58 12.4559 26.4883 12.4723 26.377 12.4952C26.2886 12.5148 26.2002 12.5345 26.115 12.5541L26.0823 12.5607C25.9971 12.5803 25.912 12.6033 25.8301 12.6262L25.7974 12.636C25.7155 12.6589 25.6336 12.6851 25.555 12.7081C25.555 12.7081 25.519 12.7179 25.5157 12.7212C25.4339 12.7474 25.352 12.7736 25.28 12.7998C25.28 12.7998 25.2472 12.8096 25.2439 12.8128C25.1621 12.8423 25.0835 12.8718 24.982 12.9144C24.9001 12.9471 24.8182 12.9831 24.7396 13.0192L24.7298 13.0224C21.1113 13.4481 18.3376 15.9336 16.9131 20.0303C16.5627 21.0422 14.7976 28.0304 13.2389 34.1967C12.4497 37.3208 11.7685 40.0224 11.3952 41.4502C10.547 44.6921 10.6518 48.8478 15.9569 50.2428C16.566 50.4032 17.1489 50.4753 17.7023 50.4753C21.0589 50.4753 23.3053 47.8162 23.8358 46.097L23.8325 46.1035ZM25.2963 14.2635C25.3618 14.2341 25.4273 14.2079 25.5092 14.1751C25.5747 14.1489 25.6402 14.1227 25.7319 14.09C25.7974 14.0671 25.8629 14.0441 25.9578 14.0147C26.0266 13.995 26.0921 13.9721 26.1903 13.9459C26.2591 13.9263 26.3311 13.9099 26.4261 13.887C26.4981 13.8706 26.5735 13.8542 26.6619 13.8346C26.7372 13.8182 26.8093 13.8051 26.8846 13.792C26.8878 13.792 26.8944 13.792 26.8977 13.792C26.9763 13.7789 27.0581 13.7658 27.1531 13.7527C27.2317 13.7429 27.3103 13.733 27.4151 13.7232C27.4937 13.7167 27.569 13.7101 27.6476 13.7036L27.605 13.029L27.6836 13.7036C27.7589 13.7003 27.8375 13.6937 27.9161 13.6937H27.9521C28.0307 13.6937 28.1093 13.6937 28.1879 13.6937C28.2108 13.6937 28.3877 13.6937 28.4597 13.7003C28.463 13.7003 28.4925 13.7003 28.5318 13.7036C28.6169 13.7953 28.7315 13.923 28.833 14.0343C29.5797 14.8595 30.2379 15.5669 30.7193 15.8551C31.443 16.2906 32.5531 16.5526 33.7353 15.3278H33.7385C33.7746 15.2984 33.8106 15.2689 33.8401 15.2329C33.9547 15.1968 34.3804 15.1051 35.5102 15.187C35.6182 15.1936 35.7754 15.2067 35.9457 15.1084C36.1815 14.9774 36.5417 14.6107 37.6911 13.3237C37.8025 13.1993 37.904 13.0847 37.9793 12.9995C38.0186 12.9995 38.0579 12.9995 38.1103 12.9995C38.1627 12.9995 38.2151 13.0061 38.2675 13.0093L38.3199 12.3347V13.0159L38.8897 13.1108L39.5675 13.3499L39.859 12.7375L39.6068 13.3695C39.7051 13.4187 39.8 13.4678 39.8917 13.5267L40.2487 12.9504L39.9212 13.5431L39.9998 13.5955L40.3895 13.0421L40.0325 13.6184C40.0587 13.6348 40.0817 13.6544 40.1079 13.6741L40.5139 13.1305L40.1341 13.6937C40.1603 13.7134 40.1897 13.7363 40.2159 13.756C40.2159 13.756 40.2159 13.756 40.2192 13.7592C40.3109 13.8346 40.396 13.9131 40.4779 13.9983C40.4779 13.9983 40.4844 14.0048 40.4877 14.0081C40.5106 14.0343 40.5368 14.0605 40.5696 14.0998C40.5925 14.126 40.6154 14.1522 40.6482 14.198C40.9069 14.5321 41.0805 14.9119 41.159 15.3278C41.2999 16.0712 41.1525 16.6246 40.7039 17.0241C40.5205 17.1846 40.4419 17.4335 40.491 17.6725C40.5401 17.9116 40.7169 18.1048 40.9462 18.1768C43.6642 19.0479 45.665 19.7159 46.5787 20.0631C49.1952 21.052 50.2398 22.8105 50.8587 24.2318C51.5955 25.9248 51.8051 27.1233 51.5137 27.9977C51.5104 28.0108 51.5038 28.0271 51.5006 28.0402C51.3499 28.6199 51.1502 29.134 50.9766 29.4942C50.9766 29.4844 50.9766 29.4778 50.9733 29.468C50.9275 29.1766 50.6983 28.9506 50.4068 28.9048C50.1154 28.8589 49.8305 29.0063 49.6962 29.2715C49.0871 30.4865 48.5533 30.9515 48.3732 31.0039C48.2521 30.8827 47.9868 30.4177 47.9082 29.36C47.8853 29.0521 47.6593 28.8 47.3581 28.7443C47.0568 28.6886 46.7522 28.8426 46.6213 29.1209C45.5439 31.3968 44.8169 31.8193 44.6532 31.7898C44.4108 31.7439 44.0572 31.1709 43.8607 30.0116C43.8083 29.7038 43.5529 29.4746 43.2418 29.4516C42.9307 29.4287 42.6458 29.6219 42.5475 29.9167C42.0039 31.5933 41.3948 32.317 41.0379 32.281C40.5368 32.2384 40.0686 31.4034 39.8131 30.1066C39.7542 29.7988 39.4889 29.5728 39.1746 29.5597C38.8536 29.5499 38.5786 29.7529 38.4934 30.0542C37.9826 31.8782 37.5143 32.0321 37.511 32.0321C36.7022 31.9764 36.0734 30.7714 35.8311 29.6776C35.7689 29.3927 35.5298 29.1798 35.2416 29.1504C34.9535 29.1209 34.6751 29.2748 34.5539 29.5401C34.3738 29.9298 34.197 30.267 34.0267 30.5454C33.9023 30.7484 33.8957 31.0006 34.0038 31.2102C34.4524 32.0747 34.8683 32.7558 35.2711 33.2962L35.389 33.4533C35.5986 33.7317 35.985 33.807 36.2797 33.6269C36.3092 33.8136 36.3354 34.0854 36.3288 34.4554C36.3288 34.6093 36.3747 34.7567 36.4697 34.8778L36.8921 35.428C37.0984 35.6965 37.475 35.7718 37.7697 35.5983C38.1496 35.3756 38.369 35.3101 38.4771 35.2905C38.5818 35.5328 38.7292 36.2172 38.7456 37.6057C38.7456 37.753 38.798 37.8939 38.8864 38.0085C39.5937 38.9319 40.4386 40.0453 40.6711 40.4612C41.0215 41.0867 41.1296 41.7842 40.9462 42.2361C40.8348 42.5145 40.6154 42.7011 40.2749 42.8026C39.2695 43.1105 35.8409 42.557 29.3668 38.5357C28.3353 37.8939 27.3528 37.1996 26.449 36.4694C26.2755 36.3285 26.043 36.2827 25.8301 36.3482C25.6173 36.4137 25.447 36.5774 25.3782 36.7903C24.4777 39.6032 22.9091 44.4989 22.5358 45.7106C22.1657 46.9157 19.9979 49.9153 16.2974 48.946C12.8099 48.0324 11.667 45.763 12.7018 41.8071C13.0784 40.3728 13.7595 37.6712 14.5487 34.5438C16.0224 28.7083 17.8562 21.445 18.1902 20.492C19.8047 15.8583 22.7748 14.6074 24.982 14.3716C25.0573 14.3651 25.1293 14.3421 25.1981 14.3127L25.2767 14.2766C25.2767 14.2766 25.2865 14.2734 25.2898 14.2701L25.2963 14.2635Z"></path>
<path fill="#DA538D" d="M26.5504 35.3494C26.5504 35.3494 23.7014 44.2205 23.184 45.9037C22.6666 47.5869 20.0763 50.6292 16.127 49.5943C12.1777 48.5595 10.9464 45.8383 12.0467 41.6303C13.147 37.4222 17.0341 21.7528 17.5515 20.2628C18.0689 18.7728 19.9486 13.9819 25.3224 13.6577C30.6962 13.3335 35.1662 15.4719 35.1662 18.8383C35.1662 22.2047 28.8198 28.4856 26.5537 35.3494H26.5504Z"></path>
<path fill="#19114B" d="M23.4657 45.9922C23.9765 44.3352 26.7862 35.5852 26.8321 35.4411C27.9553 32.0354 30.0904 28.7869 31.9734 25.9182C33.8432 23.0659 35.4609 20.6034 35.4609 18.8383C35.4609 17.6856 34.9665 16.6115 34.0299 15.7273C32.2223 14.0277 28.9639 13.1403 25.3061 13.363C21.5762 13.5889 18.7206 16.0024 17.2732 20.1645C16.9261 21.1601 15.1643 28.1417 13.6088 34.2982C12.8196 37.4255 12.1385 40.1239 11.7619 41.5549C10.5928 46.0249 12.0369 48.8281 16.0517 49.8793C16.6281 50.0299 17.1782 50.0987 17.6989 50.0987C20.859 50.0987 22.9679 47.6066 23.4657 45.9889V45.9922ZM33.6206 16.1596C34.4491 16.939 34.8682 17.8395 34.8682 18.8383C34.8682 20.4265 33.2964 22.8203 31.4789 25.594C29.5763 28.4921 27.4215 31.7767 26.2721 35.2577C26.2426 35.3461 23.4166 44.1485 22.9024 45.8153C22.3818 47.5084 19.8799 50.2722 16.2024 49.3062C12.5151 48.3401 11.2477 45.8514 12.3349 41.7023C12.7083 40.2713 13.3927 37.5696 14.1819 34.4423C15.6588 28.6002 17.4959 21.3271 17.8332 20.3577C18.6224 18.0851 20.6494 14.234 25.3421 13.9524C25.6859 13.9328 26.0298 13.9229 26.3671 13.9229C29.406 13.9229 32.124 14.7482 33.6238 16.1596H33.6206Z"></path>
<path fill="#DA538D" d="M20.7871 31.076C20.7871 31.076 22.86 35.284 29.0099 39.1055C35.1598 42.9271 38.9814 43.8964 40.4714 43.4445C41.9614 42.9926 41.9548 41.3585 41.2606 40.124C40.7399 39.194 37.8909 35.6605 35.8148 32.8836C34.5573 31.2004 33.3587 28.2302 32.5826 26.416C31.8065 24.6018 30.048 25.378 30.048 25.378"></path>
<path fill="#19114B" d="M39.6722 43.8342C38.1986 43.8342 34.9992 43.1727 28.8526 39.3577C22.6994 35.5361 20.6069 31.3838 20.5185 31.2069C20.4464 31.0596 20.5054 30.8828 20.6527 30.8107C20.8001 30.7387 20.9769 30.7976 21.049 30.945C21.0686 30.9875 23.1644 35.13 29.1637 38.8534C35.3202 42.6783 39.0533 43.5624 40.3829 43.1596C40.8348 43.0221 41.1426 42.7568 41.2965 42.3704C41.5225 41.8039 41.4111 40.9983 40.9985 40.2648C40.6841 39.7015 39.4103 38.0544 38.0644 36.3122C37.2228 35.2217 36.3517 34.0952 35.5756 33.0572C34.4261 31.5213 33.3488 28.9834 32.5629 27.1299L32.3074 26.5307C32.1077 26.0624 31.8195 25.7513 31.4494 25.6072C30.8371 25.3649 30.169 25.6465 30.1625 25.6498C30.0151 25.7153 29.8383 25.6498 29.7728 25.4991C29.7073 25.3485 29.7728 25.1749 29.9234 25.1094C29.9595 25.0931 30.8141 24.723 31.6656 25.0603C32.1862 25.2666 32.5858 25.6825 32.851 26.3014L33.1064 26.904C33.8826 28.728 34.9436 31.2266 36.0471 32.7068C36.82 33.7416 37.691 34.8681 38.5326 35.9553C39.9539 37.7924 41.1786 39.3806 41.5159 39.9799C42.0202 40.8772 42.1414 41.8563 41.8466 42.5931C41.624 43.1465 41.1786 43.5395 40.5564 43.7294C40.3894 43.7818 40.1045 43.8375 39.6722 43.8375V43.8342Z"></path>
<path fill="#664DA0" d="M33.2408 28.7902C33.2408 28.7902 33.0181 29.2323 33.6403 30.7714C34.5801 33.0965 37.0067 36.0175 38.6866 37.8972C39.7378 39.0728 41.1197 41.0442 40.4058 41.7843C39.3808 42.8453 33.8007 41.0638 25.9349 33.9381C23.957 32.1468 23.0368 30.4832 22.2345 28.7476C20.918 25.8986 20.9704 21.9952 21.7629 20.2137"></path>
<path fill="#19114B" d="M39.4431 42.4097C36.9871 42.4097 31.7869 39.6851 25.7123 34.1836C23.6001 32.2712 22.6537 30.4439 21.9333 28.8851C20.5939 25.9903 20.607 21.9951 21.4584 20.0794C21.5338 19.9124 21.727 19.8371 21.8973 19.9124C22.0643 19.9877 22.1396 20.1842 22.0643 20.3512C21.2882 22.0966 21.2914 25.9182 22.5326 28.61C23.2563 30.1786 24.1339 31.8651 26.1544 33.6957C34.2495 41.0278 39.4562 42.2885 40.1636 41.555C40.5631 41.1424 39.8197 39.6655 38.4378 38.1198C35.7886 35.1595 34.0693 32.7296 33.3293 30.8958C32.7005 29.337 32.8741 28.7771 32.9396 28.6395C33.0214 28.4758 33.2212 28.4103 33.3849 28.4922C33.5421 28.5708 33.6076 28.7574 33.5421 28.9146C33.5323 28.9539 33.4406 29.3993 33.9416 30.6436C34.6424 32.3792 36.3682 34.8091 38.929 37.6712C39.5938 38.4145 41.6863 40.9262 40.6384 42.0102C40.383 42.2721 39.9769 42.4064 39.4366 42.4064L39.4431 42.4097Z"></path>
<path fill="#19114B" d="M30.7355 26.6616C30.7355 25.2305 30.5587 23.8682 30.241 22.6369L21.7628 20.2104C20.9703 21.9918 20.9179 25.8953 22.2343 28.7443C23.0366 30.4799 23.9568 32.1434 25.9348 33.9347C26.5275 34.4718 27.1038 34.9761 27.6704 35.4542C29.4977 33.7415 30.7355 30.4471 30.7355 26.6616Z"></path>
<path fill="#92509F" d="M28.4104 36.0698C28.4104 36.0698 29.4191 34.0002 28.6888 32.9916C28.1157 32.1991 27.5885 31.8913 26.331 31.5343C26.331 31.5343 26.1804 29.8151 24.1926 29.3337C22.8958 29.0194 19.6473 29.1864 18.0427 31.7308C16.6804 33.8856 16.8769 36.0043 17.2011 37.622C17.5253 39.2397 17.915 41.7023 17.2011 43.2545C16.4872 44.81 16.6149 44.9574 16.9457 45.0556C17.2568 45.1473 19.7816 44.2304 20.8066 40.5693C21.2978 38.814 21.9953 37.3633 22.9646 36.1975C23.9372 35.0317 24.5987 34.4652 25.9184 34.7305C26.9434 34.9368 28.4104 36.0698 28.4104 36.0698Z"></path>
<path fill="#19114B" d="M17.9839 45.0557C18.6651 44.6823 20.3286 43.5034 21.1244 40.6577C21.6156 38.9025 22.3 37.5107 23.2202 36.4104C24.2124 35.2217 24.756 34.8353 25.8531 35.058C26.7864 35.2446 28.1912 36.3253 28.2076 36.3351C28.2862 36.3973 28.391 36.417 28.4859 36.3973C28.5842 36.3744 28.6661 36.3089 28.7086 36.2205C28.82 35.9913 29.7795 33.9413 28.9575 32.8017C28.3812 32.0059 27.8408 31.6457 26.6259 31.2789C26.472 30.5552 25.8465 29.396 24.2714 29.0128C22.8862 28.6756 19.4674 28.8557 17.7613 31.554C16.3368 33.8037 16.5398 36.0142 16.8738 37.6876C17.2013 39.3249 17.5615 41.6729 16.8967 43.117C16.3793 44.2468 16.2582 44.7118 16.4023 45.0294C16.5136 45.2718 16.7461 45.3438 16.8476 45.3733C16.8935 45.3864 16.9426 45.3929 16.995 45.3929C17.3388 45.3929 17.8235 45.1441 17.9807 45.0557H17.9839ZM17.5026 43.3921C18.2459 41.7711 17.8726 39.2856 17.5255 37.5566C17.2144 36.0044 17.0244 33.9577 18.3212 31.9077C19.8341 29.5139 22.8764 29.3567 24.1142 29.658C25.8334 30.0739 25.9939 31.5049 25.9972 31.5638C26.0103 31.7014 26.1052 31.816 26.2362 31.8553C27.4544 32.2024 27.8998 32.4742 28.4172 33.1881C28.8265 33.7579 28.5285 34.8811 28.2665 35.559C27.7524 35.1988 26.7634 34.5635 25.9808 34.4063C24.422 34.0952 23.6426 34.8648 22.7061 35.988C21.7269 37.1636 20.9967 38.6339 20.4826 40.4842C19.5427 43.8473 17.3552 44.7085 17.0113 44.7347C17.0146 44.6234 17.0867 44.3057 17.5026 43.3987V43.3921Z"></path>
<path fill="white" d="M39.4106 38.7715C39.4597 37.5402 39.4499 35.0547 38.8539 34.6749C38.4053 34.39 37.747 34.5406 37.2362 34.8943C37.3803 33.5942 36.9546 32.9851 36.65 32.8083C36.3684 32.6445 35.648 33.2242 35.2354 33.5844C36.3193 35.1595 37.6488 36.7281 38.6902 37.8939C38.9227 38.1526 39.1716 38.4539 39.4106 38.7683V38.7715Z"></path>
<path fill="#19114B" d="M39.607 38.778C39.6626 37.3732 39.6528 34.9499 38.9586 34.5078C38.5623 34.2557 38.0023 34.272 37.4587 34.534C37.4915 33.4697 37.128 32.8606 36.7481 32.638C36.5451 32.5201 36.1718 32.5037 35.1042 33.437L34.97 33.5516L35.0715 33.6957C35.9557 34.9827 37.1214 36.4366 38.5427 38.0249C38.7883 38.2999 39.0339 38.5979 39.2533 38.8861L39.5873 39.3282L39.6102 38.7748L39.607 38.778ZM36.5484 32.9785C36.794 33.1193 37.1706 33.6793 37.0363 34.8713L36.9872 35.3036L37.3441 35.0547C37.7567 34.7665 38.3495 34.5897 38.7424 34.8386C39.0666 35.0449 39.2533 36.4006 39.2238 38.2148C39.0961 38.0609 38.9651 37.907 38.8341 37.7596C37.4784 36.2434 36.3552 34.8517 35.4939 33.6171C36.3388 32.9032 36.5451 32.9785 36.5451 32.9753L36.5484 32.9785Z"></path>
<path fill="white" d="M34.8357 36.7804C34.374 36.6527 33.8959 37.419 33.5226 38.2017C33.2672 37.1046 32.4616 33.9314 31.3973 36.8754C31.2598 35.667 30.8373 34.9368 30.3461 34.7665C29.773 34.5667 28.568 35.6114 28.4108 36.0698C31.5938 38.6699 34.302 40.3138 36.3487 41.2111C36.3749 39.1841 35.6184 36.9966 34.8357 36.7804Z"></path>
<path fill="#19114B" d="M36.5451 41.2111C36.5713 39.2922 35.8509 36.8525 34.8881 36.5873C34.3772 36.4464 33.9286 37.0228 33.588 37.6352C33.2049 36.1779 32.7956 35.4837 32.3142 35.4542C32.0195 35.4346 31.7378 35.6671 31.4791 36.1714C31.2794 35.3134 30.9028 34.7469 30.4116 34.5733C30.1954 34.498 29.9236 34.5406 29.5994 34.6977C29.0264 34.9794 28.3551 35.6114 28.2241 36.0011L28.1782 36.1321L28.2863 36.2205C31.9376 39.2037 34.6425 40.6774 36.27 41.388L36.5451 41.5091V41.2111ZM29.773 35.0547C29.9891 34.9499 30.1692 34.9106 30.2806 34.9499C30.631 35.0711 31.0567 35.6474 31.2008 36.8951L31.2958 37.7334L31.5839 36.9376C31.9671 35.8799 32.2487 35.8504 32.2913 35.8472C32.4059 35.8537 32.8218 36.0469 33.3326 38.2377L33.4603 38.7879L33.7059 38.2803C34.3216 36.9966 34.6654 36.9344 34.7866 36.9671C35.3793 37.1309 36.103 38.9712 36.1521 40.9C34.5475 40.1632 32.0162 38.7355 28.6629 36.0109C28.8364 35.7391 29.3015 35.2839 29.7796 35.0547H29.773Z"></path>
<path fill="white" d="M41.8239 15.1936C41.9974 16.1072 41.8894 17.2435 40.5369 17.9345C39.8492 18.2882 39.6888 18.4978 37.272 18.5862C35.2614 18.6582 35.5364 18.3307 34.7112 18.1244C33.886 17.9181 33.1001 17.6562 32.9134 16.6475C32.8217 16.1498 32.9134 15.5964 33.1819 15.056C33.4668 14.4731 33.8434 14.0049 34.5213 13.5267C34.9994 13.1862 34.757 14.2275 35.4218 14.0114C35.6707 13.9295 36.8463 12.4297 37.0952 12.3871C39.3515 11.9975 41.4407 13.1731 41.8271 15.1936H41.8239Z"></path>
<path fill="#19114B" d="M37.2783 18.7925C39.5117 18.7139 39.8653 18.524 40.4482 18.2161L40.6316 18.1212C41.8007 17.5219 42.2821 16.4969 42.0266 15.1543C41.6239 13.0388 39.4887 11.7617 37.0589 12.1841C36.8854 12.2136 36.6791 12.4166 36.0601 13.0945C35.8178 13.363 35.4478 13.7658 35.3593 13.8117C35.2087 13.8608 35.1792 13.8411 35.081 13.6119C35.0253 13.4776 34.9533 13.3106 34.7764 13.2615C34.6029 13.2124 34.449 13.3204 34.3998 13.3565C33.7384 13.8248 33.3192 14.3061 32.995 14.9644C32.7101 15.5473 32.6118 16.1432 32.7101 16.6868C32.9164 17.8035 33.7875 18.1081 34.6618 18.3275C34.8911 18.3831 35.0221 18.4486 35.1629 18.5174C35.4609 18.6648 35.7425 18.8023 36.7642 18.8023C36.9181 18.8023 37.0917 18.8023 37.2816 18.7925H37.2783ZM34.6978 13.7756C34.7764 13.9557 34.9565 14.3782 35.4838 14.2079C35.6377 14.1588 35.8604 13.9263 36.3647 13.3761C36.6332 13.0814 37.036 12.6393 37.1277 12.5935C39.3316 12.2136 41.2604 13.3499 41.6206 15.2362C41.84 16.3954 41.4438 17.2435 40.445 17.7544L40.2583 17.8526C39.7278 18.1343 39.4069 18.3046 37.2685 18.3831C35.9193 18.4323 35.6541 18.3013 35.3495 18.1506C35.2021 18.0786 35.0384 17.9967 34.7666 17.928C33.9348 17.7217 33.2832 17.4924 33.1227 16.6148C33.0376 16.1596 33.1227 15.6553 33.3716 15.151C33.6663 14.5517 34.0364 14.1293 34.6422 13.697C34.6487 13.6938 34.6553 13.6872 34.6585 13.6839C34.6716 13.7134 34.688 13.7494 34.7011 13.7756H34.6978Z"></path>
<path fill="#19114B" d="M39.6134 14.6107C40.4058 16.2611 40.1602 18.1408 39.2007 18.3733C38.2412 18.6058 37.6813 17.0274 37.3243 15.3114C37.0296 13.9 37.0656 13.5922 37.809 13.3597C38.5491 13.1305 39.1614 13.2025 39.6101 14.6139L39.6134 14.6107Z"></path>
<path fill="white" d="M38.1757 15.8092C38.2412 16.3004 38.0251 16.7621 37.6878 16.8145C37.3505 16.8669 37.0459 16.4903 37.0099 15.9926C36.9739 15.4948 37.1966 15.1149 37.5044 15.0658C37.8122 15.0167 38.1135 15.3409 38.1757 15.8092Z"></path>
<path fill="#B7469A" d="M33.8106 17.5743C33.9252 17.5449 34.0431 17.4958 34.1708 17.4237C34.5146 17.2305 36.3714 16.163 37.2588 15.7765C38.143 15.3868 40.1078 14.5027 41.0149 14.3291C41.1754 14.2996 41.4799 14.2734 41.5029 14.2734C40.7464 12.8326 38.9781 12.0663 37.0951 12.3905C36.8495 12.4331 35.6706 13.9329 35.4217 14.0147C34.757 14.2309 34.9993 13.1928 34.5212 13.5301C33.8433 14.0082 33.47 14.4765 33.1818 15.0594C32.9166 15.603 32.8216 16.1564 32.9133 16.6509C32.9886 17.0569 33.1589 17.3451 33.3947 17.5547C33.6075 17.5187 33.7713 17.5089 33.8138 17.5743H33.8106Z"></path>
<path fill="#19114B" d="M33.8596 17.7741C33.9873 17.7413 34.1183 17.6889 34.2722 17.6038L34.4196 17.5219C34.9468 17.2239 36.5547 16.3103 37.3406 15.9665L37.5633 15.8682C38.4966 15.4556 40.2355 14.6893 41.0509 14.5354C41.195 14.5092 41.4799 14.483 41.5093 14.483C41.5814 14.483 41.6469 14.4404 41.6796 14.3815C41.7156 14.3193 41.7189 14.244 41.6829 14.1817C40.8806 12.6524 39.0205 11.8501 37.0557 12.1907C36.8822 12.2202 36.6759 12.4232 36.0569 13.1011C35.8146 13.3696 35.4446 13.7724 35.3561 13.8182C35.2055 13.8674 35.176 13.8477 35.0778 13.6185C35.0221 13.4842 34.9501 13.3172 34.7733 13.2681C34.5997 13.219 34.4458 13.327 34.3967 13.3631C33.7352 13.8313 33.316 14.3127 32.9918 14.9709C32.7069 15.5538 32.6087 16.1498 32.7069 16.6934C32.7855 17.1191 32.9623 17.4532 33.2538 17.7119C33.2996 17.7544 33.3651 17.7741 33.4273 17.761C33.578 17.7348 33.6467 17.7348 33.6762 17.7348C33.7122 17.7675 33.7614 17.7839 33.8105 17.7839C33.8269 17.7839 33.8432 17.7839 33.8596 17.7774V17.7741ZM33.4601 17.332C33.2833 17.1453 33.1686 16.9096 33.113 16.6116C33.0311 16.1564 33.1163 15.6521 33.3619 15.1478C33.6566 14.5485 34.0234 14.1261 34.6324 13.6938C34.639 13.6905 34.6455 13.684 34.6488 13.6807C34.6619 13.7102 34.6783 13.7462 34.6914 13.7724C34.77 13.9525 34.9501 14.3749 35.4773 14.2047C35.6312 14.1555 35.8539 13.923 36.3582 13.3729C36.6267 13.0782 37.0295 12.6361 37.1212 12.5902C38.7913 12.3021 40.3632 12.9013 41.1524 14.0966C41.0869 14.1064 41.0214 14.113 40.969 14.1228C40.111 14.2865 38.4082 15.0364 37.393 15.4851L37.1703 15.5833C36.3648 15.937 34.7994 16.8244 34.21 17.1584L34.0659 17.2403C33.9808 17.2862 33.9087 17.3222 33.8432 17.3451C33.7876 17.3222 33.7221 17.3156 33.6533 17.3156C33.5943 17.3156 33.5289 17.3222 33.4634 17.332H33.4601Z"></path>
<path fill="white" d="M51.9295 26.9301L50.9242 26.9825C50.8194 26.8581 50.636 26.7958 50.3577 26.7795L48.2782 26.8581C48.3208 26.7402 48.3405 26.6747 48.3405 26.6747L43.0649 27.942C43.0551 27.9944 43.0485 28.0795 43.0452 28.1909L39.5282 28.502C39.538 28.4365 39.5446 28.4004 39.5446 28.4004L35.1401 27.7062C35.0942 27.8568 35.0615 28.0271 35.0451 28.2138L31.6394 27.5818C31.7737 27.0414 31.8457 26.6452 31.8457 26.6452L28.2403 26.3341C28.3418 25.8494 28.3942 25.5023 28.3942 25.5023L25.4502 24.6149C25.6009 23.5309 24.9688 22.1916 22.1329 21.9558C22.1329 21.9558 21.9299 23.8257 22.0478 24.605C22.1624 25.3812 22.4801 27.2805 23.3708 27.5687C23.9995 27.7717 24.6643 27.143 24.9296 26.714C25.0933 27.3394 25.7253 28.7672 26.7765 29.1896C27.2611 29.3829 27.6672 29.3206 27.8997 28.7607C28.0634 29.1896 28.7413 30.5519 29.9759 30.7058C30.4769 30.7681 30.8699 30.3456 31.1319 29.7529C31.2956 30.5781 31.9833 31.7275 33.3259 31.9797C33.971 32.1009 34.603 31.4033 35.091 30.3456C35.3988 31.7341 36.2731 32.6215 37.4651 32.7034C38.2609 32.7591 38.7488 31.9699 39.0828 30.7746C39.3219 31.9895 39.9244 32.8606 40.9789 32.9523C42.0104 33.0407 42.6948 31.9109 43.1402 30.5454C43.3269 31.6326 43.769 32.3137 44.532 32.4545C45.4718 32.6281 46.4509 31.2658 47.1976 29.6874C47.3056 31.2036 47.8329 31.5933 48.2127 31.6686C48.9201 31.8127 49.7322 30.7091 50.3053 29.5695C50.4133 30.2507 50.6098 30.5683 50.7703 30.6141C51.4088 30.7943 52.2079 28.3611 52.2898 27.549C52.3323 27.1233 52.2373 26.9563 51.9295 26.9334V26.9301Z"></path>
<path fill="#19114B" d="M43.101 31.2233C43.3663 32.0452 43.8345 32.52 44.496 32.6412C45.4948 32.8279 46.415 31.6064 47.083 30.3489C47.2926 31.4361 47.774 31.7734 48.1735 31.8553C48.9693 32.019 49.7356 30.994 50.23 30.1262C50.3479 30.5094 50.5149 30.7419 50.718 30.7975C50.8162 30.827 50.9701 30.8336 51.1535 30.7091C51.8117 30.2605 52.4208 28.2531 52.4896 27.5621C52.5092 27.3558 52.5158 27.0939 52.3684 26.917C52.2735 26.8057 52.1359 26.7435 51.9493 26.7271H51.9362L51.0029 26.7729C50.8621 26.655 50.6557 26.5928 50.3545 26.5764L48.5632 26.6452L48.6484 26.3931L42.8947 27.7717L42.875 27.9027C42.8718 27.9289 42.8685 27.9616 42.8652 27.9977L39.7706 28.2695L39.7772 28.2204L35.0125 27.4704L34.9601 27.6342C34.9273 27.7357 34.9044 27.847 34.8847 27.9682L31.8917 27.4115C31.9932 26.9792 32.0489 26.6845 32.0521 26.6681L32.0914 26.452L28.4892 26.1409C28.5613 25.7676 28.6006 25.5154 28.6006 25.5154L28.6268 25.3452L25.673 24.4544C25.6992 24.0418 25.6271 23.4982 25.2211 22.9874C24.6578 22.2833 23.6263 21.8609 22.1592 21.7397L21.966 21.7233L21.9464 21.9165C21.9365 21.9951 21.7433 23.8224 21.8612 24.6149C22.1396 26.488 22.6144 27.5097 23.3185 27.739C23.9046 27.9289 24.4974 27.5327 24.8674 27.1168C25.1327 27.8208 25.7418 28.9637 26.7111 29.3534C27.2973 29.5892 27.6607 29.432 27.8834 29.1667C28.1716 29.73 28.8396 30.7419 29.9596 30.8827C30.382 30.9351 30.775 30.7124 31.0861 30.2474C31.4136 31.1054 32.1635 31.9404 33.2998 32.1533C33.9056 32.2679 34.518 31.8127 35.0485 30.8663C35.4644 32.0616 36.342 32.8049 37.4619 32.8803C38.3265 32.9392 38.8177 32.1173 39.0764 31.4525C39.4333 32.4644 40.0915 33.0538 40.9724 33.1291C41.0183 33.1324 41.0608 33.1357 41.1067 33.1357C41.9155 33.1357 42.5869 32.4873 43.1108 31.2102L43.101 31.2233ZM38.8897 30.7157C38.5426 31.9601 38.0907 32.543 37.4783 32.5004C36.3747 32.4251 35.5757 31.6195 35.281 30.2965L35.1533 29.7234L34.9077 30.2572C34.4263 31.3019 33.8565 31.8749 33.3587 31.78C32.0292 31.5311 31.4528 30.362 31.3219 29.7103L31.2007 29.098L30.9486 29.6678C30.7979 30.0051 30.477 30.5618 29.9956 30.5061C28.7348 30.3489 28.1061 28.7541 28.0799 28.6886L27.8998 28.2236L27.7099 28.6821C27.5429 29.0882 27.294 29.1831 26.8453 29.003C25.9382 28.6395 25.3029 27.3755 25.1163 26.6616L24.9984 26.213L24.7561 26.6059C24.5006 27.0218 23.921 27.5327 23.4265 27.3755C23.0565 27.2543 22.5489 26.6714 22.2378 24.5723C22.1494 23.9731 22.2575 22.6632 22.3066 22.1687C23.5412 22.2997 24.4351 22.673 24.8969 23.2493C25.2735 23.7209 25.2964 24.235 25.2473 24.5821L25.2244 24.7492L28.1651 25.6333C28.1389 25.7807 28.0963 26.0099 28.0406 26.285L27.9948 26.5044L31.6002 26.8155C31.5642 26.9825 31.5118 27.2314 31.4398 27.5261L31.3906 27.7291L35.2155 28.4398L35.2351 28.2236C35.245 28.1156 35.2613 28.014 35.281 27.9191L39.3122 28.5544L39.286 28.7116L43.232 28.3644L43.2385 28.1909C43.2385 28.1581 43.2385 28.1254 43.2418 28.0959L48.0294 26.9465L47.9901 27.0611L50.3414 26.9727C50.5641 26.9858 50.7016 27.0284 50.7671 27.1037L50.8293 27.179L51.9198 27.1233C51.9886 27.1299 52.0344 27.1462 52.0541 27.1692C52.077 27.1954 52.1097 27.2772 52.0868 27.5196C52.0148 28.2302 51.4188 30.0411 50.921 30.3784C50.8915 30.398 50.8457 30.421 50.8195 30.4144C50.7671 30.3915 50.5968 30.1819 50.492 29.5302L50.397 28.9211L50.122 29.4746C49.467 30.7845 48.7269 31.5638 48.2456 31.4689C47.7707 31.3739 47.4662 30.7321 47.3876 29.6645L47.3319 28.9146L47.011 29.5957C46.153 31.4132 45.2623 32.3792 44.5583 32.2515C43.9197 32.1336 43.5071 31.5475 43.327 30.5028L43.1927 29.7136L42.9438 30.4766C42.5901 31.5606 41.9647 32.8344 40.9888 32.7493C39.8754 32.6543 39.4399 31.5999 39.2696 30.7321L39.1091 29.9134L38.8832 30.719L38.8897 30.7157Z"></path>
<path fill="#DA538D" d="M28.7513 14.2407C28.7513 14.2407 31.859 14.6926 34.3183 15.4065C36.7776 16.1204 44.6107 18.5863 46.8145 19.4213C49.6013 20.4758 50.7802 22.3555 51.4777 23.9535C52.1752 25.5581 52.578 27.0612 52.1261 28.2925C52.1261 28.2925 51.3206 27.4182 49.9354 27.536C47.6267 27.7325 47.345 28.0796 45.2623 28.4202C42.5181 28.8721 35.8083 30.0379 30.0448 28.227C24.2813 26.4128 22.0152 22.1393 21.3046 20.2629"></path>
<path fill="#19114B" d="M37.2196 29.5041C34.8651 29.5041 32.3337 29.2585 29.9596 28.5118C23.9734 26.6289 21.7204 22.1917 21.0294 20.3709C20.9705 20.217 21.0491 20.0467 21.1997 19.9911C21.3503 19.9354 21.5239 20.0107 21.5796 20.1613C22.2378 21.9002 24.3925 26.141 30.1331 27.9486C35.7034 29.7006 42.2397 28.6232 45.0298 28.1647L45.2132 28.1353C46.0548 27.9977 46.5885 27.8602 47.1027 27.7292C47.8296 27.5425 48.5206 27.3657 49.9058 27.2478C50.8555 27.1659 51.5628 27.5098 51.9623 27.7816C52.149 26.8516 51.9067 25.6858 51.2059 24.0779C50.5575 22.5879 49.4604 20.7442 46.7097 19.7029C44.5451 18.8842 36.6956 16.4085 34.2363 15.6946C31.8261 14.9971 28.7381 14.5419 28.7086 14.5387C28.5481 14.5157 28.4335 14.3651 28.4597 14.2046C28.4827 14.0442 28.6333 13.9296 28.7938 13.9558C28.8265 13.959 31.9506 14.4208 34.4033 15.1314C36.9347 15.8649 44.699 18.3111 46.9225 19.1527C49.9124 20.2858 51.1109 22.3718 51.7495 23.8454C52.6238 25.8528 52.8268 27.2576 52.4044 28.4038C52.3684 28.502 52.2865 28.5708 52.185 28.5904C52.0835 28.6101 51.9787 28.5773 51.9099 28.502C51.8805 28.4726 51.183 27.7357 49.9615 27.8405C48.6254 27.9551 47.9901 28.1189 47.2533 28.3055C46.749 28.4333 46.1792 28.5806 45.3114 28.7214L45.128 28.7509C43.4743 29.0227 40.5238 29.5106 37.2163 29.5106L37.2196 29.5041Z"></path>
<path fill="white" d="M34.8912 18.0884C34.7897 19.0741 34.5801 19.7225 33.6304 19.9845C32.2681 20.3545 30.8567 19.4474 28.3221 19.1658C25.9905 18.9071 24.3008 19.7225 23.4428 19.2509C22.5783 18.7761 22.2835 17.8723 22.3982 16.7851C22.6503 14.3651 25.6532 12.6982 29.1015 13.0585C29.9627 13.1502 30.6701 14.0867 31.3938 14.388C32.1175 14.6893 32.8609 14.3487 33.3848 14.8039C34.4327 15.7143 35.0189 16.8833 34.8912 18.0917V18.0884Z"></path>
<path fill="#19114B" d="M33.6861 20.181C34.8224 19.8699 35.0025 19.025 35.0975 18.1081C35.2285 16.8702 34.6685 15.6389 33.5223 14.6434C33.1752 14.3422 32.7593 14.3323 32.3565 14.3225C32.0651 14.316 31.7605 14.3094 31.4756 14.1915C31.2104 14.0802 30.9353 13.8706 30.6471 13.6446C30.1821 13.2844 29.7008 12.9078 29.1244 12.8489C25.5681 12.4788 22.4571 14.2308 22.1918 16.7589C22.0608 18.0164 22.4571 18.9398 23.3445 19.4278C23.8357 19.6963 24.5136 19.6046 25.3683 19.4867C26.1673 19.3754 27.1629 19.2411 28.2992 19.3656C29.3536 19.4834 30.2083 19.7094 30.9615 19.9092C31.7082 20.1056 32.3402 20.2759 32.946 20.2759C33.1949 20.2759 33.4405 20.2465 33.6861 20.181ZM25.3126 19.0774C24.53 19.1855 23.9143 19.2706 23.5443 19.0676C22.6241 18.5633 22.5259 17.5579 22.6045 16.8047C22.8435 14.5026 25.7482 12.9144 29.0818 13.2615C29.5403 13.3106 29.9726 13.6446 30.3917 13.9721C30.7028 14.2144 31.0008 14.4437 31.3152 14.5747C31.6721 14.722 32.0291 14.7318 32.3434 14.7384C32.7037 14.7449 33.0115 14.7515 33.2473 14.9578C34.2886 15.8616 34.7995 16.9685 34.6849 18.0688C34.5833 19.0545 34.3901 19.562 33.5747 19.7847C32.8412 19.9845 32.0585 19.7782 31.0663 19.5129C30.3 19.3099 29.429 19.0774 28.345 18.9595C28.0045 18.9202 27.677 18.9071 27.3626 18.9071C26.5865 18.9071 25.8988 19.0021 25.3126 19.0839V19.0774Z"></path>
<path fill="#DA538D" d="M18.796 21.2911C18.796 21.2911 19.6867 17.81 21.9037 17.7806C24.1207 17.7511 24.8968 20.515 25.126 21.2911L23.8391 21.3336L22.7519 19.9484H21.3994L20.1779 20.5412L19.8145 21.3991L18.7927 21.2911H18.796Z"></path>
<path fill="#19114B" d="M20.4203 21.373C20.3516 21.0848 20.3352 20.7999 20.3876 20.5019C20.4498 20.217 20.5644 19.8797 20.9508 19.6603C21.1539 19.5719 21.3897 19.5915 21.5468 19.6636C21.7204 19.729 21.8317 19.8404 21.9496 19.9386C22.0511 20.0532 22.1461 20.1613 22.228 20.2825C22.3033 20.4036 22.3721 20.5314 22.431 20.6623L22.3884 20.6984C22.264 20.623 22.1494 20.5477 22.0381 20.4659C21.9234 20.3971 21.8121 20.3218 21.704 20.2596C21.4846 20.1318 21.2652 20.086 21.1899 20.1482C21.0884 20.2072 20.9803 20.4266 20.8788 20.6525C20.7642 20.8785 20.6758 21.1437 20.4727 21.3861L20.4171 21.3697L20.4203 21.373Z"></path>
<path fill="#19114B" d="M18.5996 21.2419C18.8125 20.3905 19.1399 19.5849 19.6606 18.8547C19.9193 18.4945 20.237 18.1604 20.6299 17.905C21.0262 17.6529 21.5043 17.512 21.9791 17.5153C22.4474 17.5153 22.9157 17.6692 23.3119 17.9083C23.7082 18.1539 24.0356 18.4846 24.2878 18.8514C24.8019 19.5817 25.0835 20.4233 25.2833 21.2485C25.3029 21.3369 25.2505 21.4253 25.1654 21.445C25.0835 21.4646 25.0017 21.4188 24.9755 21.3402C24.8412 20.9407 24.7004 20.551 24.5203 20.1809C24.3467 19.8076 24.147 19.4507 23.9014 19.1363C23.4233 18.501 22.7388 18.0425 21.9726 18.0589C21.6025 18.0589 21.2423 18.1604 20.9214 18.3602C20.6004 18.5632 20.3319 18.8579 20.083 19.169C19.8374 19.4834 19.6344 19.8404 19.4576 20.2071C19.2742 20.5706 19.1203 20.9636 18.9959 21.3435V21.3565C18.9566 21.4613 18.8452 21.5203 18.7371 21.4843C18.6356 21.4515 18.58 21.3467 18.6062 21.2452L18.5996 21.2419Z"></path>
<path fill="#19114B" d="M33.2377 16.5395C33.6077 18.1146 33.611 19.4081 32.55 19.5751C31.489 19.7454 30.9323 18.5174 30.5426 16.9455C30.238 15.711 30.1234 14.6369 30.6801 14.1293C30.8144 14.0048 31.0436 14.6074 31.263 14.5583C31.8197 14.4305 32.2192 14.1718 32.5402 14.6696C32.8611 15.1674 33.051 15.7437 33.2377 16.5395Z"></path>
<path fill="white" d="M30.9739 18.3994C31.3788 18.3591 31.6707 17.9617 31.6259 17.5117C31.5811 17.0618 31.2165 16.7298 30.8115 16.7701C30.4066 16.8105 30.1147 17.2079 30.1595 17.6578C30.2044 18.1078 30.569 18.4398 30.9739 18.3994Z"></path>
<path fill="#B7469A" d="M33.3849 14.8006C32.8609 14.3454 32.1209 14.686 31.3939 14.3847C30.6702 14.0835 29.9628 13.1469 29.1016 13.0552C25.8727 12.7179 23.0368 14.1588 22.4801 16.3266C23.0859 16.1858 24.6807 15.6259 27.7589 15.8813C30.8896 16.14 33.8237 16.9226 34.4295 17.0471C34.5998 17.0831 34.7275 17.0766 34.829 17.0504C34.6391 16.2219 34.1315 15.4457 33.3882 14.8006H33.3849Z"></path>
<path fill="#19114B" d="M34.8814 17.2501C34.9895 17.2207 35.055 17.1126 35.0288 17.0045C34.8356 16.1498 34.3117 15.3312 33.5192 14.6435C33.1721 14.3422 32.7562 14.3324 32.3534 14.3226C32.0619 14.316 31.7574 14.3095 31.4725 14.1916C31.2072 14.0802 30.9321 13.8706 30.644 13.6447C30.179 13.2845 29.6976 12.9079 29.1212 12.8489C25.8105 12.5018 22.8665 13.9754 22.2771 16.2743C22.2607 16.343 22.2771 16.4184 22.3295 16.4708C22.3786 16.5232 22.4539 16.5428 22.526 16.5264C22.598 16.5101 22.6832 16.4871 22.7814 16.4609C23.5182 16.2677 25.054 15.8617 27.7426 16.0843C30.3525 16.3005 32.8511 16.8867 33.9154 17.1388C34.1283 17.1879 34.2887 17.2272 34.387 17.2469C34.4819 17.2665 34.5704 17.2763 34.6522 17.2763C34.7341 17.2763 34.8094 17.2665 34.8814 17.2469V17.2501ZM22.7912 16.0352C23.528 14.1326 26.1445 12.957 29.0819 13.2648C29.5404 13.3139 29.9727 13.6512 30.3918 13.9754C30.7029 14.2178 30.9976 14.447 31.3153 14.578C31.6722 14.7253 32.0292 14.7352 32.3468 14.7417C32.707 14.7483 33.0149 14.7548 33.2506 14.9611C33.9023 15.5276 34.3509 16.1793 34.5638 16.8637C34.5343 16.8604 34.5048 16.8539 34.4721 16.8474C34.3771 16.8277 34.22 16.7917 34.0137 16.7426C32.9395 16.4904 30.418 15.8977 27.7786 15.6783C27.2121 15.6324 26.6979 15.6128 26.2264 15.6128C24.5137 15.6128 23.42 15.8748 22.7912 16.0385V16.0352Z"></path>
<path fill="#19114B" d="M41.0837 10.681C41.0837 10.681 40.7202 9.66914 40.2224 9.68879C39.0828 9.73791 36.5122 14.0442 35.1827 14.7384C33.935 15.3901 34.5703 11.9582 34.9764 12.0171C35.5429 12.0957 35.2383 13.5071 35.2383 13.5071C35.2383 13.5071 36.5122 12.1645 37.5012 10.979C38.4901 9.79357 39.6592 9.04694 40.3207 9.0011C41.0149 8.95198 41.2343 10.5697 41.0837 10.6843V10.681Z"></path>
<path fill="#19114B" d="M22.6504 11.3359C22.6504 11.3359 23.0532 10.3273 23.7442 10.3273C26.1674 10.3339 30.9387 15.2787 31.9735 15.5079C33.0083 15.7372 33.6436 15.2787 33.9023 14.6434C34.161 14.0081 34.2331 12.5116 33.8892 12.3118C33.5454 12.1121 33.2277 12.1972 32.9985 12.7735C32.7692 13.3499 32.8413 14.329 32.3501 14.2144C31.8622 14.0998 30.2281 13.0061 28.6922 11.8173C27.7426 11.0838 25.2276 9.39404 23.8915 9.5414C22.6569 9.67894 22.3917 11.2213 22.6504 11.3359Z"></path>
<path fill="#19114B" d="M19.2219 36.7084C19.1858 35.0088 19.9849 33.2765 21.3799 32.2122C21.5535 32.0812 21.7336 31.9535 21.9235 31.8455C22.1069 31.7276 22.3099 31.6293 22.513 31.5475C22.9223 31.3837 23.348 31.2724 23.7836 31.2069C24.6481 31.0825 25.5584 31.1348 26.3902 31.4787C26.4917 31.5213 26.5376 31.6359 26.4983 31.7374C26.4557 31.8356 26.3444 31.8848 26.2428 31.8455H26.2396C25.4897 31.5507 24.6481 31.4951 23.8392 31.5999C23.4332 31.6523 23.0304 31.7472 22.6472 31.888C22.4573 31.9601 22.2739 32.0452 22.0938 32.1467C21.9071 32.2384 21.7336 32.3498 21.5633 32.4644C20.8789 32.9261 20.3156 33.5647 19.9161 34.3015C19.5264 35.0383 19.2677 35.8603 19.2219 36.7117V36.7084Z"></path>
</svg>
