<svg xmlns="http://www.w3.org/2000/svg" fill="none" viewBox="0 0 60 60" height="60" width="60">
<path fill="#231F20" d="M17.7012 50.5631C17.1489 50.5631 16.5666 50.4895 15.9571 50.3314C10.6514 48.9357 10.548 44.7729 11.3942 41.5234C11.767 40.0922 12.4499 37.3879 13.239 34.2584C14.7953 28.081 16.5612 21.0804 16.9122 20.0663C18.3379 15.9608 21.1105 13.4719 24.7293 13.0439H24.7374C24.7374 13.0439 24.7374 13.0412 24.7374 13.0384C24.8163 13.003 24.898 12.9676 24.9823 12.9348C25.083 12.8939 25.1619 12.864 25.2435 12.834C25.2435 12.834 25.2762 12.8231 25.2789 12.8203C25.3523 12.7931 25.434 12.7658 25.5156 12.7413C25.5156 12.7413 25.551 12.7304 25.5537 12.7304C25.6299 12.7058 25.7115 12.6813 25.7958 12.6595C25.7958 12.6595 25.8285 12.6513 25.8312 12.6513C25.9128 12.6295 25.9972 12.6077 26.0843 12.5859L26.1169 12.5777C26.2013 12.5586 26.2883 12.5368 26.3781 12.5205C26.4897 12.4987 26.5822 12.4796 26.6774 12.4659C26.6828 12.4659 26.6883 12.4659 26.6937 12.4659C26.7835 12.4523 26.8733 12.4387 26.9658 12.4251C27.0747 12.4114 27.1672 12.4005 27.2624 12.3896C27.3848 12.3787 27.4746 12.3705 27.5671 12.3651H27.6107C27.695 12.3569 27.7875 12.3542 27.88 12.3487H27.9236C28.0134 12.346 28.1059 12.3433 28.1984 12.3433C28.2093 12.3433 28.4269 12.3433 28.5194 12.3487C28.5385 12.3487 28.7507 12.3596 28.8487 12.3651C29.1752 12.3896 29.2622 12.4878 29.8418 13.1257C30.2717 13.6027 31.0716 14.486 31.4226 14.6986C31.9722 15.0312 32.3423 14.8267 32.764 14.3906C32.7912 14.3606 32.8211 14.3361 32.8484 14.3115C33.1123 13.9817 33.6809 13.7227 35.3978 13.8263C35.7162 13.5128 36.3746 12.774 36.6848 12.4251C37.3296 11.6999 37.3569 11.6699 37.6507 11.6536H37.7323C37.7813 11.6481 37.8276 11.6454 37.8765 11.6454H37.9527C38.0153 11.6454 38.0779 11.6454 38.1405 11.6454C38.2384 11.6481 38.3064 11.6536 38.3772 11.659L39.1989 11.7871L39.3485 11.8253C39.3948 11.8389 39.441 11.8499 39.4846 11.8635L40.0451 12.0734C40.0805 12.0897 40.1185 12.1061 40.1539 12.1225C40.1566 12.1225 40.1893 12.1388 40.192 12.1415C40.3444 12.2151 40.4777 12.2915 40.6056 12.3705L40.6464 12.3951C40.6845 12.4196 40.7199 12.4441 40.7552 12.4687L40.8124 12.5096C40.8423 12.5314 40.8831 12.5586 40.9212 12.5886L40.962 12.6213C40.9919 12.6459 41.0328 12.6759 41.0709 12.7058C41.079 12.7113 41.0872 12.7195 41.0926 12.7249C41.2151 12.8258 41.3457 12.9457 41.4654 13.0739C41.4681 13.0766 41.4708 13.082 41.4763 13.0848C41.5116 13.1229 41.547 13.1611 41.5824 13.202C41.6368 13.2674 41.6722 13.3083 41.7048 13.3492C42.1129 13.8726 42.3742 14.4506 42.4939 15.083C42.6462 15.8763 42.5673 16.5878 42.2708 17.1903C43.8761 17.711 46.0174 18.4143 47.0622 18.8123C50.1858 19.9982 51.4374 22.179 52.104 23.7165C52.7026 25.0905 53.3202 26.8652 52.8114 28.4381C52.6645 28.997 52.153 30.7417 51.3422 31.2051C51.1027 31.3414 50.8361 31.3796 50.5858 31.3087C50.4497 31.2706 50.3246 31.1997 50.213 31.0961C49.6335 31.9139 48.9015 32.5464 48.0771 32.3774C47.6227 32.2847 47.2472 31.9221 46.9806 31.3469C46.1045 32.7426 45.2719 33.326 44.4066 33.1652C43.8706 33.0671 43.4353 32.7154 43.1033 32.1157C42.4857 33.2224 41.7511 33.7458 40.9212 33.675C40.1757 33.6123 39.558 33.1243 39.1009 32.2656C38.7554 32.868 38.2765 33.3806 37.6153 33.4269C37.6507 33.6341 37.6752 33.8794 37.6834 34.1711C38.3173 33.9094 38.8207 33.904 39.2152 34.1548C39.6233 34.4165 40.0451 35.0108 40.0968 37.4125C41.128 38.7646 41.6395 39.4761 41.8517 39.855C42.4095 40.8555 42.5428 41.9569 42.2027 42.8047C41.9361 43.4698 41.4055 43.9415 40.6682 44.165C38.603 44.7947 34.1136 43.1427 28.6555 39.746C27.8637 39.2526 27.0991 38.7292 26.3754 38.1839C25.4612 41.0382 24.166 45.0973 23.8341 46.1796C23.3035 47.9052 21.0588 50.5659 17.7012 50.5659V50.5631ZM25.2816 14.2843L25.2027 14.3224C25.1347 14.3551 25.0612 14.3742 24.985 14.3824C22.7757 14.6168 19.8072 15.8708 18.1937 20.5134C17.8618 21.4702 16.0279 28.7462 14.5532 34.591C13.7641 37.726 13.0812 40.433 12.7057 41.8669C11.6718 45.8279 12.8145 48.1015 16.3027 49.0174C20.0031 49.9907 22.1689 46.9838 22.5417 45.7761C22.9144 44.563 24.4817 39.656 25.385 36.84C25.453 36.6273 25.6217 36.4611 25.8367 36.3984C26.0489 36.3357 26.2829 36.3793 26.457 36.521C27.3631 37.2543 28.3453 37.9495 29.3765 38.5901C35.8468 42.6166 39.2751 43.17 40.2818 42.8646C40.6219 42.7611 40.8423 42.5757 40.9539 42.2976C41.1362 41.8424 41.0273 41.1445 40.679 40.5202C40.4478 40.1031 39.6043 38.9881 38.8969 38.064C38.8071 37.9468 38.7581 37.805 38.7581 37.6578C38.7418 36.2675 38.5949 35.5805 38.4887 35.3379C38.3826 35.357 38.1622 35.4251 37.7813 35.6459C37.4875 35.8177 37.112 35.7441 36.9025 35.4742L36.4807 34.9235C36.3882 34.8036 36.3392 34.6536 36.342 34.501C36.3474 34.133 36.3229 33.8604 36.2903 33.6723C35.9937 33.8495 35.6101 33.7786 35.4005 33.4978L35.2835 33.3397C34.8809 32.7999 34.4646 32.1157 34.0156 31.2515C33.9068 31.0416 33.9149 30.788 34.0374 30.5836C34.2061 30.3055 34.3829 29.9648 34.5625 29.5777C34.685 29.3132 34.9625 29.1578 35.2509 29.1878C35.5393 29.2178 35.776 29.4304 35.8413 29.7167C36.0835 30.8126 36.712 32.0202 37.5228 32.0748C37.5228 32.0748 37.9963 31.9194 38.5051 30.0929C38.5894 29.7903 38.8642 29.5886 39.1853 29.5967C39.4982 29.6104 39.7621 29.8366 39.8247 30.1447C40.0805 31.445 40.5484 32.2819 41.0491 32.3256C41.4055 32.361 42.015 31.6359 42.5592 29.9566C42.6544 29.6594 42.9401 29.4659 43.253 29.4904C43.5632 29.5122 43.8189 29.7439 43.8706 30.052C44.0693 31.2133 44.4202 31.7885 44.6651 31.8349C44.8311 31.8648 45.5576 31.4423 46.6323 29.1606C46.7629 28.8825 47.0677 28.7271 47.3697 28.7844C47.6717 28.8416 47.8975 29.0951 47.922 29.4032C47.9982 30.4609 48.2649 30.9271 48.3873 31.0498C48.5696 30.9952 49.1029 30.5291 49.7124 29.3132C49.8457 29.0488 50.1314 28.9016 50.4225 28.9479C50.7136 28.9943 50.9422 29.2205 50.9885 29.5122C50.9885 29.5204 50.9912 29.5313 50.9939 29.5395C51.168 29.1796 51.3667 28.6671 51.519 28.0838C51.5217 28.0701 51.5272 28.0538 51.5326 28.0401C51.8238 27.1623 51.6143 25.9656 50.8769 24.2672C50.2593 22.8442 49.2117 21.0831 46.597 20.0908C45.6827 19.7446 43.6829 19.074 40.9647 18.2017C40.7335 18.1281 40.5593 17.9345 40.5076 17.6946C40.4587 17.4547 40.5376 17.2093 40.7199 17.0458C41.1688 16.6478 41.3185 16.0917 41.177 15.3474C41.0981 14.9303 40.9266 14.5487 40.6654 14.2134C40.6328 14.1698 40.6083 14.1425 40.5865 14.1152C40.5512 14.0743 40.5267 14.0471 40.5022 14.0226C40.4995 14.0198 40.4967 14.0171 40.494 14.0144C40.4124 13.9299 40.3253 13.8481 40.2355 13.7745C40.2355 13.7745 40.2328 13.7745 40.2301 13.7718C40.2029 13.7499 40.1757 13.7281 40.1485 13.709L40.5267 13.1447L40.1213 13.6872C40.0968 13.6682 40.0723 13.6518 40.0451 13.6327L40.4015 13.0548L40.0097 13.6082L39.9308 13.5564L40.2573 12.9621L39.9009 13.54C39.8084 13.4828 39.7159 13.431 39.6179 13.3846L39.8709 12.7522L39.5798 13.3656L38.9023 13.1284L38.3364 13.033L38.3309 12.3515L38.2792 13.0275C38.2275 13.0248 38.1731 13.0193 38.1214 13.0193C38.0697 13.0193 38.0289 13.0193 37.9908 13.0193C37.9119 13.1066 37.814 13.2184 37.7024 13.3438C36.5542 14.6332 36.195 15.0012 35.9583 15.1321C35.7896 15.2302 35.6291 15.2166 35.523 15.2111C34.3911 15.1266 33.9666 15.2193 33.8524 15.2575C33.8224 15.2902 33.7871 15.3202 33.7517 15.3474H33.749C32.5654 16.5769 31.458 16.3152 30.7342 15.8818C30.2526 15.5901 29.5942 14.884 28.8487 14.0553C28.748 13.9462 28.6337 13.8181 28.5494 13.7254C28.5113 13.7254 28.4813 13.7227 28.4786 13.7227C28.4052 13.7227 28.2283 13.7172 28.2065 13.7172C28.1276 13.7172 28.0487 13.7172 27.9725 13.72C27.9725 13.72 27.9372 13.72 27.9345 13.72C27.8583 13.72 27.7794 13.7254 27.7032 13.7309L27.6243 13.0548L27.6678 13.7309C27.5889 13.7363 27.51 13.7418 27.4338 13.7499C27.3304 13.7608 27.2515 13.769 27.1726 13.7799C27.0774 13.7936 26.9957 13.8045 26.9168 13.8181C26.9114 13.8181 26.9087 13.8181 26.9032 13.8181C26.8271 13.8317 26.7536 13.8453 26.6801 13.859C26.5903 13.8781 26.5169 13.8944 26.4434 13.9108C26.3482 13.9326 26.2774 13.9517 26.2067 13.9708C26.1087 13.998 26.0407 14.0171 25.9754 14.0389C25.8802 14.0689 25.8149 14.0907 25.7496 14.1152C25.6598 14.1479 25.5918 14.1725 25.5292 14.1997C25.4476 14.2324 25.3823 14.2597 25.317 14.2897C25.3115 14.2897 25.3061 14.2952 25.3034 14.2952L25.2816 14.2843ZM32.9381 15.3202C32.9572 15.3338 32.9762 15.3474 32.998 15.3583C32.979 15.3474 32.9572 15.3338 32.9381 15.3202Z"></path>
<path fill="white" d="M26.5494 35.4033C26.5494 35.4033 23.7006 44.2904 23.1836 45.9779C22.6667 47.6653 20.0764 50.7131 16.1257 49.6745C12.175 48.6358 10.9451 45.9124 12.0471 41.6952C13.149 37.4779 17.0317 21.781 17.5514 20.2899C18.0684 18.7987 19.9458 13.998 25.3195 13.6736C30.6933 13.3492 35.1609 15.4892 35.1609 18.8641C35.1609 22.239 28.8159 28.5281 26.5494 35.4061V35.4033Z"></path>
<path fill="#231F20" d="M17.7011 50.1788C17.1787 50.1788 16.6291 50.1106 16.0522 49.958C12.0362 48.903 10.5941 46.0978 11.7614 41.6188C12.1342 40.1876 12.8171 37.4806 13.6062 34.3511C15.1625 28.1819 16.9256 21.1895 17.2712 20.1917C18.7187 16.0235 21.5702 13.6027 25.3032 13.3765C28.9601 13.1557 32.2197 14.0416 34.0264 15.7455C34.9623 16.6287 35.4575 17.7082 35.4575 18.8614C35.4575 20.6306 33.8413 23.0977 31.9721 25.9547C30.0892 28.828 27.9588 32.083 26.8323 35.496C26.7861 35.6405 23.9781 44.4049 23.4666 46.0651C22.9687 47.6844 20.8573 50.1815 17.7011 50.1815V50.1788ZM26.3644 13.9353C26.027 13.9353 25.6841 13.9462 25.3386 13.9653C20.6478 14.2488 18.6207 18.109 17.8317 20.3825C17.4943 21.3558 15.6577 28.6399 14.183 34.4928C13.3939 37.6251 12.711 40.3321 12.3355 41.766C11.2499 45.9233 12.5151 48.415 16.2046 49.3828C19.8805 50.3478 22.3837 47.5808 22.9034 45.8852C23.4149 44.2168 26.2419 35.3979 26.2718 35.3079C27.4201 31.8212 29.5777 28.5308 31.4796 25.6276C33.2972 22.8497 34.8698 20.4534 34.8698 18.8614C34.8698 17.8609 34.4508 16.9586 33.6237 16.1762C32.1245 14.764 29.4063 13.9353 26.3671 13.9353H26.3644Z"></path>
<path fill="white" d="M20.7893 31.1206C20.7893 31.1206 22.8599 35.3379 29.0118 39.1653C35.1637 42.9928 38.9811 43.966 40.4721 43.5107C41.9605 43.0555 41.955 41.4226 41.2612 40.1822C40.7415 39.2526 37.8927 35.7114 35.814 32.928C34.557 31.2433 33.357 28.2664 32.5816 26.4508C31.8034 24.6352 30.0457 25.4122 30.0457 25.4122"></path>
<path fill="#231F20" d="M39.672 43.9033C38.1973 43.9033 35.0003 43.2409 28.8538 39.4162C22.7019 35.5887 20.6068 31.426 20.5225 31.2515C20.449 31.1043 20.5116 30.9271 20.6558 30.8562C20.8027 30.7826 20.9796 30.8453 21.0531 30.9898C21.0748 31.0307 23.1699 35.1826 29.1667 38.9119C35.3241 42.742 39.0571 43.6307 40.3849 43.2273C40.8366 43.0882 41.144 42.8238 41.2991 42.4367C41.5277 41.8697 41.4134 41.0627 41.0026 40.3294C40.6869 39.7651 39.4136 38.1158 38.0667 36.3684C37.2233 35.2752 36.3526 34.1466 35.5771 33.1053C34.4289 31.565 33.3514 29.0243 32.5651 27.1678L32.3093 26.5654C32.108 26.0965 31.8196 25.7857 31.4523 25.6412C30.8401 25.3986 30.1735 25.6794 30.168 25.6821C30.0184 25.7475 29.8442 25.6821 29.7789 25.5295C29.7136 25.3795 29.7789 25.205 29.9313 25.1396C29.9667 25.1233 30.821 24.7525 31.6727 25.0878C32.1951 25.2923 32.5923 25.7121 32.859 26.3309L33.1147 26.9334C33.8902 28.7626 34.9513 31.2652 36.056 32.7482C36.8287 33.7841 37.6994 34.9127 38.5402 36.0031C39.9605 37.8432 41.1876 39.4325 41.5222 40.035C42.0256 40.9346 42.148 41.9133 41.8515 42.6548C41.6284 43.2082 41.1821 43.6035 40.559 43.7916C40.3931 43.8434 40.1074 43.9006 39.6748 43.9006L39.672 43.9033Z"></path>
<path fill="white" d="M33.24 28.828C33.24 28.828 33.0169 29.2696 33.64 30.8125C34.5814 33.1434 37.0057 36.0685 38.6872 37.9522C39.7402 39.1299 41.1197 41.1036 40.4041 41.8451C39.3783 42.9082 33.8005 41.1254 25.9345 33.9857C23.9564 32.192 23.034 30.5236 22.2341 28.7843C20.9172 25.9301 20.9716 22.0209 21.7634 20.2353"></path>
<path fill="#231F20" d="M39.4411 42.4748C36.9868 42.4748 31.7872 39.746 25.7115 34.2338C23.5974 32.3174 22.6532 30.4882 21.9322 28.9261C20.5935 26.0255 20.6071 22.0236 21.4588 20.1045C21.5322 19.9355 21.7281 19.8618 21.8968 19.9355C22.0655 20.0091 22.139 20.2081 22.0655 20.3743C21.2901 22.1245 21.2928 25.9519 22.5362 28.648C23.26 30.221 24.1388 31.9085 26.1577 33.7404C34.2523 41.0845 39.4601 42.3494 40.1675 41.6161C40.5648 41.2017 39.8247 39.7242 38.4398 38.1758C35.7924 35.2098 34.0728 32.7754 33.3327 30.9407C32.7042 29.3786 32.8756 28.8171 32.9436 28.6808C33.0279 28.5172 33.2266 28.4518 33.3898 28.5336C33.5449 28.6126 33.6129 28.798 33.5476 28.9588C33.5367 28.9997 33.447 29.4441 33.9476 30.6926C34.6496 32.4319 36.3746 34.8663 38.935 37.7341C39.6016 38.4784 41.6912 40.9945 40.6437 42.0823C40.3879 42.3467 39.9825 42.4775 39.4411 42.4775V42.4748Z"></path>
<path fill="#231F20" d="M30.7342 26.6989C30.7342 25.265 30.5573 23.9019 30.239 22.667L21.7634 20.238C20.9717 22.0236 20.92 25.9328 22.2342 28.7871C23.0368 30.5263 23.9592 32.1947 25.9346 33.9885C26.5277 34.5255 27.1045 35.0326 27.6705 35.5096C29.4989 33.7949 30.7342 30.4936 30.7342 26.7016V26.6989Z"></path>
<path fill="white" d="M28.4104 36.1231C28.4104 36.1231 29.4172 34.0513 28.6907 33.0399C28.1193 32.2466 27.5915 31.9385 26.3317 31.5787C26.3317 31.5787 26.182 29.8558 24.1958 29.3733C22.8979 29.0598 19.6519 29.2261 18.0439 31.7722C16.6835 33.9313 16.8794 36.0522 17.2031 37.6742C17.5269 39.2963 17.916 41.7607 17.2031 43.3173C16.4903 44.8739 16.6182 45.0211 16.9474 45.1219C17.2576 45.2146 19.7853 44.2959 20.8056 40.6266C21.2953 38.8683 21.9946 37.4153 22.966 36.2458C23.9373 35.0763 24.6012 34.512 25.9208 34.7764C26.9439 34.9809 28.4132 36.1204 28.4132 36.1204L28.4104 36.1231Z"></path>
<path fill="#231F20" d="M16.9989 45.4627C16.9445 45.4627 16.8955 45.4572 16.852 45.4436C16.7513 45.4136 16.5173 45.3427 16.4085 45.1001C16.2643 44.7811 16.384 44.315 16.9037 43.1836C17.5676 41.7361 17.2084 39.3862 16.8792 37.7451C16.5445 36.0685 16.3432 33.8549 17.7662 31.5977C19.4722 28.8962 22.8896 28.7163 24.2746 29.0516C25.85 29.4332 26.473 30.5945 26.6281 31.3197C27.8416 31.685 28.3831 32.0475 28.9599 32.8436C29.7816 33.9831 28.8212 36.0358 28.7096 36.2675C28.6661 36.3575 28.5844 36.4229 28.4865 36.4447C28.3913 36.4665 28.2879 36.4447 28.209 36.3848C28.1954 36.3738 26.7914 35.2916 25.8554 35.1062C24.7589 34.8854 24.212 35.2698 23.2216 36.4638C22.3019 37.5679 21.6163 38.9609 21.1265 40.7193C20.332 43.5708 18.6668 44.7511 17.9866 45.1246C17.8288 45.2119 17.3445 45.4627 16.9989 45.4627ZM17.0125 44.7975C17.3554 44.773 19.543 43.9088 20.4817 40.5393C20.9986 38.6883 21.7251 37.2135 22.7046 36.0358C23.6406 34.9127 24.4188 34.1412 25.9778 34.452C26.7614 34.6101 27.7518 35.2453 28.2634 35.6078C28.5246 34.9318 28.8239 33.8031 28.413 33.2334C27.8988 32.5191 27.4498 32.2465 26.2336 31.8976C26.1003 31.8594 26.005 31.7449 25.9942 31.6059C25.9887 31.5459 25.8282 30.112 24.1113 29.6949C22.8733 29.395 19.8314 29.5532 18.3186 31.9494C17.0207 34.0049 17.2112 36.0549 17.5213 37.6088C17.8669 39.3426 18.2397 41.8315 17.4969 43.4562C17.0806 44.364 17.0098 44.683 17.0044 44.7948L17.0125 44.7975Z"></path>
<path fill="white" d="M39.408 38.8273C39.457 37.5951 39.4461 35.1034 38.8502 34.7245C38.4013 34.4383 37.7428 34.5882 37.2313 34.9453C37.3755 33.6423 36.9483 33.0343 36.6463 32.8571C36.3661 32.6936 35.645 33.2742 35.2314 33.6368C36.3144 35.2152 37.6449 36.7854 38.687 37.9549C38.9182 38.2139 39.1686 38.5138 39.4053 38.83L39.408 38.8273Z"></path>
<path fill="#231F20" d="M39.5824 39.3916L39.2478 38.95C39.0301 38.661 38.7852 38.3612 38.5376 38.0858C37.1173 36.4965 35.95 35.0353 35.0658 33.7486L34.9651 33.6041L35.0984 33.4869C36.1677 32.5491 36.5405 32.5682 36.7445 32.6854C37.1255 32.909 37.4901 33.5196 37.4547 34.5828C37.9961 34.3211 38.5566 34.3047 38.9539 34.5583C39.6477 34.9999 39.6586 37.4288 39.6015 38.8355L39.5797 39.3916H39.5824ZM35.4957 33.6696C36.3582 34.9072 37.4792 36.303 38.8342 37.8214C38.9648 37.9686 39.0981 38.1213 39.2233 38.2766C39.2559 36.4583 39.0682 35.1008 38.7417 34.8936C38.3471 34.6428 37.7567 34.82 37.3431 35.1089L36.984 35.3597L37.033 34.9263C37.1663 33.7323 36.7881 33.1734 36.5432 33.0316C36.5432 33.0316 36.3364 32.958 35.4929 33.6723L35.4957 33.6696Z"></path>
<path fill="white" d="M34.8318 36.8346C34.372 36.7065 33.8931 37.4752 33.5203 38.2576C33.2646 37.1563 32.4619 33.9804 31.3953 36.93C31.2593 35.7196 30.8375 34.989 30.3451 34.8173C29.771 34.6183 28.5683 35.6624 28.4105 36.1231C31.594 38.7265 34.2985 40.3758 36.3473 41.2727C36.3745 39.2418 35.6181 37.05 34.8345 36.8346H34.8318Z"></path>
<path fill="#231F20" d="M36.5406 41.5753L36.2658 41.4553C34.6414 40.7411 31.9369 39.2635 28.2854 36.2784L28.1793 36.1912L28.2229 36.0603C28.3562 35.6705 29.0255 35.0353 29.5996 34.7546C29.9207 34.5964 30.1955 34.5555 30.4104 34.6291C30.9029 34.8009 31.2757 35.3707 31.477 36.2294C31.7355 35.7223 32.0158 35.4906 32.3123 35.5097C32.7967 35.5397 33.2048 36.2375 33.5884 37.696C33.9285 37.0826 34.3775 36.502 34.889 36.6437C35.8549 36.9109 36.5732 39.3535 36.546 41.2754V41.5753H36.5406ZM28.6582 36.0685C32.013 38.7974 34.5407 40.2286 36.1461 40.9646C36.0971 39.0318 35.3733 37.189 34.7802 37.0254C34.6577 36.9927 34.3149 37.0554 33.7 38.3421L33.4551 38.8519L33.3272 38.3012C32.8184 36.104 32.4021 35.9132 32.2878 35.905C32.247 35.905 31.9641 35.9377 31.5804 36.9954L31.292 37.7914L31.1968 36.9491C31.0553 35.7005 30.6308 35.1253 30.2771 35.0026C30.1683 34.9645 29.9887 35.0026 29.771 35.1089C29.2949 35.3407 28.8296 35.7959 28.6555 36.0685H28.6582Z"></path>
<path fill="white" d="M41.8189 15.2111C41.993 16.1271 41.8869 17.2639 40.5319 17.959C39.8435 18.3134 39.683 18.5233 37.2668 18.6106C35.2561 18.6814 35.5336 18.3543 34.7065 18.1499C33.8739 17.9427 33.0957 17.681 32.9107 16.6696C32.8182 16.1707 32.9107 15.6173 33.1774 15.0748C33.4631 14.4887 33.8385 14.0225 34.516 13.5427C34.9949 13.202 34.7528 14.2434 35.4166 14.028C35.6642 13.9462 36.8424 12.4441 37.09 12.4005C39.3456 12.0107 41.4352 13.1856 41.8189 15.2111Z"></path>
<path fill="#231F20" d="M36.7581 18.8259C35.7378 18.8259 35.4548 18.6869 35.1582 18.5397C35.0195 18.4715 34.8861 18.4061 34.6576 18.3489C33.7842 18.1308 32.9135 17.8254 32.7067 16.705C32.606 16.1625 32.7067 15.5655 32.9924 14.9821C33.3162 14.3224 33.7352 13.8399 34.3964 13.371C34.4454 13.3356 34.6004 13.2292 34.7719 13.2756C34.946 13.3247 35.0167 13.4909 35.0739 13.6273C35.1718 13.8562 35.2018 13.8753 35.3514 13.829C35.4412 13.7799 35.8112 13.3764 36.0534 13.1093C36.6738 12.4278 36.8805 12.226 37.052 12.1961C39.4817 11.7762 41.6176 13.0548 42.0203 15.1729C42.276 16.5169 41.7944 17.5447 40.6272 18.1444L40.4449 18.2398C39.8626 18.5506 39.5089 18.7387 37.2751 18.8177C37.0846 18.8232 36.9132 18.8286 36.7581 18.8286V18.8259ZM34.6521 13.6981C34.6521 13.6981 34.6413 13.7063 34.6331 13.709C34.0236 14.1398 33.6563 14.5623 33.3624 15.1648C33.1148 15.6691 33.0305 16.1762 33.1121 16.6314C33.2727 17.5119 33.9229 17.7382 34.7555 17.9481C35.0276 18.0163 35.1936 18.0981 35.3405 18.1689C35.6453 18.3189 35.9092 18.4497 37.2615 18.4034C39.4001 18.327 39.7211 18.1553 40.2517 17.8745L40.4394 17.7764C41.4407 17.2611 41.838 16.4133 41.6149 15.252C41.2557 13.3628 39.3266 12.226 37.1227 12.605C37.0302 12.6513 36.6275 13.0957 36.3581 13.3901C35.8548 13.9435 35.6344 14.1752 35.4793 14.2243C34.9514 14.396 34.7691 13.9735 34.693 13.7935C34.6821 13.7663 34.6657 13.7281 34.6521 13.7009V13.6981Z"></path>
<path fill="#231F20" d="M39.6099 14.6278C40.4017 16.2798 40.1568 18.1635 39.199 18.398C38.2413 18.6324 37.6808 17.0485 37.3244 15.3284C37.0305 13.9135 37.0632 13.6055 37.8114 13.3738C38.5596 13.142 39.1637 13.2156 39.6126 14.6305L39.6099 14.6278Z"></path>
<path fill="white" d="M38.176 15.8245C38.2413 16.3179 38.0236 16.7786 37.6862 16.8304C37.3488 16.8822 37.0441 16.5033 37.0087 16.0071C36.9733 15.5355 37.1964 15.1294 37.5039 15.0803C37.8114 15.0312 38.1134 15.3556 38.176 15.8245Z"></path>
<path fill="white" d="M33.809 17.5938C33.9233 17.5665 34.0402 17.5147 34.1681 17.4411C34.5137 17.2475 36.3693 16.1789 37.2536 15.7891C38.1379 15.3992 40.1024 14.5133 41.0084 14.3415C41.169 14.3115 41.4737 14.2843 41.4982 14.2843C40.7418 12.8395 38.9732 12.0707 37.0904 12.3978C36.8455 12.4414 35.6673 13.9435 35.417 14.0253C34.7531 14.2434 34.9953 13.1993 34.5164 13.5401C33.8389 14.0198 33.4661 14.4887 33.1777 15.0721C32.9111 15.6173 32.8186 16.1707 32.9111 16.6669C32.9873 17.0758 33.1587 17.362 33.39 17.572C33.6022 17.5365 33.7654 17.5256 33.8063 17.591L33.809 17.5938Z"></path>
<path fill="#231F20" d="M33.8089 17.8009C33.7599 17.8009 33.7136 17.7846 33.6755 17.7519C33.6483 17.7519 33.5776 17.7519 33.4252 17.7764C33.3626 17.7873 33.3001 17.7682 33.2511 17.7273C32.9627 17.4684 32.7831 17.1331 32.7069 16.7078C32.609 16.1626 32.7069 15.5683 32.9926 14.9849C33.3164 14.3252 33.7354 13.8427 34.3966 13.3738C34.4455 13.3383 34.6006 13.232 34.7721 13.2784C34.9462 13.3274 35.0169 13.4937 35.0741 13.63C35.172 13.859 35.202 13.8781 35.3516 13.8318C35.4414 13.7827 35.8114 13.3792 36.0536 13.1121C36.6739 12.4305 36.8807 12.2288 37.0521 12.1988C39.0166 11.8581 40.8777 12.6595 41.6776 14.1916C41.7103 14.2543 41.7103 14.3306 41.6722 14.3933C41.6368 14.456 41.5715 14.4942 41.5008 14.4969C41.4736 14.4969 41.1879 14.5242 41.0437 14.5514C40.2301 14.7068 38.4915 15.4756 37.5555 15.8872L37.3324 15.9854C36.5461 16.3316 34.938 17.2448 34.4102 17.5447L34.2632 17.6265C34.1109 17.7137 33.9803 17.7682 33.8524 17.7982C33.8361 17.8009 33.8197 17.8037 33.8034 17.8037L33.8089 17.8009ZM33.651 17.3375C33.7218 17.3375 33.7871 17.3457 33.8415 17.3675C33.9095 17.343 33.983 17.3075 34.0646 17.2612L34.2088 17.1794C34.7965 16.8441 36.361 15.9581 37.1691 15.601L37.3923 15.5029C38.4071 15.053 40.1077 14.3034 40.9675 14.1398C41.0192 14.1289 41.0872 14.1207 41.1525 14.1125C40.3662 12.9185 38.7908 12.316 37.1229 12.605C37.0304 12.6514 36.6277 13.0957 36.3583 13.3901C35.855 13.9435 35.6346 14.1752 35.4795 14.2243C34.9516 14.3961 34.7693 13.9735 34.6931 13.7936C34.6823 13.7663 34.6659 13.7282 34.6523 13.7009C34.6469 13.7036 34.6414 13.7091 34.6333 13.7118C34.0238 14.1425 33.6565 14.5651 33.3626 15.1675C33.115 15.6719 33.0307 16.1789 33.1123 16.6342C33.1667 16.9313 33.281 17.1685 33.4579 17.3539C33.5232 17.3457 33.5885 17.3375 33.6483 17.3375H33.651Z"></path>
<path fill="white" d="M51.9246 26.9661L50.9179 27.0179C50.8118 26.8925 50.6295 26.8325 50.352 26.8162L48.2732 26.8952C48.314 26.778 48.3358 26.7098 48.3358 26.7098L43.06 27.9775C43.0518 28.032 43.0437 28.1165 43.041 28.2255L39.5256 28.5363C39.5365 28.4709 39.5419 28.4355 39.5419 28.4355L35.1395 27.7403C35.0933 27.8902 35.0606 28.062 35.0443 28.2501L31.6405 27.6176C31.7738 27.0751 31.8473 26.6798 31.8473 26.6798L28.2421 26.3691C28.3428 25.8838 28.3972 25.5349 28.3972 25.5349L25.4532 24.6462C25.6029 23.5585 24.9716 22.22 22.1365 21.9828C22.1365 21.9828 21.9351 23.8556 22.0494 24.6353C22.1637 25.4149 22.482 27.3178 23.3717 27.604C24.0003 27.8085 24.6669 27.1787 24.9308 26.748C25.0968 27.375 25.7253 28.8062 26.7783 29.226C27.2626 29.4196 27.668 29.3569 27.8993 28.7953C28.0652 29.226 28.74 30.5891 29.9753 30.7417C30.4759 30.8044 30.8677 30.3819 31.1317 29.7849C31.2976 30.6109 31.9833 31.764 33.3247 32.0148C33.9696 32.1348 34.6008 31.4396 35.0906 30.3792C35.398 31.7695 36.2714 32.6609 37.4659 32.7427C38.2631 32.7972 38.7474 32.0066 39.0821 30.8099C39.3188 32.0257 39.9228 32.9008 40.9785 32.9908C42.0125 33.0807 42.6954 31.9467 43.1389 30.5782C43.3267 31.6686 43.7674 32.3501 44.5293 32.4892C45.4707 32.6636 46.4502 31.2979 47.1957 29.7167C47.3046 31.2352 47.8297 31.625 48.2106 31.704C48.9181 31.8485 49.7316 30.7417 50.303 29.6022C50.4091 30.2837 50.6077 30.6027 50.7683 30.649C51.4077 30.8317 52.2049 28.3918 52.2865 27.5795C52.33 27.1542 52.2348 26.9852 51.9274 26.9606L51.9246 26.9661Z"></path>
<path fill="#231F20" d="M41.0926 33.1979C41.049 33.1979 41.0028 33.1979 40.9592 33.1925C40.0777 33.1162 39.4192 32.5273 39.0628 31.5132C38.807 32.1811 38.3146 33.0044 37.4493 32.9444C36.3256 32.8681 35.4522 32.1239 35.0359 30.9271C34.5053 31.8758 33.8958 32.3283 33.2864 32.2165C32.1518 32.0039 31.4008 31.167 31.0743 30.3083C30.7641 30.7744 30.3696 30.998 29.9479 30.9435C28.8296 30.8044 28.1602 29.7903 27.8718 29.226C27.6487 29.4905 27.2868 29.6486 26.7018 29.4141C25.7305 29.0243 25.1237 27.8793 24.8571 27.1733C24.487 27.5904 23.8939 27.9857 23.3089 27.7948C22.6042 27.5658 22.128 26.5435 21.8505 24.6653C21.7335 23.872 21.9267 22.04 21.9349 21.9637L21.9566 21.7701L22.1498 21.7865C23.6164 21.9092 24.6449 22.329 25.2108 23.0351C25.6189 23.5448 25.6897 24.0901 25.6625 24.5044L28.6146 25.3958L28.5874 25.5676C28.5874 25.5676 28.5493 25.8184 28.4759 26.1946L32.0756 26.5054L32.0348 26.7207C32.0348 26.7344 31.9776 27.0315 31.8742 27.465L34.8672 28.0211C34.8862 27.9011 34.9135 27.7866 34.9434 27.6858L34.9951 27.5222L39.7621 28.2719L39.7539 28.321L42.8503 28.0483C42.853 28.0102 42.8584 27.9775 42.8611 27.9529L42.8829 27.8221L48.6348 26.4399L48.5505 26.6907L50.3408 26.6226C50.6429 26.6389 50.8496 26.7017 50.9911 26.8189L51.9244 26.7698H51.938C52.1257 26.7862 52.2645 26.8489 52.357 26.9606C52.5039 27.1378 52.4985 27.3995 52.4794 27.6067C52.4114 28.2992 51.8047 30.3083 51.1435 30.7581C50.9612 30.8808 50.8061 30.8753 50.7082 30.8453C50.5068 30.7881 50.3408 30.5536 50.2211 30.172C49.7259 31.0416 48.9641 32.0693 48.1669 31.9058C47.7669 31.824 47.2853 31.486 47.0785 30.3955C46.4119 31.655 45.4868 32.879 44.4909 32.6909C43.8298 32.5682 43.3645 32.0912 43.0979 31.2679C42.5755 32.5491 41.9007 33.1979 41.0926 33.1979ZM39.1118 29.9539L39.2723 30.7744C39.441 31.6441 39.8791 32.7018 40.9919 32.7972C41.9687 32.8817 42.5945 31.6059 42.9482 30.5209L43.1958 29.7576L43.3319 30.5482C43.5114 31.5923 43.925 32.1811 44.5644 32.2983C45.2664 32.4265 46.1561 31.456 47.0159 29.6377L47.337 28.9561L47.3914 29.7085C47.4676 30.7772 47.7723 31.4178 48.2485 31.5159C48.7301 31.6114 49.4674 30.829 50.1232 29.5177L50.4007 28.9643L50.4959 29.575C50.5993 30.2292 50.7707 30.4391 50.8224 30.4609C50.8496 30.4691 50.8932 30.4473 50.9231 30.4255C51.421 30.0875 52.0169 28.2746 52.0876 27.5631C52.1121 27.3177 52.0795 27.236 52.055 27.2114C52.0359 27.1869 51.9897 27.1705 51.9189 27.1651L50.8279 27.2196L50.7653 27.146C50.7 27.0697 50.5612 27.0261 50.3381 27.0124L47.9873 27.1024L48.0281 26.9852L43.2421 28.1356C43.2421 28.1656 43.2393 28.1956 43.2366 28.231L43.2312 28.4055L39.2859 28.7544L39.3104 28.5963L35.2808 27.9611C35.2617 28.0538 35.2454 28.1574 35.2345 28.2664L35.2128 28.4818L31.3899 27.7703L31.4389 27.5658C31.5096 27.2714 31.5641 27.0206 31.5994 26.8543L27.9943 26.5435L28.0405 26.3255C28.0977 26.0501 28.1385 25.8184 28.1657 25.6712L25.2244 24.7852L25.2489 24.6162C25.2979 24.2672 25.2761 23.7548 24.8979 23.2804C24.4354 22.6998 23.5429 22.329 22.3076 22.1954C22.2614 22.6916 22.1498 24.0028 22.2396 24.6026C22.5498 26.7071 23.0586 27.2932 23.4286 27.4132C23.9211 27.5713 24.5034 27.0588 24.7564 26.6417L24.9986 26.2464L25.1156 26.6935C25.3033 27.4077 25.9373 28.6754 26.8433 29.0379C27.2923 29.2178 27.5399 29.1224 27.7086 28.7162L27.899 28.2555L28.0786 28.7217C28.1058 28.7898 28.7316 30.3873 29.9941 30.5427C30.4757 30.6 30.7968 30.0411 30.9464 29.7031L31.1995 29.1333L31.3219 29.744C31.4525 30.3982 32.0266 31.5677 33.3571 31.8185C33.855 31.9139 34.4237 31.3415 34.9053 30.2947L35.1529 29.7603L35.2808 30.3355C35.5746 31.6631 36.3746 32.4674 37.4765 32.5437C38.0914 32.5846 38.5404 31.9985 38.8887 30.7554L39.1145 29.9512L39.1118 29.9539Z"></path>
<path fill="white" d="M28.7503 14.2543C28.7503 14.2543 31.8575 14.7096 34.3172 15.4211C36.7769 16.1353 44.6076 18.6079 46.8115 19.4421C49.5977 20.4998 50.7758 22.3808 51.4724 23.9838C52.1716 25.5894 52.5743 27.097 52.1199 28.3292C52.1199 28.3292 51.3118 27.4541 49.9269 27.5713C47.6169 27.7703 47.3366 28.1165 45.2551 28.4573C42.5098 28.9098 35.8028 30.0793 30.04 28.2637C24.2772 26.4482 22.0107 22.1655 21.3005 20.2845"></path>
<path fill="#231F20" d="M37.2178 29.545C34.8642 29.545 32.3311 29.2969 29.9585 28.5499C23.9726 26.6635 21.7197 22.2172 21.0313 20.3935C20.9742 20.2408 21.0503 20.0691 21.2027 20.0118C21.3551 19.9546 21.5265 20.0309 21.5836 20.1836C22.2421 21.9255 24.397 26.1755 30.1354 27.9856C35.705 29.7413 42.2405 28.6617 45.0322 28.201L45.2145 28.171C46.0552 28.032 46.5885 27.8957 47.1055 27.7621C47.8347 27.5767 48.5231 27.3995 49.908 27.2796C50.8549 27.1978 51.565 27.5413 51.965 27.8166C52.15 26.887 51.9078 25.7175 51.2086 24.1037C50.5583 22.6098 49.4618 20.7642 46.7137 19.7228C44.5479 18.9023 36.6981 16.4215 34.2412 15.7073C31.8305 15.0067 28.745 14.5514 28.7123 14.5487C28.5518 14.5242 28.4375 14.3743 28.462 14.2134C28.4865 14.0526 28.6334 13.9381 28.7967 13.9626C28.8293 13.9681 31.9529 14.4288 34.4044 15.1376C36.9348 15.8709 44.7002 18.3244 46.9232 19.1667C49.9107 20.3008 51.1106 22.3917 51.75 23.8665C52.6234 25.8756 52.8248 27.285 52.403 28.4327C52.3677 28.5309 52.2833 28.6017 52.1826 28.6208C52.082 28.6399 51.9786 28.6072 51.9078 28.5309C51.8779 28.5009 51.1814 27.7621 49.957 27.8684C48.6183 27.9829 47.9843 28.1465 47.2497 28.3346C46.7463 28.4627 46.1749 28.6099 45.307 28.7517L45.1247 28.7817C43.4704 29.0543 40.521 29.5423 37.2151 29.5423L37.2178 29.545Z"></path>
<path fill="white" d="M34.8888 18.1089C34.7854 19.0958 34.5786 19.7473 33.629 20.0063C32.2686 20.3771 30.8564 19.4665 28.3206 19.1858C25.9888 18.9268 24.3018 19.7446 23.442 19.273C22.5795 18.7987 22.2829 17.8909 22.3972 16.8032C22.6503 14.3797 25.6514 12.7086 29.1015 13.0684C29.964 13.1584 30.6714 14.0989 31.3952 14.3987C32.1189 14.6986 32.8617 14.3578 33.3841 14.8158C34.4317 15.7291 35.0167 16.8986 34.8915 18.1089H34.8888Z"></path>
<path fill="#231F20" d="M32.9435 20.3035C32.3394 20.3035 31.7028 20.1345 30.9572 19.9354C30.2036 19.7364 29.3519 19.5075 28.2962 19.3902C27.1616 19.2648 26.1658 19.4011 25.3658 19.5102C24.5088 19.6274 23.8313 19.7228 23.3415 19.4502C22.4572 18.9622 22.06 18.0381 22.1906 16.7759C22.4545 14.2434 25.5645 12.485 29.1206 12.8585C29.6948 12.9185 30.1764 13.2919 30.6416 13.6545C30.93 13.8808 31.2048 14.0934 31.4715 14.2025C31.7572 14.3197 32.0592 14.3279 32.3531 14.3333C32.7557 14.3415 33.172 14.3497 33.5176 14.6523C34.6631 15.65 35.2236 16.8822 35.093 18.1226C34.9977 19.0386 34.8182 19.8891 33.6808 20.1999C33.436 20.268 33.1911 20.2953 32.9408 20.2953L32.9435 20.3035ZM27.3602 18.9268C27.6731 18.9268 27.9996 18.9432 28.3398 18.9813C29.4254 19.1013 30.2961 19.333 31.0634 19.5374C32.0565 19.8019 32.8401 20.009 33.572 19.81C34.3856 19.5865 34.5787 19.0795 34.6821 18.0899C34.7964 16.9885 34.2876 15.8817 33.2455 14.974C33.0115 14.7695 32.7013 14.764 32.3422 14.7559C32.0265 14.7504 31.6701 14.7422 31.3137 14.5923C30.9953 14.4614 30.7015 14.2325 30.3886 13.9871C29.9696 13.66 29.5342 13.3219 29.0771 13.2756C25.744 12.9267 22.8409 14.5187 22.6014 16.825C22.5225 17.5801 22.6205 18.586 23.5401 19.0931C23.9129 19.2975 24.5278 19.213 25.3087 19.104C25.8937 19.0222 26.5821 18.9295 27.3602 18.9295V18.9268Z"></path>
<path fill="white" d="M18.7947 21.3203C18.7947 21.3203 19.6871 17.8309 21.9019 17.8037C24.1167 17.7764 24.8949 20.5434 25.1234 21.3203L23.8392 21.3639L22.7508 19.9764H21.3986L20.1769 20.5707L19.815 21.4294L18.7947 21.3203Z"></path>
<path fill="#231F20" d="M20.4192 21.4021C20.3485 21.1132 20.3349 20.8297 20.3866 20.5298C20.4491 20.2463 20.5634 19.9055 20.9498 19.6847C21.1539 19.5947 21.3906 19.6165 21.5457 19.6902C21.7198 19.7556 21.8286 19.8673 21.9484 19.9655C22.049 20.08 22.1443 20.189 22.2259 20.309C22.3021 20.4317 22.3701 20.5598 22.4299 20.6906L22.3864 20.7261C22.2613 20.6525 22.147 20.5761 22.0381 20.4944C21.9211 20.4235 21.8123 20.3499 21.7035 20.2872C21.4831 20.159 21.2654 20.1154 21.1892 20.1754C21.0886 20.2354 20.9797 20.4535 20.879 20.6797C20.7648 20.906 20.675 21.1704 20.4709 21.4158L20.4165 21.3994L20.4192 21.4021Z"></path>
<path fill="#231F20" d="M18.6017 21.2686C18.8139 20.418 19.1432 19.6084 19.6629 18.8778C19.9241 18.5152 20.2397 18.1799 20.6315 17.9264C21.026 17.6756 21.5049 17.5338 21.9783 17.5365C22.4463 17.5365 22.9143 17.6892 23.3088 17.9318C23.7061 18.1772 24.0299 18.5097 24.2856 18.875C24.7999 19.6084 25.0801 20.448 25.2815 21.274C25.3032 21.364 25.2488 21.4512 25.1645 21.4703C25.0828 21.4894 24.9985 21.443 24.974 21.364C24.8407 20.9632 24.6965 20.5734 24.5196 20.2027C24.3482 19.8292 24.1469 19.4721 23.902 19.1558C23.4231 18.5207 22.7402 18.0599 21.9729 18.0763C21.6028 18.0763 21.2437 18.1772 20.9199 18.3789C20.5988 18.5806 20.3295 18.8751 20.0819 19.1886C19.837 19.5048 19.6329 19.8592 19.4561 20.2299C19.2738 20.5952 19.1187 20.985 18.9935 21.3694V21.3803C18.9554 21.4866 18.8412 21.5439 18.735 21.5085C18.6344 21.4757 18.5772 21.3694 18.6017 21.2686Z"></path>
<path fill="#231F20" d="M33.2347 16.5578C33.6047 18.1362 33.6102 19.4311 32.549 19.6002C31.4879 19.7692 30.9328 18.5424 30.5438 16.9667C30.239 15.7318 30.1247 14.6523 30.6798 14.1452C30.8131 14.0226 31.0444 14.625 31.2648 14.576C31.8226 14.4478 32.2198 14.1889 32.5409 14.685C32.8647 15.1893 33.0524 15.7618 33.2374 16.5578H33.2347Z"></path>
<path fill="white" d="M30.9714 18.4224C31.3767 18.3819 31.6688 17.9836 31.624 17.5326C31.5791 17.0817 31.2143 16.7489 30.809 16.7894C30.4038 16.8298 30.1117 17.2282 30.1565 17.6791C30.2014 18.1301 30.5662 18.4628 30.9714 18.4224Z"></path>
<path fill="white" d="M33.3844 14.8158C32.8593 14.3605 32.1192 14.6986 31.3954 14.3987C30.6717 14.0988 29.9643 13.1583 29.1017 13.0684C25.8721 12.7303 23.0369 14.1724 22.4791 16.3451C23.0859 16.2034 24.6803 15.6418 27.7576 15.8981C30.8866 16.157 33.8225 16.9421 34.4265 17.0648C34.5952 17.1003 34.7258 17.0948 34.8238 17.0675C34.636 16.2388 34.1245 15.4619 33.3817 14.8131L33.3844 14.8158Z"></path>
<path fill="#231F20" d="M34.6496 17.2993C34.5679 17.2993 34.4782 17.2884 34.3856 17.2693C34.2877 17.2502 34.1272 17.2121 33.9149 17.1603C32.8483 16.9095 30.3506 16.3207 27.7413 16.1053C25.0558 15.8845 23.5185 16.2879 22.7811 16.4815C22.6831 16.5088 22.5961 16.5306 22.5253 16.5469C22.4546 16.5633 22.3811 16.5415 22.3294 16.4897C22.2777 16.4379 22.2587 16.3643 22.2777 16.2934C22.8682 13.9898 25.8094 12.515 29.1207 12.8612C29.6949 12.9212 30.1764 13.2947 30.6417 13.6572C30.9301 13.8835 31.2049 14.0961 31.4716 14.2052C31.7573 14.3224 32.0593 14.3306 32.3531 14.336C32.7558 14.3442 33.1721 14.3524 33.5177 14.655C34.3095 15.3447 34.8319 16.1625 35.0251 17.0185C35.0495 17.1276 34.9842 17.2366 34.8781 17.2639C34.8074 17.283 34.7312 17.2911 34.6496 17.2911V17.2993ZM26.223 15.6255C26.6937 15.6255 27.208 15.6446 27.7739 15.6909C30.4132 15.909 32.9327 16.5033 34.0074 16.7568C34.2142 16.8059 34.3693 16.8413 34.4673 16.8631C34.4999 16.8686 34.5299 16.874 34.5598 16.8795C34.3476 16.1952 33.8986 15.5383 33.2483 14.974C33.0143 14.7695 32.7041 14.764 32.345 14.7559C32.0294 14.7504 31.6729 14.7422 31.3138 14.5923C30.9982 14.4614 30.7016 14.2325 30.3887 13.9871C29.9697 13.66 29.5343 13.3219 29.0772 13.2756C26.1414 12.9676 23.5266 14.148 22.7893 16.0535C23.4151 15.8899 24.5116 15.6282 26.223 15.6282V15.6255Z"></path>
<path fill="#231F20" d="M41.0816 10.6885C41.0816 10.6885 40.717 9.67443 40.2218 9.69624C39.0845 9.74531 36.5106 14.058 35.1828 14.7531C33.9366 15.4074 34.5706 11.9698 34.976 12.0243C35.5419 12.1034 35.2372 13.5155 35.2372 13.5155C35.2372 13.5155 36.5106 12.1715 37.501 10.983C38.5322 9.74258 39.6586 9.04743 40.3225 9.00109C41.0163 8.95202 41.2367 10.574 41.0844 10.6885H41.0816Z"></path>
<path fill="#231F20" d="M22.6503 11.3428C22.6503 11.3428 23.053 10.3314 23.7441 10.3341C26.1684 10.3396 30.9381 15.2929 31.9748 15.5246C33.0114 15.7564 33.6427 15.2929 33.9039 14.6605C34.1624 14.0253 34.2358 12.5259 33.8903 12.3242C33.5447 12.1225 33.2291 12.2097 32.9978 12.7849C32.7666 13.3628 32.84 14.3442 32.3503 14.227C31.8605 14.1098 30.228 13.0166 28.6934 11.8281C27.7438 11.092 25.2297 9.3991 23.8938 9.54631C22.6612 9.68262 22.3919 11.2283 22.6531 11.3428H22.6503Z"></path>
<path fill="#231F20" d="M19.2221 36.7636C19.184 35.0598 19.984 33.3233 21.3798 32.2601C21.5539 32.1265 21.7308 32.0012 21.9212 31.8921C22.1035 31.7722 22.3076 31.6768 22.5117 31.5922C22.9198 31.4287 23.347 31.3169 23.7823 31.2515C24.6476 31.1261 25.5591 31.1806 26.3889 31.5241C26.4896 31.565 26.5386 31.6822 26.495 31.7831C26.4542 31.8839 26.3399 31.9303 26.242 31.8921H26.2393C25.491 31.5977 24.6503 31.5404 23.8395 31.6468C23.434 31.7013 23.0314 31.794 22.6477 31.9357C22.4573 32.0093 22.275 32.0938 22.0954 32.1947C21.9104 32.2874 21.7362 32.3964 21.5648 32.5137C20.8819 32.9771 20.3159 33.615 19.9187 34.3538C19.5296 35.0926 19.2711 35.9158 19.2248 36.7664L19.2221 36.7636Z"></path>
</svg>
