<svg xmlns="http://www.w3.org/2000/svg" fill="none" viewBox="0 0 60 60" height="60" width="60">
<path fill="#231F20" d="M18.0777 55C16.3177 55 14.2172 54.3867 12.0793 52.3652C6.82244 47.3952 8.12655 41.8983 8.18426 41.6679C8.19291 41.6276 8.20734 41.5902 8.22465 41.5528C8.39488 41.1669 12.388 32.1023 13.7123 29.8131C15.9945 25.8653 19.2144 20.4144 20.8359 18.632C21.5745 17.8229 22.87 16.9706 24.6906 16.0952C25.2907 12.2741 28.3346 9.1009 31.1246 9.40901C32.3595 9.54722 33.5164 10.316 34.3647 11.5341C35.2908 10.3247 36.4796 9.61633 37.6856 9.59042C38.9435 9.5645 40.1784 10.2297 41.1334 11.4304C42.2182 11.5485 43.2136 11.822 44.0965 12.2367C47.7001 13.9413 49.4515 18.5197 50.8104 23.2162C51.223 24.6473 51.4538 25.9373 51.4942 27.0516C51.5317 27.3166 51.5288 27.616 51.4827 27.9414C51.4192 28.9435 51.1797 29.5079 51.047 29.7526C49.5928 35.1315 48.811 35.4108 48.4359 35.5461C48.1445 35.6498 47.8329 35.6066 47.5847 35.431C47.3251 35.2438 47.1375 35.1113 47.1722 33.6342C46.9904 33.7637 46.823 33.8271 46.673 33.8472C45.7007 35.025 45.141 35.1085 44.7976 35.0624C44.2437 34.9875 43.9378 34.5182 43.7474 33.7177C43.5628 33.8041 43.3608 33.8357 43.1357 33.7925C42.9107 33.7493 42.7174 33.637 42.5529 33.4844C41.8749 34.6333 41.3902 35.0192 40.8189 34.9386C40.4496 34.8867 40.1409 34.6564 39.8379 34.1726C39.5465 34.4807 39.2003 34.665 38.782 34.5844C38.4617 34.521 38.1818 34.3224 37.925 33.9538C36.9152 35.5663 36.2285 35.4713 35.9718 35.4367C35.966 35.4367 35.9631 35.4367 35.9573 35.4367L35.3284 36.2948C35.0658 36.7239 34.8032 37.1673 34.5436 37.6194C35.5851 37.9476 36.3786 38.4717 36.9066 39.1829C36.9441 39.2348 36.9758 39.2924 37.0018 39.3528C37.0393 39.4479 37.1432 39.7934 36.9354 40.1821C36.8027 40.4298 36.5777 40.6256 36.266 40.7695C36.2632 40.83 36.2574 40.8934 36.2516 40.9538C36.3584 40.9423 36.4594 40.9481 36.5603 40.9711C37.1374 41.0978 37.7317 41.6219 37.5644 43.315C37.7087 43.4158 37.8269 43.554 37.9048 43.721C38.1761 44.2912 38.0058 45.2846 37.3971 46.6725C37.7375 48.1756 37.5759 49.3504 36.9123 50.1624C36.2083 51.0234 34.9937 51.415 33.2943 51.3344C30.9053 51.2192 28.5452 50.3294 26.2745 48.691L22.8325 53.4105C22.7921 53.4652 22.7459 53.5142 22.6911 53.5545C22.6594 53.5775 20.7667 55 18.0834 55H18.0777ZM9.56627 42.0682C9.4451 42.6326 8.64878 47.1447 13.0689 51.3258C17.2756 55.3023 21.1273 52.898 21.7332 52.4747L25.5388 47.257C25.6542 47.0987 25.8273 46.995 26.0206 46.9691C26.214 46.9432 26.4102 46.995 26.5631 47.1159C28.7789 48.8523 31.0669 49.791 33.3606 49.9004C34.5782 49.9609 35.3976 49.742 35.7958 49.2554C36.191 48.7716 36.2401 47.9395 35.9429 46.7819C35.9025 46.6235 35.9169 46.4565 35.9862 46.3068C36.2949 45.633 36.4709 45.083 36.5488 44.7202C36.4911 44.7058 36.4334 44.6828 36.3815 44.654C36.1074 44.5042 35.9602 44.1904 36.0237 43.8851C36.1506 43.2488 36.1679 42.8226 36.1506 42.5635C36.0439 42.6412 35.9083 42.7477 35.7381 42.8975C35.4986 43.1019 35.1552 43.1307 34.8869 42.9637C34.6186 42.7967 34.4916 42.4771 34.5724 42.1719C34.7686 41.4289 34.8638 40.7465 34.8321 40.2973C34.8119 39.9777 35.0052 39.684 35.3024 39.5774C34.7196 39.1282 33.9434 38.9036 33.3289 38.7913C33.101 38.751 32.9077 38.6013 32.8096 38.394C32.7115 38.1866 32.7172 37.9419 32.8298 37.7403C33.251 36.9772 33.6867 36.2286 34.1194 35.5202C34.131 35.503 34.1396 35.4857 34.1512 35.4713L35.1379 34.1237C35.2562 33.9624 35.438 33.8559 35.6371 33.8328C35.8102 33.8127 35.9804 33.8588 36.1218 33.9538C36.3555 33.7465 36.7998 33.1446 37.3134 32.062C37.4374 31.7999 37.7115 31.6416 37.9972 31.6502C38.2886 31.6646 38.5425 31.8518 38.6377 32.1253C38.7762 32.5112 38.8916 32.7674 38.981 32.9316C39.0618 32.8049 39.1628 32.6263 39.2811 32.3758C39.4052 32.1167 39.6706 31.9583 39.9591 31.9669C40.2476 31.9785 40.4987 32.1599 40.6025 32.4277C40.7583 32.8337 40.8853 33.0986 40.9805 33.2742C41.1623 33.0237 41.4479 32.5659 41.8634 31.7423C41.9903 31.4918 42.2558 31.345 42.5298 31.3478C42.8097 31.3565 43.0578 31.5293 43.1675 31.7855C43.231 31.9353 43.2887 32.0533 43.3377 32.1426C43.407 32.036 43.4877 31.8892 43.5858 31.6934C43.7272 31.4054 44.0446 31.2442 44.362 31.3047C44.6793 31.3622 44.9159 31.6243 44.9448 31.9439C45.0111 32.6638 45.0861 33.113 45.1525 33.3865C45.3141 33.2282 45.5305 32.992 45.793 32.6465C45.9517 32.4392 46.2027 32.3384 46.4509 32.3672C46.6413 32.1743 46.9962 31.6703 47.4087 30.8151C47.5588 30.5042 47.9108 30.3429 48.2455 30.435C48.5801 30.5272 48.8023 30.8439 48.7706 31.1866C48.7215 31.7423 48.6898 32.2059 48.6638 32.5947C48.9494 31.8258 49.2957 30.746 49.6909 29.2775C49.714 29.1911 49.7515 29.1134 49.8035 29.0443C49.8323 28.9838 50.0083 28.6094 50.0545 27.8233C50.0545 27.8032 50.0574 27.783 50.0603 27.7629C50.0978 27.498 50.0862 27.3281 50.0718 27.2331C50.066 27.2014 50.0631 27.1697 50.0631 27.138C50.0314 26.1302 49.8179 24.9439 49.4313 23.6078C48.1676 19.2338 46.572 14.9866 43.4849 13.5267C42.6712 13.1437 41.7335 12.9047 40.6949 12.8212C40.4842 12.8039 40.2909 12.6945 40.1669 12.5217C39.4686 11.5456 38.5713 10.987 37.7202 11.0158C36.7392 11.0388 35.6861 11.8911 34.9677 13.2474C34.8408 13.4892 34.5782 13.639 34.3128 13.6303C34.0387 13.6217 33.7934 13.4605 33.6809 13.2128C33.049 11.8393 32.0334 10.9467 30.9688 10.8286C28.9405 10.5982 26.5342 13.3683 26.0986 16.4062C26.087 16.4868 26.0755 16.5703 26.0668 16.6509C26.038 16.9014 25.8822 17.1174 25.6571 17.2211C23.8481 18.0619 22.5497 18.8797 21.9034 19.5909C20.1983 21.4626 16.2571 28.2812 14.9616 30.5214C13.7325 32.6494 9.9327 41.2447 9.57204 42.0624L9.56627 42.0682Z"></path>
<path fill="#231F20" d="M34.7311 46.7128C35.7871 45.4832 36.6267 43.7469 37.0624 43.8621C37.8991 44.0809 36.4017 47.3722 35.9198 47.8559C35.1841 48.5902 33.4039 48.2619 34.734 46.7157L34.7311 46.7128Z"></path>
<path fill="#231F20" d="M33.6582 43.9226C33.6582 43.9226 35.8538 41.547 36.402 41.668C37.432 41.8955 36.5491 45.4056 35.8307 46.5833C35.3749 47.3262 33.3437 44.536 33.6582 43.9255V43.9226Z"></path>
<path fill="#231F20" d="M32.3397 41.6391C32.3397 41.6391 34.5353 39.2635 35.0835 39.3845C36.1135 39.612 35.2307 43.1221 34.5122 44.2998C34.0564 45.0427 32.0252 42.2524 32.3397 41.642V41.6391Z"></path>
<path fill="#231F20" d="M37.2442 29.0011C37.2442 29.0011 37.1461 29.6922 37.3596 30.3775C37.5731 31.0629 38.1992 33.735 38.9176 33.8761C39.636 34.0172 40.819 30.6569 40.8767 29.603C40.9344 28.5491 39.6331 28.8169 37.2442 29.0011Z"></path>
<path fill="#231F20" d="M41.5982 28.2121C41.5982 28.2121 41.5001 28.9032 41.7136 29.5885C41.9271 30.2738 42.5532 32.946 43.2716 33.0871C43.9929 33.2282 45.173 29.8678 45.2307 28.8139C45.2884 27.76 43.9871 28.0278 41.5982 28.2121Z"></path>
<path fill="#231F20" d="M45.2508 28.1085C45.2508 28.1085 45.0892 28.788 45.2335 29.4906C45.3778 30.1932 45.7442 32.9143 46.4482 33.1217C47.1522 33.329 48.6496 30.1011 48.8112 29.0558C48.9699 28.0106 47.6484 28.1545 45.2508 28.1085Z"></path>
<path fill="white" d="M33.4271 16.4436C33.3982 19.4959 35.1957 21.929 37.4462 21.8772C39.6966 21.8283 41.9385 19.9105 41.9731 16.0865C42.0019 13.0343 39.9477 10.2556 37.6972 10.3045C35.4467 10.3535 33.4559 13.3913 33.4242 16.4436H33.4271Z"></path>
<path fill="#231F20" d="M37.3799 22.1047C36.4682 22.1047 35.6084 21.7303 34.8871 21.0191C33.7994 19.945 33.1848 18.2749 33.2021 16.4378C33.2339 13.1581 35.3776 10.126 37.6973 10.0742C38.6033 10.0626 39.5265 10.4658 40.3084 11.2346C41.4971 12.4037 42.2242 14.2638 42.2069 16.0865C42.1694 20.1466 39.717 22.05 37.4578 22.1018C37.4319 22.1018 37.4088 22.1018 37.3828 22.1018L37.3799 22.1047ZM33.658 16.4436C33.6407 18.1338 34.2206 19.7233 35.2074 20.6966C35.8594 21.3387 36.6355 21.6699 37.4434 21.6497C39.4919 21.6036 41.7135 19.8443 41.7481 16.0837C41.7626 14.379 41.0874 12.6455 39.9853 11.56C39.2842 10.8689 38.4994 10.5118 37.706 10.5291C35.6546 10.5752 33.6869 13.4489 33.6551 16.4407L33.658 16.4436Z"></path>
<path fill="#231F20" d="M31.096 16.0807C31.1248 17.7307 31.6269 18.9516 32.5559 18.8422C33.485 18.7327 33.9524 17.3909 33.9408 15.7438C33.9293 14.1342 33.4503 12.8327 32.4492 12.873C31.448 12.9133 31.0671 14.4308 31.096 16.0807Z"></path>
<path fill="white" d="M31.142 16.5214C31.8224 16.5214 32.374 15.9413 32.374 15.2256C32.374 14.51 31.8224 13.9299 31.142 13.9299C30.4616 13.9299 29.91 14.51 29.91 15.2256C29.91 15.9413 30.4616 16.5214 31.142 16.5214Z"></path>
<path fill="#231F20" d="M31.096 16.0807C31.1248 17.7307 31.6269 18.9516 32.5559 18.8422C33.485 18.7327 33.9524 17.3909 33.9408 15.7438C33.9293 14.1342 33.4503 12.8327 32.4492 12.873C31.448 12.9133 31.0671 14.4308 31.096 16.0807Z"></path>
<path fill="white" d="M31.142 16.5214C31.8224 16.5214 32.374 15.9413 32.374 15.2256C32.374 14.51 31.8224 13.9299 31.142 13.9299C30.4616 13.9299 29.91 14.51 29.91 15.2256C29.91 15.9413 30.4616 16.5214 31.142 16.5214Z"></path>
<path fill="#231F20" d="M28.8253 5.91045C29.2062 5.58218 29.89 5.02356 31.0354 5.00053C32.53 4.96885 34.3621 6.37116 33.7994 7.68997C33.5657 8.23995 33.2426 8.19388 32.8762 7.97504C32.4607 7.72452 31.9991 7.26093 31.3961 6.96434C30.7296 6.63608 29.8352 6.24447 28.7965 6.34237C28.6118 6.35965 28.5945 6.31933 28.583 6.25886C28.5541 6.12065 28.8225 5.91333 28.8225 5.91333L28.8253 5.91045Z"></path>
<path fill="#231F20" d="M39.1485 6.38851C38.8369 6.17831 38.2801 5.82125 37.4261 5.90476C36.3124 6.0113 35.0775 7.21205 35.6084 8.14212C35.8305 8.53085 36.0671 8.46751 36.3181 8.27458C36.6038 8.05286 36.9067 7.66701 37.328 7.39346C37.7954 7.09111 38.4243 6.72253 39.2033 6.70526C39.3418 6.70238 39.3505 6.6707 39.3534 6.62463C39.362 6.52097 39.1456 6.38851 39.1456 6.38851H39.1485Z"></path>
<path fill="white" d="M39.6537 29.2055C39.3911 29.4675 22.2443 52.9872 22.2443 52.9872C22.2443 52.9872 17.5847 56.5837 12.5731 51.8469C7.56146 47.1073 8.88 41.8407 8.88 41.8407C8.88 41.8407 13.0116 32.4507 14.3302 30.1701C15.6487 27.8895 19.6043 21.045 21.3643 19.1129C23.1214 17.1836 28.3985 15.1651 31.653 14.2868C34.9075 13.4086 39.6537 29.2055 39.6537 29.2055Z"></path>
<path fill="#231F20" d="M18.1241 54.617C16.5112 54.617 14.457 54.0757 12.3508 52.0802C7.25836 47.2686 8.51054 41.9847 8.56536 41.763C8.57113 41.7457 8.5769 41.7284 8.58267 41.7112C8.7529 41.3282 12.7374 32.2808 14.0502 30.0089C15.36 27.7428 19.3445 20.8521 21.1247 18.897C22.9885 16.8496 28.3926 14.8311 31.5692 13.9759C33.1243 13.5555 34.9564 15.9512 37.1751 21.2956C38.7562 25.1051 39.9536 29.076 39.968 29.1134C40.0027 29.2228 39.9738 29.3437 39.8959 29.4273C39.5035 29.8909 28.3579 45.1579 22.5125 53.1773C22.4952 53.2032 22.4721 53.2234 22.449 53.2435C22.4 53.281 21.1997 54.1966 19.3474 54.5134C18.981 54.5767 18.5713 54.617 18.127 54.617H18.1241ZM9.19145 41.9444C9.15106 42.1287 8.90582 43.3582 9.17414 45.0485C9.44247 46.7301 10.2878 49.2353 12.798 51.6109C14.7974 53.5027 16.9642 54.2629 19.2349 53.8741C20.7612 53.6121 21.8114 52.9009 22.0133 52.7569C24.8062 48.9272 37.8359 31.0599 39.2958 29.1422C37.4781 23.1471 33.8629 14.0335 31.7394 14.6036C28.7561 15.4099 23.3665 17.4054 21.6065 19.3346C19.8725 21.238 15.914 28.0825 14.6157 30.3343C13.3548 32.5141 9.44247 41.38 9.19145 41.9473V41.9444Z"></path>
<path fill="white" d="M20.2245 41.0518C21.367 42.5433 26.1161 50.2661 33.3262 50.6174C40.5364 50.9687 34.5582 42.1056 33.9408 40.8761C33.3262 39.6466 30.6863 35.5231 30.6863 35.5231"></path>
<path fill="#231F20" d="M20.3632 40.9452C20.8566 41.5269 21.298 42.1201 21.7683 42.6989C22.2386 43.2748 22.706 43.8507 23.1936 44.4064C24.1746 45.5121 25.2219 46.5631 26.3875 47.4587C27.5503 48.3542 28.8255 49.1057 30.1931 49.6068C30.5364 49.7306 30.874 49.8659 31.2318 49.9321L31.7627 50.0588C31.9387 50.1049 32.1147 50.1452 32.2964 50.1567L33.3755 50.2748L33.9121 50.2806C34.0881 50.2719 34.2641 50.2546 34.4401 50.2402C35.1297 50.1596 35.7875 49.9033 36.1366 49.3966C36.3213 49.1518 36.4223 48.8408 36.4627 48.5125C36.5088 48.1843 36.4973 47.8359 36.4483 47.4903C36.3559 46.7935 36.1366 46.0967 35.8683 45.4171C35.6 44.7375 35.2855 44.0695 34.9422 43.4158C34.5988 42.7593 34.2295 42.1201 33.8573 41.4693C33.7679 41.3138 33.664 41.1267 33.5804 40.9625C33.4996 40.8042 33.4101 40.6429 33.3207 40.4816L32.7609 39.5199C31.9964 38.2414 31.2058 36.9687 30.4095 35.7075C30.3143 35.5548 30.3576 35.3562 30.5105 35.2583C30.6605 35.1632 30.8625 35.2064 30.9577 35.3562C31.7684 36.6174 32.5705 37.8815 33.3524 39.1657L33.9295 40.139C34.0218 40.306 34.117 40.4701 34.2064 40.6429C34.2959 40.8128 34.3738 40.951 34.4719 41.118C34.8498 41.7601 35.2307 42.4167 35.5798 43.0876C35.9318 43.7585 36.2549 44.4467 36.5319 45.1608C36.8089 45.8749 37.0455 46.615 37.1494 47.4011C37.2042 47.7927 37.2215 48.1987 37.1609 48.6133C37.1407 48.8207 37.0772 49.0251 37.0195 49.2295C36.933 49.4282 36.8493 49.6298 36.7137 49.8083C36.4569 50.1625 36.102 50.4591 35.7125 50.6175C35.525 50.7211 35.3201 50.7586 35.1239 50.8277C34.9249 50.868 34.7258 50.9083 34.5267 50.9371C34.3276 50.9515 34.1314 50.9716 33.9323 50.9803L33.3466 50.9745C32.96 50.94 32.5763 50.891 32.1926 50.8478C31.9993 50.8334 31.8117 50.7931 31.6242 50.7442L31.0616 50.6088C30.6807 50.5339 30.3229 50.3929 29.9594 50.2604C28.5139 49.7277 27.1809 48.9358 25.9749 48.0029C24.7718 47.067 23.6783 45.9988 22.7031 44.8412C21.7221 43.6894 20.8652 42.4282 20.0833 41.1698L20.0775 41.1641C20.0256 41.0806 20.0516 40.9712 20.1353 40.9193C20.2103 40.8733 20.3084 40.8905 20.3632 40.9539V40.9452Z"></path>
<path fill="white" d="M20.1353 36.312C20.1353 36.312 25.4989 48.2475 34.3796 49.1229C34.3796 49.1229 37.1061 48.1583 35.5221 44.8238C33.9381 41.4894 32.6196 39.6465 32.6196 39.6465C32.6196 39.6465 36.8406 31.2211 40.1817 29.4675C40.1817 29.4675 37.2359 29.2256 33.8948 29.1392C30.5538 29.0528 29.0159 28.8542 27.432 29.2055C25.848 29.5568 23.0089 31.3881 20.1353 36.312Z"></path>
<path fill="#231F20" d="M34.3795 49.4886C34.3795 49.4886 34.3564 49.4886 34.3449 49.4886C30.6143 49.12 26.9125 46.7445 23.6436 42.6182C21.1912 39.5256 19.8611 36.5885 19.8063 36.4647C19.7572 36.3581 19.7659 36.2343 19.8236 36.1335C23.3147 30.1528 26.474 29.05 27.3569 28.8542C28.5946 28.5806 29.7776 28.6267 31.7337 28.7045C32.3656 28.7304 33.0811 28.7592 33.9092 28.7793C37.2214 28.8657 40.1874 29.1076 40.2163 29.1105C40.3778 29.1249 40.5106 29.2429 40.5452 29.4013C40.5798 29.5597 40.5019 29.7209 40.3576 29.7958C37.432 31.3334 33.6986 38.3709 33.0494 39.6235C33.4187 40.1706 34.541 41.9012 35.8567 44.6741C36.4366 45.8979 36.5405 46.9719 36.1683 47.8732C35.6807 49.0481 34.5555 49.4569 34.5064 49.4742C34.466 49.4886 34.4256 49.4944 34.3852 49.4944L34.3795 49.4886ZM20.5478 36.3322C21.2373 37.7691 26.3788 47.8963 34.3247 48.7544C34.5353 48.6593 35.1931 48.3109 35.4903 47.5824C35.7788 46.8827 35.6778 46.0073 35.1902 44.9822C33.6437 41.7226 32.3339 39.8798 32.3223 39.8596C32.2444 39.7502 32.2329 39.6062 32.2935 39.4853C32.4522 39.1685 35.9115 32.3125 39.1026 29.7555C37.9514 29.6777 35.9894 29.5597 33.8861 29.505C33.058 29.4819 32.3367 29.456 31.702 29.4301C29.8035 29.3552 28.6552 29.3091 27.5127 29.5625C25.8594 29.9282 23.1733 31.9007 20.5478 36.3322Z"></path>
<path fill="#231F20" d="M29.3274 35.2813C29.691 32.3126 29.3217 30.2797 28.3205 29.0645C28.0175 29.0962 27.7261 29.1423 27.4318 29.2085C25.8479 29.5598 22.2442 31.227 20.1351 36.3151C20.1351 36.3151 20.8795 37.9737 22.276 40.0987C22.8963 40.3752 23.5685 40.5278 24.2696 40.5278C27.403 40.5278 28.8542 39.1744 29.3303 35.2813H29.3274Z"></path>
<path fill="white" d="M36.3297 39.6034C34.916 37.703 31.2691 37.7577 29.3648 38.1378C27.4606 38.5178 25.5564 38.1925 23.5973 38.0283C22.6625 37.9506 21.9123 38.2875 21.3959 38.682C22.1922 40.0353 23.352 41.7918 24.8379 43.4821C25.6198 43.7499 26.7855 44.9737 27.3942 44.8412C29.134 44.4611 29.988 43.8046 31.1796 42.0596C32.3078 40.4039 33.3695 40.3377 33.3695 40.3377C36.6904 40.5364 36.3297 39.6063 36.3297 39.6063V39.6034Z"></path>
<path fill="#231F20" d="M27.2962 45.1752C26.8375 45.1752 26.3095 44.8037 25.7555 44.4121C25.3891 44.1529 25.0111 43.8852 24.7313 43.7901C24.6764 43.7729 24.6303 43.7383 24.5928 43.698C23.0347 41.9271 21.8403 40.0813 21.1132 38.8489C21.0295 38.7078 21.0641 38.5264 21.1969 38.4256C21.6931 38.0484 22.5154 37.6136 23.6233 37.7086C24.0013 37.7403 24.3793 37.7778 24.7543 37.8152C26.3268 37.9736 27.8098 38.1204 29.2985 37.8209C31.1364 37.4552 35.0257 37.3142 36.5866 39.4104C36.6039 39.4335 36.6183 39.4594 36.6299 39.4882C36.6818 39.6235 36.6876 39.8625 36.5289 40.0813C36.1682 40.5737 35.1353 40.7638 33.3754 40.663C33.2628 40.6803 32.3886 40.8588 31.4451 42.2438C30.1901 44.0867 29.2582 44.7692 27.4607 45.1608C27.4058 45.1723 27.351 45.178 27.2962 45.178V45.1752ZM25.0284 43.2085C25.3775 43.3467 25.7613 43.6202 26.1335 43.8823C26.523 44.1558 27.1116 44.5705 27.3222 44.5244C28.9437 44.1702 29.7486 43.577 30.9056 41.8753C32.1087 40.1073 33.2946 40.0151 33.3465 40.0122C33.3609 40.0122 33.3725 40.0122 33.3869 40.0122C35.4527 40.1361 35.9057 39.8078 35.9951 39.707C34.6766 38.0945 31.3644 38.0715 29.4284 38.4573C27.8415 38.7741 26.2402 38.6128 24.6909 38.4573C24.3187 38.4199 23.9465 38.3824 23.5685 38.3508C22.827 38.2903 22.2384 38.5178 21.8287 38.7741C22.5414 39.9604 23.6349 41.6104 25.0284 43.2056V43.2085Z"></path>
<path fill="white" d="M48.0666 34.6276C47.5819 34.4634 47.6598 32.6983 47.7031 31.7481L47.7464 30.7633L47.2905 31.463C47.1491 31.6819 47.0049 31.918 46.8577 32.157C46.2922 33.087 45.6517 34.1409 45.0602 34.1409C45.0227 34.1409 44.9823 34.1352 44.9448 34.1265C44.3014 33.9739 43.9812 33.2569 43.6234 31.1664L43.4936 30.4091L43.1906 31.1146C42.2356 33.3289 41.1738 34.5095 40.7786 34.5095C40.4093 34.4606 39.4081 33.6658 38.6002 31.9756L38.3665 31.4889L38.179 31.9957C37.6279 33.4931 36.6845 34.498 36.1449 34.498C36.1276 34.498 36.1103 34.498 36.093 34.4951C35.288 34.3857 34.5292 33.4268 34.1368 32.5284L33.9406 32.0792L33.7242 32.5198C33.1818 33.6255 32.2268 34.1208 31.5228 34.1208C31.393 34.1208 31.2718 34.1035 31.1708 34.069C30.5765 33.876 29.9417 33.0064 29.6647 31.9957L29.5349 31.5264L29.2579 31.9266C28.4991 33.0266 27.7143 33.5247 27.3075 33.5247C27.2642 33.5247 27.2267 33.519 27.1921 33.5075C26.8228 33.3894 26.315 32.7991 26.0005 30.6769C25.9111 30.078 26.0178 28.7822 26.0669 28.2639C26.6295 28.3071 27.1575 28.3388 27.6393 28.3676C28.9434 28.4453 29.9706 28.5058 30.3947 28.7563L30.4408 28.7822H30.4928C32.0421 28.9147 33.5944 29.0759 34.0964 29.4934L34.1685 29.5539C34.1685 29.5539 34.9129 29.4819 35.213 29.4502C36.1593 29.3552 36.9066 29.2775 37.4808 29.2775H37.827C37.827 29.2775 37.5414 28.6152 37.4923 28.5C39.2321 27.8118 41.4912 27.4951 43.1098 27.3511L43.3435 27.3309L43.3147 27.1121C44.2985 26.7406 45.5478 26.6859 46.2259 26.6859C46.725 26.6859 47.2184 26.7176 47.5502 26.7723C47.8993 26.8299 48.1763 26.9134 48.3782 27.0228L48.6754 27.187L48.7043 26.9365C49.1832 26.7263 49.3938 26.5996 49.5092 26.5276C49.541 26.5074 49.5612 26.493 49.5814 26.4844C49.59 26.4873 49.6246 26.4988 49.6823 26.5103C49.7574 26.5247 49.8612 26.5477 50.0084 26.5708C50.4527 26.6427 50.4815 26.9739 50.4498 27.8953C50.444 28.0335 50.4412 28.1804 50.4383 28.3272C50.4036 31.4947 48.5629 34.6161 48.058 34.6247L48.0666 34.6276Z"></path>
<path fill="#231F20" d="M49.6219 26.7292C49.6219 26.7292 49.6364 26.732 49.645 26.7349C49.7229 26.7493 49.8268 26.7723 49.9797 26.7983C50.2076 26.8357 50.2624 26.948 50.2307 27.8925C50.2249 28.0336 50.2221 28.1804 50.2192 28.3301C50.1874 31.201 48.664 33.9538 48.0899 34.3684C47.8302 34.0171 47.9023 32.3384 47.9283 31.7654L47.9341 31.6128L48.0062 29.9484L47.0974 31.3479C46.9531 31.5725 46.806 31.8143 46.6617 32.0476C46.1799 32.8394 45.522 33.9221 45.0575 33.9221C45.0373 33.9221 45.0171 33.9221 44.994 33.9135C44.4689 33.7897 44.1775 33.0899 43.8457 31.1376L43.5889 29.623L42.9802 31.034C42.0511 33.185 41.0846 34.2216 40.7787 34.2907C40.4931 34.2273 39.567 33.4816 38.8053 31.8863L38.3407 30.913L37.9685 31.9266C37.4319 33.3837 36.5461 34.2792 36.148 34.2792C36.1422 34.2792 36.1336 34.2792 36.1278 34.2792C35.4122 34.1813 34.7054 33.2598 34.3505 32.4449L33.9581 31.5437L33.5253 32.4277C33.0262 33.447 32.1635 33.902 31.5288 33.902C31.422 33.902 31.3239 33.8876 31.246 33.8616C30.7267 33.6946 30.1438 32.8711 29.8871 31.9439L29.6274 31.0052L29.0734 31.8086C28.3175 32.9028 27.5904 33.3088 27.3106 33.3088C27.2846 33.3088 27.2702 33.3059 27.2644 33.303C27.0596 33.2368 26.5518 32.8481 26.2257 30.6568C26.1565 30.1845 26.2171 29.1767 26.2748 28.5202C26.7595 28.5547 27.2154 28.5835 27.6279 28.6066C28.8484 28.6786 29.9044 28.7419 30.2823 28.9636L30.3718 29.0183L30.4756 29.027C31.5922 29.1191 33.4647 29.2775 33.9523 29.6806L34.0966 29.8016L34.2841 29.7843C34.6188 29.7526 34.9333 29.7209 35.2334 29.6893C36.1739 29.5942 36.9183 29.5194 37.4809 29.5165H38.1734L37.8993 28.883C37.8618 28.7966 37.8272 28.7131 37.7954 28.6411C39.4775 28.0192 41.5953 27.7283 43.1302 27.5901L43.6005 27.5469L43.5659 27.2763C44.2612 27.0488 45.2076 26.9221 46.2289 26.9221C46.7165 26.9221 47.1955 26.9538 47.5157 27.0056C47.8389 27.0574 48.0928 27.1352 48.2688 27.2302L48.8602 27.5556L48.9151 27.0977C49.3103 26.9192 49.5036 26.804 49.6162 26.7349M49.5642 26.2684C49.4286 26.2684 49.4229 26.3922 48.4938 26.7867C48.4938 26.7867 48.4938 26.804 48.488 26.8328C48.2399 26.6946 47.9168 26.6111 47.5879 26.5564C47.2763 26.5046 46.7886 26.4671 46.2289 26.4671C45.2249 26.4671 43.9813 26.5881 43.0696 26.9768C43.0696 26.9768 43.0754 27.0344 43.0898 27.1352C41.4885 27.2791 39.0159 27.6132 37.1924 28.3877C37.1924 28.3877 37.2992 28.6469 37.4809 29.0615C36.7106 29.0615 35.6171 29.1969 34.2409 29.3293C33.7042 28.883 32.276 28.7189 30.5103 28.572C29.8524 28.1804 28.1415 28.2207 25.8593 28.0307C25.8593 28.0307 25.6545 29.9311 25.7727 30.723C25.891 31.512 26.2113 33.4441 27.1201 33.735C27.1778 33.7522 27.2384 33.7609 27.3048 33.7609C27.8501 33.7609 28.6926 33.1475 29.4427 32.0648C29.7255 33.0871 30.392 34.0661 31.0989 34.2936C31.2229 34.3339 31.3672 34.354 31.523 34.354C32.2847 34.354 33.332 33.8444 33.9292 32.6263C34.3159 33.5132 35.118 34.5988 36.0614 34.7284C36.0874 34.7313 36.1162 34.7341 36.1422 34.7341C36.8433 34.7341 37.8387 33.5795 38.3898 32.0821C39.189 33.7522 40.2248 34.6737 40.7297 34.7428C40.7441 34.7428 40.7585 34.7457 40.773 34.7457C41.3414 34.7457 42.4637 33.3693 43.3956 31.2125C43.739 33.231 44.0564 34.1582 44.8873 34.354C44.9421 34.3684 44.9998 34.3742 45.0546 34.3742C45.9404 34.3742 46.7252 32.7473 47.4753 31.5926C47.4205 32.8423 47.3109 34.6334 47.9947 34.8522C48.0149 34.858 48.0351 34.8608 48.0581 34.8608C48.7823 34.8608 50.6318 31.4976 50.6693 28.3388C50.6808 27.3166 50.8424 26.4844 50.0489 26.3548C49.746 26.3059 49.6364 26.2713 49.5642 26.2713V26.2684Z"></path>
<path fill="white" d="M20.1351 36.3121C20.1351 36.3121 21.2344 32.9546 25.19 30.9821C27.8964 29.6317 31.4279 30.5531 32.8387 30.5214C35.8076 30.4552 39.1256 30.1701 42.1147 28.7678C45.1038 27.3626 48.3583 26.398 50.3808 29.4704C50.3808 29.4704 51.4368 27.9788 50.1183 23.4148C48.7997 18.8509 47.1292 14.4654 43.7881 12.8845C40.447 11.3037 36.1394 12.3576 33.4129 13.3222C30.6864 14.2869 27.0394 15.8447 27.0394 15.8447"></path>
<path fill="#231F20" d="M20.1351 36.6374C20.1004 36.6374 20.0687 36.6317 20.0341 36.6201C19.8639 36.5654 19.7715 36.3811 19.8263 36.2112C19.8725 36.0702 21.0151 32.704 25.0457 30.6913C27.1606 29.6345 29.7515 29.9109 31.4682 30.0923C32.0221 30.1499 32.504 30.1989 32.8329 30.196C35.6748 30.1326 38.9813 29.8792 41.979 28.4712C44.8902 27.1034 48.1216 26.1071 50.2971 28.7994C50.4904 28.0738 50.6577 26.4555 49.8037 23.5012C48.514 19.0408 46.8752 14.7014 43.6467 13.1753C40.5133 11.6924 36.4106 12.6023 33.5196 13.6274C30.8334 14.5776 27.201 16.1268 27.1634 16.1441C26.999 16.2132 26.8086 16.1383 26.7364 15.9742C26.6672 15.8101 26.7422 15.62 26.9067 15.548C26.9442 15.5336 30.5968 13.9758 33.3003 13.0169C36.3067 11.9515 40.5883 11.0157 43.9237 12.5908C47.3859 14.2263 49.0968 18.7183 50.4269 23.3255C51.7743 27.9845 50.6895 29.5913 50.6433 29.6575C50.5827 29.7439 50.4789 29.8073 50.3721 29.7957C50.2654 29.7957 50.1644 29.7382 50.1067 29.6489C48.2169 26.778 45.2162 27.6707 42.2531 29.0615C39.1457 30.5214 35.7556 30.7834 32.8444 30.8468C32.4722 30.8583 31.9731 30.8007 31.3961 30.7402C29.7573 30.5646 27.2789 30.3025 25.3342 31.2729C21.543 33.1647 20.4524 36.3811 20.4409 36.4128C20.3947 36.551 20.2678 36.6374 20.1322 36.6374H20.1351Z"></path>
<path fill="white" d="M25.3832 16.3112C24.8956 19.6975 26.5344 22.6691 29.0417 22.9455C31.5489 23.222 34.3274 21.4251 34.9362 17.1808C35.4209 13.7945 33.5513 10.3996 31.044 10.1203C28.5368 9.84384 25.8708 12.922 25.3832 16.3083V16.3112Z"></path>
<path fill="#231F20" d="M29.5324 23.1989C29.3593 23.1989 29.1862 23.1903 29.0159 23.1701C27.9773 23.055 27.054 22.5107 26.3442 21.5951C25.2969 20.2475 24.8641 18.3067 25.1584 16.2766C25.6806 12.6514 28.4937 9.61061 31.0702 9.89568C32.0685 10.0051 33.0322 10.5983 33.7794 11.5629C34.922 13.0343 35.45 15.1997 35.1614 17.2153C34.5613 21.3992 31.9214 23.2018 29.5353 23.2018L29.5324 23.1989ZM30.7326 10.3305C28.5053 10.3305 26.0673 13.1409 25.6056 16.34C25.3344 18.2232 25.7441 20.0833 26.702 21.3157C27.3339 22.1306 28.1504 22.6144 29.065 22.7181C31.3645 22.9743 34.1083 21.3388 34.7085 17.1462C34.9797 15.2487 34.4863 13.2129 33.4159 11.8365C32.735 10.9582 31.904 10.4428 31.0154 10.342C30.9202 10.3305 30.825 10.3276 30.7298 10.3276L30.7326 10.3305Z"></path>
<path fill="white" d="M34.3476 48.8927C34.2466 48.8811 34.1457 48.8696 34.0418 48.8552C33.9639 48.8466 33.8889 48.8351 33.8139 48.8236L33.4388 48.7573C33.358 48.7401 33.2743 48.7257 33.1907 48.7055C32.4059 48.5327 30.793 47.8848 30.7757 47.8791C29.7948 47.4212 28.808 46.805 27.8472 46.0506C27.6424 45.8894 27.4577 45.7367 27.276 45.5841L27.1288 45.4574C26.0151 44.487 24.9274 43.3209 23.8974 41.9876L23.7531 41.8005C23.0751 40.9078 22.423 39.949 21.8171 38.9498C22.2528 37.2653 23.1905 37.081 23.5771 37.081C23.6146 37.081 23.6521 37.081 23.6868 37.0839C23.707 37.0839 23.7762 37.1012 23.8887 37.2365C24.3042 37.7404 24.662 39.1024 24.5321 40.3262L24.4658 40.9338L24.913 40.5162C25.3313 40.1246 25.6025 40.0785 25.7699 40.0785C25.8651 40.0785 25.969 40.0958 26.0959 40.1304C26.9413 40.3751 27.602 41.8696 27.7001 43.7643L27.7261 44.2826L28.0896 43.9111C28.6753 43.3093 29.3649 42.9897 30.0775 42.9897C30.3516 42.9897 30.5738 43.0847 30.7526 43.2805C31.1797 43.747 31.3528 44.7836 31.2316 46.1197L31.1854 46.6323L31.598 46.3213C32.201 45.8634 32.8329 45.443 33.3551 45.443C33.384 45.443 33.4128 45.443 33.4388 45.4459C33.5975 45.4603 34.0822 45.5035 34.1572 46.5459L34.2034 47.1938L34.7919 46.3328C35.1266 45.8404 35.5825 45.1666 35.7527 45.1321C35.9316 45.1839 36.0499 45.9815 35.7873 47.1678C35.7556 47.2197 35.7325 47.2744 35.721 47.3262C35.4613 48.3628 34.5611 48.8005 34.3505 48.8898L34.3476 48.8927Z"></path>
<path fill="#231F20" d="M23.577 37.3027C23.6001 37.3027 23.6203 37.3027 23.6405 37.3027C23.9261 37.4812 24.457 38.8662 24.3041 40.2973L24.1742 41.5125L25.0687 40.6774C25.4293 40.3405 25.6428 40.3002 25.7698 40.3002C25.8448 40.3002 25.9285 40.3146 26.0323 40.3434C26.7738 40.5565 27.3797 41.9991 27.472 43.77L27.5269 44.8095L28.2539 44.0637C28.7964 43.5051 29.4282 43.2114 30.0803 43.2114C30.2909 43.2114 30.4525 43.2805 30.5852 43.4273C30.9631 43.842 31.1218 44.8383 31.0035 46.0938L30.9083 47.1189L31.7306 46.4969C32.273 46.0851 32.8934 45.6647 33.3521 45.6647C33.3723 45.6647 33.3954 45.6647 33.4156 45.6647C33.5396 45.6762 33.8686 45.705 33.9292 46.5545L34.0215 47.8531L34.7572 46.7791C34.8322 46.6697 34.9072 46.5602 34.9765 46.4566C35.1986 46.1312 35.4814 45.7137 35.6747 45.4891C35.7295 45.7626 35.7353 46.3126 35.5708 47.0843C35.5391 47.1448 35.5131 47.2081 35.4987 47.2686C35.2823 48.1411 34.561 48.5413 34.3129 48.6565C34.2321 48.6479 34.1542 48.6363 34.0734 48.6277C33.9984 48.6191 33.9234 48.6076 33.8512 48.596L33.7849 48.5845L33.756 48.5788C33.6983 48.5701 33.6406 48.5586 33.58 48.5471L33.4877 48.5298C33.4214 48.5183 33.3579 48.5039 33.2857 48.4895L33.2309 48.478C32.501 48.3167 31.0035 47.7207 30.8737 47.6688C29.9043 47.2168 28.9348 46.6092 27.9914 45.8663L27.7086 46.2233L27.9741 45.8548C27.7923 45.7108 27.6076 45.561 27.4259 45.4056L27.397 45.3796L27.2816 45.2789C26.1795 44.32 25.1033 43.1624 24.079 41.8407L24.0502 41.8062L23.9665 41.6968L23.9521 41.6766L23.9348 41.6536C23.2798 40.7926 22.6508 39.8683 22.0623 38.9037C22.4489 37.51 23.1702 37.2969 23.577 37.2969M23.577 36.842C22.9307 36.842 21.9901 37.2364 21.5718 38.9757C22.0998 39.8539 22.7691 40.8761 23.5712 41.9271C23.5828 41.9415 23.5914 41.9559 23.603 41.9674C23.6405 42.0164 23.678 42.0653 23.7155 42.1143C24.6388 43.3093 25.7323 44.5331 26.9787 45.6186C27.0133 45.6474 27.0479 45.6762 27.0825 45.7079C27.097 45.7223 27.1143 45.7338 27.1287 45.7482C27.3134 45.9037 27.5009 46.0592 27.6913 46.2089C27.6971 46.2118 27.7029 46.2176 27.7057 46.2205C28.6261 46.9461 29.6215 47.5853 30.6891 48.0806C30.6891 48.0806 32.325 48.7371 33.1299 48.9157C33.1328 48.9157 33.1386 48.9157 33.1415 48.9157C33.2252 48.9329 33.3117 48.9502 33.3983 48.9675C33.4329 48.9732 33.4646 48.979 33.4993 48.9876C33.5598 48.9992 33.6175 49.0078 33.6781 49.0193C33.7128 49.0251 33.7445 49.0308 33.7791 49.0366C33.857 49.0481 33.9349 49.0596 34.0128 49.0711C34.134 49.0884 34.2581 49.1028 34.3792 49.1143C34.3792 49.1143 35.6141 48.6767 35.9401 47.3722C35.9517 47.3291 35.9719 47.2887 36.0007 47.2484C36.2402 46.183 36.2604 45.0255 35.7872 44.9016C35.7728 44.8988 35.7584 44.8959 35.744 44.8959C35.4439 44.8959 34.9707 45.6561 34.3821 46.517C34.3302 45.8 34.0705 45.2645 33.456 45.2069C33.4214 45.204 33.3867 45.2011 33.3521 45.2011C32.7693 45.2011 32.1172 45.6244 31.4565 46.1254C31.6008 44.5561 31.3844 42.7478 30.0774 42.7478C29.6129 42.7478 28.7704 42.8687 27.925 43.7383C27.8298 41.8724 27.1806 40.1937 26.1593 39.8971C26.0323 39.8597 25.9025 39.8337 25.7698 39.8337C25.4784 39.8337 25.1639 39.9547 24.7571 40.3319C24.9302 38.7223 24.2954 36.888 23.704 36.8391C23.6636 36.8362 23.6203 36.8333 23.577 36.8333V36.842Z"></path>
<path fill="#231F20" d="M31.096 16.0807C31.1248 17.7307 31.6269 18.9516 32.5559 18.8422C33.485 18.7327 33.9524 17.3909 33.9408 15.7438C33.9293 14.1342 33.4503 12.8327 32.4492 12.873C31.448 12.9133 31.0671 14.4308 31.096 16.0807Z"></path>
<path fill="white" d="M31.142 16.5214C31.8224 16.5214 32.374 15.9413 32.374 15.2256C32.374 14.51 31.8224 13.9299 31.142 13.9299C30.4616 13.9299 29.91 14.51 29.91 15.2256C29.91 15.9413 30.4616 16.5214 31.142 16.5214Z"></path>
</svg>
