<svg xmlns="http://www.w3.org/2000/svg" fill="none" viewBox="0 0 60 60" height="60" width="60">
<path fill="#231F20" d="M37.5503 47.5957C36.5614 47.5957 35.7031 47.4181 35.0842 47.1314C34.145 46.6983 31.7753 45.103 28.0404 42.3798C26.1652 44.1589 24.1997 45.3741 22.0508 46.0907C19.3639 46.9881 17.5073 47.0784 16.2136 46.3774C15.3584 45.9162 14.7769 45.1124 14.4815 43.9907C14.2762 43.2086 14.7023 42.1305 15.6134 39.9588C15.9151 39.239 16.2572 38.4227 16.5713 37.5939C16.8138 36.9489 16.9227 36.2697 16.8947 35.5593C14.5281 35.6964 13.4801 36.4379 12.6342 37.0549C11.9065 37.7528 10.1432 38.7281 8.36749 37.6967C6.15016 36.4099 6.91208 32.7893 8.64737 29.7732C9.18227 28.8478 10.4169 27.0998 12.8581 25.4017C12.0993 23.3235 12.5689 20.9554 14.1985 18.8055C16.478 15.7925 20.8255 14.7737 23.3228 16.665C23.7488 16.989 24.1127 17.3972 24.405 17.877C25.3815 16.9423 26.5135 16.4282 27.6828 16.4064C30.4257 16.3409 33.0348 18.9769 33.747 22.3576C34.8603 22.4168 35.955 22.5383 37.0185 22.7221C37.1025 21.9743 37.1896 21.2951 37.286 20.6937C37.5068 19.3041 39.1799 18.1263 40.542 17.3816C42.3737 16.3814 45.8598 15.0572 47.4179 15.7458C50.3722 17.0513 50.7361 25.3082 50.733 25.3893C50.7268 26.7664 49.2185 28.3649 47.7973 29.5676C48.6183 32.1256 48.3384 35.5748 46.9421 40.0741C45.6981 44.0873 43.204 45.9287 41.3319 46.7637C40.0102 47.3557 38.6948 47.5925 37.5534 47.5925L37.5503 47.5957ZM27.9689 40.5913C28.1275 40.5913 28.2892 40.6412 28.426 40.7409C33.6164 44.5391 35.2304 45.4925 35.7311 45.7231C36.7449 46.1904 38.7756 46.2091 40.6975 45.3492C42.2773 44.6419 44.3889 43.0746 45.4618 39.6161C46.8488 35.1449 47.0789 31.8733 46.1646 29.6112C46.0371 29.2934 46.1304 28.9288 46.3979 28.7138C48.3197 27.1715 49.1812 25.9283 49.1843 25.383C49.1936 23.66 48.3353 17.849 46.7928 17.1666C46.2175 16.9142 43.7265 17.4128 41.2822 18.7463C39.5686 19.6811 38.8813 20.513 38.8129 20.9399C38.6885 21.7282 38.5704 22.6629 38.4708 23.7192C38.4491 23.9373 38.3371 24.1398 38.1599 24.2707C37.9826 24.4015 37.7587 24.4514 37.5441 24.4047C36.1136 24.1055 34.6084 23.9311 33.069 23.8843C32.6896 23.8719 32.3755 23.5883 32.3258 23.2113C31.9402 20.351 29.8566 17.958 27.7574 17.958C27.7419 17.958 27.7263 17.958 27.7108 17.958C26.6845 17.9767 25.6583 18.6124 24.8217 19.7527C24.6476 19.9895 24.3552 20.1079 24.0691 20.0581C23.7799 20.0082 23.5436 19.8026 23.4596 19.5222C23.245 18.818 22.8843 18.2727 22.396 17.8988C20.5799 16.5216 17.1995 17.4159 15.4424 19.7403C14.0181 21.6222 13.6853 23.6631 14.5281 25.3363C14.7054 25.6915 14.5903 26.1246 14.2544 26.3396C11.723 27.9691 10.5008 29.6735 10.0002 30.5459C8.69402 32.8142 7.99741 35.6808 9.15428 36.3507C10.4075 37.0767 11.5862 35.9207 11.5986 35.9082C11.6266 35.8802 11.6577 35.8522 11.6919 35.8303C12.6933 35.1012 14.1953 34.0076 17.6006 33.9858H17.6069C17.9863 33.9858 18.3128 34.2631 18.3719 34.6401C18.5647 35.8646 18.4527 37.0424 18.0329 38.1454C17.7095 38.9991 17.3612 39.8279 17.0564 40.5602C16.5588 41.7473 15.94 43.2211 15.996 43.6074C16.1794 44.3054 16.4904 44.7572 16.9662 45.0127C17.8339 45.4831 19.3857 45.3492 21.5781 44.6169C23.6742 43.9159 25.5898 42.6727 27.4371 40.8156C27.5864 40.6661 27.7854 40.5882 27.9875 40.5882L27.9689 40.5913Z"></path>
<path fill="white" d="M22.8968 25.6354C20.8816 28.3025 17.4981 29.1407 15.3399 27.5049C13.1816 25.8691 12.2829 22.6193 14.8143 19.276C16.8326 16.6089 20.695 15.6492 22.8533 17.285C25.0115 18.9208 24.9151 22.9651 22.8968 25.6354Z"></path>
<path fill="#231F20" d="M23.1487 25.8286C22.2095 27.078 20.8847 28.0751 19.3391 28.4864C18.5741 28.6951 17.75 28.745 16.9569 28.5767C16.167 28.4209 15.4113 28.0252 14.8236 27.4893C13.617 26.4424 12.9328 24.8284 12.995 23.2393C13.0199 22.4448 13.2127 21.669 13.5143 20.9461C13.816 20.2201 14.2452 19.5689 14.721 18.9582C15.7006 17.7368 17.0782 16.8613 18.5803 16.4624C19.3329 16.2661 20.1228 16.182 20.9096 16.2724C21.6932 16.3596 22.4769 16.6432 23.102 17.1604C23.7333 17.6714 24.1687 18.388 24.4144 19.1389C24.6632 19.8929 24.744 20.6875 24.7036 21.4664C24.6165 23.0275 24.0785 24.5573 23.1487 25.8255V25.8286ZM22.6417 25.4422C23.5094 24.2956 24.0381 22.8779 24.1376 21.4353C24.1842 20.7155 24.122 19.9864 23.9044 19.3072C23.6898 18.631 23.3135 18.0079 22.7755 17.5654C22.2406 17.1168 21.5564 16.855 20.8505 16.7709C20.1414 16.6805 19.4106 16.7522 18.714 16.9454C17.3177 17.3286 16.0395 18.1606 15.1439 19.2947C14.2452 20.432 13.6014 21.8185 13.5765 23.2518C13.5392 24.6757 14.1581 26.0934 15.2434 27.0095C16.2883 27.9629 17.8059 28.2153 19.168 27.8289C20.5395 27.4613 21.7617 26.5795 22.6386 25.4391L22.6417 25.4422Z"></path>
<path fill="#231F20" d="M20.1383 23.2643C19.4448 24.9717 18.3688 26 17.3146 25.4204C16.2635 24.8409 16.2479 23.2051 16.9196 21.4851C17.5758 19.8088 18.658 18.6871 19.8211 19.2324C20.9842 19.7777 20.8287 21.5568 20.1352 23.2643H20.1383Z"></path>
<path fill="white" d="M20.9619 22.6152C21.1119 21.8749 20.7613 21.1787 20.1789 21.0603C19.5965 20.9419 19.0028 21.4461 18.8529 22.1865C18.703 22.9268 19.0535 23.623 19.6359 23.7414C20.2183 23.8598 20.812 23.3556 20.9619 22.6152Z"></path>
<path fill="#231F20" d="M34.2135 15.107C34.313 14.4932 34.4685 13.4089 33.7999 12.2436C32.9291 10.7231 30.407 9.87559 29.415 11.3712C29.0014 11.9975 29.2408 12.2872 29.6824 12.4991C30.1862 12.739 30.9357 12.873 31.5981 13.2687C32.332 13.7049 33.2681 14.3281 33.7968 15.4373C33.8901 15.6336 33.9429 15.6212 34.0083 15.5931C34.1637 15.5246 34.2135 15.1102 34.2135 15.1102V15.107Z"></path>
<path fill="#231F20" d="M18.7139 12.5552C18.7233 12.0162 18.7606 11.0721 19.5567 10.1404C20.5923 8.92528 23.0117 8.46414 23.6648 9.85068C23.9385 10.4302 23.671 10.6546 23.2388 10.7917C22.7443 10.9443 22.0446 10.9817 21.3791 11.2528C20.642 11.5519 19.6966 11.9881 19.0374 12.8855C18.9192 13.0444 18.8756 13.0288 18.8197 12.9945C18.689 12.9198 18.7139 12.5583 18.7139 12.5583V12.5552Z"></path>
<path fill="white" d="M22.2684 37.1203C22.2684 37.1203 33.156 45.3959 35.4076 46.4304C37.6591 47.4648 44.0405 46.8074 46.2018 39.8497C48.3601 32.8921 47.5142 29.5052 45.7323 27.4363C43.9503 25.3674 36.1601 21.2296 24.5231 24.0526L22.2715 37.1234L22.2684 37.1203Z"></path>
<path fill="#231F20" d="M37.5441 47.1532C36.6173 47.1532 35.8181 46.9912 35.2645 46.7357C33.0037 45.6981 22.5079 37.7279 22.0632 37.3882C21.9637 37.3104 21.9139 37.1857 21.9357 37.0611L24.1872 23.9902C24.209 23.8563 24.3085 23.7503 24.4391 23.7192C36.0233 20.9118 43.9566 24.8596 45.9842 27.212C48.2357 29.8231 48.4068 33.8705 46.5191 39.9463C45.3218 43.8037 42.9365 45.5673 41.1484 46.368C39.892 46.9289 38.6294 47.1532 37.5441 47.1532ZM22.6354 36.9738C24.0038 38.0114 33.5044 45.1809 35.5475 46.1219C36.6173 46.6111 38.7413 46.7045 40.8747 45.7511C42.5385 45.0064 44.7558 43.3613 45.8753 39.7469C48.2513 32.0851 46.7834 29.1781 45.4742 27.6576C43.6238 25.5108 35.871 21.7219 24.8154 24.3299L22.6354 36.977V36.9738Z"></path>
<path fill="white" d="M16.9195 32.6989C16.9195 32.6989 18.3283 35.1449 17.2958 37.8712C16.2634 40.5975 15.0163 42.9811 15.2309 43.7944C15.8622 46.1873 17.8991 46.6609 21.8082 45.3554C24.7439 44.3739 27.3033 42.4141 29.7881 39.3201"></path>
<path fill="#231F20" d="M17.2119 32.5307C17.5353 33.1289 17.7343 33.7303 17.8742 34.3659C18.0111 34.9984 18.064 35.6527 18.0142 36.3071C17.9707 36.9552 17.7996 37.6157 17.5695 38.2015C17.3487 38.781 17.1123 39.3574 16.876 39.9276L16.1701 41.632C15.9461 42.196 15.7222 42.7724 15.6165 43.3114C15.5916 43.4392 15.5792 43.5763 15.5916 43.651C15.5885 43.6791 15.6103 43.7508 15.632 43.8193L15.6942 44.0218C15.7347 44.1558 15.8 44.2773 15.8528 44.4051C15.9182 44.5235 15.9866 44.6419 16.0612 44.7509C16.3722 45.1809 16.8262 45.4738 17.358 45.6047C17.8929 45.7355 18.4838 45.7324 19.0653 45.6607C19.65 45.586 20.2377 45.4676 20.8193 45.2993C21.9886 44.9784 23.1112 44.5577 24.1655 43.9626C26.2771 42.788 28.087 41.0992 29.7041 39.2546C29.7414 39.211 29.8099 39.2048 29.8534 39.2453C29.8938 39.2827 29.9 39.345 29.8689 39.3886C28.4011 41.3703 26.6409 43.2086 24.464 44.4861C23.3849 45.1248 22.2063 45.6296 21.0028 45.9599C20.4026 46.1375 19.7806 46.2714 19.1462 46.3587C18.5118 46.4397 17.8494 46.4615 17.1839 46.3057C16.5215 46.153 15.8684 45.7542 15.4579 45.184C15.3584 45.0407 15.2682 44.8911 15.1873 44.7416C15.122 44.5858 15.0381 44.4331 14.9883 44.2742L14.9106 44.0343C14.8857 43.9564 14.8577 43.8816 14.8421 43.757C14.811 43.5295 14.8421 43.355 14.867 43.1806C15.0007 42.5075 15.2371 41.9342 15.4672 41.3516L16.1794 39.6379C16.4157 39.0708 16.649 38.5037 16.8698 37.9335C17.0843 37.3727 17.2367 36.8305 17.2865 36.2479C17.3891 35.1044 17.1372 33.8798 16.6272 32.8703L16.6148 32.8454C16.5308 32.6803 16.5961 32.4746 16.764 32.3905C16.9257 32.3064 17.1248 32.3718 17.2119 32.5307Z"></path>
<path fill="white" d="M18.5615 33.5714C18.5615 33.5714 19.196 35.5468 18.3501 37.6624C17.5042 39.7781 16.6614 41.6102 16.5215 42.3175C16.3815 43.0216 16.4562 43.8349 16.8729 44.0093C17.7188 44.3614 19.7744 43.7788 23.0677 39.7064C26.3766 35.6153 27.1509 33.9951 28.1368 31.032C28.1368 31.032 25.2508 33.5714 18.5647 33.5714H18.5615Z"></path>
<path fill="#231F20" d="M18.8321 33.7708C18.8663 33.7334 18.8943 33.6711 18.9005 33.6119C18.9099 33.5558 18.8819 33.4748 18.8912 33.5059L18.8974 33.5371L18.9099 33.5994L18.9316 33.7209L18.969 33.9577C18.9907 34.1166 19.0094 34.2724 19.0187 34.4282C19.0374 34.7429 19.0467 35.0576 19.0312 35.3692C19.0094 35.9955 18.8881 36.6124 18.7077 37.2075C18.5118 37.8089 18.2506 38.3417 18.0173 38.9025C17.7841 39.4603 17.5571 40.0211 17.3456 40.5851C17.1435 41.1459 16.9165 41.7255 16.7889 42.2738C16.7361 42.5387 16.7205 42.8285 16.7423 43.0964C16.761 43.355 16.8574 43.6386 16.96 43.6946C16.9693 43.704 16.9818 43.704 16.988 43.7102C16.9973 43.7165 17.0346 43.7227 17.0564 43.7289C17.103 43.7476 17.1621 43.7476 17.2181 43.7539C17.3332 43.7601 17.4545 43.7539 17.582 43.732C17.8339 43.6884 18.092 43.6012 18.347 43.4797C18.8539 43.2491 19.3359 42.9188 19.7931 42.5574C20.7074 41.8283 21.5284 40.959 22.2965 40.0492C23.0615 39.1362 23.8079 38.1797 24.5138 37.22C25.2229 36.2541 25.879 35.2601 26.4264 34.2163C26.9799 33.1757 27.3904 32.0602 27.776 30.9229L28.3825 31.3218C28.0062 31.6271 27.6485 31.839 27.2598 32.0509C26.8804 32.2627 26.4855 32.4403 26.0874 32.6055C25.2913 32.9326 24.4672 33.1819 23.6337 33.3782C22.8003 33.5776 21.9544 33.6991 21.1085 33.7926C20.6856 33.8393 20.2595 33.8549 19.8366 33.8892C19.4852 33.9079 19.2115 33.8456 18.8352 33.777L18.8321 33.7708ZM18.2879 33.372C18.7482 33.2816 19.3141 33.2068 19.8024 33.1975C20.2129 33.1632 20.6265 33.1445 21.037 33.0947C21.8549 32.9981 22.6728 32.8734 23.472 32.6771C24.2681 32.4808 25.0549 32.2409 25.8075 31.9231C26.1807 31.7611 26.5508 31.5928 26.9053 31.3934C27.2536 31.2034 27.6143 30.9759 27.888 30.7484L27.8973 30.7391C28.059 30.6082 28.2954 30.63 28.426 30.7921C28.51 30.8949 28.5317 31.032 28.4913 31.1504C28.1119 32.3064 27.6921 33.4717 27.1168 34.5684C26.5477 35.6683 25.8542 36.6872 25.1327 37.6656C24.405 38.647 23.6586 39.5911 22.8656 40.5259C22.0695 41.4544 21.2205 42.3486 20.244 43.1213C19.7526 43.5046 19.2333 43.8629 18.6393 44.1278C18.347 44.2648 18.0236 44.3614 17.6815 44.4113C17.5104 44.4362 17.3301 44.4393 17.1435 44.4113C17.0502 44.3957 16.9569 44.3833 16.8636 44.3459C16.8138 44.3272 16.7765 44.3209 16.7174 44.2898C16.6583 44.2586 16.6024 44.2243 16.5557 44.1838C16.3629 44.0156 16.2914 43.8162 16.2385 43.6417C16.1919 43.4641 16.1732 43.2927 16.1701 43.1245C16.167 42.788 16.2074 42.4701 16.2945 42.1492C16.4873 41.5323 16.7485 40.9995 16.9942 40.4417C17.4918 39.3481 17.9769 38.2139 18.3345 37.0985C18.4931 36.5345 18.5522 35.9456 18.5367 35.363C18.5336 35.0701 18.4994 34.7803 18.4465 34.4968C18.4216 34.3534 18.3905 34.2132 18.3563 34.073C18.3408 34.0045 18.319 33.9359 18.2972 33.8674L18.263 33.7677L18.2475 33.7209L18.2381 33.696C18.2444 33.7178 18.2133 33.6275 18.2195 33.562C18.2195 33.4904 18.2475 33.4218 18.2786 33.3751L18.2879 33.372Z"></path>
<path fill="#231F20" d="M21.5222 33.7646C21.7212 35.6808 22.8532 37.3976 24.5108 38.2326C26.6317 35.4159 27.3097 33.8767 28.1307 31.4059C28.1307 31.4059 26.1061 33.185 21.5222 33.7646Z"></path>
<path fill="white" d="M23.0646 39.7064C24.2432 38.2482 25.0984 37.1047 25.7577 36.1014C24.3707 36.2728 21.5905 36.9209 20.2471 39.3543C19.4416 40.8125 19.2363 42.2427 19.2581 43.3862C20.2595 42.7474 21.5252 41.6071 23.0615 39.7064H23.0646Z"></path>
<path fill="#231F20" d="M19.2613 43.7227C19.2053 43.7227 19.1524 43.7102 19.1027 43.6822C18.9938 43.623 18.9254 43.5139 18.9254 43.3893C18.8974 41.8906 19.2426 40.476 19.9548 39.1861C21.3511 36.6592 24.1655 35.955 25.7173 35.7618C25.8479 35.7462 25.9754 35.8054 26.047 35.9176C26.1154 36.0298 26.1154 36.1731 26.0407 36.2821C25.3815 37.2854 24.5169 38.4414 23.3258 39.9121C21.9171 41.6538 20.6109 42.9157 19.4416 43.6635C19.3857 43.6978 19.3235 43.7165 19.2613 43.7165V43.7227ZM25.0394 36.5626C23.584 36.8617 21.5968 37.6126 20.5456 39.5164C19.9952 40.5134 19.6811 41.5915 19.6127 42.7288C20.583 41.9997 21.6559 40.9122 22.8034 39.4914C23.7301 38.3448 24.4547 37.3945 25.0394 36.5595V36.5626Z"></path>
<path fill="white" d="M28.4602 29.6922C28.4602 29.6922 29.0231 31.4775 27.2411 32.512C25.4592 33.5464 23.0179 34.8987 18.1386 34.7678C14.5716 34.6744 13.1659 35.7088 12.1335 36.4597C12.1335 36.4597 10.5381 38.0581 8.75616 37.0237C6.97422 35.9892 7.91028 32.6055 9.31905 30.1595C10.7278 27.7136 14.668 23.6724 23.5839 22.1675C32.4999 20.6625 28.4633 29.6891 28.4633 29.6891L28.4602 29.6922Z"></path>
<path fill="#231F20" d="M10.0033 37.7092C9.54923 37.7092 9.0672 37.6001 8.58518 37.3197C6.63841 36.1918 7.45008 32.7301 9.02367 29.9944C10.1183 28.0938 13.7227 23.4917 23.5249 21.8372C26.1527 21.3948 27.9751 21.8029 28.9423 23.0586C30.5905 25.1961 29.1195 29.0005 28.8179 29.7202C29.0013 30.4774 28.9174 31.9356 27.4091 32.808C25.736 33.777 23.2108 35.2414 18.1262 35.1106C14.6991 35.0202 13.337 36.0017 12.3481 36.7246C11.9127 37.1514 11.0264 37.7123 10.0002 37.7123L10.0033 37.7092ZM25.4219 22.3389C24.887 22.3389 24.293 22.3949 23.64 22.504C14.1207 24.1118 10.6594 28.5144 9.61143 30.3309C8.18712 32.8018 7.46563 35.8864 8.92415 36.7339C10.4542 37.6219 11.8381 36.279 11.8941 36.2229C11.9065 36.2105 11.9189 36.198 11.9345 36.1886C13.0136 35.4035 14.4783 34.3316 18.148 34.4313C23.0429 34.5622 25.4654 33.1507 27.0732 32.2191C28.6033 31.3311 28.1617 29.8542 28.1399 29.7919C28.115 29.714 28.1213 29.6267 28.1524 29.552C28.171 29.5115 29.9499 25.4609 28.4074 23.4668C27.8258 22.7128 26.8245 22.3357 25.4188 22.3357L25.4219 22.3389Z"></path>
<path fill="white" d="M22.5921 24.3766C22.648 27.9629 24.9462 30.8326 27.7295 30.7858C30.5097 30.7391 33.2277 28.4988 33.1562 24.0058C33.1002 20.4195 30.4755 17.1386 27.6922 17.1853C24.912 17.232 22.5392 20.7903 22.5921 24.3766Z"></path>
<path fill="#231F20" d="M22.9061 24.3735C22.9403 25.8971 23.3943 27.427 24.3086 28.6235C24.7627 29.2155 25.3287 29.7296 25.9911 30.0474C26.6504 30.3745 27.3781 30.4929 28.1151 30.4244C29.6016 30.3029 30.9731 29.4305 31.7754 28.1717C32.5964 26.9129 32.8856 25.3363 32.8265 23.8095C32.7705 22.289 32.2263 20.7841 31.3151 19.572C30.858 18.9675 30.3013 18.4347 29.6638 18.0515C29.0294 17.6683 28.2955 17.4377 27.5709 17.4938C26.8494 17.5405 26.1528 17.849 25.565 18.3039C24.9742 18.7619 24.4828 19.3539 24.0878 20.0051C23.3042 21.3106 22.8906 22.8499 22.9061 24.3735ZM22.2748 24.3828C22.2655 22.7346 22.7164 21.0956 23.5685 19.6873C23.9977 18.9862 24.5357 18.3382 25.2012 17.8272C25.8636 17.3193 26.6721 16.9547 27.5367 16.9049C28.3981 16.8488 29.2502 17.1074 29.9655 17.5374C30.6869 17.9643 31.2965 18.5469 31.7972 19.2043C32.7923 20.5192 33.3832 22.1301 33.4547 23.7815C33.5231 25.4048 33.2339 27.1061 32.3227 28.5237C31.4333 29.9414 29.8659 30.9479 28.1804 31.0943C27.3439 31.1878 26.4513 31.0289 25.6956 30.6456C24.9275 30.2717 24.2931 29.6828 23.7893 29.0223C22.7817 27.6856 22.3059 26.0218 22.2748 24.3828Z"></path>
<path fill="white" d="M24.4453 32.1132L25.6115 32.4279L27.3655 31.3436L28.3606 31.2376L28.6498 31.9387L28.8271 32.6429L29.0883 33.5028L30.8236 33.858C30.8236 33.858 31.626 27.804 28.9048 28.4178C25.8168 29.1127 24.8434 31.3654 24.5386 32.1101"></path>
<path fill="#231F20" d="M30.5562 33.8237C30.6153 32.8018 30.6277 31.7548 30.5096 30.7578C30.4474 30.2624 30.3385 29.7701 30.1395 29.3619C29.9405 28.9475 29.645 28.6982 29.2407 28.7107C29.0479 28.7045 28.7991 28.7886 28.5535 28.8447C28.314 28.9101 28.0746 28.9911 27.8444 29.0846C27.3779 29.2653 26.9457 29.5208 26.5507 29.8199C25.7546 30.4213 25.1451 31.2501 24.7346 32.1879C24.6879 32.297 24.5604 32.3468 24.4516 32.3001C24.3458 32.2534 24.2961 32.135 24.3365 32.029V32.0228C24.7066 31.0133 25.3379 30.063 26.1962 29.3681C26.6254 29.0223 27.0949 28.7263 27.6019 28.5113C27.8538 28.3991 28.1119 28.3056 28.3731 28.2246C28.6374 28.1592 28.8862 28.0533 29.2221 28.0408C29.5424 28.0221 29.9 28.1125 30.1737 28.3119C30.4505 28.5082 30.6402 28.773 30.7801 29.0379C31.0507 29.5769 31.1471 30.1315 31.2155 30.6737C31.3337 31.7642 31.2653 32.8329 31.088 33.8954C31.0631 34.0419 30.9263 34.1416 30.7801 34.1166C30.6433 34.0948 30.55 33.9733 30.5562 33.8362V33.8237Z"></path>
<path fill="#231F20" d="M28.7431 33.5153C28.541 33.1383 28.4819 32.7675 28.4042 32.4279C28.3357 32.0945 28.2735 31.7424 28.1554 31.5773C28.0963 31.5025 28.0745 31.4775 27.9688 31.4589C27.863 31.4495 27.7076 31.4775 27.5552 31.5399C27.238 31.6458 26.9145 31.8327 26.5662 31.9948L26.5165 31.9387C26.7155 31.6053 26.9643 31.3062 27.3002 31.06C27.4712 30.9447 27.6671 30.8295 27.9346 30.7952C28.1989 30.7516 28.5534 30.8887 28.7214 31.1099C29.0572 31.5461 29.0883 31.973 29.0914 32.3656C29.079 32.7644 28.9826 33.1383 28.8209 33.5028L28.7462 33.5091L28.7431 33.5153Z"></path>
<path fill="#231F20" d="M25.8448 24.4265C25.5836 26.2523 24.7843 27.508 23.6244 27.2027C22.4644 26.8942 22.0539 25.3082 22.2933 23.4793C22.5266 21.6939 23.3072 20.3448 24.5666 20.5909C25.8292 20.837 26.1029 22.6006 25.8417 24.4265H25.8448Z"></path>
<path fill="white" d="M25.4686 25.0118C26.0623 24.9859 26.5171 24.3531 26.4843 23.5984C26.4516 22.8437 25.9437 22.2528 25.35 22.2787C24.7563 22.3046 24.3016 22.9374 24.3343 23.6921C24.3671 24.4468 24.8749 25.0377 25.4686 25.0118Z"></path>
<path fill="white" d="M37.6281 24.3859C37.7152 23.3733 37.852 22.0273 38.0448 20.8183C38.4149 18.4971 45.4151 15.7115 47.1038 16.4593C49.2714 17.4159 49.9649 24.1523 49.9586 25.3892C49.9524 26.405 48.6525 27.9162 46.771 29.4086C46.0029 30.0162 42.7251 29.5987 41.0303 28.505C39.3385 27.4114 37.5441 25.3456 37.6281 24.3859Z"></path>
<path fill="#231F20" d="M45.409 30.0287C43.9784 30.0287 42.0286 29.5551 40.8468 28.7886C39.2888 27.7822 37.1834 25.6105 37.2923 24.3579C37.3731 23.4076 37.5131 22.0148 37.7121 20.7654C37.9142 19.4879 39.7024 18.3381 40.7473 17.768C42.9335 16.5746 46.0372 15.618 47.2407 16.1477C49.685 17.2289 50.3008 24.4545 50.2977 25.3892C50.2883 26.835 48.2172 28.692 46.9826 29.6704C46.6747 29.9134 46.1056 30.0256 45.4121 30.0256L45.409 30.0287ZM46.345 16.6712C45.1353 16.6712 42.9055 17.3629 41.0676 18.3662C39.4971 19.223 38.4896 20.1609 38.3776 20.8744C38.1817 22.1021 38.0448 23.4792 37.964 24.4171C37.9018 25.1213 39.4692 27.0936 41.2138 28.2215C42.8651 29.2902 45.9656 29.6174 46.5627 29.1438C48.4722 27.6264 49.6166 26.2243 49.6197 25.3892C49.629 23.8656 48.8267 17.5904 46.967 16.7709C46.8146 16.7055 46.6032 16.6712 46.345 16.6712Z"></path>
<path fill="#231F20" d="M38.7228 24.4015C38.701 23.9217 38.7072 23.4419 38.7414 22.9651C38.7694 22.4853 38.8161 22.0086 38.9187 21.5319C38.9685 21.2951 39.0369 21.0583 39.1364 20.8215C39.1924 20.7062 39.2608 20.5784 39.3541 20.4881C39.4412 20.3946 39.5313 20.3074 39.6277 20.2295C40.004 19.9148 40.4083 19.653 40.8188 19.4038C41.6398 18.9052 42.5044 18.4846 43.3876 18.1232C44.2708 17.7586 45.1851 17.4595 46.1211 17.2726C45.2037 17.5374 44.3236 17.8957 43.4591 18.2852C42.6008 18.6871 41.758 19.1296 40.9525 19.6219C40.5514 19.8711 40.1595 20.136 39.8081 20.4382C39.6309 20.594 39.4754 20.7405 39.3945 20.9368C39.3043 21.1393 39.239 21.3605 39.1861 21.588C38.9716 22.5009 38.8596 23.4512 38.7259 24.3984L38.7228 24.4015Z"></path>
<path fill="white" d="M48.4349 22.6473C48.4349 22.6473 48.8299 24.7972 48.662 25.4204L48.4349 22.6473Z"></path>
<path fill="#231F20" d="M48.466 22.6411C48.5997 23.0898 48.6899 23.5509 48.749 24.0152C48.7832 24.2488 48.7988 24.4825 48.8019 24.7193C48.7988 24.9561 48.7863 25.1992 48.693 25.4297L48.6277 25.411C48.637 25.1836 48.6091 24.9593 48.5904 24.7287L48.5282 24.0401C48.4784 23.5789 48.4318 23.1178 48.4038 22.6535L48.4691 22.6411H48.466Z"></path>
<path fill="#231F20" d="M45.6329 28.3617C45.8201 28.3617 45.9719 28.1929 45.9719 27.9847C45.9719 27.7765 45.8201 27.6077 45.6329 27.6077C45.4457 27.6077 45.2939 27.7765 45.2939 27.9847C45.2939 28.1929 45.4457 28.3617 45.6329 28.3617Z"></path>
<path fill="#231F20" d="M44.5662 28.1062C44.6796 28.1062 44.7715 28.0044 44.7715 27.8788C44.7715 27.7531 44.6796 27.6513 44.5662 27.6513C44.4529 27.6513 44.361 27.7531 44.361 27.8788C44.361 28.0044 44.4529 28.1062 44.5662 28.1062Z"></path>
<path fill="#231F20" d="M44.9021 27.4332C45.2267 27.4332 45.4899 27.164 45.4899 26.8319C45.4899 26.4997 45.2267 26.2305 44.9021 26.2305C44.5775 26.2305 44.3143 26.4997 44.3143 26.8319C44.3143 27.164 44.5775 27.4332 44.9021 27.4332Z"></path>
</svg>
