<svg xmlns="http://www.w3.org/2000/svg" fill="none" viewBox="0 0 60 60" height="60" width="60">
<path fill="#19114B" d="M41.3263 46.6935C43.1973 45.8591 45.6932 44.0217 46.9356 40.0178C48.3314 35.5273 48.612 32.0884 47.7925 29.5326C49.2145 28.3315 50.7225 26.7374 50.73 25.364C50.73 25.2817 50.367 17.0418 47.4146 15.7396C45.8541 15.051 42.3703 16.3757 40.5367 17.3711C39.1746 18.112 37.502 19.2907 37.2812 20.6753C37.1839 21.274 37.0941 21.9551 37.0118 22.6997C35.949 22.5164 34.8564 22.3929 33.7412 22.3367C33.0303 18.9652 30.4183 16.3346 27.6754 16.3982C26.5079 16.4169 25.3741 16.9295 24.4012 17.865C24.1093 17.3861 23.7463 16.9782 23.3197 16.6526C20.8238 14.7629 16.4756 15.7807 14.1967 18.7893C12.5689 20.9372 12.0974 23.2984 12.8571 25.3715C10.4173 27.0629 9.1824 28.8067 8.6473 29.7347C6.911 32.747 6.15137 36.3581 8.36664 37.6416C10.1441 38.6706 11.9028 37.6977 12.6325 37.0017C13.4782 36.388 14.526 35.6471 16.891 35.5124C16.9209 36.2196 16.8124 36.9007 16.5691 37.5443C16.2548 38.3713 15.9143 39.187 15.6112 39.9055C14.7019 42.0721 14.2715 43.1498 14.4774 43.9319C14.773 45.0508 15.3567 45.8516 16.2099 46.3156C17.5046 47.0153 19.3607 46.9255 22.0475 46.0274C24.1954 45.3127 26.1599 44.0966 28.0347 42.3228C31.7692 45.0396 34.1379 46.6336 35.0771 47.0677C35.6946 47.3521 36.5552 47.528 37.5431 47.528C38.6845 47.528 40.0016 47.2885 41.3226 46.701L41.3263 46.6935ZM27.4172 40.7587C25.5724 42.611 23.6565 43.8533 21.561 44.5531C19.3682 45.2828 17.819 45.4175 16.9508 44.946C16.4756 44.6878 16.165 44.2388 15.9816 43.5427C15.9255 43.1573 16.5429 41.683 17.0406 40.5005C17.3475 39.7708 17.6955 38.9438 18.0173 38.0906C18.4327 36.9905 18.5487 35.8155 18.3541 34.5918C18.2942 34.2139 17.9687 33.937 17.5907 33.937H17.587C14.1817 33.9594 12.6812 35.0521 11.6783 35.7781C11.6447 35.8005 11.6147 35.8267 11.5848 35.8566C11.5736 35.8679 10.3948 37.0242 9.14124 36.2982C7.98496 35.6284 8.68097 32.7695 9.98694 30.5056C10.4884 29.6337 11.7083 27.9311 14.2416 26.307C14.5746 26.0937 14.6944 25.6597 14.5148 25.3079C13.6728 23.639 14.0059 21.6033 15.4316 19.7211C17.1903 17.401 20.5694 16.5104 22.3842 17.8838C22.8744 18.2542 23.2337 18.8005 23.4507 19.504C23.5368 19.7847 23.7725 19.9905 24.0607 20.0391C24.3488 20.0878 24.6407 19.9718 24.8128 19.736C25.651 18.5985 26.6763 17.9623 27.7016 17.9436C27.7166 17.9436 27.7316 17.9436 27.7465 17.9436C29.8458 17.9436 31.9301 20.331 32.3155 23.1862C32.3642 23.5604 32.6823 23.8448 33.0602 23.856C34.6019 23.9009 36.1062 24.0768 37.5357 24.3761C37.7527 24.421 37.9772 24.3724 38.1531 24.2414C38.329 24.1105 38.445 23.9121 38.4637 23.6914C38.5647 22.6361 38.6807 21.7043 38.8079 20.9185C38.8753 20.4919 39.5638 19.6612 41.2777 18.7294C43.7212 17.3973 46.2134 16.8996 46.7897 17.1541C48.3314 17.8351 49.192 23.6352 49.1808 25.3528C49.1808 25.8954 48.3164 27.134 46.393 28.6757C46.1273 28.889 46.03 29.252 46.161 29.5701C47.0741 31.8265 46.8458 35.0933 45.4575 39.5538C44.3835 43.0039 42.2768 44.5718 40.6939 45.2753C38.7705 46.1322 36.7386 46.1135 35.7283 45.6458C35.2268 45.4175 33.614 44.467 28.4238 40.6764C28.2854 40.5753 28.1282 40.5267 27.9673 40.5267C27.769 40.5267 27.5669 40.6053 27.4172 40.7549V40.7587Z"></path>
<path fill="white" d="M22.8967 25.5998C20.8797 28.2641 17.4969 29.0986 15.3415 27.467C13.1861 25.8355 12.2843 22.5912 14.8139 19.2533C16.8309 16.5927 20.6964 15.6348 22.8518 17.2663C25.0072 18.8978 24.9136 22.9355 22.8967 25.5998Z"></path>
<path fill="#19114B" d="M24.7043 21.4424C24.7454 20.664 24.6631 19.8707 24.4161 19.1186C24.1691 18.3702 23.7351 17.6555 23.1027 17.1428C22.4778 16.6264 21.6919 16.342 20.9098 16.256C20.124 16.1661 19.3345 16.2485 18.5823 16.4431C17.078 16.8434 15.701 17.7153 14.7206 18.9352C14.2453 19.5452 13.8112 20.1963 13.5119 20.9185C13.2088 21.637 13.0179 22.4153 12.9917 23.2049C12.9281 24.7877 13.6129 26.4006 14.8178 27.4446C15.4053 27.9797 16.1612 28.3726 16.9508 28.5298C17.7441 28.6981 18.5673 28.6495 19.3307 28.4399C20.8724 28.0283 22.2008 27.0367 23.1401 25.7869C24.0681 24.5221 24.6107 22.9953 24.6968 21.4386L24.7043 21.4424ZM19.1698 27.7926C17.8077 28.1743 16.2922 27.9273 15.2444 26.9731C14.1593 26.0563 13.5418 24.6418 13.5792 23.2236C13.6017 21.7941 14.2453 20.4133 15.1471 19.2758C16.0415 18.1419 17.3213 17.3112 18.717 16.9295C19.413 16.7387 20.1465 16.6676 20.8537 16.7574C21.561 16.8397 22.2457 17.1016 22.7771 17.5507C23.3122 17.9922 23.6902 18.6134 23.9035 19.287C24.1205 19.9643 24.1841 20.694 24.1355 21.4124C24.0344 22.8531 23.5068 24.2676 22.6424 25.4089C21.763 26.5465 20.5431 27.4296 19.1698 27.7926Z"></path>
<path fill="#19114B" d="M20.139 23.2348C19.4467 24.9412 18.369 25.9627 17.3175 25.3865C16.266 24.8102 16.251 23.1749 16.9208 21.4611C17.5907 19.7473 18.6571 18.6696 19.8246 19.2121C20.9921 19.7547 20.8312 21.5322 20.139 23.2348Z"></path>
<path fill="white" d="M20.9677 22.5889C21.1177 21.8497 20.7664 21.1544 20.1831 21.0361C19.5998 20.9177 19.0053 21.421 18.8553 22.1603C18.7053 22.8996 19.0566 23.5948 19.6399 23.7132C20.2232 23.8315 20.8177 23.3282 20.9677 22.5889Z"></path>
<path fill="#19114B" d="M34.2128 15.0959C34.3138 14.4822 34.4673 13.4008 33.8012 12.237C32.9293 10.7178 30.4109 9.87582 29.4155 11.3689C29.0002 11.9938 29.2434 12.2819 29.685 12.4952C30.1901 12.7347 30.9385 12.8694 31.6009 13.2623C32.3343 13.7002 33.2698 14.3176 33.7974 15.4252C33.891 15.6236 33.9434 15.6086 34.0107 15.5786C34.1679 15.5076 34.2166 15.0959 34.2166 15.0959H34.2128Z"></path>
<path fill="#19114B" d="M18.7133 12.5476C18.7208 12.0088 18.762 11.0658 19.5553 10.1378C20.5918 8.92534 23.0129 8.46507 23.664 9.84962C23.9372 10.4296 23.6715 10.6542 23.2374 10.7889C22.7435 10.9423 22.0437 10.9797 21.3776 11.2491C20.6405 11.5485 19.6937 11.9826 19.0351 12.8769C18.9191 13.0378 18.8742 13.0191 18.8181 12.9854C18.6871 12.9106 18.7133 12.5514 18.7133 12.5514V12.5476Z"></path>
<path fill="#F6861F" d="M22.2683 37.0653C22.2683 37.0653 33.1538 45.3239 35.4065 46.3567C37.6592 47.3895 44.0394 46.7309 46.1985 39.7895C48.3576 32.8443 47.5119 29.4653 45.7307 27.4034C43.9495 25.3416 36.1587 21.2104 24.5248 24.0244L22.2721 37.069L22.2683 37.0653Z"></path>
<path fill="#19114B" d="M41.1467 46.2931C42.9354 45.4923 45.3228 43.7336 46.5165 39.8868C48.4024 33.821 48.2303 29.7834 45.9814 27.1789C43.9532 24.8327 36.0201 20.8886 24.4386 23.6914C24.3076 23.7213 24.2066 23.8298 24.1841 23.9608L21.9314 37.0054C21.909 37.1289 21.9614 37.2562 22.0587 37.331C22.504 37.6678 33.0003 45.6233 35.2605 46.6598C35.8143 46.9143 36.6114 47.0752 37.5394 47.0752C38.6246 47.0752 39.8894 46.8507 41.1429 46.2931H41.1467ZM24.8128 24.2976C35.8667 21.6969 43.6201 25.4763 45.4687 27.6205C46.7784 29.1397 48.249 32.0398 45.8691 39.6847C44.7465 43.292 42.5312 44.9348 40.866 45.6757C38.7293 46.6299 36.6076 46.5364 35.5374 46.0462C33.4943 45.1106 23.9933 37.9522 22.6274 36.9194L24.8053 24.2976H24.8128Z"></path>
<path fill="#F6861F" d="M16.9173 32.6535C16.9173 32.6535 18.3243 35.0933 17.2915 37.8137C16.2587 40.5341 15.0126 42.9141 15.2259 43.7261C15.8583 46.1135 17.8939 46.5887 21.8043 45.2865C24.7381 44.3098 27.2976 42.3528 29.7823 39.2656"></path>
<path fill="#19114B" d="M17.2128 32.4851C17.5346 33.0838 17.7367 33.6825 17.8751 34.3187C18.0098 34.9511 18.066 35.6022 18.0136 36.2533C17.9687 36.9007 17.8003 37.5592 17.5683 38.1467C17.3475 38.7268 17.1117 39.2993 16.876 39.8681L16.1725 41.5669C15.9517 42.1282 15.7235 42.7045 15.6187 43.2434C15.5962 43.3706 15.5813 43.5053 15.5925 43.5839C15.5925 43.6138 15.6112 43.6849 15.6336 43.7523L15.6973 43.9543C15.7384 44.0891 15.8058 44.2088 15.8544 44.336C15.918 44.4558 15.9891 44.5718 16.0602 44.6803C16.3708 45.1106 16.8236 45.3988 17.3587 45.5335C17.8938 45.6644 18.4813 45.6607 19.0688 45.5896C19.6526 45.5148 20.2438 45.395 20.8238 45.2304C21.9951 44.9086 23.1177 44.4895 24.1692 43.8982C26.2834 42.7232 28.0908 41.0393 29.7074 39.1982C29.7448 39.1533 29.8121 39.1496 29.857 39.187C29.8982 39.2244 29.9057 39.2843 29.872 39.3292C28.4014 41.305 26.6427 43.1423 24.4685 44.4184C23.3908 45.0582 22.2121 45.5597 21.0072 45.889C20.4047 46.0686 19.7873 46.1996 19.1511 46.2894C18.5187 46.3717 17.8564 46.3904 17.1903 46.237C16.528 46.0873 15.8769 45.6869 15.4653 45.1144C15.368 44.9722 15.2782 44.8225 15.1921 44.6728C15.1247 44.5157 15.0424 44.366 14.9938 44.2051L14.9152 43.9656C14.889 43.887 14.8628 43.8122 14.8478 43.6887C14.8179 43.4604 14.8478 43.2845 14.874 43.1124C15.0087 42.4388 15.2445 41.87 15.4727 41.2863L16.1837 39.5762C16.4195 39.0112 16.6515 38.4461 16.8722 37.8736C17.0855 37.316 17.239 36.7734 17.2876 36.1897C17.3924 35.0484 17.1379 33.8285 16.629 32.8181L16.6178 32.7919C16.5355 32.6273 16.5991 32.4215 16.7675 32.3391C16.9321 32.2568 17.1304 32.3204 17.2165 32.4813L17.2128 32.4851Z"></path>
<path fill="#664DA0" d="M18.5598 33.5216C18.5598 33.5216 19.1922 35.4937 18.3503 37.6042C17.5046 39.7147 16.6626 41.5445 16.5204 42.248C16.3782 42.9515 16.4568 43.7635 16.8722 43.9357C17.7179 44.2874 19.7722 43.7074 23.0652 39.6436C26.3732 35.561 27.1478 33.9445 28.1319 30.9883C28.1319 30.9883 25.2468 33.5216 18.5598 33.5216Z"></path>
<path fill="#19114B" d="M19.8358 33.8322C20.2587 33.7985 20.6853 33.7835 21.1081 33.7386C21.9538 33.6451 22.7995 33.5253 23.634 33.327C24.4647 33.1287 25.2917 32.8855 26.0888 32.5562C26.4854 32.3878 26.8821 32.2119 27.26 32.0023C27.6454 31.789 28.0047 31.5795 28.3826 31.2727L27.7764 30.8685C27.391 32.0098 26.9794 33.1212 26.4293 34.1577C25.8829 35.2018 25.2244 36.1934 24.5171 37.1551C23.8099 38.1131 23.0652 39.0673 22.3018 39.9803C21.5347 40.8896 20.7115 41.754 19.7984 42.4837C19.3419 42.843 18.8592 43.176 18.3503 43.4043C18.0996 43.524 17.8376 43.6138 17.5869 43.655C17.4597 43.6774 17.3362 43.6849 17.2239 43.6774C17.1678 43.6699 17.1079 43.6699 17.063 43.6512C17.0406 43.6437 17.0031 43.64 16.9957 43.6325C16.9882 43.6288 16.9769 43.6288 16.9657 43.6176C16.8647 43.5614 16.7674 43.277 16.7487 43.0226C16.7262 42.7569 16.7412 42.4688 16.7936 42.2031C16.9208 41.6567 17.1453 41.0805 17.3511 40.5192C17.5607 39.9541 17.789 39.3966 18.021 38.839C18.253 38.2777 18.5149 37.7463 18.7095 37.1476C18.8891 36.5526 19.0126 35.9352 19.0351 35.3103C19.05 34.9997 19.0425 34.6854 19.0201 34.371C19.0089 34.2139 18.9939 34.0567 18.9714 33.8995L18.934 33.6638L18.9116 33.544L18.9003 33.4842L18.8929 33.4542C18.8854 33.4243 18.9116 33.5029 18.9041 33.5628C18.9003 33.6226 18.8704 33.6862 18.8367 33.7237C19.2147 33.791 19.4878 33.8546 19.8396 33.8359L19.8358 33.8322ZM18.2305 33.5104C18.223 33.5777 18.253 33.6638 18.2492 33.6451L18.2567 33.6675L18.2754 33.7162L18.3091 33.8172C18.3316 33.8846 18.3503 33.9519 18.3652 34.023C18.3989 34.1615 18.4289 34.3037 18.455 34.4459C18.5037 34.7303 18.5411 35.0221 18.5449 35.3103C18.5598 35.8903 18.5037 36.4778 18.3428 37.0428C17.9836 38.158 17.5008 39.288 16.9994 40.3807C16.7524 40.9383 16.4905 41.4696 16.2996 42.0871C16.2098 42.4089 16.1687 42.727 16.1762 43.06C16.1799 43.2284 16.1986 43.4005 16.2473 43.5764C16.2959 43.7523 16.3707 43.9506 16.5616 44.119C16.6065 44.1601 16.6626 44.1938 16.7225 44.2275C16.7786 44.2574 16.8198 44.2649 16.8684 44.2836C16.962 44.3211 17.0555 44.3323 17.1491 44.351C17.3324 44.3772 17.5158 44.3734 17.6879 44.351C18.0322 44.3023 18.354 44.205 18.6459 44.0703C19.2371 43.8047 19.7573 43.4492 20.2512 43.0637C21.2279 42.2929 22.0773 41.4023 22.8706 40.4743C23.6602 39.5425 24.4086 38.5995 25.1345 37.6191C25.8568 36.6424 26.5528 35.6246 27.1178 34.5282C27.6903 33.4318 28.1094 32.268 28.4911 31.1192C28.5286 30.9957 28.5098 30.861 28.4238 30.7563C28.2928 30.5953 28.0533 30.5729 27.8924 30.7039L27.8812 30.7113C27.608 30.9359 27.245 31.1641 26.897 31.355C26.5453 31.5533 26.1748 31.7217 25.8006 31.8826C25.0485 32.1969 24.2627 32.4402 23.4656 32.6347C22.6686 32.8293 21.8528 32.9566 21.0333 33.0501C20.6254 33.0988 20.2101 33.1175 19.7984 33.1511C19.312 33.1624 18.7469 33.2372 18.2867 33.327C18.2567 33.3757 18.2305 33.443 18.2268 33.5141L18.2305 33.5104Z"></path>
<path fill="#19114B" d="M21.5199 33.7125C21.7182 35.6246 22.8521 37.3385 24.5098 38.1692C26.6315 35.359 27.3051 33.821 28.1283 31.3587C28.1283 31.3587 26.1039 33.1362 21.5199 33.7125Z"></path>
<path fill="#92509F" d="M23.0652 39.6435C24.244 38.1879 25.1009 37.0466 25.7595 36.0475C24.3712 36.2196 21.5909 36.867 20.2512 39.2918C19.4467 40.7474 19.2409 42.1731 19.2633 43.3145C20.2625 42.6746 21.531 41.537 23.0652 39.6435Z"></path>
<path fill="#19114B" d="M19.4431 43.6026C20.6106 42.8579 21.9203 41.5969 23.3273 39.8568C24.5172 38.3862 25.3816 37.2374 26.0402 36.2346C26.1113 36.126 26.1151 35.9838 26.044 35.8716C25.9729 35.7593 25.8456 35.6995 25.7147 35.7144C24.1617 35.909 21.3477 36.6088 19.952 39.1309C19.241 40.4181 18.893 41.8289 18.9229 43.3257C18.9229 43.4492 18.994 43.5577 19.1025 43.6176C19.1512 43.6438 19.2073 43.6587 19.2634 43.6587C19.3271 43.6587 19.3907 43.64 19.4468 43.6063L19.4431 43.6026ZM22.8034 39.434C21.6546 40.8522 20.5844 41.9337 19.6115 42.6634C19.6825 41.5295 19.9931 40.4518 20.5432 39.4564C21.5947 37.5555 23.5817 36.8071 25.0374 36.5077C24.4536 37.3385 23.7314 38.2889 22.8034 39.434Z"></path>
<path fill="#F6861F" d="M28.4612 29.6486C28.4612 29.6486 29.0225 31.4298 27.2413 32.4626C25.4601 33.4954 23.0166 34.8426 18.137 34.7153C14.5708 34.6218 13.1639 35.6546 12.1311 36.403C12.1311 36.403 10.537 37.9971 8.75202 36.9643C6.96707 35.9315 7.90632 32.5524 9.31332 30.1127C10.7203 27.6729 14.6607 23.639 23.5779 22.1347C32.4914 20.6341 28.4575 29.6412 28.4575 29.6412L28.4612 29.6486Z"></path>
<path fill="#19114B" d="M12.352 36.6649C13.3436 35.9464 14.7057 34.966 18.1296 35.0558C23.2113 35.1868 25.7371 33.7274 27.4098 32.7583C28.9179 31.8864 29.0002 30.4307 28.8168 29.6748C29.1199 28.9564 30.5905 25.1582 28.9403 23.029C27.9749 21.7792 26.1525 21.3676 23.5219 21.8129C13.7215 23.4631 10.118 28.0545 9.02157 29.9517C7.44618 32.6834 6.63791 36.1373 8.58375 37.2636C9.06647 37.5443 9.54545 37.6528 10.002 37.6528C11.0273 37.6528 11.9141 37.0915 12.352 36.6686V36.6649ZM28.4089 23.4406C29.9507 25.4314 28.1732 29.4728 28.1545 29.5139C28.1208 29.5888 28.1171 29.6748 28.1395 29.7534C28.1582 29.817 28.6035 31.2876 27.0731 32.1745C25.4677 33.1063 23.0429 34.5095 18.1483 34.3823C14.4774 34.2812 13.0143 35.3515 11.9366 36.1373C11.9216 36.1485 11.9104 36.1597 11.8954 36.171C11.8356 36.2271 10.4548 37.5667 8.92428 36.6799C7.46489 35.8342 8.1871 32.7582 9.60907 30.2885C10.6568 28.4736 14.1182 24.0805 23.6379 22.4752C24.289 22.3667 24.884 22.3105 25.4191 22.3105C26.8261 22.3105 27.8252 22.6885 28.4089 23.4406Z"></path>
<path fill="white" d="M22.5901 24.3462C22.6462 27.9235 24.9438 30.7899 27.7241 30.7413C30.5045 30.6964 33.2212 28.4587 33.1501 23.972C33.0939 20.3946 30.467 17.1203 27.6867 17.1653C24.9064 17.2102 22.534 20.7613 22.5901 24.3424V24.3462Z"></path>
<path fill="#19114B" d="M24.0869 19.983C24.4798 19.3319 24.97 18.7406 25.5612 18.2841C26.1487 17.8276 26.8447 17.5208 27.5669 17.4759C28.2929 17.4197 29.0226 17.648 29.6587 18.0297C30.2986 18.4114 30.8524 18.9427 31.3127 19.5452C32.2257 20.7576 32.7683 22.2581 32.8245 23.7737C32.8843 25.2967 32.5925 26.8683 31.773 28.1256C30.9684 29.3829 29.5989 30.2548 28.1133 30.3746C27.3761 30.4457 26.6501 30.3259 25.9878 30.0004C25.3255 29.6823 24.7604 29.1696 24.3039 28.5784C23.3908 27.3847 22.9343 25.8542 22.9044 24.335C22.8894 22.8157 23.301 21.2815 24.0831 19.9755L24.0869 19.983ZM23.7875 28.9826C24.2927 29.6449 24.9251 30.2286 25.6959 30.6028C26.4518 30.9845 27.3462 31.1417 28.1806 31.0481C29.8683 30.9022 31.4324 29.8956 32.323 28.4849C33.2324 27.0666 33.5242 25.3715 33.4531 23.7512C33.382 22.1047 32.7908 20.4957 31.7954 19.1822C31.294 18.5274 30.684 17.9474 29.9618 17.5208C29.2471 17.0904 28.3939 16.8322 27.5333 16.8884C26.6689 16.937 25.8568 17.3037 25.1982 17.8089C24.5322 18.3178 23.9971 18.9652 23.5667 19.6649C22.7135 21.0719 22.2682 22.7035 22.2757 24.3499C22.3057 25.9852 22.7809 27.6467 23.7875 28.9826Z"></path>
<path fill="#F6861F" d="M24.4462 32.0697L25.6099 32.384L27.3649 31.3026L28.3603 31.1978L28.6484 31.8976L28.8243 32.6011L29.0825 33.458L30.8151 33.8135C30.8151 33.8135 31.6159 27.7739 28.8954 28.3838C25.8083 29.0761 24.8353 31.325 24.5285 32.066"></path>
<path fill="#19114B" d="M30.5531 33.7723C30.613 32.7545 30.6242 31.7067 30.5045 30.7113C30.4446 30.2174 30.3323 29.7272 30.134 29.3193C29.9357 28.9077 29.6401 28.657 29.2322 28.6682C29.0413 28.6607 28.7906 28.7468 28.5474 28.8029C28.3079 28.8703 28.0684 28.9489 27.8402 29.0424C27.3762 29.222 26.9421 29.4765 26.5454 29.7758C25.7484 30.3746 25.1384 31.2015 24.7305 32.1408C24.6819 32.2493 24.5547 32.298 24.4462 32.2531C24.3414 32.2082 24.2927 32.0884 24.3302 31.9836C24.6969 30.9695 25.3293 30.0228 26.1862 29.3268C26.6128 28.9825 27.088 28.6832 27.5932 28.4699C27.8439 28.3576 28.1021 28.2641 28.364 28.1817C28.626 28.1144 28.8767 28.0096 29.2135 27.9984C29.5316 27.9797 29.8908 28.0695 30.164 28.2715C30.4409 28.4661 30.6317 28.7318 30.7702 28.9975C31.0396 29.5326 31.1369 30.0864 31.2042 30.629C31.3202 31.718 31.2529 32.7844 31.077 33.8434C31.0508 33.9894 30.9161 34.0866 30.7702 34.0642C30.6354 34.0417 30.5382 33.9183 30.5456 33.7835V33.7723H30.5531Z"></path>
<path fill="#19114B" d="M28.742 33.4655C28.5399 33.0913 28.48 32.7208 28.4014 32.3803C28.3341 32.0473 28.2705 31.6955 28.1545 31.5309C28.0983 31.456 28.0721 31.4336 27.9674 31.4149C27.8626 31.4074 27.7054 31.4336 27.552 31.4972C27.2339 31.602 26.9121 31.7891 26.5641 31.95L26.5117 31.8938C26.7138 31.5608 26.9608 31.2614 27.2975 31.0182C27.4697 30.9022 27.6643 30.7899 27.9299 30.7525C28.1956 30.7076 28.5474 30.8461 28.7158 31.0669C29.0525 31.5009 29.0825 31.9275 29.0862 32.3204C29.075 32.7171 28.9777 33.0913 28.8168 33.4543L28.742 33.4617V33.4655Z"></path>
<path fill="#19114B" d="M25.8456 24.3949C25.5837 26.2172 24.7866 27.4708 23.6266 27.1639C22.4666 26.8571 22.0587 25.2742 22.2945 23.4481C22.5265 21.6669 23.3085 20.3198 24.5696 20.5668C25.8307 20.8137 26.1076 22.5725 25.8456 24.3949Z"></path>
<path fill="white" d="M25.4636 24.9841C26.0582 24.9582 26.5137 24.3263 26.4809 23.5727C26.4481 22.8191 25.9395 22.2291 25.3449 22.255C24.7502 22.2809 24.2948 22.9127 24.3275 23.6664C24.3603 24.42 24.8689 25.0099 25.4636 24.9841Z"></path>
<path fill="#FFC60B" d="M37.6255 24.3574C37.7116 23.3471 37.8501 22.0037 38.0409 20.795C38.4114 18.4787 45.4089 15.6984 47.0966 16.443C49.2632 17.3973 49.9592 24.1217 49.9517 25.3565C49.9442 26.3669 48.6458 27.8787 46.7673 29.368C46.0002 29.9742 42.7222 29.5588 41.027 28.4661C39.3319 27.3735 37.5432 25.3116 37.6255 24.3574Z"></path>
<path fill="#19114B" d="M46.9768 29.6336C48.2116 28.657 50.2847 26.8009 50.2922 25.3603C50.2959 24.4285 49.6823 17.2139 47.235 16.1362C46.0338 15.6086 42.9317 16.5628 40.7426 17.7528C39.6948 18.3215 37.9099 19.4666 37.7078 20.7426C37.5095 21.9887 37.371 23.3807 37.2887 24.3275C37.1802 25.5773 39.2869 27.7439 40.8436 28.7505C42.0261 29.5139 43.9719 29.9854 45.4051 29.9854C46.0974 29.9854 46.6699 29.8731 46.9768 29.6336ZM46.9618 16.7536C48.8216 17.5731 49.6224 23.8335 49.6149 25.3565C49.6112 26.191 48.4661 27.5905 46.5577 29.106C45.9627 29.5775 42.8606 29.252 41.2103 28.1855C39.4666 27.0591 37.9024 25.0908 37.9623 24.3873C38.0446 23.4518 38.1793 22.0785 38.3776 20.8511C38.4899 20.1402 39.4965 19.2009 41.0681 18.3477C42.9017 17.3486 45.1357 16.6563 46.3444 16.6563C46.6026 16.6563 46.8121 16.6863 46.9656 16.7536H46.9618Z"></path>
<path fill="#19114B" d="M38.7219 24.3686C38.7032 23.8897 38.7069 23.4107 38.7406 22.9355C38.7705 22.4565 38.8154 21.9812 38.9165 21.506C38.9651 21.2703 39.0325 21.0308 39.1335 20.795C39.1896 20.679 39.257 20.5518 39.3506 20.462C39.4366 20.3684 39.5302 20.2824 39.6237 20.2038C40.0017 19.8894 40.4058 19.6275 40.8137 19.3805C41.6332 18.8829 42.4976 18.4637 43.3844 18.1045C44.2676 17.7415 45.1806 17.4422 46.1161 17.2551C45.1993 17.5207 44.3199 17.8762 43.4555 18.2654C42.5949 18.6658 41.7567 19.1074 40.9484 19.6013C40.548 19.8483 40.1551 20.114 39.8033 20.4133C39.6275 20.5705 39.4703 20.7164 39.388 20.911C39.2982 21.1131 39.2308 21.3339 39.1784 21.5621C38.9651 22.4752 38.8491 23.4219 38.7182 24.3649L38.7219 24.3686Z"></path>
<path fill="#DA538D" d="M48.4324 22.6211C48.4324 22.6211 48.829 24.7653 48.6569 25.3865L48.4324 22.6211Z"></path>
<path fill="#19114B" d="M48.466 22.6136C48.6007 23.0627 48.6906 23.523 48.7467 23.987C48.7804 24.219 48.7953 24.4547 48.7991 24.6905C48.7953 24.9262 48.7841 25.1694 48.6906 25.3977L48.627 25.379C48.6344 25.1545 48.6082 24.9262 48.5895 24.698L48.5259 24.0132C48.4773 23.5529 48.4286 23.0926 48.3987 22.6286L48.466 22.6174V22.6136Z"></path>
<path fill="#19114B" d="M45.6297 28.3277C45.8178 28.3277 45.9702 28.1585 45.9702 27.9498C45.9702 27.741 45.8178 27.5718 45.6297 27.5718C45.4416 27.5718 45.2892 27.741 45.2892 27.9498C45.2892 28.1585 45.4416 28.3277 45.6297 28.3277Z"></path>
<path fill="#19114B" d="M44.5669 28.0695C44.6806 28.0695 44.7727 27.9673 44.7727 27.8412C44.7727 27.7152 44.6806 27.613 44.5669 27.613C44.4532 27.613 44.3611 27.7152 44.3611 27.8412C44.3611 27.9673 44.4532 28.0695 44.5669 28.0695Z"></path>
<path fill="#19114B" d="M44.9 27.3959C45.2245 27.3959 45.4875 27.1279 45.4875 26.7972C45.4875 26.4665 45.2245 26.1985 44.9 26.1985C44.5755 26.1985 44.3125 26.4665 44.3125 26.7972C44.3125 27.1279 44.5755 27.3959 44.9 27.3959Z"></path>
</svg>
