<svg xmlns="http://www.w3.org/2000/svg" fill="none" viewBox="0 0 60 60" height="60" width="60">
<path fill="#231F20" d="M21.0607 56.7474C20.7248 56.7474 20.3796 56.7287 20.0095 56.6944C17.6274 56.4825 15.6153 53.9431 15.4971 52.9274C15.4598 52.6065 15.5749 52.3042 15.8112 52.0986C16.3088 51.6686 17.0614 51.8244 18.24 52.1329L18.7003 52.2513L18.579 53.0209L18.7407 52.2637L18.7811 52.2731C18.7874 52.2731 18.8402 52.2855 18.8464 52.2887L18.9086 52.3011C19.2974 52.164 20.4698 51.0797 21.6577 49.3722C21.7946 49.1759 21.9159 48.961 22.0216 48.7242C21.2939 48.6026 20.6222 48.64 20.0779 48.8394C19.2165 49.1573 18.4422 48.9859 18.0037 48.3814C17.4843 47.6617 17.6181 46.5244 18.3364 45.6208C19.3409 44.3527 20.5786 43.5893 22.1118 43.3026C22.0993 43.2684 22.09 43.2341 22.0776 43.1998C22.062 43.15 22.0434 43.1032 22.0216 43.0534C21.9967 42.9911 21.975 42.9412 21.9501 42.8945C21.9501 42.8914 21.9345 42.8602 21.9314 42.8571C21.9159 42.8259 21.891 42.7761 21.863 42.7262C21.8226 42.6514 21.7915 42.6016 21.7604 42.5486C21.7199 42.4801 21.6764 42.4146 21.6298 42.3461C21.1011 42.6732 20.5164 43.1001 19.9069 43.5457C19.5679 43.7949 19.2196 44.0473 18.8651 44.2966C17.4066 45.3186 15.522 45.6987 14.0075 46.0009C13.5224 46.0975 13.0652 46.191 12.6734 46.2907C12.0732 46.4465 11.7778 46.9014 11.3641 47.6336C11.0345 48.2194 10.6924 48.8239 10.0393 49.1261C8.49064 49.849 7.05389 47.9795 6.89528 47.7645C4.02178 44.0286 4.9423 40.7352 6.22356 38.0058C6.22978 37.9902 6.23911 37.9746 6.24533 37.959C6.07739 36.4385 6.09294 33.1233 8.70833 30.291C9.2059 29.7488 9.83098 29.5089 10.4219 29.6336C10.8946 29.7333 11.274 30.0635 11.4326 30.5185C11.8866 31.8146 12.4557 32.7213 12.9284 33.3507C13.0217 33.3133 13.1088 33.2791 13.1896 33.2417L13.6748 33.036C13.9671 32.9145 14.2781 32.7837 14.5984 32.6434C14.5642 31.7056 14.7819 30.6493 15.2359 29.5463C15.2452 29.5245 15.2546 29.5027 15.2639 29.4809C15.04 29.1413 14.8752 28.8577 14.757 28.5991C13.7649 26.4398 15.494 22.1026 16.0258 21.4296C16.0569 21.3829 16.0911 21.3143 16.1409 21.224C16.455 20.6413 17.164 19.3202 18.9771 17.3978C18.9242 17.2575 18.8744 17.108 18.8309 16.9522C18.4981 15.7464 18.7531 14.5592 19.4746 13.9267C20.5382 12.9982 21.7355 13.8208 22.3606 14.2788C23.9808 12.9484 25.8716 11.5743 27.9925 10.1878C28.8073 9.65496 29.6283 9.16265 30.4369 8.72021C30.4151 8.42732 30.4337 8.10951 30.4835 7.76989C30.6732 6.53291 31.3916 5.55454 32.309 5.27412C33.6524 4.86594 34.4081 6.09358 34.7906 6.76659C36.7436 6.08735 38.6438 5.70411 40.4506 5.62309C40.4506 5.61998 40.4568 5.61686 40.4568 5.61375C40.575 5.44238 40.69 5.26166 40.802 5.08717C41.5204 3.97794 42.2636 2.82821 43.4049 3.02139C44.4592 3.19899 45.2802 4.40481 45.6005 6.24626C45.6098 6.30234 45.6191 6.35842 45.6254 6.41451C45.6627 6.43632 45.7 6.45813 45.7342 6.48305C47.3793 7.73249 48.8223 9.62068 50.0289 12.1071C50.1004 12.0791 50.172 12.0479 50.2404 12.0199C51.0863 11.6491 52.663 10.9574 53.5306 12.3159C54.1401 13.2693 53.9784 14.7867 53.1139 16.1888C52.7656 16.7559 52.3924 17.2046 51.9975 17.5317C52.6941 20.1833 53.0921 23 53.0983 25.2963C53.9722 25.4179 55.2224 25.7139 55.3126 27.0474C55.3841 28.1068 54.5724 29.2534 53.2414 29.9732C52.862 30.1788 52.495 30.3315 52.1467 30.4312C50.8748 33.8306 48.5175 37.1209 46.7729 37.8936C45.8555 38.2986 44.7328 38.4233 43.4329 38.5666C42.416 38.6788 41.2778 38.8034 40.0618 39.0869C39.9095 40.2834 39.7167 41.7665 39.2035 43.5176C37.9782 47.7209 35.0239 50.8336 32.8688 51.6312C30.8194 52.3884 30.5333 52.5161 27.1342 54.5196C24.1643 56.2675 22.7369 56.7598 21.0513 56.7598L21.0607 56.7474ZM17.5807 53.5661C18.1592 54.2392 19.1232 55.0586 20.1464 55.149C21.9065 55.3048 22.9608 55.1708 26.3598 53.1673C29.7402 51.1763 30.1321 50.98 32.3432 50.1637C33.8857 49.5935 36.5757 47.0167 37.7295 43.069C38.2115 41.4113 38.3887 40.0373 38.5442 38.8283L38.6064 38.3454C38.6469 38.0338 38.8708 37.7783 39.1755 37.6973C40.69 37.2922 42.0646 37.1427 43.2743 37.0087C44.4467 36.8778 45.4605 36.7688 46.1572 36.4572C47.2736 35.9649 49.5966 33.0765 50.8406 29.4933C50.937 29.2192 51.1733 29.0229 51.4594 28.9824C51.7611 28.9387 52.1156 28.8079 52.5137 28.5929C53.4187 28.1037 53.7949 27.4463 53.7732 27.1378C53.7732 27.0911 53.7638 27.0755 53.7638 27.0755C53.7421 27.0474 53.5835 26.901 52.6101 26.7857C52.4857 26.7701 52.3613 26.7514 52.2338 26.7327C51.8451 26.6735 51.5372 26.3277 51.5496 25.9351C51.6336 23.5297 51.192 20.3391 50.371 17.404C50.2715 17.055 50.4301 16.6842 50.7504 16.5097C50.9868 16.382 51.363 16.0798 51.8046 15.36C52.467 14.2851 52.4204 13.4282 52.2369 13.1415C52.1934 13.073 52.0814 12.8985 50.8686 13.4313C50.7504 13.4812 50.6322 13.531 50.5109 13.5778C50.3275 13.6525 50.1533 13.7211 50.0103 13.7959C49.8206 13.8956 49.5998 13.9112 49.3976 13.8395C49.1955 13.7709 49.0338 13.6183 48.9467 13.4251C47.8023 10.8732 46.4339 8.96636 44.8759 7.76054C44.8292 7.73873 44.7515 7.70757 44.6427 7.67018C44.3472 7.56424 44.1451 7.28694 44.1295 6.97224C44.1233 6.8071 44.1078 6.65442 44.0798 6.50175C43.859 5.23984 43.4018 4.62603 43.181 4.54813C42.9198 4.6603 42.4129 5.44549 42.1081 5.91909C41.9868 6.10292 41.8687 6.28987 41.7443 6.47371C41.6541 6.60769 41.5639 6.73232 41.4737 6.85072C41.3307 7.03767 41.1099 7.14984 40.8766 7.15295C38.9454 7.19346 36.8774 7.62344 34.7316 8.43356C34.3801 8.56754 33.9821 8.42421 33.7924 8.10016L33.6773 7.9101C33.6151 7.80728 33.5529 7.70757 33.4969 7.60475C32.9776 6.68558 32.819 6.73232 32.7661 6.7479C32.4862 6.83514 32.1286 7.2994 32.0198 7.99734C31.9607 8.37124 31.9669 8.67659 32.0384 8.91027C32.1473 9.26548 31.9856 9.64872 31.6559 9.82321C30.7323 10.3093 29.7838 10.867 28.8446 11.4839C26.5744 12.9702 24.5748 14.4377 22.9048 15.8461C22.6342 16.0735 22.2486 16.0891 21.9594 15.8866L21.8008 15.7775C21.7044 15.709 21.6049 15.6435 21.5147 15.575C20.6657 14.9487 20.5413 15.0578 20.4978 15.0921C20.277 15.2852 20.1432 15.8585 20.3298 16.5378C20.3983 16.7839 20.4822 16.9927 20.5786 17.161C20.7528 17.4632 20.7061 17.8464 20.4605 18.0957C18.523 20.0742 17.8109 21.3953 17.5092 21.9593C17.3973 22.1712 17.3257 22.302 17.2262 22.4173C16.8686 22.9533 15.5376 26.5676 16.172 27.951C16.287 28.2034 16.4923 28.5337 16.7908 28.9574C16.9557 29.1911 16.9805 29.4965 16.853 29.7551C16.7908 29.8828 16.7286 30.0106 16.6758 30.1446C16.1129 31.5062 16.1036 32.4503 16.1937 33.0049C16.2528 33.3538 16.0693 33.6966 15.7459 33.8399C15.2328 34.0705 14.7321 34.2824 14.2781 34.4724L13.7992 34.6749C13.5566 34.7778 13.2705 34.8899 12.9564 35.0083C12.6454 35.1267 12.294 35.0364 12.0825 34.7809C11.1776 33.6903 10.5245 32.5468 10.0331 31.1977C9.98337 31.2257 9.92117 31.2725 9.84964 31.3504C7.61366 33.7714 7.61366 36.5569 7.81269 37.9995C7.83446 38.1647 7.80336 38.3298 7.72562 38.4762C7.69141 38.5417 7.6572 38.604 7.6261 38.6725C6.31374 41.4705 5.89702 43.9289 8.13301 46.836C8.50619 47.3376 9.14682 47.8393 9.38939 47.724C9.59464 47.6274 9.81232 47.2441 10.0207 46.8702C10.4374 46.1318 11.0096 45.1192 12.2878 44.7889C12.7231 44.6767 13.199 44.5801 13.7059 44.4804C15.1519 44.1906 16.7877 43.8635 17.9788 43.0253C18.324 42.7823 18.6661 42.533 18.9988 42.29C19.8851 41.6419 20.7248 41.0312 21.4929 40.6448C21.8163 40.4828 22.2082 40.5638 22.4383 40.8443C22.4943 40.9128 22.5503 40.9814 22.6031 41.0499C22.6063 41.053 22.6094 41.0592 22.6125 41.0624C22.7866 41.2867 22.9421 41.511 23.0758 41.726C23.1287 41.8102 23.1691 41.8818 23.2096 41.9535C23.2624 42.0501 23.2997 42.1217 23.334 42.1934C23.3837 42.2993 23.4179 42.371 23.4459 42.4427C23.4863 42.5455 23.5174 42.6234 23.5423 42.7013C23.6605 43.0534 23.7631 43.421 23.8471 43.7981C23.8968 44.0224 23.8471 44.253 23.7071 44.4368C23.5703 44.6175 23.3588 44.7297 23.1287 44.7421C23.0168 44.7484 22.9048 44.7577 22.7991 44.7702C21.4214 44.9291 20.4169 45.4899 19.5462 46.5898C19.2445 46.97 19.2103 47.3283 19.2445 47.4498C19.2849 47.4498 19.3782 47.4498 19.5368 47.3875C20.6035 46.9918 21.8941 47.0105 23.2655 47.4373C23.6667 47.562 23.8937 47.9826 23.7818 48.3877C23.5827 49.0981 23.2935 49.7306 22.9203 50.2634C22.5254 50.8304 20.4884 53.6596 19.0797 53.8497C18.9615 53.8653 18.8433 53.8653 18.7314 53.8497C18.7314 53.8497 18.7283 53.8497 18.7252 53.8497C18.7252 53.8497 18.7096 53.8497 18.7034 53.8466L18.635 53.8341C18.635 53.8341 18.5945 53.8279 18.5883 53.8247C18.5883 53.8247 18.5323 53.8123 18.5292 53.8123C18.5261 53.8123 18.4888 53.8029 18.4857 53.8029L18.3458 53.7718C18.3458 53.7718 18.2929 53.7593 18.2867 53.7593C18.2804 53.7593 18.212 53.7406 18.2058 53.7375L17.8451 53.644C17.7767 53.6253 17.6802 53.6004 17.5714 53.5724L17.5807 53.5661ZM17.2138 22.4267L17.2044 22.4391C17.2044 22.4391 17.2107 22.4329 17.2138 22.4267ZM16.06 21.3922C16.06 21.3922 16.0445 21.4109 16.0351 21.4234C16.0445 21.4109 16.0538 21.4016 16.06 21.3922Z"></path>
<path fill="white" d="M33.7207 9.58951C32.9215 9.93848 31.7957 9.9416 31.5562 9.64248C31.3168 9.34336 31.1053 8.83237 31.2515 7.87893C31.4039 6.89745 31.945 6.18704 32.5358 6.00632C33.1703 5.81314 33.5963 6.21819 34.1654 7.22149C34.4235 7.67951 34.806 8.1687 34.7159 8.56129C34.6257 8.95388 34.1685 9.39321 33.7207 9.58951Z"></path>
<path fill="#231F20" d="M32.3648 10.2563C31.8859 10.2563 31.4568 10.1535 31.2484 9.89175C30.8566 9.40257 30.726 8.70463 30.8628 7.81974C31.0307 6.72608 31.6434 5.86612 32.4239 5.62932C33.444 5.31774 34.038 6.19016 34.5138 7.03143C34.5635 7.11868 34.6195 7.20903 34.6724 7.29939C34.9367 7.7356 35.2104 8.18428 35.1046 8.65477C34.9771 9.21562 34.3925 9.73284 33.8825 9.95718C33.4751 10.1348 32.8935 10.2594 32.368 10.2594L32.3648 10.2563ZM32.8251 6.3553C32.766 6.3553 32.71 6.36776 32.6541 6.38334C32.2653 6.50174 31.7833 7.03767 31.6465 7.93814C31.5438 8.59246 31.6185 9.08475 31.8673 9.39322C31.9979 9.48358 32.8407 9.53967 33.5653 9.22497C33.9447 9.05983 34.2836 8.69217 34.3334 8.47406C34.3676 8.31827 34.153 7.96617 33.9975 7.70756C33.9384 7.61097 33.8793 7.51438 33.8265 7.41779C33.3351 6.54536 33.0583 6.3553 32.8282 6.3553H32.8251Z"></path>
<path fill="white" d="M22.5316 17.2887C21.9439 17.9337 20.9176 18.401 20.5786 18.2265C20.2397 18.0521 19.8354 17.6719 19.5804 16.7434C19.316 15.7837 19.5213 14.9144 19.9878 14.5094C20.4884 14.0732 21.042 14.2663 21.9718 14.9518C22.3948 15.2634 22.9421 15.5532 23.023 15.9489C23.1038 16.3446 22.8644 16.9335 22.5347 17.2949L22.5316 17.2887Z"></path>
<path fill="#231F20" d="M20.7652 18.6565C20.6315 18.6565 20.5071 18.6316 20.4013 18.5786C19.8416 18.292 19.4404 17.7093 19.2009 16.8462C18.9086 15.7806 19.1139 14.7431 19.7296 14.2072C20.5351 13.503 21.4307 14.0545 22.2082 14.6278C22.289 14.687 22.3761 14.7462 22.4632 14.8054C22.883 15.092 23.3184 15.3912 23.4117 15.8648C23.5267 16.4287 23.2033 17.1423 22.827 17.5567C22.3512 18.0801 21.4245 18.6597 20.7652 18.6597V18.6565ZM20.5662 14.6714C20.4262 14.6714 20.3329 14.7306 20.2489 14.8054C19.9442 15.0734 19.7234 15.7588 19.9628 16.6375C20.1401 17.2762 20.4075 17.6937 20.759 17.8745C20.9145 17.9087 21.7075 17.6096 22.2393 17.0239C22.5191 16.7185 22.6777 16.2449 22.6311 16.0237C22.6 15.8679 22.2579 15.6342 22.0091 15.4628C21.9158 15.3974 21.8225 15.3351 21.7323 15.2696C21.1166 14.8179 20.7807 14.6745 20.5599 14.6745L20.5662 14.6714Z"></path>
<path fill="white" d="M39.6108 8.06589C39.5331 8.62673 40.3727 9.33402 41.4239 9.74531C42.475 10.1535 43.9771 9.468 44.3129 9.08164C44.6488 8.69528 45.0717 7.70134 44.8416 6.37088C44.6115 5.04355 44.0486 3.90627 43.2805 3.77852C42.5123 3.65078 41.8406 4.94696 41.1004 6.04061C40.4007 7.07506 39.6886 7.50503 39.6108 8.069V8.06589Z"></path>
<path fill="#231F20" d="M42.1454 10.2657C41.8469 10.2657 41.5514 10.222 41.2809 10.1161C40.1707 9.683 39.1009 8.86666 39.219 8.01293C39.2812 7.57048 39.5798 7.24021 39.9561 6.8258C40.208 6.54849 40.491 6.23691 40.774 5.81939C40.8921 5.6449 41.0072 5.46419 41.1254 5.28659C41.8064 4.23344 42.4502 3.24573 43.3489 3.38906C44.2383 3.53862 44.9443 4.62915 45.2335 6.30546C45.4978 7.83532 44.9692 8.9352 44.6146 9.34338C44.2943 9.71104 43.2028 10.2657 42.1516 10.2657H42.1454ZM40.0027 8.12198C39.9685 8.37748 40.5438 8.97883 41.567 9.37765C42.4408 9.71728 43.7688 9.10346 44.0144 8.82304C44.2601 8.54262 44.6675 7.68265 44.4498 6.44255C44.2321 5.19 43.7252 4.25837 43.2152 4.17113C42.8296 4.11816 42.2511 4.99994 41.7878 5.71657C41.6696 5.90041 41.5514 6.08424 41.4302 6.26496C41.1161 6.72922 40.7988 7.07818 40.5438 7.3586C40.2577 7.6733 40.0338 7.92257 40.0058 8.12198H40.0027Z"></path>
<path fill="white" d="M34.4548 43.0939C35.7609 41.3646 35.2571 39.7444 38.594 38.6757C41.9308 37.6038 44.7577 37.9248 46.465 37.1707C48.1723 36.4167 51.2168 32.1262 52.1249 27.7641C53.033 23.4019 50.9587 11.4123 45.2708 7.09377C45.2708 7.09377 38.9485 3.94368 28.4185 10.8327C18.128 17.5629 16.9867 21.5262 16.6322 21.9157C16.2777 22.3052 14.6357 26.4679 15.466 28.272C16.2963 30.076 19.7887 33.3227 19.6799 35.5661C19.5741 37.8095 34.4548 43.097 34.4548 43.097V43.0939Z"></path>
<path fill="#231F20" d="M34.4548 43.4927C34.4112 43.4927 34.3646 43.4865 34.321 43.4709C30.7665 42.2059 19.173 37.9029 19.2849 35.5474C19.3471 34.245 17.9135 32.3755 16.7597 30.8705C16.0693 29.9701 15.4163 29.1195 15.1053 28.4371C14.1972 26.4586 15.9045 22.1245 16.3368 21.6477C16.3554 21.6228 16.4176 21.5044 16.4736 21.4016C18.2493 18.0988 22.1926 14.4315 28.1977 10.5025C38.7961 3.56977 45.1775 6.6077 45.445 6.74168C45.4667 6.75414 45.4885 6.76661 45.5072 6.78219C51.1889 11.0945 53.4777 23.1932 52.5106 27.8482C51.6118 32.1698 48.5548 36.6815 46.6236 37.5353C45.7591 37.9154 44.6644 38.0369 43.3956 38.1771C42.0055 38.3298 40.4319 38.5043 38.7121 39.0558C36.5477 39.7506 36.1527 40.6293 35.6521 41.7416C35.4344 42.2277 35.1856 42.7823 34.7657 43.3369C34.688 43.4366 34.5729 43.4958 34.4485 43.4958L34.4548 43.4927ZM41.1845 6.78841C38.3421 6.78841 34.0505 7.62345 28.6362 11.1661C22.7431 15.0204 18.8868 18.5911 17.1764 21.7786C17.0707 21.978 17.0054 22.0964 16.9276 22.1837C16.5731 22.6168 15.1084 26.5427 15.8299 28.1068C16.1066 28.7082 16.7317 29.5245 17.3941 30.3876C18.6878 32.0764 20.1557 33.9926 20.081 35.5848C20.0251 36.7719 27.3674 40.1339 34.3117 42.6234C34.5823 42.2183 34.7626 41.8102 34.9399 41.4145C35.4748 40.2242 35.9786 39.1025 38.4789 38.2986C40.2764 37.7222 41.8935 37.5446 43.3178 37.3857C44.5213 37.2517 45.56 37.1396 46.3126 36.8062C47.88 36.1145 50.8499 31.9767 51.7424 27.6831C52.6754 23.2025 50.4954 11.5961 45.0687 7.4365C44.8572 7.34302 43.5013 6.78841 41.1876 6.78841H41.1845Z"></path>
<path fill="white" d="M48.9591 15.2665C49.2235 16.3197 50.0818 17.4507 50.5576 17.3822C51.0334 17.3136 51.7144 16.974 52.4577 15.7682C53.201 14.5624 53.2911 13.3596 52.8806 12.724C52.4732 12.0853 51.7891 12.1788 50.5514 12.724C50.0071 12.9639 49.3696 13.1384 49.1239 13.5497C48.8783 13.961 48.8192 14.7213 48.9591 15.2696V15.2665Z"></path>
<path fill="#231F20" d="M49.2204 15.2011C49.3541 15.7433 49.6588 16.2636 50.0134 16.6842C50.1036 16.7839 50.2 16.8836 50.2995 16.9553C50.3897 17.0301 50.5078 17.0737 50.5141 17.0644C50.5016 17.0675 50.5327 17.0644 50.5669 17.055C50.5949 17.0488 50.626 17.0394 50.654 17.0332C50.7131 17.0145 50.7691 16.9927 50.825 16.9678C50.937 16.9179 51.0458 16.8494 51.1516 16.7684C51.5714 16.4505 51.9135 15.9738 52.1934 15.4784C52.4702 14.9892 52.6754 14.4533 52.7189 13.9236C52.7407 13.6619 52.7314 13.3971 52.663 13.1789C52.6008 12.9577 52.4639 12.7801 52.3302 12.7147C52.1934 12.643 51.9477 12.6493 51.6865 12.7053C51.4252 12.7614 51.1485 12.8611 50.8779 12.9671C50.3306 13.207 49.6588 13.3659 49.4132 13.6775C49.295 13.8364 49.2172 14.1199 49.1861 14.3848C49.155 14.6558 49.1644 14.9394 49.2172 15.198L49.2204 15.2011ZM48.701 15.332C48.6139 14.9986 48.5891 14.6683 48.6108 14.3349C48.6388 14.0015 48.6855 13.6681 48.9063 13.316C49.155 12.9671 49.4847 12.8206 49.7708 12.6835L50.6073 12.3127C50.8935 12.1881 51.1858 12.0666 51.5154 11.9794C51.8357 11.9015 52.2338 11.8236 52.6567 12.0136C53.0735 12.213 53.3036 12.5901 53.4124 12.9421C53.5275 13.3036 53.5368 13.6588 53.5026 14.0015C53.428 14.6839 53.1792 15.307 52.8433 15.8617C52.5044 16.4038 52.1125 16.9304 51.5434 17.3261C51.4004 17.4227 51.248 17.5099 51.08 17.5754C50.9961 17.6065 50.909 17.6377 50.8219 17.6595C50.7784 17.6688 50.7317 17.6813 50.6882 17.6875C50.6447 17.6938 50.6011 17.7031 50.5141 17.7031C50.2155 17.6813 50.0631 17.5473 49.917 17.4383C49.7739 17.323 49.6651 17.1952 49.5593 17.0675C49.1488 16.5471 48.8814 15.9645 48.7041 15.332H48.701Z"></path>
<path fill="white" d="M50.3212 27.278C50.0724 28.2221 50.259 29.5027 50.6664 29.6678C51.0738 29.833 51.7642 29.8797 52.8806 29.2752C53.9971 28.6708 54.5911 27.7703 54.5444 27.0848C54.4978 26.3993 53.9162 26.1563 52.6972 26.013C52.1623 25.9507 51.5776 25.798 51.2044 26.0067C50.8312 26.2155 50.4518 26.7826 50.3212 27.278Z"></path>
<path fill="#231F20" d="M50.5358 27.3341C50.3928 27.8233 50.4145 28.3717 50.5172 28.864C50.5483 28.9855 50.5794 29.107 50.6291 29.2067C50.6726 29.3064 50.7411 29.403 50.7691 29.4061C50.7691 29.4061 50.7691 29.4061 50.7722 29.4061C50.7784 29.4061 50.797 29.4123 50.8064 29.4186C50.8312 29.4279 50.8592 29.4341 50.8872 29.4404C50.9401 29.4528 50.9961 29.4622 51.052 29.4684C51.164 29.4778 51.2791 29.4747 51.3972 29.4591C51.8668 29.3968 52.3457 29.1755 52.7842 28.9107C53.2103 28.6458 53.6083 28.3218 53.8696 27.9292C54.0002 27.736 54.0935 27.5242 54.137 27.331C54.1806 27.1378 54.1526 26.9477 54.0779 26.8449C54.0064 26.7327 53.8167 26.6299 53.5897 26.552C53.3627 26.4741 53.1045 26.4212 52.8464 26.3775C52.3115 26.309 51.7176 26.1127 51.3755 26.2311C51.2138 26.2934 51.0209 26.4804 50.8779 26.6735C50.7317 26.873 50.6073 27.1004 50.5358 27.331V27.3341ZM50.1129 27.2219C50.1844 26.9228 50.3088 26.6517 50.4705 26.3962C50.6384 26.147 50.8219 25.9008 51.1578 25.7263C51.5092 25.5705 51.8326 25.6048 52.1187 25.6204L52.9428 25.7014C53.2258 25.7326 53.5088 25.7668 53.8105 25.8478C54.0997 25.9289 54.4449 26.0566 54.703 26.3931C54.9549 26.739 54.9798 27.1471 54.9145 27.4836C54.8523 27.8295 54.6937 28.1193 54.5133 28.3779C54.1463 28.8889 53.6674 29.2752 53.145 29.5463C52.6287 29.8112 52.0783 30.0417 51.4501 30.0729C51.2946 30.0791 51.136 30.0729 50.9743 30.0448C50.8934 30.0293 50.8157 30.0106 50.738 29.9856C50.6975 29.9732 50.6602 29.9607 50.6229 29.9451C50.6011 29.9358 50.5887 29.9327 50.5638 29.9202C50.5358 29.9046 50.5078 29.8891 50.4798 29.8704C50.2777 29.7177 50.2186 29.5557 50.1564 29.4061C50.0973 29.2534 50.0693 29.107 50.0413 28.9605C49.9512 28.3717 49.9978 27.7983 50.1222 27.2219H50.1129Z"></path>
<path fill="white" d="M40.2359 35.323C39.1381 37.1801 39.5642 39.5419 38.4695 43.2902C37.3157 47.2441 34.5728 50.1668 32.6105 50.8928C30.4958 51.6748 30.1569 51.8337 26.7516 53.8372C23.3463 55.8438 22.1241 56.1024 20.0778 55.9217C18.0315 55.741 16.3336 53.429 16.2652 52.8401C16.1967 52.2513 18.187 52.9772 18.8557 53.077C19.5243 53.1798 21.1165 51.5035 22.2952 49.8147C23.4707 48.1259 23.6293 45.3622 22.8176 42.9474C22.0028 40.5327 18.0284 38.2799 16.4828 35.5567C14.7631 32.5313 16.6259 28.3592 18.215 25.7419C19.6176 23.43 22.037 22.1961 22.9669 21.9687"></path>
<path fill="#231F20" d="M40.3261 35.376C40.1333 35.725 39.984 36.0927 39.8721 36.4759C39.7663 36.8623 39.6886 37.2548 39.6264 37.6537C39.5082 38.4513 39.4336 39.2645 39.3247 40.0747C39.1102 41.6949 38.7681 43.312 38.1616 44.8543C37.5397 46.3842 36.6751 47.8237 35.5649 49.0669C35.0083 49.687 34.3832 50.2509 33.6648 50.7089C33.4907 50.8305 33.2916 50.9239 33.105 51.0268C32.906 51.114 32.7007 51.2075 32.5173 51.2729C32.1379 51.4162 31.7616 51.5596 31.3915 51.7153C29.9268 52.3198 28.5615 53.2078 27.1528 54.0148C26.4499 54.4261 25.7409 54.8374 25.0039 55.2082C24.2668 55.579 23.4987 55.9217 22.6684 56.1273C21.8349 56.3361 20.9579 56.3517 20.1369 56.2769C19.7016 56.2364 19.2506 56.1242 18.8495 55.9466C18.4483 55.7628 18.0813 55.5291 17.7424 55.2643C17.4034 54.9994 17.0986 54.7003 16.8156 54.3794C16.5357 54.0553 16.2776 53.7157 16.0693 53.3044C16.0195 53.1922 15.9698 53.0894 15.9355 52.9212C15.9169 52.8557 15.9076 52.6719 16.0071 52.5317C16.1035 52.3915 16.2341 52.3354 16.3181 52.3105C16.4953 52.2606 16.6166 52.27 16.741 52.2731C16.8623 52.2793 16.9711 52.2949 17.08 52.3136C17.5091 52.3852 17.9041 52.4974 18.299 52.5971C18.4918 52.647 18.6909 52.6999 18.865 52.7342C18.9179 52.7467 18.9241 52.7342 18.9365 52.7373C18.9428 52.7467 18.9832 52.7249 19.0081 52.7218C19.0672 52.7062 19.1418 52.6719 19.2164 52.6283C19.5181 52.4569 19.8166 52.1952 20.0965 51.9272C20.6594 51.3788 21.1756 50.765 21.6546 50.1263C21.7758 49.9674 21.8909 49.8054 22.006 49.6402C22.1086 49.4782 22.2143 49.3255 22.2983 49.1541C22.4787 48.8208 22.6155 48.4593 22.7181 48.0885C22.9296 47.347 23.0042 46.5587 22.9918 45.7735C22.9669 44.9883 22.8487 44.2062 22.6373 43.4491C22.5782 43.2653 22.5315 43.0627 22.4538 42.9007L22.3481 42.6421L22.2081 42.3928C22.0246 42.0594 21.7852 41.751 21.5364 41.4456C20.5132 40.2398 19.2444 39.2022 18.0969 38.0276C17.5216 37.4418 16.9618 36.8218 16.4984 36.1145C16.0288 35.4134 15.7023 34.5784 15.5903 33.7371C15.4691 32.8927 15.5282 32.039 15.6805 31.2195C15.8329 30.3969 16.0817 29.6024 16.3834 28.8328C16.685 28.0632 17.0426 27.3185 17.4376 26.5957C17.8294 25.8821 18.2617 25.1593 18.8184 24.5267C19.3595 23.8911 20.0063 23.3521 20.6936 22.8909C21.3871 22.436 22.1241 22.0528 22.9451 21.844C23.0136 21.8253 23.0851 21.869 23.1037 21.9375C23.1193 22.0029 23.082 22.0715 23.0167 22.0933H23.0073C22.261 22.3301 21.5706 22.7694 20.9206 23.2212C20.28 23.6948 19.686 24.2307 19.1791 24.8383C18.666 25.4366 18.2773 26.1314 17.8916 26.8449C17.5122 27.5522 17.167 28.2813 16.8809 29.026C16.3181 30.5122 15.9293 32.1106 16.1532 33.6592C16.3429 35.2202 17.3972 36.4759 18.526 37.6069C19.6549 38.7504 20.93 39.7724 22.0246 41.0406C22.2921 41.3646 22.5533 41.698 22.7679 42.075L22.9296 42.3586L23.0602 42.6639C23.1566 42.8695 23.2002 43.069 23.2686 43.2684C23.5018 44.0754 23.6355 44.9135 23.6666 45.7548C23.6853 46.5961 23.6169 47.4498 23.3805 48.2724C23.2686 48.6837 23.1131 49.0887 22.9109 49.472C22.8176 49.6651 22.6901 49.849 22.5751 50.0297C22.4538 50.1979 22.3356 50.3662 22.2112 50.5313C21.7136 51.195 21.185 51.8275 20.5817 52.4164C20.2769 52.7062 19.9628 52.9897 19.5585 53.2265C19.4559 53.2857 19.3439 53.3387 19.2102 53.3792C19.1356 53.3948 19.0827 53.4228 18.9832 53.4197C18.893 53.4228 18.7966 53.4197 18.7531 53.4072C18.5292 53.3636 18.3332 53.3106 18.1342 53.2608C17.7424 53.158 17.3536 53.052 16.9805 52.9897C16.8063 52.9586 16.5886 52.9461 16.5326 52.9679C16.5202 52.9679 16.5575 52.9679 16.5948 52.9118C16.6353 52.8557 16.6197 52.7841 16.629 52.8152C16.6353 52.8495 16.6664 52.9305 16.7006 53.0053C17.0364 53.644 17.5869 54.2516 18.1809 54.7221C18.4825 54.9558 18.8059 55.1583 19.1449 55.3141C19.4901 55.4668 19.8353 55.5509 20.2054 55.5852C20.9984 55.6568 21.7665 55.6382 22.516 55.4512C23.2623 55.2643 23.9901 54.9433 24.7022 54.5819C25.4144 54.2205 26.111 53.8185 26.8107 53.4072C27.5104 52.9959 28.2132 52.5815 28.9285 52.1858C29.6407 51.7901 30.3839 51.4069 31.1552 51.1015C31.5377 50.9489 31.9233 50.8055 32.3058 50.6684C32.5048 50.5999 32.6697 50.5251 32.8438 50.4534C33.0117 50.3631 33.1859 50.2852 33.3476 50.1761C34.0038 49.768 34.604 49.2414 35.1482 48.6681C36.2366 47.5121 37.1074 46.1443 37.748 44.6767C38.37 43.2029 38.7525 41.6201 39.0044 40.0248C39.1319 39.224 39.2283 38.417 39.3683 37.61C39.4398 37.205 39.53 36.8031 39.6513 36.4073C39.7788 36.0116 39.9467 35.6284 40.1582 35.2701C40.1893 35.2202 40.2546 35.2015 40.3043 35.2327C40.3541 35.2607 40.3696 35.3262 40.3448 35.376H40.3261Z"></path>
<path fill="white" d="M20.7963 31.9891C19.8758 34.2201 18.0845 35.5972 16.797 35.0613C15.5096 34.5285 14.8005 32.6341 15.9543 29.8392C16.8748 27.6083 18.9211 26.0348 20.2085 26.5707C21.496 27.1067 21.7168 29.7582 20.7963 31.9891Z"></path>
<path fill="#231F20" d="M21.0202 32.0795C20.6532 32.9955 20.137 33.8742 19.3875 34.5752C19.0143 34.9211 18.5727 35.2233 18.0503 35.3822C17.7922 35.4695 17.5092 35.5006 17.2231 35.482C16.9339 35.4601 16.654 35.348 16.4176 35.2171C15.9418 34.9304 15.5811 34.4818 15.382 33.9926C15.1799 33.5003 15.1022 32.98 15.1084 32.4721C15.1146 31.9642 15.1955 31.4657 15.3292 30.9889C15.4567 30.5091 15.6308 30.048 15.8392 29.5993C16.2528 28.6988 16.8623 27.9012 17.6025 27.25C17.9788 26.9322 18.3986 26.6517 18.8744 26.4804C19.3409 26.3183 19.9038 26.2436 20.3796 26.5053C20.8647 26.7546 21.1228 27.2468 21.2877 27.708C21.4525 28.1816 21.5147 28.6801 21.5302 29.1724C21.5582 30.1633 21.3654 31.1479 21.0171 32.0764L21.0202 32.0795ZM20.5755 31.8956C20.9393 31.0419 21.1695 30.1134 21.1819 29.1787C21.1912 28.7113 21.1446 28.2439 21.0109 27.8046C20.8834 27.3684 20.6377 26.9477 20.2552 26.7483C19.8789 26.5271 19.3938 26.5863 18.9739 26.7483C18.5479 26.9103 18.1591 27.1783 17.8108 27.4868C17.1173 28.1099 16.5731 28.9076 16.2186 29.7675C16.0382 30.1975 15.8889 30.6493 15.7925 31.1011C15.6868 31.5529 15.6308 32.014 15.6464 32.469C15.6619 32.9207 15.7397 33.3663 15.9138 33.762C16.088 34.1577 16.3741 34.4818 16.7255 34.6843C17.0831 34.8775 17.4656 34.9118 17.8699 34.7809C18.2649 34.6563 18.6474 34.4195 18.9895 34.1266C19.6705 33.5346 20.1961 32.7431 20.5755 31.8956Z"></path>
<path fill="#231F20" d="M16.825 30.4686C16.2403 31.852 16.2901 33.304 17.0178 33.5408C17.7455 33.7776 18.5852 32.821 19.1823 31.4438C19.7669 30.1009 19.8944 28.8484 19.1387 28.5306C18.383 28.2127 17.4096 29.0883 16.825 30.4717V30.4686Z"></path>
<path fill="white" d="M19.9011 30.4715C19.9693 29.8142 19.7157 29.2493 19.3347 29.2096C18.9538 29.17 18.5897 29.6706 18.5216 30.3279C18.4534 30.9852 18.707 31.5501 19.088 31.5898C19.4689 31.6294 19.833 31.1287 19.9011 30.4715Z"></path>
<path fill="white" d="M21.3031 25.1281C21.2347 25.5737 20.4883 29.4404 19.1387 30.8332C17.789 32.2259 15.1643 33.2417 13.4974 33.9521C11.8305 34.6625 8.17333 35.6814 6.92939 38.3329C5.68545 40.9845 4.90799 43.9009 7.52337 47.3002C7.52337 47.3002 8.702 48.8955 9.71892 48.4188C10.7358 47.9421 10.826 45.9636 12.4867 45.5336C14.1442 45.1036 16.6632 44.8917 18.4296 43.6516C20.1929 42.4115 21.8225 41.0312 22.97 40.9783C24.1175 40.9253 26.6956 40.5483 32.8313 44.8543L34.5666 45.9418"></path>
<path fill="#231F20" d="M21.4524 25.1499C21.2441 26.4336 20.9393 27.6893 20.4759 28.9076C20.2396 29.5152 19.969 30.1165 19.571 30.6649C19.148 31.2164 18.6194 31.6152 18.0814 31.9891C16.9898 32.7182 15.8018 33.2448 14.6232 33.7558C14.0354 34.0019 13.4446 34.2668 12.8413 34.4942C12.2442 34.7248 11.6502 34.9554 11.0749 35.214C9.93044 35.7312 8.81711 36.3637 7.98678 37.2673C7.78153 37.4917 7.59183 37.7316 7.43323 37.9871C7.27463 38.2426 7.15024 38.5168 7.01651 38.8096C6.75839 39.3861 6.53449 39.975 6.36655 40.5732C6.02447 41.7697 5.95605 43.0347 6.27326 44.2218C6.58113 45.4027 7.24353 46.5213 8.03654 47.4311C8.24179 47.6492 8.46881 47.8455 8.70827 47.9919C8.94773 48.1384 9.20274 48.2194 9.41421 48.182C9.84959 48.1259 10.1668 47.5433 10.4716 46.9918C10.7825 46.4372 11.1744 45.7984 11.8399 45.4401C12.0016 45.3529 12.1726 45.2812 12.3499 45.2313C12.5178 45.1846 12.6702 45.1472 12.8319 45.1129C13.1491 45.0382 13.4663 44.9758 13.7804 44.9135C15.0306 44.658 16.2745 44.4025 17.3816 43.8666C17.6584 43.7389 17.9196 43.58 18.1715 43.4148C18.4266 43.2403 18.6878 43.0472 18.9459 42.8633C19.4621 42.4863 19.9753 42.1031 20.5164 41.7354C21.0575 41.374 21.6079 41.0063 22.2797 40.7695C22.4476 40.7103 22.6249 40.6636 22.8177 40.6449C23.0229 40.6199 23.1411 40.6199 23.3183 40.6106C23.6449 40.595 23.9839 40.5888 24.3197 40.6168C25.6632 40.7134 26.932 41.1434 28.1231 41.6668C29.3173 42.1965 30.4461 42.8446 31.5377 43.5394C32.0975 43.8697 32.5981 44.2686 33.1144 44.6487C33.6368 45.0163 34.1469 45.3996 34.6258 45.842C34.6724 45.8857 34.6755 45.9604 34.632 46.0072C34.5978 46.0446 34.548 46.0539 34.5045 46.0383C33.2916 45.5585 32.1876 44.8761 31.1365 44.172C30.0698 43.4865 28.9721 42.8477 27.8276 42.3367C26.6832 41.8289 25.489 41.4145 24.2731 41.3179C23.9683 41.2898 23.6667 41.2929 23.3557 41.3054C23.2126 41.3148 23.0105 41.3148 22.8985 41.3335C22.771 41.3459 22.6373 41.3802 22.5036 41.4269C21.9593 41.6108 21.4244 41.9535 20.9051 42.3025C20.3826 42.6546 19.8695 43.0347 19.3471 43.4117C19.0858 43.5987 18.8277 43.7887 18.5541 43.9725C18.2711 44.1595 17.9787 44.3309 17.6771 44.4711C16.4642 45.0475 15.1705 45.2999 13.9173 45.5523C13.6032 45.6146 13.2891 45.6769 12.9843 45.7454C12.8319 45.7797 12.6733 45.8171 12.5334 45.8545C12.3997 45.8888 12.2753 45.9417 12.154 46.0072C11.6688 46.2627 11.3361 46.7612 11.0282 47.3127C10.8696 47.5869 10.7141 47.8798 10.4964 48.1664C10.2819 48.4469 9.95843 48.7397 9.52305 48.8052C9.09078 48.8706 8.70827 48.7117 8.40662 48.5279C8.09874 48.3378 7.84062 48.1072 7.60738 47.8611C7.49232 47.7365 7.38037 47.6087 7.27463 47.4685C7.17822 47.3345 7.07871 47.2099 6.98541 47.0697C6.79571 46.7986 6.62156 46.5182 6.45985 46.2284C6.13953 45.6489 5.87831 45.0288 5.71348 44.3776C5.36829 43.0783 5.45537 41.6855 5.82544 40.4236C6.00581 39.788 6.24527 39.1773 6.51272 38.5853C6.64333 38.2955 6.78638 37.984 6.96986 37.6942C7.15024 37.4075 7.3617 37.1396 7.58872 36.8934C8.50924 35.9057 9.68476 35.2576 10.8665 34.7279C11.4605 34.4631 12.0638 34.2325 12.6609 34.0051C13.2549 33.7838 13.8364 33.5252 14.4304 33.2791C15.6028 32.7837 16.7659 32.254 17.8232 31.5841C18.3395 31.2444 18.8526 30.8581 19.2196 30.3969C19.5834 29.914 19.8602 29.3407 20.0965 28.758C20.5568 27.5865 20.9082 26.3433 21.157 25.1063V25.0969C21.1757 25.0128 21.2565 24.9599 21.3405 24.9785C21.4213 24.9941 21.4742 25.072 21.4618 25.153L21.4524 25.1499Z"></path>
<path fill="#231F20" d="M31.2143 23.9223C31.2671 23.3396 31.3355 22.3145 30.6296 21.2645C29.7091 19.8966 27.2865 19.2766 26.4562 20.7472C26.111 21.3611 26.3567 21.6197 26.7858 21.7848C27.2741 21.9749 27.9862 22.0497 28.6331 22.3737C29.3515 22.7351 30.272 23.2524 30.8442 24.2557C30.9468 24.4333 30.9935 24.4177 31.0525 24.3865C31.1956 24.3117 31.2112 23.9192 31.2112 23.9192L31.2143 23.9223Z"></path>
<path fill="#231F20" d="M18.4172 21.3081C18.495 20.847 18.6442 20.04 19.3098 19.3576C20.1774 18.4665 21.8971 18.4322 22.1615 19.7221C22.2734 20.2612 22.062 20.417 21.7448 20.4668C21.3871 20.5229 20.902 20.4512 20.4106 20.5852C19.8664 20.7317 19.1636 20.9654 18.5914 21.6384C18.4888 21.7568 18.4608 21.7381 18.4266 21.7007C18.3488 21.6166 18.411 21.3081 18.411 21.3081H18.4172Z"></path>
<path fill="white" d="M20.4262 32.2664C20.2458 34.7996 21.5364 36.7875 23.9994 37.043C26.7827 37.3296 29.8677 35.5879 29.7744 31.5841C29.706 28.5991 27.1342 26.0441 24.7458 26.4025C22.0993 26.8013 20.3298 29.6211 20.4262 32.2664Z"></path>
<path fill="#231F20" d="M20.6688 32.2695C20.6315 32.9332 20.6906 33.5532 20.8709 34.1577C21.0513 34.7559 21.3623 35.3074 21.7946 35.7343C22.656 36.6161 23.987 36.8747 25.2216 36.7189C26.4593 36.5787 27.666 36.0054 28.4465 35.0301C29.2427 34.0642 29.5599 32.7618 29.5194 31.4906C29.4821 30.2287 28.9566 28.9823 28.1107 28.032C27.6877 27.5584 27.1777 27.1565 26.6086 26.8885C26.0395 26.6206 25.4051 26.4928 24.7862 26.5769C23.5236 26.7577 22.4165 27.574 21.7013 28.6303C20.986 29.6959 20.6097 30.9733 20.6688 32.2664V32.2695ZM20.1806 32.2602C20.1495 30.9017 20.5848 29.5151 21.3716 28.4028C22.1429 27.2842 23.3495 26.4025 24.7334 26.2155C25.43 26.1096 26.1453 26.2404 26.7734 26.524C27.4079 26.8075 27.9645 27.2344 28.431 27.736C29.3608 28.7455 29.9548 30.076 30.0201 31.4656C30.0885 32.8241 29.7744 34.273 28.8913 35.3822C28.0236 36.5008 26.6739 37.18 25.2932 37.339C24.5997 37.4137 23.8968 37.3857 23.2096 37.1987C22.5254 37.0149 21.8754 36.6566 21.3779 36.1394C20.364 35.0956 20.0624 33.5782 20.1806 32.254V32.2602Z"></path>
<path fill="white" d="M23.4552 53.859C25.9369 52.9741 29.6314 49.5218 31.4195 47.4467C32.1472 46.6023 32.6386 45.7205 32.9651 44.9696L32.8283 44.8574C26.6895 40.5514 24.1114 40.9284 22.967 40.9813C22.6311 40.9969 22.2548 41.1278 21.8474 41.3334C22.289 41.8694 22.6342 42.4053 22.8177 42.9505C23.6325 45.3653 23.4739 48.129 22.2952 49.8178C21.1197 51.5066 19.5244 53.1829 18.8557 53.0801C18.666 53.052 18.3706 52.971 18.0441 52.8869C18.1685 52.9585 18.3115 53.024 18.4763 53.0832C21.213 54.0802 23.4521 53.8621 23.4521 53.8621L23.4552 53.859Z"></path>
<path fill="#231F20" d="M22.8674 54.2329C21.9967 54.2329 20.308 54.1208 18.3582 53.4103C18.1809 53.3449 18.0161 53.2701 17.873 53.1891C17.7206 53.1019 17.6522 52.9149 17.7206 52.7498C17.7859 52.5847 17.9632 52.4974 18.1343 52.541L18.2027 52.5597C18.4857 52.6345 18.7531 52.7031 18.9086 52.728C19.2476 52.7841 20.6252 51.5907 22.006 49.6122C23.0882 48.0574 23.2811 45.4245 22.4818 43.0596C22.3263 42.6016 22.0309 42.1093 21.5737 41.5547C21.5053 41.4705 21.4773 41.3615 21.5022 41.2587C21.524 41.1527 21.5924 41.0655 21.6888 41.0156C22.1739 40.7695 22.5876 40.6449 22.9514 40.6262L23.1193 40.6168C24.4068 40.5452 27.0844 40.3925 33.0304 44.5677L33.189 44.6985C33.3103 44.7982 33.3508 44.9665 33.2854 45.1129C32.8687 46.0633 32.3307 46.9263 31.6839 47.6804C29.9455 49.7025 26.2043 53.2577 23.5703 54.1955C23.5423 54.2049 23.5143 54.2111 23.4863 54.2142C23.4583 54.2142 23.2375 54.236 22.8643 54.236L22.8674 54.2329ZM19.7483 53.1081C21.6453 53.6035 23.1193 53.5287 23.3806 53.5132C25.7534 52.6439 29.3453 49.3162 31.1521 47.2161C31.6963 46.5836 32.1597 45.8638 32.5297 45.0755C26.8574 41.1122 24.3602 41.2555 23.1598 41.321L22.9825 41.3303C22.8146 41.3366 22.6218 41.3833 22.401 41.4674C22.7555 41.9504 23.0012 42.3991 23.1504 42.8322C24.015 45.3996 23.788 48.2848 22.5844 50.0141C22.5036 50.1294 20.9984 52.2731 19.7483 53.105V53.1081Z"></path>
<path fill="#231F20" d="M32.9651 44.9696L32.8283 44.8574C30.4431 43.1842 28.5927 42.2152 27.1591 41.6637C26.0644 43.7326 26.5495 45.68 27.4234 46.5556C28.2568 47.3906 29.3017 47.8112 30.6141 48.3378C30.9095 48.0231 31.1832 47.724 31.4196 47.4467C32.1473 46.6023 32.6386 45.7205 32.9651 44.9696Z"></path>
<path fill="white" d="M32.8282 44.8543C32.0383 44.2997 31.3106 43.8261 30.6327 43.4148C30.188 43.9009 29.538 44.1003 28.546 44.2343C27.1217 44.4244 24.4814 43.7887 22.7181 43.9913C20.9548 44.1938 19.8135 45.0039 18.949 46.0975C18.0813 47.1943 18.4047 48.6276 19.8166 48.1072C21.2254 47.5869 23.1597 47.9515 24.9292 49.0295C26.0519 49.7119 27.0781 50.6342 27.6255 51.1607C29.1088 49.9113 30.5114 48.4998 31.4226 47.4436C32.1503 46.5992 32.6416 45.7174 32.9682 44.9665L32.8313 44.8543H32.8282Z"></path>
<path fill="#231F20" d="M27.6223 51.3601C27.5726 51.3601 27.5228 51.3414 27.4855 51.3041C26.9724 50.8118 25.943 49.8801 24.8235 49.2009C23.0726 48.1353 21.2254 47.7988 19.8819 48.2942C19.2693 48.5216 18.7561 48.4282 18.4731 48.0387C18.1093 47.5339 18.243 46.6677 18.7903 45.976C19.8197 44.6767 21.0605 43.985 22.6932 43.7949C23.6262 43.6859 24.7768 43.8074 25.887 43.9227C26.8977 44.0286 27.8556 44.1252 28.518 44.038C29.5629 43.8978 30.1164 43.6859 30.4865 43.2808C30.5518 43.2123 30.6544 43.1967 30.7353 43.2466C31.4381 43.6734 32.1814 44.1595 32.9402 44.6923C32.9433 44.6923 32.9495 44.6985 32.9526 44.7016L33.0894 44.8138C33.1579 44.8699 33.1796 44.9665 33.1454 45.0475C32.7349 45.9822 32.2062 46.8329 31.5656 47.5744C30.5394 48.7678 29.1119 50.1668 27.7467 51.3134C27.7094 51.3446 27.6659 51.3601 27.6192 51.3601H27.6223ZM21.2254 47.6741C22.4102 47.6741 23.7506 48.0823 25.0287 48.8613C26.0923 49.5093 27.0719 50.3693 27.6317 50.8959C28.9378 49.7835 30.2906 48.4562 31.2702 47.3158C31.8517 46.6397 32.34 45.8701 32.7256 45.0226L32.71 45.0101C32.0072 44.5178 31.3199 44.066 30.6638 43.6641C30.1631 44.1315 29.4602 44.3122 28.5708 44.4275C27.8587 44.524 26.8822 44.4212 25.8466 44.3122C24.7582 44.2 23.6324 44.0816 22.7399 44.1844C21.216 44.362 20.0623 45.007 19.1013 46.219C18.61 46.8422 18.5758 47.4997 18.7935 47.8019C18.9645 48.0387 19.3035 48.0823 19.7451 47.9172C20.196 47.752 20.6936 47.6679 21.2254 47.6679V47.6741Z"></path>
<path fill="white" d="M7.37414 39.4359C7.85928 40.4797 10.1419 40.3613 11.5071 39.7319C13.2269 38.9374 14.3495 37.5571 14.3495 36.5195C14.3495 35.4851 12.0358 34.5565 10.7079 30.7708C10.5431 30.3003 9.87135 30.1757 9.28359 30.8145C6.01203 34.3571 7.05694 38.7536 7.37414 39.4359Z"></path>
<path fill="#231F20" d="M7.63846 39.3113C7.79085 39.6696 8.3133 39.8597 8.8171 39.922C9.33333 39.9781 9.87755 39.9469 10.3969 39.8285C11.4387 39.6197 12.4059 39.0371 13.1522 38.2831C13.5192 37.9029 13.8333 37.4636 13.9857 36.9931C14.0603 36.7625 14.0914 36.5039 14.023 36.3513C13.9515 36.1643 13.7897 35.9587 13.6063 35.7624C13.2455 35.3635 12.835 34.9616 12.465 34.5285C12.0887 34.0954 11.7466 33.6311 11.4387 33.142C11.1246 32.659 10.8696 32.1387 10.6301 31.6152L10.3347 30.8643C10.2881 30.7833 10.1948 30.7366 10.033 30.7708C9.87445 30.8113 9.70029 30.9266 9.54791 31.1042L9.0379 31.7211L8.58386 32.3786C8.45635 32.6123 8.31952 32.8428 8.19824 33.0796C7.73176 34.0362 7.44254 35.0831 7.33681 36.155C7.29638 36.6909 7.28394 37.233 7.3337 37.7689C7.38345 38.2955 7.47053 38.8657 7.64157 39.3113H7.63846ZM7.10668 39.5605C6.96984 39.2521 6.90765 38.9841 6.83923 38.6943C6.77703 38.4108 6.73039 38.1241 6.69307 37.8375C6.62154 37.2642 6.61532 36.6815 6.6402 36.1051C6.71484 34.9491 6.9854 33.7932 7.49541 32.74C7.62913 32.4814 7.7753 32.2259 7.91524 31.9704L8.40971 31.2475L8.9757 30.5808C9.19028 30.344 9.48571 30.1103 9.87444 30.023C10.0673 29.9825 10.2912 29.9825 10.5026 30.0666C10.7141 30.1477 10.9069 30.3128 11.0095 30.5184C11.0313 30.5652 11.0593 30.6306 11.0717 30.6649L11.1091 30.7615L11.1806 30.9515L11.3236 31.3317C11.5382 31.8271 11.759 32.3225 12.042 32.7836C12.3188 33.2479 12.6236 33.6935 12.9687 34.1172C13.3108 34.5441 13.6871 34.9367 14.0634 35.376C14.2469 35.5941 14.4459 35.834 14.5672 36.1736C14.6885 36.5538 14.6014 36.8778 14.5112 37.1738C14.3029 37.7658 13.9328 38.2457 13.5223 38.6601C13.1056 39.0714 12.6329 39.4141 12.126 39.6945C11.8772 39.841 11.6191 39.9656 11.3423 40.0778C11.0686 40.1806 10.7887 40.2709 10.5057 40.3301C9.93975 40.4579 9.3551 40.5109 8.76112 40.4641C8.46257 40.4361 8.16092 40.3738 7.86548 40.2491C7.57316 40.1245 7.26839 39.9064 7.10668 39.5668V39.5605Z"></path>
<path fill="#231F20" d="M20.2707 32.4347C20.1681 34.1172 20.5631 35.4103 21.4836 35.3916C22.4041 35.3729 22.9701 34.0487 23.0883 32.3661C23.2033 30.7241 22.8395 29.3531 21.8505 29.2939C20.8647 29.2378 20.3702 30.749 20.2676 32.4316L20.2707 32.4347Z"></path>
<path fill="white" d="M23.1304 33.0445C23.867 32.9004 24.3438 32.166 24.1953 31.4043C24.0469 30.6426 23.3294 30.142 22.5927 30.2861C21.8561 30.4303 21.3793 31.1646 21.5277 31.9263C21.6762 32.688 22.3937 33.1886 23.1304 33.0445Z"></path>
</svg>
