<svg xmlns="http://www.w3.org/2000/svg" fill="none" viewBox="0 0 60 60" height="60" width="60">
<path fill="#19114B" d="M27.1384 54.428C30.537 52.4293 30.8252 52.302 32.8727 51.5459C35.0286 50.7524 37.9819 47.642 39.2096 43.4461C39.7224 41.6981 39.9133 40.2159 40.0667 39.0219C41.2794 38.7374 42.4173 38.6139 43.4354 38.5016C44.7342 38.3594 45.8571 38.2358 46.7742 37.8316C48.5184 37.0605 50.8765 33.7742 52.1491 30.383C52.4972 30.2857 52.864 30.1322 53.2458 29.9264C54.5746 29.2077 55.3868 28.0624 55.3157 27.0068C55.2259 25.6781 53.9757 25.3786 53.1036 25.2589C53.0961 22.9644 52.6993 20.1572 51.9994 17.5071C52.3924 17.1815 52.7667 16.7323 53.1148 16.1671C53.9794 14.771 54.1404 13.2513 53.5303 12.3006C52.6619 10.9456 51.0861 11.6343 50.2364 12.0049C50.1691 12.0348 50.0979 12.0648 50.0268 12.0947C48.8216 9.61312 47.3768 7.72665 45.7336 6.48023C45.6999 6.45403 45.6625 6.43157 45.6251 6.40911C45.6176 6.35297 45.6101 6.29684 45.5989 6.24069C45.277 4.39914 44.4573 3.19762 43.4017 3.0217C42.2601 2.82707 41.5153 3.97617 40.8003 5.0841C40.6843 5.26002 40.572 5.4397 40.456 5.61187C40.456 5.61187 40.4522 5.61935 40.4485 5.62309C38.6444 5.70544 36.7429 6.08722 34.7891 6.7647C34.4073 6.09096 33.6512 4.86701 32.3075 5.27499C31.3904 5.55572 30.6718 6.53263 30.4809 7.76782C30.4285 8.10469 30.4135 8.42286 30.4322 8.71856C29.6237 9.16023 28.804 9.6543 27.9881 10.1858C25.8695 11.5707 23.9756 12.9406 22.3548 14.2694C21.7335 13.8128 20.532 12.9893 19.469 13.9176C18.7466 14.5501 18.4921 15.7329 18.8252 16.9382C18.8701 17.0954 18.915 17.2413 18.9712 17.3836C17.1558 19.3037 16.4484 20.6213 16.134 21.2014C16.0853 21.2913 16.0516 21.3624 16.0217 21.4073C15.4902 22.081 13.7609 26.408 14.7528 28.5639C14.8726 28.8184 15.0335 29.1067 15.2581 29.4435C15.2469 29.466 15.2394 29.4884 15.2319 29.5109C14.7753 30.6113 14.5619 31.6631 14.5956 32.6026C14.2737 32.7411 13.963 32.8721 13.6711 32.9956L13.1882 33.2015C13.1059 33.2352 13.0198 33.2726 12.9262 33.3101C12.4546 32.6812 11.8857 31.7754 11.4328 30.4841C11.2718 30.0312 10.8938 29.7018 10.4222 29.6007C9.83077 29.4772 9.20943 29.7168 8.70787 30.2595C6.09151 33.0855 6.07654 36.3943 6.24498 37.9139C6.23749 37.9289 6.23 37.9439 6.22252 37.9626C4.94241 40.6875 4.02164 43.9776 6.89626 47.7056C7.05721 47.919 8.49452 49.7867 10.0404 49.0643C10.6917 48.7611 11.036 48.1548 11.3654 47.5746C11.7809 46.8447 12.0728 46.3881 12.6754 46.2346C13.0685 46.1336 13.5251 46.04 14.008 45.9427C15.5239 45.6395 17.4103 45.2614 18.8664 44.2396C19.222 43.9926 19.57 43.738 19.9069 43.491C20.517 43.0456 21.1047 42.6189 21.6324 42.2933C21.6774 42.3606 21.7223 42.428 21.7634 42.4954C21.7934 42.5478 21.8271 42.6002 21.8645 42.675C21.8907 42.7237 21.9169 42.7724 21.9319 42.806C21.9319 42.8098 21.9469 42.8397 21.9506 42.8435C21.9731 42.8921 21.9955 42.9408 22.0217 43.0044C22.0404 43.0531 22.0591 43.1017 22.0779 43.1504C22.0891 43.1841 22.1003 43.2178 22.1115 43.2552C20.5807 43.5434 19.338 44.3032 18.3349 45.5684C17.6199 46.4704 17.4815 47.6046 18.0017 48.3232C18.4397 48.9296 19.2145 49.098 20.0754 48.7799C20.6181 48.5815 21.2918 48.544 22.018 48.6638C21.9094 48.8996 21.7896 49.113 21.6512 49.3114C20.4609 51.0144 19.2931 52.0962 18.9001 52.2347L18.8402 52.2234C18.8402 52.2234 18.7803 52.2085 18.7728 52.2085C18.7728 52.2085 18.7316 52.201 18.7316 52.1972L18.5669 52.9533L18.6867 52.186L18.2263 52.0662C17.0435 51.7593 16.2912 51.6021 15.7971 52.0325C15.5613 52.2384 15.4453 52.5378 15.4827 52.8597C15.5987 53.8741 17.6125 56.4081 19.9968 56.6214C20.3673 56.6551 20.7117 56.6738 21.0485 56.6738C22.7329 56.6738 24.1627 56.1835 27.1309 54.4393L27.1384 54.428ZM17.8445 53.5597L18.2076 53.6532C18.2076 53.6532 18.2825 53.672 18.2899 53.672C18.2899 53.672 18.3423 53.6832 18.3461 53.6869L18.4846 53.7206C18.4846 53.7206 18.5258 53.7281 18.5295 53.7319C18.5295 53.7319 18.5856 53.7431 18.5894 53.7431C18.5969 53.7431 18.6306 53.7506 18.638 53.7506L18.7054 53.7618C18.7054 53.7618 18.7204 53.7618 18.7279 53.7655C18.7279 53.7655 18.7316 53.7655 18.7354 53.7655C18.8477 53.7842 18.9674 53.7842 19.0835 53.7655C20.4908 53.5746 22.5308 50.7487 22.9238 50.1835C23.2981 49.652 23.5863 49.0194 23.7847 48.312C23.897 47.9077 23.6686 47.4885 23.2681 47.365C21.8945 46.9383 20.6069 46.9196 19.5401 47.3164C19.3829 47.3762 19.2893 47.38 19.2482 47.3762C19.2145 47.2565 19.2482 46.8971 19.5476 46.5153C20.416 45.4186 21.4191 44.8572 22.8003 44.7C22.9051 44.6888 23.0174 44.6775 23.1296 44.6738C23.358 44.6626 23.5676 44.5503 23.7061 44.3706C23.8446 44.1909 23.897 43.9551 23.8483 43.7343C23.7659 43.3563 23.6649 42.9894 23.5451 42.6376C23.5189 42.559 23.489 42.4804 23.4478 42.3793C23.4179 42.3082 23.3842 42.2334 23.3355 42.1286C23.3018 42.0574 23.2644 41.9863 23.212 41.889C23.1746 41.8179 23.1334 41.7468 23.081 41.6607C22.95 41.4473 22.7928 41.2227 22.6169 40.9982C22.6169 40.9944 22.6094 40.9907 22.6056 40.9869C22.5532 40.9196 22.4971 40.8484 22.4409 40.7811C22.2126 40.5003 21.8196 40.418 21.4977 40.5827C20.7304 40.9682 19.8919 41.5783 19.0011 42.2259C18.668 42.4692 18.3274 42.7162 17.9793 42.9595C16.789 43.7942 15.1496 44.1236 13.7048 44.4118C13.1995 44.5128 12.7204 44.6102 12.2862 44.7225C11.0061 45.0518 10.4371 46.0624 10.0179 46.7998C9.80831 47.1704 9.59122 47.5559 9.38535 47.6495C9.14206 47.7618 8.50575 47.2602 8.13145 46.7624C5.89314 43.8615 6.31235 41.4062 7.6224 38.6139C7.65235 38.5465 7.68603 38.4829 7.71972 38.4192C7.79832 38.2733 7.82826 38.1086 7.80581 37.9439C7.60743 36.5028 7.60743 33.7218 9.842 31.3075C9.91311 31.2289 9.97675 31.184 10.0254 31.1541C10.5157 32.5016 11.1708 33.6432 12.0766 34.7324C12.2899 34.9869 12.638 35.0805 12.9487 34.9607C13.2631 34.8409 13.5476 34.7286 13.7909 34.6276L14.27 34.4255C14.7229 34.2346 15.2244 34.025 15.7372 33.7929C16.0591 33.6507 16.2425 33.3063 16.1826 32.9582C16.0928 32.408 16.1003 31.4647 16.6617 30.106C16.7179 29.975 16.7778 29.844 16.8377 29.7168C16.9649 29.4622 16.9425 29.1553 16.7778 28.9233C16.4783 28.5003 16.2725 28.1709 16.1564 27.9201C15.5201 26.539 16.8526 22.9307 17.212 22.3992C17.313 22.2832 17.3841 22.1522 17.4964 21.9426C17.7996 21.3774 18.5108 20.0598 20.4497 18.0873C20.693 17.8402 20.7416 17.4584 20.5657 17.1553C20.4684 16.9868 20.386 16.781 20.3187 16.5339C20.1315 15.8565 20.2662 15.2838 20.4871 15.0929C20.5283 15.0554 20.6518 14.9506 21.5014 15.572C21.595 15.6394 21.6923 15.7067 21.7896 15.7741L21.9469 15.8826C22.2351 16.0848 22.6206 16.066 22.8901 15.8415C24.5632 14.4341 26.562 12.9706 28.8302 11.4884C29.7697 10.8745 30.7167 10.3168 31.6412 9.83022C31.9706 9.65804 32.1316 9.27626 32.023 8.92067C31.9519 8.6886 31.9481 8.38542 32.0043 8.01112C32.1128 7.31493 32.4684 6.85079 32.7491 6.7647C32.8015 6.74973 32.9588 6.70108 33.479 7.61811C33.5352 7.71918 33.5988 7.82024 33.6587 7.9213L33.7747 8.11219C33.9656 8.43783 34.3624 8.57631 34.7142 8.4453C36.859 7.64056 38.9288 7.21012 40.8602 7.16895C41.096 7.16521 41.3131 7.05292 41.4591 6.86577C41.5489 6.74974 41.6388 6.62622 41.7323 6.49147C41.8559 6.3118 41.9756 6.12466 42.0954 5.93751C42.4023 5.46589 42.9114 4.67985 43.1697 4.56756C43.3905 4.64617 43.8509 5.25628 44.068 6.51767C44.0942 6.67114 44.1091 6.8246 44.1166 6.98929C44.1316 7.30371 44.3337 7.57694 44.6294 7.68549C44.7342 7.72292 44.8128 7.7566 44.8615 7.77531C46.4186 8.98056 47.7885 10.882 48.9339 13.431C49.02 13.6256 49.1847 13.7754 49.3868 13.8465C49.5889 13.9176 49.8097 13.8988 49.9969 13.8015C50.1391 13.7267 50.3113 13.6593 50.4984 13.5845C50.6182 13.5358 50.738 13.4871 50.854 13.4385C52.0668 12.907 52.1791 13.0829 52.224 13.1503C52.4074 13.4385 52.456 14.2919 51.7935 15.3661C51.3481 16.0848 50.9738 16.3879 50.738 16.5152C50.4198 16.6874 50.2626 17.0579 50.36 17.406C51.1834 20.3368 51.6251 23.5184 51.539 25.9214C51.524 26.3144 51.8347 26.6587 52.224 26.7186C52.3512 26.7373 52.4748 26.7561 52.602 26.771C53.5789 26.8871 53.7361 27.033 53.7586 27.0592C53.7586 27.0592 53.7661 27.0742 53.7698 27.1229C53.7923 27.4335 53.4142 28.0886 52.5084 28.5752C52.1117 28.7885 51.7561 28.9195 51.4529 28.9644C51.1684 29.0056 50.9289 29.204 50.8316 29.4772C49.5852 33.0518 47.2645 35.9339 46.1453 36.428C45.4454 36.7349 44.4348 36.8472 43.2595 36.9782C42.0468 37.1129 40.6731 37.2626 39.1609 37.6669C38.8577 37.7492 38.6331 38.0038 38.592 38.3144L38.5283 38.7935C38.3749 40.0025 38.199 41.3725 37.7161 43.0269C36.5633 46.9645 33.872 49.5397 32.3299 50.1086C30.1178 50.9246 29.7248 51.123 26.3449 53.1068C22.9462 55.1055 21.8907 55.2403 20.1315 55.0831C19.1097 54.9932 18.144 54.1735 17.5638 53.5035C17.6724 53.5297 17.7659 53.5559 17.837 53.5746L17.8445 53.5597ZM17.197 22.4142L17.2082 22.403C17.2082 22.403 17.2007 22.4104 17.197 22.4142ZM16.0254 21.3998C16.0254 21.3998 16.0441 21.3774 16.0516 21.3699C16.0441 21.3774 16.0367 21.3886 16.0254 21.3998Z"></path>
<path fill="#2A70AC" d="M33.719 9.59066C32.918 9.93876 31.7913 9.94251 31.5518 9.64307C31.3122 9.34363 31.1026 8.83458 31.2486 7.88385C31.3983 6.90319 31.941 6.19577 32.5324 6.0161C33.1687 5.82147 33.5917 6.22571 34.1606 7.22883C34.4189 7.68547 34.8007 8.17581 34.7108 8.56508C34.621 8.95435 34.1644 9.39602 33.7152 9.59066H33.719Z"></path>
<path fill="#19114B" d="M33.8761 9.95373C34.3889 9.72915 34.9728 9.2126 35.1001 8.65489C35.2049 8.18702 34.9317 7.73787 34.6659 7.30368C34.6098 7.21385 34.5574 7.12403 34.5087 7.03794C34.0333 6.19951 33.442 5.32737 32.4201 5.63804C31.6416 5.87385 31.0277 6.73475 30.8593 7.82396C30.7245 8.70731 30.8518 9.40349 31.2448 9.89383C31.4544 10.1558 31.8849 10.2569 32.364 10.2569C32.888 10.2569 33.4719 10.1334 33.8799 9.95373H33.8761ZM33.82 7.42346C33.8724 7.52077 33.9323 7.61436 33.9922 7.71167C34.1494 7.96994 34.3627 8.32178 34.329 8.47524C34.2804 8.69233 33.9398 9.05915 33.5617 9.22384C32.8356 9.53825 31.9934 9.48585 31.8624 9.39228C31.6154 9.08161 31.5405 8.59502 31.6416 7.93999C31.7801 7.04167 32.2629 6.50642 32.6522 6.39039C32.7083 6.37167 32.7645 6.36046 32.8244 6.36046C33.0527 6.36046 33.3297 6.55133 33.8237 7.41971L33.82 7.42346Z"></path>
<path fill="#2A70AC" d="M22.5271 17.2751C21.9395 17.9189 20.9139 18.3867 20.5733 18.2108C20.2327 18.0349 19.8322 17.6568 19.5739 16.7286C19.3157 15.8003 19.514 14.9057 19.9819 14.4978C20.4835 14.0598 21.0374 14.2545 21.9657 14.9394C22.3887 15.2501 22.9351 15.5383 23.0175 15.9351C23.0998 16.3318 22.8565 16.9157 22.5309 17.2788L22.5271 17.2751Z"></path>
<path fill="#19114B" d="M22.8193 17.5408C23.1973 17.1291 23.5155 16.4142 23.4032 15.8527C23.3059 15.3811 22.8754 15.0854 22.4524 14.7972C22.3664 14.7373 22.2803 14.6774 22.1979 14.6213C21.4231 14.0486 20.5248 13.4984 19.7201 14.202C19.1062 14.7373 18.9003 15.7704 19.1923 16.8371C19.4281 17.698 19.8324 18.2819 20.3901 18.5664C20.4949 18.6225 20.6184 18.645 20.7569 18.645C21.4156 18.645 22.3439 18.0686 22.8193 17.5445V17.5408ZM21.7301 15.2576C21.8199 15.3212 21.9135 15.3886 22.007 15.4522C22.2541 15.6206 22.5947 15.8565 22.6284 16.0137C22.6733 16.2308 22.5123 16.7061 22.2354 17.013C21.7001 17.5969 20.9103 17.8964 20.7531 17.8627C20.4013 17.683 20.1318 17.2676 19.9559 16.6275C19.7163 15.7517 19.9334 15.0667 20.2403 14.8009C20.3264 14.7261 20.4163 14.6662 20.5585 14.6662C20.7756 14.6662 21.1162 14.8084 21.7301 15.2613V15.2576Z"></path>
<path fill="#2A70AC" d="M39.6104 8.071C39.5318 8.63245 40.374 9.33615 41.422 9.74414C42.4701 10.1521 43.9748 9.46715 44.3116 9.08162C44.6485 8.69609 45.0715 7.70046 44.8394 6.37544C44.6073 5.05042 44.0459 3.91629 43.2786 3.78529C42.5113 3.65428 41.8375 4.95309 41.1001 6.04231C40.4002 7.07537 39.689 7.50583 39.6104 8.06728V8.071Z"></path>
<path fill="#19114B" d="M44.6111 9.34362C44.9667 8.93563 45.4982 7.83894 45.2325 6.3118C44.9405 4.63868 44.2368 3.54946 43.346 3.39974C42.4477 3.25376 41.8039 4.24191 41.1226 5.29369C41.0066 5.47336 40.8906 5.65301 40.7745 5.82519C40.4938 6.24066 40.2094 6.5551 39.9586 6.82834C39.5805 7.24381 39.2811 7.57319 39.2212 8.01486C39.1052 8.86826 40.1719 9.68423 41.2836 10.1147C41.5568 10.2195 41.8525 10.2644 42.1482 10.2644C43.2 10.2644 44.293 9.71043 44.6111 9.34362ZM40.0035 8.1234C40.0297 7.92502 40.258 7.67425 40.5425 7.35984C40.797 7.07911 41.1152 6.73102 41.4296 6.26689C41.5493 6.08722 41.6691 5.90381 41.7889 5.7204C42.253 5.00549 42.8332 4.12588 43.2187 4.17829C43.7278 4.26438 44.2368 5.19638 44.4539 6.4428C44.6673 7.68173 44.263 8.53887 44.016 8.81959C43.7727 9.10032 42.4439 9.71418 41.5681 9.37357C40.5462 8.97681 39.9698 8.37792 40.0035 8.1234Z"></path>
<path fill="#009DDC" d="M34.4527 43.0381C35.759 41.3126 35.2537 39.6956 38.5924 38.6251C41.9312 37.5546 44.7571 37.8765 46.4677 37.1204C48.1782 36.3643 51.2176 32.0861 52.1271 27.7292C53.0367 23.3724 50.9593 11.406 45.2699 7.09409C45.2699 7.09409 38.948 3.94999 28.4152 10.8259C18.1257 17.5446 16.9804 21.5009 16.6248 21.8864C16.2692 22.272 14.6297 26.4304 15.4607 28.2308C16.2916 30.0312 19.7839 33.2726 19.6753 35.5109C19.5668 37.7492 34.4527 43.0269 34.4527 43.0269V43.0381Z"></path>
<path fill="#19114B" d="M34.767 43.2777C35.1862 42.7237 35.4332 42.1697 35.6541 41.6832C36.1519 40.5715 36.5487 39.6956 38.7121 39.0032C40.4339 38.4529 42.0097 38.277 43.3983 38.1273C44.6672 37.9888 45.7602 37.8653 46.6248 37.4872C48.5562 36.6338 51.6105 32.131 52.5125 27.8153C53.482 23.1665 51.1913 11.0879 45.5094 6.78342C45.4907 6.76845 45.4682 6.75723 45.4458 6.746C45.18 6.61125 38.7982 3.57944 28.198 10.5002C22.1905 14.4229 18.2454 18.0835 16.4712 21.3811C16.4151 21.4859 16.3514 21.602 16.3327 21.6282C15.8985 22.1035 14.1917 26.4304 15.1013 28.4067C15.4157 29.088 16.067 29.9339 16.7557 30.8359C17.9085 32.3369 19.3421 34.2046 19.2785 35.5035C19.1662 37.8541 30.762 42.151 34.3178 43.4124C34.3627 43.4274 34.4077 43.4349 34.4488 43.4349C34.5686 43.4349 34.6884 43.3787 34.7632 43.2777H34.767ZM45.064 7.44219C50.4913 11.5932 52.6698 23.1815 51.7377 27.6544C50.8432 31.9439 47.8712 36.0724 46.3067 36.7611C45.5543 37.0942 44.5138 37.2065 43.3123 37.3413C41.8862 37.4985 40.2692 37.6744 38.4726 38.2508C35.9685 39.0518 35.4669 40.1747 34.9317 41.3612C34.7558 41.7543 34.5724 42.1623 34.3029 42.5665C27.3596 40.0849 20.0158 36.7274 20.072 35.5409C20.1468 33.9501 18.6796 32.0412 17.3845 30.3531C16.722 29.4885 16.0969 28.6762 15.8199 28.0773C15.1013 26.5165 16.5648 22.5976 16.9204 22.1634C16.999 22.0773 17.0626 21.9575 17.1712 21.7592C18.8817 18.5776 22.7407 15.0143 28.6322 11.1665C34.0483 7.62935 38.3415 6.79841 41.1825 6.79841C43.4994 6.79841 44.8544 7.35237 45.064 7.44594V7.44219Z"></path>
<path fill="#2A70AC" d="M48.9605 15.2576C49.2226 16.3093 50.0835 17.4397 50.5588 17.3724C51.0342 17.305 51.7154 16.9644 52.4603 15.7629C53.2051 14.5614 53.2912 13.3599 52.8832 12.7236C52.4752 12.0873 51.7903 12.1808 50.5513 12.7236C50.0086 12.9631 49.3723 13.139 49.1252 13.547C48.8782 13.955 48.8221 14.7148 48.9605 15.2651V15.2576Z"></path>
<path fill="#19114B" d="M49.1849 14.3817C49.2149 14.116 49.2935 13.8315 49.4132 13.6743C49.6565 13.3636 50.3303 13.2064 50.8767 12.9669C51.15 12.8621 51.4232 12.761 51.6852 12.7048C51.9472 12.6487 52.1905 12.6412 52.329 12.7123C52.4638 12.776 52.6023 12.9519 52.6622 13.1765C52.7295 13.3973 52.7408 13.6593 52.7183 13.9213C52.6734 14.4528 52.4675 14.9843 52.1905 15.4747C51.9098 15.9687 51.5655 16.4441 51.1462 16.7623C51.0414 16.8409 50.9329 16.9082 50.8206 16.9606C50.7645 16.9868 50.7083 17.0093 50.6484 17.0243C50.6185 17.0318 50.5923 17.043 50.5623 17.0467C50.5287 17.0542 50.4987 17.0579 50.5099 17.0542C50.5025 17.0654 50.3864 17.0205 50.2966 16.9457C50.1993 16.8745 50.1019 16.7735 50.0121 16.6762C49.6565 16.257 49.3534 15.7367 49.2186 15.1977C49.1625 14.9394 49.155 14.6549 49.1849 14.3854V14.3817ZM49.5555 17.058C49.664 17.1852 49.7726 17.3125 49.9148 17.4285C50.0608 17.5371 50.2105 17.6718 50.5099 17.6905C50.596 17.6905 50.6409 17.683 50.6821 17.6756C50.727 17.6681 50.772 17.6568 50.8169 17.6494C50.9067 17.6269 50.9928 17.5969 51.0751 17.567C51.2436 17.4996 51.397 17.4135 51.5393 17.3162C52.1082 16.9232 52.5012 16.3955 52.8418 15.8565C53.1787 15.3025 53.4257 14.6774 53.5006 13.9999C53.5343 13.6593 53.5268 13.3037 53.4108 12.9444C53.3022 12.5926 53.0739 12.2183 52.6547 12.0161C52.2317 11.8253 51.835 11.9038 51.5131 11.9824C51.1837 12.0685 50.8917 12.1883 50.6035 12.3156L49.7688 12.6861C49.4844 12.8246 49.155 12.9706 48.9042 13.3187C48.6834 13.6668 48.6384 13.9999 48.6085 14.3331C48.5898 14.6662 48.6085 14.9956 48.6983 15.3287C48.8743 15.9613 49.1437 16.5414 49.5555 17.0617V17.058Z"></path>
<path fill="#2A70AC" d="M50.3228 27.2501C50.072 28.1934 50.2592 29.4735 50.6671 29.6382C51.0751 29.8028 51.7638 29.8478 52.8793 29.2489C53.9947 28.65 54.5898 27.748 54.5449 27.063C54.5 26.378 53.9161 26.1385 52.6958 25.9925C52.1606 25.9288 51.5767 25.7754 51.2024 25.985C50.8281 26.1946 50.45 26.7598 50.319 27.2539L50.3228 27.2501Z"></path>
<path fill="#19114B" d="M50.8768 26.6475C51.0191 26.4529 51.2137 26.2657 51.3747 26.2058C51.7153 26.0898 52.3067 26.2844 52.8457 26.3518C53.1039 26.3967 53.3659 26.4491 53.5905 26.5277C53.8151 26.6063 54.0097 26.7074 54.0771 26.8197C54.152 26.9207 54.1819 27.1116 54.137 27.3063C54.0958 27.5009 54.0022 27.7105 53.8712 27.9052C53.6092 28.2982 53.2125 28.6201 52.7858 28.8858C52.3478 29.1478 51.8687 29.3687 51.3971 29.4323C51.2811 29.4473 51.165 29.451 51.0528 29.4398C50.9966 29.436 50.9405 29.4248 50.8881 29.4136C50.8619 29.4061 50.8357 29.4024 50.8095 29.3911C50.7982 29.3874 50.7795 29.3836 50.7758 29.3799C50.7758 29.3799 50.7758 29.3799 50.772 29.3799C50.7458 29.3762 50.6747 29.2826 50.6335 29.1815C50.5849 29.0805 50.5512 28.9569 50.5213 28.8372C50.4202 28.3468 50.394 27.7966 50.54 27.31C50.6111 27.078 50.7346 26.8534 50.8806 26.655L50.8768 26.6475ZM50.0309 28.927C50.0571 29.073 50.0871 29.2227 50.147 29.3724C50.2106 29.5221 50.2667 29.6868 50.4726 29.8365C50.4988 29.8553 50.5287 29.8702 50.5587 29.8852C50.5849 29.8964 50.5999 29.9039 50.6186 29.9114C50.656 29.9264 50.6972 29.9413 50.7346 29.9526C50.8132 29.9788 50.8918 29.9975 50.9704 30.0125C51.1314 30.0387 51.2886 30.0461 51.4458 30.0387C52.0746 30.005 52.6248 29.7767 53.1414 29.5109C53.6654 29.2377 54.1445 28.8521 54.5113 28.3431C54.691 28.0848 54.8482 27.7966 54.9118 27.4523C54.9754 27.1154 54.953 26.7074 54.7022 26.363C54.4439 26.0262 54.0996 25.8989 53.8076 25.8166C53.5082 25.7342 53.2237 25.7005 52.9392 25.6706L52.1158 25.592C51.8313 25.5733 51.5094 25.5433 51.1576 25.6968C50.8207 25.8727 50.641 26.116 50.4726 26.3668C50.3116 26.6213 50.1881 26.8908 50.117 27.1902C49.9935 27.7667 49.9448 28.3393 50.0384 28.927H50.0309Z"></path>
<path fill="#009DDC" d="M40.2356 35.2789C39.1389 37.1354 39.5619 39.4897 38.4689 43.2327C37.3161 47.1816 34.5725 50.0974 32.6074 50.8235C30.4926 51.6021 30.152 51.763 26.7458 53.7655C23.3397 55.768 22.1195 56.0263 20.0721 55.8466C18.0247 55.667 16.3291 53.3576 16.2617 52.7699C16.1943 52.1823 18.1856 52.9046 18.8519 53.0094C19.5181 53.1143 21.1164 51.4374 22.2917 49.7531C23.467 48.0687 23.6279 45.3064 22.812 42.8959C21.996 40.4854 18.0247 38.2358 16.4788 35.5184C14.7608 32.4978 16.621 28.3356 18.2118 25.723C19.6154 23.4136 22.0371 22.1821 22.9617 21.9576"></path>
<path fill="#19114B" d="M40.3253 35.3312C40.1344 35.6793 39.9847 36.0462 39.8687 36.4279C39.7601 36.8135 39.6853 37.2065 39.6216 37.6033C39.5019 38.4005 39.4307 39.209 39.3222 40.0175C39.1088 41.6345 38.7645 43.2514 38.1581 44.7898C37.5368 46.317 36.6721 47.7543 35.5605 48.9932C35.0028 49.6108 34.3777 50.176 33.659 50.6326C33.4831 50.7524 33.2885 50.846 33.0976 50.9508C32.8992 51.0369 32.6933 51.1304 32.5099 51.1941C32.1319 51.3363 31.7538 51.4823 31.387 51.6357C29.9235 52.2384 28.5573 53.1255 27.1462 53.9302C26.4425 54.3419 25.7314 54.7499 24.9977 55.1242C24.2604 55.4948 23.493 55.8354 22.6621 56.0413C21.8312 56.2509 20.9516 56.2658 20.1281 56.191C19.6902 56.1535 19.241 56.0413 18.8405 55.8616C18.44 55.6782 18.0732 55.4461 17.7326 55.1804C17.392 54.9146 17.0888 54.6152 16.8043 54.297C16.5236 53.9714 16.2691 53.6345 16.0594 53.2228C16.0108 53.1105 15.9584 53.0094 15.9284 52.841C15.9097 52.7774 15.9022 52.594 15.9996 52.4517C16.0969 52.3095 16.2241 52.2571 16.3102 52.2309C16.4899 52.1822 16.6097 52.1897 16.7332 52.1935C16.853 52.2009 16.9615 52.2159 17.0701 52.2346C17.5005 52.3058 17.8935 52.418 18.2865 52.5191C18.4812 52.5677 18.6795 52.6202 18.8555 52.6539C18.9079 52.6651 18.9154 52.6538 18.9266 52.6576C18.9341 52.6651 18.9752 52.6464 18.9977 52.6426C19.0576 52.6239 19.1325 52.594 19.2036 52.549C19.503 52.3769 19.8062 52.1186 20.0869 51.8491C20.6484 51.3026 21.1686 50.6888 21.6477 50.0525C21.7675 49.8953 21.8836 49.7306 21.9996 49.5696C22.1007 49.4087 22.2092 49.2552 22.2915 49.083C22.4712 48.7499 22.6097 48.3906 22.7108 48.02C22.9241 47.2789 22.999 46.4929 22.984 45.7106C22.9615 44.9283 22.8418 44.146 22.6284 43.3899C22.5685 43.2065 22.5199 43.0044 22.445 42.8434L22.3402 42.5852L22.2017 42.3382C22.0183 42.005 21.7788 41.6943 21.528 41.3912C20.5024 40.1859 19.2373 39.1529 18.0882 37.9776C17.5117 37.3899 16.954 36.7723 16.4899 36.0686C16.0183 35.3687 15.6926 34.5377 15.5841 33.6956C15.4643 32.8496 15.5205 32 15.6739 31.1803C15.8274 30.3606 16.0744 29.5633 16.3776 28.796C16.6808 28.0287 17.0364 27.2838 17.4331 26.5652C17.8261 25.854 18.2566 25.1316 18.8143 24.499C19.357 23.8627 20.0046 23.3275 20.6895 22.8671C21.382 22.4142 22.1194 22.0286 22.9428 21.8228C23.0139 21.8041 23.0813 21.849 23.1 21.9164C23.1187 21.9837 23.0776 22.0511 23.0139 22.0698H23.0027C22.2579 22.3094 21.5654 22.7436 20.9141 23.1965C20.2741 23.6681 19.6789 24.2033 19.1736 24.8097C18.6608 25.4086 18.2716 26.101 17.886 26.8122C17.5042 27.5196 17.1636 28.2458 16.8754 28.9906C16.314 30.4728 15.9247 32.0711 16.1493 33.6132C16.3402 35.1703 17.392 36.4242 18.5223 37.5546C19.6527 38.6962 20.9254 39.7143 22.022 40.9832C22.2915 41.3051 22.5536 41.6382 22.7669 42.0162L22.9279 42.297L23.0589 42.6039C23.1562 42.8098 23.2011 43.0081 23.2685 43.2065C23.5005 44.0113 23.6353 44.8459 23.6652 45.6881C23.6839 46.5266 23.6166 47.38 23.3808 48.1997C23.2685 48.6114 23.115 49.0157 22.9091 49.3974C22.8156 49.5921 22.6883 49.7755 22.5723 49.9551C22.4525 50.1236 22.3327 50.292 22.2092 50.4567C21.7114 51.1192 21.1799 51.7518 20.581 52.3394C20.2741 52.6314 19.9634 52.9121 19.5592 53.1479C19.4581 53.2078 19.3458 53.2602 19.2111 53.3014C19.1362 53.3164 19.0838 53.3426 18.9865 53.3426C18.8966 53.3426 18.8031 53.3426 18.7544 53.3276C18.5298 53.2864 18.3352 53.234 18.1368 53.1816C17.7438 53.0805 17.3545 52.9758 16.984 52.9121C16.8118 52.8822 16.591 52.8672 16.5348 52.8897C16.5236 52.8897 16.561 52.8897 16.5984 52.8335C16.6396 52.7774 16.6246 52.7062 16.6321 52.7362C16.6359 52.7699 16.6696 52.8522 16.7032 52.9271C17.0401 53.5634 17.5903 54.1698 18.1817 54.6414C18.4849 54.8735 18.8068 55.0756 19.1474 55.2328C19.4918 55.3862 19.8361 55.4686 20.2104 55.506C21.0039 55.5771 21.7713 55.5584 22.5199 55.3713C23.2685 55.1841 23.9946 54.866 24.7058 54.5029C25.4207 54.1436 26.1169 53.7393 26.8168 53.3313C27.5168 52.9196 28.2167 52.5079 28.9354 52.1111C29.6503 51.7144 30.3914 51.3326 31.1625 51.0294C31.5442 50.8759 31.9298 50.7337 32.3115 50.5952C32.5099 50.5278 32.6784 50.453 32.8505 50.3819C33.019 50.292 33.1912 50.2134 33.3521 50.1049C34.0109 49.6969 34.6098 49.1729 35.1562 48.6002C36.2454 47.4473 37.1176 46.0811 37.7539 44.6176C38.3752 43.1466 38.757 41.5671 39.0115 39.9726C39.1388 39.1753 39.2324 38.3668 39.3746 37.5621C39.4457 37.1578 39.5355 36.7573 39.6591 36.3606C39.7863 35.9676 39.9547 35.582 40.1644 35.2265C40.1943 35.1778 40.2579 35.1591 40.3103 35.189C40.359 35.219 40.3777 35.2826 40.3478 35.3312H40.3253Z"></path>
<path fill="white" d="M20.7942 31.9513C19.8734 34.1784 18.0843 35.5521 16.7967 35.0206C15.5091 34.4891 14.7979 32.5989 15.9545 29.8103C16.8753 27.5832 18.9227 26.0149 20.2103 26.5464C21.4979 27.078 21.7187 29.728 20.7979 31.9551L20.7942 31.9513Z"></path>
<path fill="#19114B" d="M21.528 29.1441C21.513 28.65 21.4494 28.1559 21.2847 27.6806C21.12 27.2164 20.8617 26.7299 20.3751 26.4791C19.8998 26.2171 19.3346 26.2919 18.8705 26.4529C18.3951 26.6251 17.9759 26.902 17.5978 27.2202C16.8567 27.8677 16.2466 28.665 15.8349 29.5633C15.6253 30.0087 15.4531 30.4691 15.3258 30.9482C15.1948 31.4236 15.1087 31.9214 15.105 32.4304C15.0975 32.9357 15.1724 33.456 15.3782 33.9463C15.5804 34.4367 15.9397 34.8821 16.415 35.1703C16.6509 35.3013 16.9316 35.4174 17.2198 35.4361C17.5043 35.4548 17.7887 35.4211 18.047 35.3388C18.571 35.1778 19.0089 34.8784 19.3832 34.534C20.1318 33.8378 20.6484 32.9582 21.0152 32.0412C21.3633 31.1129 21.5579 30.1322 21.528 29.1441ZM18.9827 34.0848C18.6421 34.3768 18.2603 34.6126 17.8636 34.7361C17.4593 34.8634 17.0776 34.8335 16.7182 34.6388C16.3664 34.4367 16.0819 34.111 15.906 33.718C15.7301 33.325 15.6515 32.8796 15.6365 32.4304C15.6215 31.9775 15.6777 31.5172 15.7825 31.0643C15.8798 30.6114 16.0295 30.1622 16.2092 29.7317C16.5648 28.8708 17.1075 28.0773 17.8 27.456C18.1481 27.1491 18.5373 26.8796 18.964 26.7186C19.3832 26.5577 19.8661 26.4978 20.2441 26.7186C20.6297 26.917 20.873 27.34 21.0002 27.7741C21.1312 28.2121 21.1799 28.6799 21.1724 29.1478C21.1574 30.0798 20.9291 31.0081 20.566 31.8578C20.1843 32.7037 19.6602 33.4934 18.979 34.0848H18.9827Z"></path>
<path fill="#19114B" d="M16.8193 30.4317C16.2316 31.8129 16.2841 33.2614 17.0102 33.4972C17.7363 33.733 18.5785 32.7786 19.1774 31.4049C19.7613 30.0611 19.8886 28.811 19.1325 28.4966C18.3764 28.1784 17.4032 29.0543 16.8193 30.4354V30.4317Z"></path>
<path fill="white" d="M19.8912 30.4255C19.9594 29.7696 19.7062 29.2058 19.3258 29.1663C18.9455 29.1268 18.5819 29.6265 18.5137 30.2824C18.4456 30.9383 18.6987 31.5021 19.0791 31.5416C19.4595 31.5811 19.8231 31.0814 19.8912 30.4255Z"></path>
<path fill="#009DDC" d="M21.2999 25.1017C21.2325 25.5471 20.4839 29.4061 19.1364 30.7948C17.789 32.1834 15.1614 33.2015 13.4957 33.9089C11.8301 34.6164 8.16945 35.6345 6.92678 38.2808C5.68036 40.9271 4.90556 43.8391 7.52191 47.234C7.52191 47.234 8.70095 48.8248 9.71905 48.3494C10.7371 47.8741 10.827 45.8978 12.4851 45.4673C14.1433 45.0369 16.6623 44.8273 18.429 43.5883C20.1957 42.3494 21.8239 40.972 22.9693 40.9196C24.1146 40.8672 26.6935 40.4891 32.8321 44.7898L34.5651 45.8753"></path>
<path fill="#19114B" d="M21.4494 25.1241C21.2398 26.4079 20.9366 27.6581 20.4724 28.8746C20.2366 29.4809 19.9671 30.0798 19.5666 30.63C19.1437 31.1803 18.6159 31.577 18.0769 31.9513C16.984 32.6812 15.7974 33.2052 14.6184 33.7143C14.0307 33.9613 13.4394 34.2233 12.8367 34.4517C12.2378 34.6837 11.6465 34.912 11.07 35.1703C9.92468 35.6868 8.813 36.3194 7.98206 37.2177C7.77619 37.4423 7.58905 37.6819 7.4281 37.9364C7.26715 38.1909 7.14363 38.4641 7.01262 38.7561C6.75436 39.3325 6.52978 39.9202 6.36134 40.519C6.01698 41.7131 5.94961 42.9745 6.26777 44.161C6.57843 45.34 7.2372 46.4554 8.03072 47.365C8.23658 47.5821 8.46491 47.7805 8.70446 47.9227C8.94401 48.0687 9.19854 48.151 9.40815 48.1136C9.84233 48.0574 10.1605 47.4773 10.4674 46.927C10.7781 46.3731 11.1711 45.7368 11.8336 45.3775C11.9946 45.2914 12.1667 45.2165 12.3427 45.1716C12.5111 45.1267 12.6646 45.0893 12.8255 45.0518C13.1437 44.977 13.4581 44.9171 13.7725 44.8534C15.0226 44.5989 16.2691 44.3444 17.3732 43.8091C17.6502 43.6819 17.9122 43.5247 18.163 43.3562C18.4175 43.1841 18.6796 42.9894 18.9378 42.806C19.4544 42.4317 19.9671 42.0462 20.5061 41.6794C21.0489 41.3163 21.5991 40.9532 22.2691 40.7174C22.4375 40.6613 22.6134 40.6126 22.8081 40.5902C23.0139 40.564 23.1337 40.5677 23.3096 40.5565C23.639 40.5415 23.9759 40.534 24.309 40.5602C25.6528 40.6575 26.9216 41.0842 28.1157 41.6083C29.3097 42.136 30.4401 42.7836 31.5293 43.4798C32.0907 43.8091 32.5885 44.2059 33.1051 44.5877C33.6253 44.9545 34.1381 45.34 34.6172 45.7817C34.6659 45.8266 34.6696 45.8977 34.6247 45.9464C34.591 45.9838 34.5386 45.9913 34.4975 45.9763C33.2847 45.4972 32.1805 44.816 31.1288 44.1123C30.062 43.4274 28.9653 42.791 27.82 42.2782C26.6746 41.7729 25.4806 41.3575 24.2641 41.2639C23.9609 41.2377 23.6577 41.2377 23.3471 41.2527C23.2048 41.2602 23.0027 41.2639 22.8904 41.2789C22.7632 41.2901 22.6284 41.3238 22.4937 41.3725C21.9509 41.5559 21.4157 41.8965 20.8954 42.2446C20.3751 42.5964 19.8586 42.9782 19.3383 43.3525C19.0763 43.5396 18.8218 43.7268 18.5448 43.9139C18.2641 44.1011 17.9721 44.2733 17.6652 44.4118C16.4525 44.9882 15.1574 45.239 13.9035 45.4897C13.5891 45.5534 13.2784 45.6133 12.9715 45.6806C12.818 45.7143 12.6608 45.7518 12.5223 45.7892C12.3876 45.8229 12.2641 45.879 12.1443 45.9427C11.6577 46.1972 11.3283 46.695 11.0176 47.2452C10.8604 47.5185 10.7032 47.8104 10.4824 48.0949C10.269 48.3756 9.94713 48.6675 9.5092 48.7312C9.07876 48.7948 8.69323 48.6376 8.39005 48.4542C8.08312 48.267 7.82486 48.035 7.59279 47.788C7.47676 47.6644 7.36447 47.5372 7.25966 47.3949C7.16235 47.2639 7.06128 47.1367 6.97145 46.9982C6.78056 46.7287 6.60838 46.4479 6.44369 46.1597C6.12179 45.5796 5.86352 44.962 5.69509 44.3144C5.35073 43.0156 5.43682 41.627 5.80738 40.3693C5.98704 39.7368 6.22659 39.1229 6.49609 38.5315C6.62709 38.2433 6.76933 37.9326 6.95273 37.6444C7.1324 37.3562 7.34575 37.0905 7.57407 36.8472C8.49485 35.8627 9.67015 35.2115 10.8529 34.6837C11.4481 34.4217 12.0507 34.1896 12.6496 33.9613C13.2447 33.7405 13.8249 33.4822 14.42 33.2389C15.5953 32.7448 16.7556 32.2171 17.8149 31.5471C18.3315 31.2065 18.8442 30.8247 19.2111 30.3606C19.5779 29.8777 19.8511 29.305 20.0869 28.7249C20.5473 27.5533 20.8954 26.3144 21.1499 25.0792V25.0717C21.1686 24.9894 21.251 24.9369 21.3333 24.9519C21.4157 24.9669 21.4681 25.0455 21.4531 25.1278L21.4494 25.1241Z"></path>
<path fill="#19114B" d="M31.211 23.8964C31.2634 23.3125 31.3345 22.2906 30.6271 21.2426C29.7063 19.8764 27.2846 19.2588 26.4537 20.7261C26.1056 21.3399 26.3526 21.5945 26.7831 21.7629C27.2734 21.9538 27.9846 22.0286 28.6321 22.3505C29.3508 22.7099 30.2715 23.2264 30.8405 24.2295C30.9415 24.4092 30.9902 24.3905 31.0501 24.3605C31.1923 24.2857 31.2073 23.8927 31.2073 23.8927L31.211 23.8964Z"></path>
<path fill="#19114B" d="M18.4137 21.2875C18.4885 20.8271 18.642 20.0224 19.3045 19.3412C20.1729 18.4541 21.8909 18.4166 22.1567 19.7042C22.269 20.2432 22.0556 20.3967 21.7412 20.4453C21.3819 20.5015 20.899 20.4304 20.4087 20.5614C19.866 20.7074 19.1585 20.9394 18.5896 21.6132C18.4885 21.733 18.4586 21.7105 18.4249 21.6768C18.3463 21.5907 18.4099 21.2875 18.4099 21.2875H18.4137Z"></path>
<path fill="white" d="M20.4197 32.2283C20.2401 34.7549 21.5314 36.7424 23.9943 36.9969C26.7791 37.2851 29.8633 35.5446 29.7697 31.5471C29.6986 28.5677 27.1272 26.015 24.7391 26.3743C22.0891 26.771 20.3224 29.5858 20.4197 32.2283Z"></path>
<path fill="#19114B" d="M21.6963 28.6014C22.4112 27.5496 23.5192 26.7336 24.7805 26.5502C25.3981 26.4679 26.0344 26.5951 26.6034 26.8609C27.1761 27.1266 27.6814 27.5271 28.1081 28.0025C28.954 28.9495 29.478 30.1922 29.5154 31.4535C29.5566 32.7224 29.2422 34.025 28.4449 34.9869C27.6664 35.9601 26.4574 36.5328 25.2185 36.6713C23.9833 36.8247 22.6508 36.5702 21.7899 35.6869C21.3557 35.2602 21.045 34.7099 20.8654 34.1148C20.6857 33.5122 20.6258 32.8909 20.6632 32.2283C20.6034 30.937 20.9814 29.6644 21.6963 28.5976V28.6014ZM21.3744 36.0986C21.8722 36.6151 22.5235 36.9745 23.2085 37.1579C23.8972 37.3413 24.5971 37.3712 25.2933 37.2964C26.6745 37.1354 28.0257 36.4579 28.8904 35.3425C29.7737 34.2309 30.0881 32.786 30.0207 31.4311C29.9534 30.0424 29.362 28.7137 28.43 27.7068C27.9621 27.2052 27.4044 26.7785 26.7718 26.4978C26.143 26.2133 25.4281 26.0823 24.7319 26.1871C23.3507 26.3743 22.1417 27.2539 21.3707 28.3693C20.5846 29.481 20.1505 30.8621 20.1804 32.2171C20.0644 33.5384 20.3638 35.0543 21.3782 36.0948L21.3744 36.0986Z"></path>
<path fill="#664DA0" d="M23.452 53.7842C25.9336 52.9009 29.628 49.4573 31.4171 47.3837C32.1432 46.5415 32.6373 45.6582 32.963 44.9096L32.8245 44.7973C26.686 40.4966 24.107 40.8746 22.9617 40.927C22.6248 40.942 22.2505 41.073 21.8388 41.2789C22.2805 41.8141 22.6248 42.3494 22.8082 42.8921C23.6242 45.3026 23.4632 48.0612 22.2879 49.7455C21.1126 51.4299 19.5144 53.1068 18.8481 53.002C18.6572 52.972 18.3615 52.8934 18.0359 52.8073C18.1594 52.8784 18.3054 52.9421 18.4701 53.0057C21.2062 54.0013 23.4483 53.7842 23.4483 53.7842H23.452Z"></path>
<path fill="#19114B" d="M23.4856 54.1323C23.5156 54.1323 23.5418 54.1249 23.568 54.1136C26.1993 53.1779 29.9423 49.6258 31.6828 47.6083C32.3303 46.856 32.8693 45.9951 33.2848 45.0481C33.3484 44.9059 33.3072 44.7374 33.1875 44.6364L33.0265 44.5054C27.0789 40.3394 24.4026 40.4929 23.1151 40.564L22.9466 40.5715C22.5835 40.5864 22.1681 40.7137 21.6815 40.9607C21.5842 41.0094 21.5168 41.0992 21.4943 41.204C21.4719 41.3088 21.4981 41.4174 21.5655 41.4997C22.0221 42.0537 22.3178 42.544 22.475 43.0007C23.2723 45.3625 23.0814 47.9901 21.9996 49.5434C20.6185 51.5198 19.241 52.7138 18.9004 52.6539C18.7432 52.6314 18.4775 52.5603 18.193 52.4854L18.1256 52.4667C17.9535 52.4218 17.7775 52.5116 17.7102 52.6763C17.6428 52.841 17.7102 53.0282 17.8636 53.1143C18.0096 53.1966 18.1743 53.2715 18.3502 53.3351C20.3003 54.0425 21.9884 54.1548 22.8605 54.1548C23.2311 54.1548 23.4557 54.1361 23.4819 54.1323H23.4856ZM22.5798 49.9439C23.785 48.2184 24.0134 45.3363 23.145 42.7761C22.999 42.3419 22.752 41.8927 22.3964 41.4136C22.6172 41.3313 22.8081 41.2864 22.9803 41.2789L23.1562 41.2677C24.3577 41.2003 26.8581 41.0581 32.5287 45.0144C32.1581 45.8004 31.694 46.5191 31.1513 47.1517C29.3434 49.2477 25.7501 52.5678 23.3771 53.4362C23.1151 53.4549 21.6403 53.526 19.7426 53.0319C20.9928 52.201 22.4975 50.06 22.5798 49.9439Z"></path>
<path fill="#19114B" d="M32.9628 44.9096L32.8243 44.7973C30.4363 43.1242 28.591 42.1622 27.1537 41.6083C26.057 43.6744 26.5436 45.617 27.4157 46.4929C28.2504 47.3276 29.2947 47.7468 30.6085 48.2708C30.9042 47.9564 31.1774 47.657 31.4132 47.3837C32.1393 46.5415 32.6334 45.6582 32.9591 44.9096H32.9628Z"></path>
<path fill="#92509F" d="M32.8281 44.7936C32.0383 44.2396 31.3084 43.7642 30.631 43.3563C30.1855 43.8429 29.538 44.0412 28.5424 44.1722C27.1163 44.3631 24.4775 43.7268 22.7145 43.929C20.9516 44.1311 19.81 44.9396 18.9453 46.0325C18.0769 47.1255 18.4026 48.559 19.8137 48.0388C21.2248 47.5185 23.1562 47.8853 24.9266 48.9595C26.0495 49.6408 27.0751 50.5615 27.6253 51.0856C29.1113 49.8391 30.5112 48.4318 31.4207 47.3762C32.1469 46.5341 32.6409 45.6507 32.9666 44.9021L32.8318 44.7898L32.8281 44.7936Z"></path>
<path fill="#19114B" d="M27.745 51.2427C29.1112 50.0974 30.5373 48.7012 31.5628 47.511C32.1991 46.7699 32.7306 45.9202 33.1424 44.9882C33.1761 44.9058 33.1536 44.8123 33.0862 44.7561L32.9515 44.6438C32.9515 44.6438 32.944 44.6364 32.9403 44.6326C32.1804 44.1011 31.4393 43.6145 30.7319 43.1878C30.6533 43.1391 30.5485 43.1541 30.4849 43.2215C30.1143 43.6257 29.5641 43.8354 28.516 43.9776C27.8498 44.0637 26.8953 43.9663 25.8847 43.8615C24.773 43.7455 23.6239 43.6257 22.6919 43.7343C21.0562 43.9214 19.8173 44.6139 18.788 45.9127C18.2415 46.6014 18.1068 47.4698 18.4698 47.9714C18.7506 48.3606 19.2633 48.4542 19.8772 48.2259C21.2209 47.7318 23.07 48.0687 24.818 49.1317C25.9371 49.8129 26.9664 50.7412 27.4792 51.2315C27.5167 51.2689 27.5653 51.2877 27.6177 51.2877C27.6626 51.2877 27.7075 51.2727 27.745 51.2427ZM19.7387 47.8591C19.297 48.02 18.9602 47.9789 18.788 47.7431C18.5671 47.4399 18.6008 46.7811 19.0949 46.1635C20.0531 44.9545 21.2097 44.307 22.7331 44.131C23.6239 44.03 24.7506 44.146 25.8398 44.2583C26.8766 44.3669 27.8535 44.4679 28.5647 44.3744C29.4518 44.2546 30.1555 44.0786 30.657 43.6108C31.3121 44.0113 32.0008 44.4642 32.7007 44.9545L32.7157 44.9657C32.3301 45.8116 31.8436 46.579 31.2597 47.2527C30.279 48.3906 28.9278 49.7156 27.6215 50.8273C27.0638 50.3033 26.0831 49.4424 25.0201 48.7948C23.74 48.0163 22.4 47.6083 21.2172 47.6083C20.6857 47.6083 20.1879 47.6906 19.7387 47.8553V47.8591Z"></path>
<path fill="#2A70AC" d="M7.36785 39.3849C7.85444 40.4292 10.1377 40.3095 11.5001 39.6806C13.2219 38.8871 14.3448 37.5097 14.3448 36.4766C14.3448 35.4436 12.0316 34.519 10.7029 30.7386C10.5382 30.267 9.86818 30.1472 9.27678 30.7835C6.0054 34.3207 7.0497 38.7112 7.36785 39.3887V39.3849Z"></path>
<path fill="#19114B" d="M7.32692 37.723C7.27826 37.1878 7.2895 36.645 7.33067 36.1098C7.43547 35.0393 7.72369 33.995 8.19156 33.0405C8.31508 32.8047 8.44983 32.5764 8.57709 32.3406L9.02999 31.6818L9.53904 31.0642C9.6925 30.8883 9.86842 30.7685 10.0256 30.7311C10.1903 30.6974 10.2801 30.7461 10.3288 30.8247L10.6245 31.5733C10.8641 32.0973 11.1186 32.6138 11.433 33.1004C11.7399 33.587 12.0843 34.0511 12.4586 34.4853C12.8291 34.9195 13.2409 35.32 13.6002 35.7168C13.7836 35.9152 13.9445 36.121 14.0157 36.3044C14.083 36.4542 14.0531 36.7162 13.9782 36.9445C13.8248 37.4124 13.5104 37.854 13.1435 38.2321C12.3949 38.9844 11.4293 39.5646 10.3887 39.7742C9.86842 39.8902 9.32569 39.9239 8.80915 39.8678C8.30759 39.8079 7.78357 39.617 7.63011 39.2576C7.46168 38.8122 7.37184 38.2433 7.32318 37.7193L7.32692 37.723ZM7.85843 40.1896C8.15412 40.3169 8.45731 40.3768 8.75301 40.403C9.34815 40.4479 9.93205 40.3955 10.4972 40.2683C10.7817 40.2084 11.0587 40.1185 11.3357 40.0175C11.6089 39.9052 11.8672 39.7817 12.118 39.6357C12.6233 39.355 13.0949 39.0106 13.5141 38.6026C13.9258 38.1909 14.2964 37.7118 14.506 37.1204C14.5958 36.8247 14.6819 36.5028 14.5621 36.121C14.4386 35.7804 14.2402 35.5446 14.0568 35.3275C13.6788 34.8896 13.3045 34.4966 12.9601 34.0699C12.6158 33.6506 12.3089 33.2015 12.0319 32.7411C11.7474 32.2807 11.5266 31.7866 11.3132 31.2926L11.171 30.9145L11.0999 30.7236L11.0624 30.63C11.0512 30.5964 11.0213 30.5327 10.9988 30.4841C10.894 30.2782 10.7031 30.1135 10.4935 30.0349C10.2802 29.9526 10.0593 29.9488 9.86467 29.9937C9.4754 30.0798 9.17971 30.3156 8.96636 30.5514L8.40117 31.2177L7.90709 31.9401C7.7686 32.1946 7.62262 32.4491 7.48787 32.7074C6.97883 33.7592 6.70933 34.9158 6.63447 36.0686C6.60827 36.645 6.61576 37.2252 6.68687 37.7979C6.7243 38.0861 6.76922 38.3706 6.83285 38.655C6.90397 38.9432 6.96386 39.2127 7.10235 39.5197C7.2633 39.8603 7.57022 40.0774 7.85843 40.2009V40.1896Z"></path>
<path fill="#19114B" d="M20.2666 32.3968C20.1655 34.0774 20.5585 35.3687 21.4793 35.35C22.4001 35.3313 22.9653 34.01 23.085 32.3294C23.2011 30.69 22.8343 29.32 21.8499 29.2639C20.8617 29.2077 20.3676 30.7162 20.2666 32.3968Z"></path>
<path fill="white" d="M23.119 33.0129C23.8575 32.8686 24.3358 32.135 24.1872 31.3741C24.0386 30.6133 23.3195 30.1134 22.581 30.2577C21.8425 30.4019 21.3642 31.1356 21.5128 31.8964C21.6614 32.6572 22.3805 33.1571 23.119 33.0129Z"></path>
</svg>
